<svg width="1180" height="456" viewBox="0 0 1180 456" fill="none" xmlns="http://www.w3.org/2000/svg">
<path d="M307.575 215.002H868.398V453.64H455.512H411.489H307.575V215.002Z" stroke="#105FB0" stroke-width="3"/>
<rect x="828.5" y="23.5" width="350" height="174" fill="white" stroke="#105FB0" stroke-width="3"/>
<path d="M1049.29 87.0547H1095C1095 113.499 1087 134.277 1071 149.388C1055.38 164.499 1034.62 172.055 1008.71 172.055C983.19 172.055 962.429 164.499 946.429 149.388C930.81 134.277 923 113.499 923 87.0547H968.714C968.714 102.921 972.714 114.444 980.714 121.621C988.714 128.421 998.048 131.821 1008.71 131.821C1020.14 131.821 1029.67 128.421 1037.29 121.621C1045.29 114.444 1049.29 102.921 1049.29 87.0547Z" fill="#105FB0"/>
<path d="M999.248 70.2224L999.251 70.2207C1000.84 69.3019 1002.1 68.0846 1003.03 66.5709C1004.01 65.0483 1004.5 63.3724 1004.5 61.5547C1004.5 58.8079 1003.46 56.4444 1001.4 54.4894C999.343 52.5351 996.867 51.5547 994 51.5547C991.133 51.5547 988.657 52.5351 986.6 54.4894C984.542 56.4444 983.5 58.8079 983.5 61.5547C983.5 64.3015 984.542 66.665 986.6 68.62C988.657 70.5743 991.133 71.5547 994 71.5547C995.931 71.5547 997.684 71.1135 999.248 70.2224Z" fill="#105FB0" stroke="#105FB0"/>
<path d="M1037.51 70.2168L1037.51 70.2149C1039.02 69.2935 1040.22 68.0741 1041.11 66.5611C1042.04 65.0395 1042.5 63.3671 1042.5 61.5547C1042.5 58.8165 1041.51 56.4556 1039.56 54.4984C1037.6 52.5411 1035.24 51.5547 1032.5 51.5547C1029.76 51.5547 1027.4 52.5411 1025.44 54.4984C1023.49 56.4556 1022.5 58.8165 1022.5 61.5547C1022.5 64.2929 1023.49 66.6538 1025.44 68.611C1027.4 70.5682 1029.76 71.5547 1032.5 71.5547C1034.34 71.5547 1036.02 71.1112 1037.51 70.2168Z" fill="#105FB0" stroke="#105FB0"/>
<path d="M1.5 23.5H196.845V198.193H53.8037C53.4441 196.542 52.8791 194.59 52.1183 193.141C51.6717 192.291 50.968 191.233 49.8801 190.816C49.2588 190.577 48.5811 190.575 47.9302 190.844C47.3238 191.095 46.8307 191.542 46.4251 192.05C46.3973 192.085 46.3702 192.118 46.3437 192.151C46.3416 192.144 46.3394 192.137 46.3372 192.129C45.9265 190.782 45.2455 188.547 43.6749 186.487C43.2317 185.906 42.598 185.325 41.7286 185.187C40.7928 185.039 40.0429 185.469 39.5524 185.931C39.0759 186.38 38.7044 186.977 38.4076 187.572C38.1019 188.185 37.8283 188.892 37.583 189.64C36.7539 192.168 36.1361 195.51 35.764 198.193H1.5V23.5ZM45.5485 192.986C45.5485 192.985 45.5543 192.981 45.5658 192.975C45.5542 192.983 45.5485 192.986 45.5485 192.986Z" stroke="#105FB0" stroke-width="3"/>
<path d="M80.2795 24.6809C80.8604 15.1654 82.7641 6.74739 84.4427 1.5678L113.756 1.90796C110.405 12.0003 106.734 33.6076 113.792 55.4711L84.3657 55.1296C80.5022 45.4488 79.678 34.5347 80.2795 24.6809Z" fill="white" stroke="#105FB0" stroke-width="3"/>
<path d="M170.563 112.213L168.259 123.445L104.611 151.525L107.347 138.709L156.163 117.109L116.563 95.5094L119.011 84.1335L170.563 112.213Z" fill="#105FB0"/>
<path d="M91.3917 112.213L89.0877 123.445L25.4406 151.525L28.1765 138.709L76.9919 117.109L37.3924 95.5094L39.8404 84.1335L91.3917 112.213Z" fill="#105FB0"/>
<path d="M889.52 215H1178.5V453.64H966.628C966.111 451.337 965.255 448.51 964.091 446.47C963.429 445.311 962.483 444.071 961.156 443.603C960.432 443.347 959.654 443.344 958.888 443.635C958.156 443.913 957.518 444.428 956.955 445.076C956.53 445.565 956.196 445.909 955.937 446.143C955.919 446.099 955.901 446.052 955.882 446.002C955.777 445.723 955.664 445.383 955.534 444.994C954.925 443.16 953.956 440.241 951.712 437.536C951.091 436.786 950.302 436.166 949.319 436.023C948.288 435.873 947.417 436.298 946.777 436.853C946.154 437.392 945.644 438.135 945.217 438.922C944.782 439.724 944.388 440.659 944.031 441.659C942.769 445.197 941.838 449.945 941.302 453.64H889.52V215Z" stroke="#105FB0" stroke-width="3"/>
<path d="M968.366 376.623L1010.94 340.814L955.703 338.67L972.506 282.656L1020.19 309.953L1005.05 258.422L1062.92 257.635L1049.81 309.327L1097.02 281.232L1115.55 336.773L1061.09 343.114L1102.76 377.048L1056.32 412.086L1037.02 360.402L1015.9 411.171L968.366 376.623Z" fill="#105FB0"/>
<path d="M856.431 271.195C871.175 247.463 909.217 208.844 966.702 189.788L984.903 216.969C927.616 230.995 894.929 272.537 879.996 298.956L856.431 271.195Z" fill="white" stroke="#105FB0" stroke-width="3"/>
<path d="M1.5 215.002H293.598V453.64H78.2137H55.1723H1.5V215.002Z" stroke="#105FB0" stroke-width="3"/>
<path d="M169.382 392.763L173.984 403.5C167.988 406.588 161.642 408.764 154.948 410.027C148.255 411.431 141.63 412.132 135.076 412.132C121.409 412.132 109.486 409.185 99.3053 403.29C89.2645 397.394 81.4549 389.324 75.8767 379.077C70.2984 368.831 67.5093 357.321 67.5093 344.548C67.5093 331.775 69.3222 319.704 72.9481 308.335C76.5739 296.965 82.0127 286.93 89.2645 278.227C96.6557 269.384 105.86 262.507 116.877 257.594C128.033 252.541 141.073 250.014 155.994 250.014C172.729 250.014 186.535 253.102 197.413 259.278C208.29 265.454 216.379 273.665 221.678 283.912C226.978 294.158 229.627 305.387 229.627 317.599C229.627 326.441 228.442 334.723 226.071 342.443C223.84 350.022 220.702 356.689 216.658 362.444C212.753 368.199 208.29 372.691 203.27 375.919C198.389 379.007 193.299 380.551 188 380.551C180.748 380.551 174.96 379.218 170.637 376.551C166.454 373.743 163.664 370.024 162.27 365.392C158.505 370.024 154.181 373.743 149.3 376.551C144.419 379.218 139.26 380.551 133.821 380.551C123.78 380.551 115.761 377.042 109.765 370.024C103.768 362.865 100.77 353.391 100.77 341.601C100.77 334.021 101.816 326.722 103.907 319.704C106.139 312.546 109.346 306.159 113.53 300.545C117.714 294.79 122.734 290.298 128.591 287.07C134.448 283.701 141.003 282.017 148.255 282.017C154.391 282.017 159.481 283.28 163.525 285.807C167.709 288.193 170.916 291.562 173.147 295.913L175.658 283.912H198.25L183.188 350.864C183.049 352.268 182.84 353.531 182.561 354.654C182.421 355.777 182.352 356.9 182.352 358.023C182.212 364.339 185.071 367.427 190.928 367.287C194.415 367.287 198.11 365.181 202.015 360.971C205.92 356.619 209.197 350.864 211.847 343.706C214.636 336.548 216.03 328.617 216.03 319.915C216.03 308.545 213.938 298.509 209.755 289.807C205.571 281.105 198.947 274.297 189.882 269.384C180.957 264.472 169.243 262.015 154.739 262.015C142.188 262.015 131.311 264.261 122.106 268.753C112.902 273.104 105.232 279.14 99.0961 286.859C93.0995 294.439 88.5672 303.071 85.4991 312.756C82.5706 322.441 81.1063 332.477 81.1063 342.864C81.1063 353.812 83.3376 363.637 87.8002 372.34C92.4022 380.902 98.887 387.639 107.254 392.552C115.761 397.605 125.732 400.132 137.168 400.132C142.746 400.132 148.255 399.57 153.693 398.447C159.132 397.324 164.362 395.429 169.382 392.763ZM166.454 322.862C166.454 316.686 165.059 311.703 162.27 307.914C159.62 304.124 155.925 302.229 151.183 302.229C146.163 302.229 141.561 304.054 137.377 307.703C133.333 311.353 130.055 316.055 127.545 321.81C125.035 327.424 123.78 333.389 123.78 339.706C123.78 346.022 125.105 351.075 127.754 354.865C130.404 358.514 134.1 360.339 138.841 360.339C144.001 360.339 148.603 358.514 152.647 354.865C156.831 351.215 160.178 346.583 162.688 340.969C165.198 335.214 166.454 329.179 166.454 322.862Z" fill="#105FB0"/>
<path d="M212.933 23.5H815.036V197.906H371.812H324.565H212.933V23.5Z" stroke="#105FB0" stroke-width="3"/>
<path d="M368.296 291.055C369.405 290.628 370.899 290.329 372.776 290.159C374.653 289.903 376.531 289.775 378.408 289.775C386.259 289.775 392.232 291.823 396.328 295.919C400.424 300.015 403.539 306.244 405.672 314.607L424.488 387.055H400.936L393.64 344.047L393.512 343.791L393.384 344.047L385.576 387.055H361.512L383.912 317.039C382.803 314.308 381.565 312.217 380.2 310.767C378.835 309.316 376.787 308.591 374.056 308.591C371.325 308.591 369.405 308.932 368.296 309.615V291.055ZM432.552 290.927C433.661 290.5 435.027 290.201 436.648 290.031C438.355 289.86 440.019 289.775 441.64 289.775C446.931 289.775 451.24 290.756 454.568 292.719C457.981 294.681 460.712 297.54 462.76 301.295C464.893 305.049 466.728 309.7 468.264 315.247L488.232 387.055H466.984L457.512 342.383V342.511L447.656 387.055H425.768L449.064 317.551C447.869 313.967 446.547 311.321 445.096 309.615C443.645 307.823 441.384 306.927 438.312 306.927C437.032 306.927 435.923 307.012 434.984 307.183C434.045 307.353 433.235 307.524 432.552 307.695V290.927ZM496.808 290.799C497.917 290.372 499.197 290.116 500.648 290.031C502.099 289.86 503.549 289.775 505 289.775C510.376 289.775 514.643 290.841 517.8 292.975C520.957 295.023 523.475 298.009 525.352 301.935C527.315 305.86 529.107 310.511 530.728 315.887L551.976 387.055H533.032L521.64 340.975L509.736 387.055H490.024L514.344 318.063C512.979 313.711 511.528 310.511 509.992 308.463C508.456 306.415 505.981 305.391 502.568 305.391C501.459 305.391 500.392 305.433 499.368 305.519C498.429 305.604 497.576 305.732 496.808 305.903V290.799ZM561.064 290.543C563.112 290.031 565.501 289.775 568.232 289.775C573.693 289.775 577.917 290.927 580.904 293.231C583.891 295.449 586.28 298.564 588.072 302.575C589.864 306.5 591.571 311.108 593.192 316.399L615.72 387.055H599.08L585.64 339.567L571.944 387.055H554.28L579.624 318.447C578.088 313.241 576.509 309.487 574.888 307.183C573.352 304.879 570.664 303.727 566.824 303.727C564.776 303.727 562.856 303.855 561.064 304.111V290.543ZM624.808 290.543C626.771 290.031 629.032 289.775 631.592 289.775C636.371 289.775 640.125 290.756 642.856 292.719C645.587 294.596 647.805 297.327 649.512 300.911C651.219 304.409 652.84 308.548 654.376 313.327L679.72 387.055H665.896L649.64 336.111L633 387.055H618.28L644.392 319.215L644.008 317.935C642.813 313.924 641.661 310.724 640.552 308.335C639.443 305.86 638.12 304.068 636.584 302.959C635.048 301.849 632.957 301.295 630.312 301.295C629.288 301.295 628.307 301.337 627.368 301.423C626.515 301.508 625.661 301.636 624.808 301.807V290.543ZM688.424 290.543C690.472 290.031 692.648 289.775 694.952 289.775C699.133 289.775 702.461 290.585 704.936 292.207C707.411 293.828 709.416 296.175 710.952 299.247C712.573 302.233 714.109 305.86 715.56 310.127L743.72 387.055H732.584L713.64 332.655L694.056 387.055H682.28L709.288 319.727L707.24 313.839C705.533 308.463 703.784 304.665 701.992 302.447C700.285 300.143 697.597 298.991 693.928 298.991C692.819 298.991 691.837 299.033 690.984 299.119C690.131 299.204 689.277 299.332 688.424 299.503V290.543ZM752.424 290.543C754.472 290.031 756.648 289.775 758.952 289.775C763.133 289.775 766.461 290.585 768.936 292.207C771.411 293.828 773.416 296.175 774.952 299.247C776.573 302.233 778.109 305.86 779.56 310.127L807.72 387.055H796.584L777.64 332.655L758.056 387.055H746.28L773.288 319.727L771.24 313.839C769.533 308.463 767.784 304.665 765.992 302.447C764.285 300.143 761.597 298.991 757.928 298.991C756.819 298.991 755.837 299.033 754.984 299.119C754.131 299.204 753.277 299.332 752.424 299.503V290.543Z" fill="#105FB0"/>
</svg>
