<svg width="1176" height="139" viewBox="0 0 1176 139" fill="none" xmlns="http://www.w3.org/2000/svg">
<path d="M46.6742 95.1053C37.7665 95.1053 29.7739 93.0934 22.6965 89.0697C15.7411 85.0461 10.189 79.4373 6.04019 72.2434C2.0134 65.0496 0 56.8193 0 47.5526C0 38.164 2.0134 29.9338 6.04019 22.8619C10.189 15.668 15.7411 10.0592 22.6965 6.03554C29.7739 2.01185 37.7665 0 46.6742 0C55.582 0 63.5136 2.01185 70.4689 6.03554C77.5463 10.0592 83.0984 15.668 87.1252 22.8619C91.274 29.9338 93.3484 38.164 93.3484 47.5526C93.3484 56.8193 91.274 65.0496 87.1252 72.2434C83.0984 79.4373 77.5463 85.0461 70.4689 89.0697C63.5136 93.0934 55.582 95.1053 46.6742 95.1053ZM46.6742 74.9868C53.7516 74.9868 59.6088 72.4873 64.2457 67.4882C69.0046 62.3671 71.3841 55.7219 71.3841 47.5526C71.3841 39.2614 69.0046 32.6162 64.2457 27.6171C59.6088 22.618 53.7516 20.1184 46.6742 20.1184C39.5968 20.1184 33.6787 22.618 28.9197 27.6171C24.2828 32.6162 21.9643 39.2614 21.9643 47.5526C21.9643 55.7219 24.2828 62.3671 28.9197 67.4882C33.6787 72.4873 39.5968 74.9868 46.6742 74.9868Z" fill="#105FB0"/>
<path d="M133.124 83.0342C133.124 87.9114 131.843 93.4592 129.281 99.6776C126.718 106.018 123.302 112.419 119.031 118.882H106.95C109.635 114.492 111.953 110.347 113.906 106.445C115.858 102.543 117.322 98.7632 118.299 95.1053C114.516 94.9833 111.404 93.6421 108.964 91.0816C106.523 88.3991 105.303 85.168 105.303 81.3882C105.303 77.4864 106.584 74.2553 109.147 71.6947C111.709 69.0123 115.004 67.6711 119.031 67.6711C122.935 67.6711 126.23 69.0123 128.915 71.6947C131.721 74.3772 133.124 78.157 133.124 83.0342Z" fill="#105FB0"/>
<path d="M213.552 93.2763H191.587V1.82896H253.088V21.9474H213.552V93.2763Z" fill="#105FB0"/>
<path d="M291.485 139H269.521V1.82896H291.485V13.3513C294.902 9.08377 298.929 5.79166 303.565 3.475C308.324 1.15833 313.449 0 318.941 0C327.36 0 334.865 2.01185 341.454 6.03554C348.043 10.0592 353.229 15.668 357.012 22.8619C360.917 29.9338 362.869 38.164 362.869 47.5526C362.869 56.8193 360.917 65.0496 357.012 72.2434C353.229 79.4373 348.043 85.0461 341.454 89.0697C334.865 93.0934 327.36 95.1053 318.941 95.1053C313.449 95.1053 308.324 93.9469 303.565 91.6303C298.929 89.3136 294.902 86.0215 291.485 81.7539V139ZM316.195 74.9868C323.272 74.9868 329.13 72.4873 333.766 67.4882C338.525 62.3671 340.905 55.7219 340.905 47.5526C340.905 39.2614 338.525 32.6162 333.766 27.6171C329.13 22.618 323.272 20.1184 316.195 20.1184C309.118 20.1184 303.199 22.618 298.44 27.6171C293.804 32.6162 291.485 39.2614 291.485 47.5526C291.485 55.7219 293.804 62.3671 298.44 67.4882C303.199 72.4873 309.118 74.9868 316.195 74.9868Z" fill="#105FB0"/>
<path d="M466.144 54.8684H397.323C398.543 61.5746 401.228 66.7566 405.376 70.4145C409.647 74.0724 415.199 75.9013 422.033 75.9013C426.914 75.9013 430.818 75.0478 433.747 73.3408C436.676 71.5118 438.872 69.0123 440.336 65.8421H464.131C461.447 75.3526 456.322 82.6075 448.756 87.6066C441.191 92.6057 431.978 95.1053 421.118 95.1053C412.454 95.1053 404.644 93.0934 397.689 89.0697C390.856 85.0461 385.487 79.4373 381.582 72.2434C377.677 65.0496 375.725 56.8193 375.725 47.5526C375.725 38.164 377.677 29.9338 381.582 22.8619C385.487 15.668 390.856 10.0592 397.689 6.03554C404.644 2.01185 412.454 0 421.118 0C429.903 0 437.713 2.01185 444.546 6.03554C451.38 10.0592 456.749 15.668 460.653 22.8619C464.558 29.9338 466.511 38.164 466.511 47.5526C466.511 48.7719 466.45 49.9912 466.327 51.2105C466.327 52.4298 466.267 53.6491 466.144 54.8684ZM421.118 19.204C414.65 19.204 409.403 20.9719 405.376 24.5079C401.35 27.9219 398.726 32.8601 397.506 39.3224H444.729C443.509 32.8601 440.885 27.9219 436.859 24.5079C432.832 20.9719 427.585 19.204 421.118 19.204Z" fill="#105FB0"/>
<path d="M507.768 1.82896V73.1579H543.46V1.82896H565.424V73.1579H578.237V117.967H558.103V93.2763H485.804V1.82896H507.768Z" fill="#105FB0"/>
<path d="M680.666 93.2763H659.617V25.0566L623.741 93.2763H595.554V1.82896H616.603V70.2316L652.478 1.82896H680.666V93.2763Z" fill="#105FB0"/>
<path d="M705.138 30.5434C705.138 23.5934 706.725 18.0456 709.897 13.9C713.192 9.63246 717.463 6.58422 722.71 4.75527C728.079 2.80439 733.814 1.82896 739.915 1.82896H780V93.2763H758.036V53.5882L723.625 93.2763H698.183L729.665 58.5263C725.272 57.6728 721.184 56.0877 717.402 53.7711C713.741 51.3325 710.751 48.2233 708.433 44.4434C706.236 40.5417 705.138 35.9083 705.138 30.5434ZM743.393 43.8947H758.036V18.2895H743.393C738.268 18.2895 734.241 19.3868 731.312 21.5816C728.506 23.7763 727.103 26.8246 727.103 30.7263C727.103 35.2377 728.567 38.5908 731.495 40.7855C734.424 42.8583 738.39 43.8947 743.393 43.8947Z" fill="#105FB0"/>
<path d="M776 3H1176" stroke="#105FB0" stroke-width="2"/>
<path d="M777 92H1176" stroke="#105FB0" stroke-width="2"/>
<path d="M973.562 91.3457C973.753 91.8639 974.327 92.1293 974.846 91.9384L983.291 88.8275C983.809 88.6366 984.075 88.0617 983.884 87.5435C983.693 87.0252 983.118 86.7599 982.6 86.9508L975.093 89.716L972.328 82.2091C972.137 81.6908 971.562 81.4255 971.044 81.6164C970.525 81.8073 970.26 82.3821 970.451 82.9004L973.562 91.3457ZM976.099 45.9014L976.473 44.9739L976.099 45.9014ZM972.933 4.13977C972.734 3.62456 972.155 3.36819 971.64 3.56714L963.244 6.80924C962.729 7.00819 962.472 7.58713 962.671 8.10233C962.87 8.61754 963.449 8.87391 963.964 8.67496L971.427 5.7931L974.309 13.256C974.508 13.7712 975.087 14.0276 975.602 13.8286C976.118 13.6297 976.374 13.0507 976.175 12.5355L972.933 4.13977ZM975.408 91.4191C977.223 87.4875 979.843 83.3967 982.409 79.2141C984.951 75.0702 987.437 70.8385 988.856 66.746C990.279 62.642 990.678 58.537 988.863 54.7311C987.053 50.9389 983.15 47.6657 976.473 44.9739L975.725 46.8289C982.171 49.4274 985.552 52.4366 987.058 55.5923C988.557 58.7344 988.301 62.2427 986.966 66.0908C985.628 69.9503 983.255 74.0094 980.704 78.1684C978.177 82.2886 975.47 86.5125 973.592 90.5809L975.408 91.4191ZM976.473 44.9739C971.753 43.0711 968.902 40.4212 967.296 37.3886C965.68 34.3397 965.265 30.7959 965.62 27.0188C966.334 19.4164 970.123 11.2074 972.914 4.90491L971.086 4.09509C968.341 10.2926 964.38 18.8336 963.629 26.8316C963.25 30.8546 963.673 34.8236 965.528 38.3251C967.392 41.8429 970.646 44.781 975.725 46.8289L976.473 44.9739Z" fill="#105FB0"/>
</svg>
