<svg width="1035" height="594" viewBox="0 0 1035 594" fill="none" xmlns="http://www.w3.org/2000/svg">
<path d="M713.384 256.331C660.715 261.067 639.195 240.158 635.019 229.112C616.628 253.357 576.624 264.875 558.921 267.604C549.228 268.921 527.814 262.921 519.702 228.385C511.59 193.848 523.291 184.394 530.155 183.984C538.835 187.115 557.663 190.07 563.54 176.844C570.885 160.311 578.737 116.466 590.378 122.138C602.019 127.809 651.385 112.717 636.681 99.0864C621.978 85.4555 639.305 41.3978 649.55 53.2618C659.795 65.1259 671.286 59.4946 679.499 42.7763C687.711 26.0579 703.227 22.2862 722.822 37.5912C742.418 52.8962 759.915 47.7937 758.432 40.8568C756.948 33.9198 781.731 7.76333 784.42 20.3366C786.572 30.3952 797.306 36.7744 802.404 38.7066C812.281 42.4884 827.077 57.8224 807.246 88.9044C787.415 119.986 799.344 128.982 807.787 129.594C820.143 128.009 847.239 127.504 856.772 138.16C866.305 148.816 844.033 167.635 831.706 175.712C839.271 177.872 849.514 184.78 829.964 195.127C810.414 205.474 806.369 219.065 806.79 224.566C816.291 237.194 829.491 262.874 806.278 264.574C783.065 266.274 773.75 272.891 771.994 275.987C774.403 267.462 766.052 251.596 713.384 256.331Z" fill="white" stroke="#105FB0" stroke-width="3"/>
<path d="M110.051 258.819C88.7905 220.889 97.2456 197.711 104.131 190.864C79.7541 185.215 57.6618 159.068 49.6627 146.7C45.4154 139.87 42.7182 121.784 65.9072 104.086C89.0963 86.3876 100.125 91.9892 102.74 97.0023C103.309 104.568 107.421 119.69 119.321 119.653C134.197 119.607 169.738 110.759 169.396 121.401C169.054 132.043 196.975 164.013 202.261 148.397C207.546 132.781 246.432 130.972 240.974 142.648C235.515 154.325 243.604 161.054 258.911 161.596C274.217 162.138 282.264 172.513 277.367 192.363C272.47 212.213 282.181 223.628 286.888 220.182C291.595 216.737 319.555 226.54 311.024 232.785C304.199 237.781 303.021 247.981 303.285 252.456C303.768 261.139 297.235 277.397 267.244 272.966C237.253 268.534 234.514 280.51 236.893 287.052C242.236 295.791 251.725 315.953 246.933 326.69C242.142 337.426 220.533 327.04 210.327 320.505C211.25 326.908 209.51 336.916 195.173 325.725C180.836 314.533 169.277 316.067 165.29 318.232C159.009 329.607 144.176 348.146 135.096 331.299C126.017 314.452 117.92 309.686 115.006 309.409C122.213 308.35 131.312 296.75 110.051 258.819Z" fill="white" stroke="#105FB0" stroke-width="3"/>
<path d="M636.699 198.539L610.062 233.213L505.546 239.716L490.556 180.779L531.464 134.407C586.832 104.916 611.023 108.42 616.198 113.858L636.699 198.539Z" fill="white"/>
<path d="M490.556 180.779C510.786 170.004 558.57 147.83 587.86 145.34M490.556 180.779L531.464 134.407C586.832 104.916 611.023 108.42 616.198 113.858M490.556 180.779L505.546 239.716L610.062 233.213M587.86 145.34L610.062 233.213M587.86 145.34L616.198 113.858M610.062 233.213L636.699 198.539L616.198 113.858" stroke="#105FB0" stroke-width="3"/>
<path d="M851.817 228.779C915.603 262.374 972.962 181.39 977.472 170.239C995.036 126.807 950.992 99.4117 902.258 103.615C853.524 107.818 788.031 195.184 851.817 228.779Z" fill="white" stroke="#105FB0" stroke-width="3"/>
<path d="M938.026 130.848L955.309 135.266M938.026 130.848L952.856 145.635M938.026 130.848L919.763 132.356M938.026 130.848L926.655 119.512" stroke="#105FB0" stroke-width="3"/>
<path d="M268.462 108.776C289.322 172.315 350.273 174.561 380.459 172.955L347.57 242.004C240.082 230.861 244.496 174.488 243.665 168.719C243 164.104 261.465 130.309 268.462 108.776Z" fill="white"/>
<path d="M267.996 105.113L360.685 115.495L380.459 172.955M380.459 172.955C350.273 174.561 289.322 172.315 268.462 108.776C261.465 130.309 243 164.104 243.665 168.719C244.496 174.488 240.082 230.861 347.57 242.004L380.459 172.955Z" stroke="#105FB0" stroke-width="3"/>
<path d="M490.123 218.291C525.358 155.397 445.887 95.9598 434.856 91.1628C391.894 72.4798 363.367 115.8 366.307 164.627C369.247 213.453 454.888 281.186 490.123 218.291Z" fill="white" stroke="#105FB0" stroke-width="3"/>
<path d="M413.981 112.486L431.519 109.224M413.981 112.486L433.656 119.664M413.981 112.486L398.047 121.536M413.981 112.486L398.897 106.984" stroke="#105FB0" stroke-width="3"/>
<path d="M79.966 185.779H990.689L941.821 307.949L141.5 341.5L115.506 312.947L79.966 185.779Z" fill="white"/>
<path d="M873.78 185.779H84.4085C86.3153 210.008 91.0547 238.661 99.3403 269.366M579.081 592.273H494.882C414.444 591.152 348.534 571.419 294.908 540.531C183.061 476.11 124.653 363.167 99.3403 269.366M99.3403 269.366H970.697" stroke="#105FB0" stroke-width="3"/>
<path d="M196.583 185.779H985.136C974.622 318.193 877.893 588.091 575.088 592.273" stroke="#105FB0" stroke-width="3"/>
<path d="M166.425 256.441L166.425 203.813C188.591 203.813 210.39 203.813 238.558 203.813L238.558 240.395C231.744 240.395 210.843 240.395 203.01 240.395L203.01 226.716C208.533 226.716 216.889 226.716 221.489 226.716L221.489 214.577C209.461 214.577 194.606 214.577 187.465 214.577L187.465 254.584C199.05 254.584 229.305 254.584 251.56 254.584" stroke="#105FB0" stroke-width="4"/>
<path d="M83.1274 256.441L83.1274 203.813C105.293 203.813 127.092 203.813 155.26 203.813L155.26 240.395C148.447 240.395 127.545 240.395 119.712 240.395L119.712 226.716C125.235 226.716 133.591 226.716 138.191 226.716L138.191 214.577C126.163 214.577 111.308 214.577 104.167 214.577L104.167 254.584C115.752 254.584 146.007 254.584 168.262 254.584" stroke="#105FB0" stroke-width="4"/>
<path d="M333.021 256.441L333.021 203.813C355.187 203.813 376.985 203.813 405.154 203.813L405.154 240.395C398.34 240.395 377.439 240.395 369.605 240.395L369.605 226.716C375.128 226.716 383.484 226.716 388.084 226.716L388.084 214.577C376.057 214.577 361.201 214.577 354.061 214.577L354.061 254.584C365.646 254.584 395.9 254.584 418.155 254.584" stroke="#105FB0" stroke-width="4"/>
<path d="M499.617 256.441L499.617 203.813C521.783 203.813 543.581 203.813 571.749 203.813L571.749 240.395C564.936 240.395 544.034 240.395 536.201 240.395L536.201 226.716C541.724 226.716 550.08 226.716 554.68 226.716L554.68 214.577C542.652 214.577 527.797 214.577 520.656 214.577L520.656 254.584C532.241 254.584 562.496 254.584 584.751 254.584" stroke="#105FB0" stroke-width="4"/>
<path d="M666.212 256.441L666.212 203.813C688.378 203.813 710.176 203.813 738.345 203.813L738.345 240.395C731.531 240.395 710.63 240.395 702.796 240.395L702.796 226.716C708.32 226.716 716.676 226.716 721.276 226.716L721.276 214.577C709.248 214.577 694.392 214.577 687.252 214.577L687.252 254.584C698.837 254.584 729.092 254.584 751.346 254.584" stroke="#105FB0" stroke-width="4"/>
<path d="M249.723 256.441L249.723 203.813C271.889 203.813 293.687 203.813 321.856 203.813L321.856 240.395C315.042 240.395 294.141 240.395 286.307 240.395L286.307 226.716C291.83 226.716 300.187 226.716 304.787 226.716L304.787 214.577C292.759 214.577 277.903 214.577 270.763 214.577L270.763 254.584C282.348 254.584 312.602 254.584 334.857 254.584" stroke="#105FB0" stroke-width="4"/>
<path d="M416.319 256.441L416.319 203.813C438.485 203.813 460.283 203.813 488.451 203.813L488.451 240.395C481.638 240.395 460.736 240.395 452.903 240.395L452.903 226.716C458.426 226.716 466.782 226.716 471.382 226.716L471.382 214.577C459.355 214.577 444.499 214.577 437.358 214.577L437.358 254.584C448.944 254.584 479.198 254.584 501.453 254.584" stroke="#105FB0" stroke-width="4"/>
<path d="M582.914 256.441L582.914 203.813C605.08 203.813 626.879 203.813 655.047 203.813L655.047 240.395C648.234 240.395 627.332 240.395 619.499 240.395L619.499 226.716C625.022 226.716 633.378 226.716 637.978 226.716L637.978 214.577C625.95 214.577 611.095 214.577 603.954 214.577L603.954 254.584C615.539 254.584 645.794 254.584 668.049 254.584" stroke="#105FB0" stroke-width="4"/>
<path d="M749.51 256.441L749.51 203.813C771.676 203.813 793.474 203.813 821.643 203.813L821.643 240.395C814.829 240.395 793.928 240.395 786.094 240.395L786.094 226.716C791.617 226.716 799.974 226.716 804.574 226.716L804.574 214.577C792.546 214.577 777.69 214.577 770.55 214.577L770.55 254.584C782.135 254.584 812.389 254.584 834.644 254.584" stroke="#105FB0" stroke-width="4"/>
<path d="M832.808 256.441L832.808 203.813C854.974 203.813 876.772 203.813 904.941 203.813L904.941 240.395C898.127 240.395 877.226 240.395 869.392 240.395L869.392 226.716C874.915 226.716 883.271 226.716 887.871 226.716L887.871 214.577C875.844 214.577 860.988 214.577 853.848 214.577L853.848 254.584C865.433 254.584 895.687 254.584 917.942 254.584" stroke="#105FB0" stroke-width="4"/>
<path d="M916.106 256.441L916.106 203.813C938.272 203.813 960.07 203.813 988.238 203.813L988.238 240.395C981.425 240.395 960.523 240.395 952.69 240.395L952.69 226.716C958.213 226.716 966.569 226.716 971.169 226.716L971.169 214.577C959.142 214.577 944.286 214.577 937.145 214.577L937.145 254.584C948.731 254.584 978.985 254.584 1001.24 254.584" stroke="#105FB0" stroke-width="4"/>
<path d="M94 264.272L84 200.272C80.4815 201.192 73.1111 203.693 71.7778 206.341C70.1111 209.652 69 252.686 69 254.893C69 256.659 85.6667 261.882 94 264.272Z" fill="white"/>
<path d="M795 528.272H277L296.966 541.272H773.37L795 528.272Z" stroke="#105FB0" stroke-width="3"/>
<path d="M737 559.272H331L367.5 572.272H533.929L700 573L737 559.272Z" stroke="#105FB0" stroke-width="3"/>
<path d="M970.509 277.267C976.624 256.654 985.52 207.629 986.076 199.272C995.712 200.572 1015.88 203.395 1017.21 204.286C1018.54 205.178 1029.63 239.198 1035 256.097C1009.61 270.953 964.727 296.755 970.509 277.267Z" fill="white"/>
<path d="M974.5 258.499L979.5 236.499C981.833 237.833 986.5 240.8 986.5 242C986.5 243.2 988.5 251.499 989.5 255.499L974.5 258.499Z" fill="white"/>
<path d="M983 217L985.5 198L990 197.5L995.5 205L983 217Z" fill="white"/>
</svg>
