<svg width="495" height="568" viewBox="0 0 495 568" fill="none" xmlns="http://www.w3.org/2000/svg">
<path d="M55.9966 423.771C49.2873 364.981 49.1469 240.399 97.8697 213.448C120.851 200.736 125.413 224.961 121.392 261.757C134.097 266.719 156.269 284.241 143.314 314.635C127.121 352.628 114.115 355.019 101.861 356.037C97.7016 371.361 93.3865 385.908 89.397 398.486C110.754 374.754 154.421 321.521 158.229 298.44C162.989 269.589 104.641 110.389 153.812 110.203C193.148 110.054 187.151 222.589 179.235 278.876C203.624 198.647 260.11 47.2722 290.946 83.6054C321.782 119.939 290.041 169.912 270.315 190.357C284.319 177.315 312.478 158.137 313.085 185.767C313.692 213.398 235.581 260.949 196.449 281.271L181.448 303.076C240.54 265.621 362.843 203.371 379.311 254.008C395.779 304.645 251.148 323.313 176.775 326.317L126.735 382.599C159.996 360.758 231.295 326.032 250.408 361.859C264.946 389.112 237.766 399.69 211.212 402.764C246.657 403.216 291.527 412.162 292.67 445.739C294.093 487.537 146.454 455.379 72.4568 434.075C60.694 431.301 56.5822 426.049 55.9966 423.771Z" fill="#105FB0"/>
<path d="M121.392 261.757C125.413 224.961 120.851 200.736 97.8697 213.448C49.1469 240.399 49.2873 364.981 55.9966 423.771C56.5822 426.049 60.694 431.301 72.4568 434.075C146.454 455.379 294.093 487.537 292.67 445.739C291.247 403.941 222.066 400.313 187.653 403.723C216.535 404.696 269.52 397.686 250.408 361.859C231.295 326.032 159.996 360.758 126.735 382.599L176.775 326.317C251.148 323.313 395.779 304.645 379.311 254.008C362.843 203.371 240.54 265.621 181.448 303.076L196.449 281.271C235.581 260.949 313.692 213.398 313.085 185.767C312.478 158.137 284.319 177.315 270.315 190.357C290.041 169.912 321.782 119.939 290.946 83.6054C260.11 47.2722 203.624 198.647 179.235 278.876C187.151 222.589 193.148 110.054 153.812 110.203C104.641 110.389 162.989 269.589 158.229 298.44C154.421 321.521 110.754 374.754 89.397 398.486C93.3865 385.908 97.7016 371.361 101.861 356.037M121.392 261.757C134.097 266.719 156.269 284.241 143.314 314.635C127.121 352.628 114.115 355.019 101.861 356.037M121.392 261.757C111.48 258.717 88.3299 261.31 75.0262 296C61.7225 330.69 87.373 350.479 101.861 356.037" stroke="white" stroke-width="3"/>
<path d="M120.871 283.972L134.594 290.826M120.871 283.972L130.647 299.096M120.871 283.972L105.249 281.92M120.871 283.972L113.376 272.378" stroke="white" stroke-width="3"/>
</svg>
