<svg width="988" height="529" viewBox="0 0 988 529" fill="none" xmlns="http://www.w3.org/2000/svg">
<path d="M0 493.039V196H144.796V232.437H39.6701V314.024H80.9271C105.258 314.024 125.225 320.757 140.829 334.222C156.433 347.424 164.234 368.151 164.234 396.403V411.453C164.234 430.727 160.664 446.437 153.523 458.583C146.383 470.464 136.598 479.178 124.168 484.722C111.738 490.267 97.3241 493.039 80.9271 493.039H0ZM75.77 350.461H39.6701V456.603H76.5634C93.4893 456.603 105.655 452.51 113.06 444.325C120.729 436.14 124.564 423.598 124.564 406.7V399.967C124.564 382.805 120.729 370.263 113.06 362.342C105.39 354.421 92.9604 350.461 75.77 350.461Z" fill="white"/>
<path d="M305.172 294.221C321.833 294.221 337.172 298.578 351.189 307.291C365.206 315.74 376.446 327.622 384.909 342.936C393.636 357.986 398 375.544 398 395.611C398 415.413 393.636 432.971 384.909 448.286C376.181 463.6 364.148 475.613 348.809 484.326C333.734 492.775 316.676 497 297.635 497C278.857 497 261.799 492.775 246.46 484.326C231.385 475.613 219.352 463.732 210.36 448.682C201.633 433.368 197.269 415.941 197.269 396.403V326.301C197.269 300.426 200.575 279.963 207.187 264.913C213.798 249.863 223.716 238.642 236.939 231.249C250.427 223.592 267.353 218.311 287.717 215.407L335.718 208.674C342.594 207.618 347.09 205.901 349.206 203.525C351.321 201.149 352.512 198.64 352.776 196H392.446C392.182 206.825 390.198 215.407 386.496 221.743C382.793 228.08 376.71 232.965 368.247 236.397C360.049 239.566 348.809 242.074 334.528 243.922L291.287 250.259C277.006 252.107 265.766 255.54 257.568 260.557C249.369 265.573 243.551 273.098 240.113 283.132C236.675 292.901 234.956 306.367 234.956 323.529V331.054C240.774 319.964 249.634 311.119 261.535 304.518C273.7 297.654 288.246 294.221 305.172 294.221ZM297.635 460.563C315.618 460.563 330.164 454.49 341.272 442.345C352.644 430.199 358.33 414.621 358.33 395.611C358.33 382.937 355.685 371.715 350.396 361.946C345.371 352.177 338.23 344.52 328.974 338.975C319.982 333.43 309.536 330.658 297.635 330.658C279.915 330.658 265.37 336.731 253.997 348.876C242.625 360.758 236.939 376.336 236.939 395.611C236.939 414.885 242.625 430.595 253.997 442.741C265.37 454.622 279.915 460.563 297.635 460.563Z" fill="white"/>
<path d="M441.5 203C441.5 241.404 410.812 272.5 373 272.5C335.188 272.5 304.5 241.404 304.5 203C304.5 164.596 335.188 133.5 373 133.5C410.812 133.5 441.5 164.596 441.5 203Z" stroke="white" stroke-width="3"/>
<path d="M904.5 264C904.5 364.796 823.012 446.5 722.5 446.5C621.988 446.5 540.5 364.796 540.5 264C540.5 163.204 621.988 81.5 722.5 81.5C823.012 81.5 904.5 163.204 904.5 264Z" fill="#105FB0" stroke="white" stroke-width="3"/>
<path d="M538.86 311.732L537.908 311.867L538.005 312.824L547.994 411.101L548.1 412.142L549.135 411.989L670.091 394.123C670.094 394.123 670.097 394.122 670.101 394.122C710.087 388.906 741.62 381.82 764.662 372.844L764.67 372.841L764.678 372.838C788.509 363.096 805.724 349.195 816.217 331.093C826.691 313.026 832.258 288.643 833 258.024L833.025 257H832H721.015H720.109L720.02 257.901C719.305 265.099 716.085 271.982 710.277 278.557C707.464 281.741 703.003 284.552 696.794 286.941C690.595 289.326 682.719 291.266 673.145 292.748C673.143 292.748 673.141 292.749 673.139 292.749L538.86 311.732Z" fill="white" stroke="#105FB0" stroke-width="2"/>
<path d="M620.269 417.057C577.465 390.043 547.602 328.513 543.62 303.5L528.689 303C526.2 310.337 519.63 347.122 513.259 435.566C505.296 546.121 683.897 457.212 620.269 417.057Z" fill="#105FB0"/>
<path d="M646.918 85.9266L626.177 37.9262C638.402 31.7169 670.297 19.4081 701.53 18.9749M703.215 18.9631C702.653 18.9631 702.092 18.9671 701.53 18.9749M701.53 18.9749L703.215 58.0746C696.499 58.6672 681.526 60.5635 675.363 63.4079L670.622 51.556C674.573 50.1733 683.304 47.5263 686.622 48.0004V34.3707C676.153 35.7534 654.385 39.467 651.066 43.2596L662.326 80.5932C672.4 76.4451 698.237 68.7413 720.993 71.1117" stroke="white" stroke-width="4"/>
<path d="M720.993 73.4821L721.449 17.3418C735.141 16.6092 769.29 18.2569 798.027 30.4966M799.573 31.1677C799.059 30.9405 798.544 30.7168 798.027 30.4966M798.027 30.4966L783.749 66.9352C777.368 64.76 762.907 60.4364 756.121 60.5443L756.58 47.7876C760.752 48.1215 769.808 49.2332 772.651 51.0093L778.165 38.5449C768.032 35.5738 746.622 30.163 742.053 32.2888L737.245 70.9858C748.136 71.268 774.881 74.6761 794.733 86.0503" stroke="white" stroke-width="4"/>
<path d="M794.379 88.3198L816.519 36.7274C829.428 41.3485 860.28 56.0787 882.045 78.4826M883.211 79.6995C882.825 79.2914 882.436 78.8857 882.045 78.4826M882.045 78.4826L854.782 106.561C849.739 102.086 838.077 92.505 831.777 89.9789L837.136 78.3933C840.854 80.3152 848.774 84.8435 850.709 87.5812L860.616 78.2205C852.421 71.5605 834.771 58.2886 829.736 58.4812L810.332 92.3054C820.266 96.779 843.61 110.268 857.515 128.436" stroke="white" stroke-width="4"/>
<path d="M913.631 262.562L969.772 262.962C970.519 276.652 968.906 310.803 956.696 339.552M956.026 341.099C956.253 340.585 956.476 340.07 956.696 339.552M956.696 339.552L920.242 325.312C922.411 318.928 926.72 304.464 926.605 297.677L939.362 298.123C939.033 302.296 937.93 311.352 936.157 314.197L948.627 319.699C951.588 309.562 956.977 288.147 954.846 283.58L916.144 278.812C915.873 289.704 912.492 316.452 901.139 336.315" stroke="white" stroke-width="4"/>
<path d="M798.658 439.754L820.226 491.589C807.915 497.625 775.849 509.484 744.614 509.477M742.929 509.465C743.49 509.473 744.052 509.477 744.614 509.477M744.614 509.477L743.48 470.357C750.203 469.859 765.202 468.174 771.404 465.417L775.977 477.334C772.008 478.661 763.24 481.185 759.929 480.664L759.737 494.293C770.224 493.057 792.043 489.651 795.414 485.905L784.682 448.417C774.55 452.423 748.607 459.762 725.887 457.071" stroke="white" stroke-width="4"/>
<path d="M588.396 400.989L548.31 440.297C538.126 431.117 515.186 405.767 503.569 376.773M502.953 375.204C503.154 375.728 503.36 376.251 503.569 376.773M503.569 376.773L539.457 361.162C542.421 367.218 549.566 380.511 554.434 385.242L545.074 393.922C542.365 390.731 536.76 383.533 536.011 380.265L523.29 385.159C528.34 394.434 539.621 413.417 544.352 415.153L575.154 391.24C567.666 383.327 551.199 361.978 545.242 339.889" stroke="white" stroke-width="4"/>
<path d="M545.718 192.681L494.423 169.861C499.215 157.014 514.352 126.36 537.042 104.893M538.275 103.744C537.861 104.124 537.451 104.507 537.042 104.893M537.042 104.893L564.757 132.525C560.216 137.509 550.482 149.043 547.872 155.309L536.359 149.797C538.33 146.105 542.962 138.245 545.725 136.347L536.497 126.317C529.729 134.423 516.224 151.895 516.35 156.933L549.915 176.783C554.519 166.909 568.316 143.745 586.667 130.082" stroke="white" stroke-width="4"/>
<path d="M856.683 130.288L895.076 89.326C905.638 98.0688 929.626 122.429 942.455 150.908M943.136 152.45C942.913 151.935 942.686 151.421 942.455 150.908M942.455 150.908L907.257 168.018C904.04 162.092 896.341 149.112 891.278 144.59L900.263 135.523C903.104 138.597 909.008 145.553 909.894 148.786L922.397 143.361C916.962 134.307 904.89 115.816 900.09 114.281L870.323 139.471C878.139 147.061 895.49 167.697 902.373 189.516" stroke="white" stroke-width="4"/>
<path d="M899.108 336.266L951.754 355.769C947.791 368.895 934.639 400.452 913.364 423.322M912.208 424.548C912.596 424.142 912.981 423.733 913.364 423.322M913.364 423.322L883.944 397.513C888.158 392.25 897.137 380.119 899.342 373.699L911.183 378.466C909.452 382.277 905.33 390.416 902.693 392.486L912.543 401.907C918.78 393.386 931.143 375.088 930.696 370.068L895.934 352.399C891.968 362.547 879.676 386.543 862.234 401.349" stroke="white" stroke-width="4"/>
<path d="M725.139 455.183L727.755 511.264C714.124 512.745 679.937 512.969 650.573 502.32M648.992 501.735C649.518 501.934 650.044 502.129 650.573 502.32M650.573 502.32L662.835 465.155C669.326 466.978 684.001 470.503 690.772 470.024L691.011 482.787C686.827 482.682 677.724 482.067 674.788 480.45L669.964 493.197C680.245 495.609 701.919 499.84 706.365 497.467L709.047 458.565C698.157 458.879 671.266 456.94 650.822 446.67" stroke="white" stroke-width="4"/>
<path d="M546.715 338.492L495.636 361.79C489.189 349.69 476.258 318.041 475.215 286.823M475.17 285.138C475.181 285.7 475.196 286.261 475.215 286.823M475.215 286.823L514.274 284.373C514.998 291.077 517.186 306.01 520.151 312.116L508.394 317.088C506.934 313.165 504.117 304.487 504.526 301.16L490.899 301.427C492.486 311.867 496.625 333.558 500.482 336.802L537.588 324.815C533.243 314.823 525.036 289.142 526.961 266.344" stroke="white" stroke-width="4"/>
<path d="M588.508 130.938L548.058 92.0065C556.94 81.561 581.616 57.8981 610.262 45.447M611.812 44.7859C611.294 45.0025 610.778 45.223 610.262 45.447M610.262 45.447L626.904 80.8683C620.937 84.0066 607.855 91.5335 603.267 96.5358L594.32 87.431C597.431 84.631 604.465 78.8201 607.709 77.9769L602.45 65.4027C593.325 70.7181 574.676 82.5436 573.077 87.323L597.871 117.421C605.564 109.707 626.428 92.6298 648.336 86.036" stroke="white" stroke-width="4"/>
<path d="M900.55 189.631L949.494 168.506C955.654 180.755 967.834 212.7 968.141 243.934M968.146 245.619C968.149 245.058 968.147 244.496 968.141 243.934M968.141 243.934L929.035 245.461C928.47 238.743 926.634 223.762 923.814 217.588L935.685 212.895C937.052 216.851 939.664 225.593 939.176 228.909L952.806 228.964C951.465 218.49 947.84 196.707 944.061 193.373L906.682 204.481C910.789 214.572 918.389 240.44 915.926 263.186" stroke="white" stroke-width="4"/>
<path d="M861.422 399.712L899.875 436.634C890.972 447.063 866.251 470.678 837.58 483.073M836.029 483.731C836.547 483.516 837.064 483.296 837.58 483.073M837.58 483.073L821.007 447.62C826.98 444.493 840.077 436.991 844.675 431.998L853.604 441.12C850.487 443.914 843.442 449.711 840.196 450.548L845.431 463.133C854.566 457.835 873.239 446.046 874.846 441.269L850.111 411.124C842.403 418.823 821.506 435.859 799.585 442.41" stroke="white" stroke-width="4"/>
<path d="M652.011 445.282L633.048 495.104C619.97 490.984 588.573 477.455 565.961 455.906M564.749 454.735C565.15 455.128 565.554 455.519 565.961 455.906M565.961 455.906L592.121 426.798C597.333 431.075 609.355 440.199 615.748 442.481L610.84 454.264C607.05 452.487 598.961 448.268 596.922 445.606L587.384 455.342C595.83 461.681 613.977 474.263 619.002 473.876L637.087 439.329C626.988 435.242 603.141 422.663 588.546 405.044" stroke="white" stroke-width="4"/>
<path d="M528.692 266.932L475.391 267.872C474.348 254.2 475.222 220.023 486.808 191.016M487.444 189.455C487.228 189.974 487.016 190.494 486.808 191.016M486.808 191.016L523.56 204.465C521.53 210.894 517.535 225.448 517.797 232.231L505.033 232.06C505.272 227.882 506.179 218.803 507.89 215.921L495.304 210.69C492.563 220.889 487.639 242.415 489.867 246.935L528.663 250.865C528.699 239.97 531.5 213.155 542.422 193.051" stroke="white" stroke-width="4"/>
</svg>
