<svg width="1184" height="486" viewBox="0 0 1184 486" fill="none" xmlns="http://www.w3.org/2000/svg">
<path d="M257.48 184.28C254.408 184.28 251.379 183.64 248.392 182.36C245.491 180.995 243.059 178.989 241.096 176.344C239.219 173.613 238.28 170.243 238.28 166.232C238.28 161.965 239.176 158.637 240.968 156.248C242.845 153.773 245.192 151.939 248.008 150.744C250.909 149.549 253.981 148.696 257.224 148.184C260.467 147.587 263.496 147.075 266.312 146.648C269.213 146.221 271.56 145.581 273.352 144.728C275.229 143.875 276.168 142.509 276.168 140.632C276.168 137.219 274.461 135.512 271.048 135.512C268.659 135.512 267.08 136.109 266.312 137.304C265.544 138.413 265.16 139.949 265.16 141.912H240.2C240.2 137.56 241.139 133.848 243.016 130.776C244.893 127.704 247.368 125.229 250.44 123.352C253.597 121.389 257.139 119.981 261.064 119.128C264.989 118.189 269 117.72 273.096 117.72C278.557 117.72 283.635 118.488 288.328 120.024C293.107 121.56 296.947 124.035 299.848 127.448C302.749 130.776 304.2 135.213 304.2 140.76V183H277.832V172.632C275.955 176.728 273.224 179.715 269.64 181.592C266.141 183.384 262.088 184.28 257.48 184.28ZM265.032 163.16C265.032 164.781 265.587 165.976 266.696 166.744C267.891 167.512 269.085 167.896 270.28 167.896C274.461 167.896 276.552 165.336 276.552 160.216V155.352C275.101 156.547 273.48 157.4 271.688 157.912C269.896 158.339 268.317 158.893 266.952 159.576C265.672 160.173 265.032 161.368 265.032 163.16ZM337.455 183H312.495V119H337.455V142.168H352.815V119H377.775V183H352.815V159.96H337.455V183ZM424.475 183H402.715V135.512H384.795V119H442.395V135.512H424.475V183ZM514.135 183H496.727V137.432L474.839 183H452.055V119H469.463V164.696L491.351 119H514.135V183ZM567.955 146.648V119H583.315V183H567.955V160.6C566.334 160.941 564.414 161.24 562.195 161.496C559.976 161.667 557.843 161.752 555.795 161.752C545.811 161.752 538.515 159.533 533.907 155.096C529.299 150.659 526.995 143.533 526.995 133.72V119H542.355V133.72C542.355 138.925 543.592 142.552 546.067 144.6C548.627 146.648 552.296 147.672 557.075 147.672C560.318 147.672 562.707 147.544 564.243 147.288C565.864 147.032 567.102 146.819 567.955 146.648ZM614.522 183H601.722V119H614.522V144.856H645.242V119H658.042V183H645.242V156.504H614.522V183ZM704.62 184.28C698.476 184.28 692.972 182.872 688.108 180.056C683.329 177.24 679.532 173.315 676.716 168.28C673.9 163.245 672.492 157.485 672.492 151C672.492 144.429 673.9 138.669 676.716 133.72C679.532 128.685 683.329 124.76 688.108 121.944C692.972 119.128 698.476 117.72 704.62 117.72C710.764 117.72 716.268 119.128 721.132 121.944C725.996 124.76 729.793 128.685 732.524 133.72C735.34 138.669 736.748 144.429 736.748 151C736.748 157.485 735.34 163.245 732.524 168.28C729.793 173.315 725.996 177.24 721.132 180.056C716.268 182.872 710.764 184.28 704.62 184.28ZM704.62 174.936C708.801 174.936 712.513 173.955 715.756 171.992C719.084 169.944 721.687 167.128 723.564 163.544C725.527 159.96 726.508 155.779 726.508 151C726.508 146.221 725.527 142.04 723.564 138.456C721.687 134.872 719.084 132.099 715.756 130.136C712.513 128.088 708.801 127.064 704.62 127.064C700.524 127.064 696.812 128.088 693.484 130.136C690.156 132.099 687.511 134.872 685.548 138.456C683.671 142.04 682.732 146.221 682.732 151C682.732 155.779 683.671 159.96 685.548 163.544C687.511 167.128 690.156 169.944 693.484 171.992C696.812 173.955 700.524 174.936 704.62 174.936ZM801.398 144.472C800.545 138.328 797.942 133.507 793.59 130.008C789.238 126.509 784.161 124.76 778.358 124.76C773.835 124.76 769.782 125.869 766.198 128.088C762.614 130.221 759.798 133.251 757.75 137.176C755.702 141.101 754.678 145.709 754.678 151C754.678 156.205 755.702 160.813 757.75 164.824C759.798 168.749 762.614 171.821 766.198 174.04C769.782 176.173 773.835 177.24 778.358 177.24C784.417 177.24 789.622 175.363 793.974 171.608C798.411 167.853 800.971 162.691 801.654 156.12H809.59C809.163 161.667 807.499 166.573 804.598 170.84C801.782 175.107 798.113 178.435 793.59 180.824C789.067 183.128 783.99 184.28 778.358 184.28C772.385 184.28 767.009 182.872 762.23 180.056C757.537 177.24 753.825 173.315 751.094 168.28C748.363 163.245 746.998 157.485 746.998 151C746.998 144.429 748.363 138.669 751.094 133.72C753.825 128.685 757.537 124.76 762.23 121.944C767.009 119.128 772.385 117.72 778.358 117.72C783.819 117.72 788.769 118.829 793.206 121.048C797.643 123.267 801.27 126.381 804.086 130.392C806.987 134.403 808.737 139.096 809.334 144.472H801.398ZM848.792 183H844.312V123.096H818.584V119H874.52V123.096H848.792V183Z" fill="#105FB0"/>
<path d="M937.984 164.056C937.984 170.285 936.021 175.021 932.096 178.264C928.171 181.421 923.136 183 916.992 183H891.52V119H894.08V144.216H916.992C923.136 144.216 928.171 145.923 932.096 149.336C936.021 152.749 937.984 157.656 937.984 164.056ZM916.224 146.52H894.08V180.696H916.224C922.112 180.696 926.763 179.373 930.176 176.728C933.675 174.083 935.424 169.859 935.424 164.056C935.424 157.997 933.675 153.56 930.176 150.744C926.763 147.928 922.112 146.52 916.224 146.52Z" fill="#105FB0"/>
<path d="M261.24 371.28C256.461 371.28 252.237 370.128 248.568 367.824C244.899 365.52 242.04 362.277 239.992 358.096C237.944 353.915 236.92 349.093 236.92 343.632C236.92 336.549 238.2 330.064 240.76 324.176C243.405 318.288 247.117 313.595 251.896 310.096C256.76 306.512 262.52 304.72 269.176 304.72C277.112 304.72 283 307.835 286.84 314.064L288.504 306H316.664L303.096 370H279.544L281.464 361.04C278.989 364.197 276.045 366.715 272.632 368.592C269.219 370.384 265.421 371.28 261.24 371.28ZM281.72 336.336C281.72 334.032 281.037 332.197 279.672 330.832C278.392 329.467 276.557 328.784 274.168 328.784C271.181 328.784 268.749 329.851 266.872 331.984C265.08 334.117 264.184 336.677 264.184 339.664C264.184 341.968 264.824 343.803 266.104 345.168C267.469 346.533 269.304 347.216 271.608 347.216C274.68 347.216 277.112 346.149 278.904 344.016C280.781 341.883 281.72 339.323 281.72 336.336ZM337.046 370H312.086L325.654 306H350.614L345.622 329.296H360.982L365.974 306H390.934L377.366 370H352.406L357.398 346.704H342.038L337.046 370ZM424.45 370H402.178L412.29 322.128H394.626L397.954 306H455.81L452.482 322.128H434.562L424.45 370ZM513.976 370H496.184L506.04 323.792L475.96 370H451.512L465.08 306H482.872L473.144 352.08L503.096 306H527.544L513.976 370ZM583.296 370H566.912L571.776 346.96C570.411 347.131 568.875 347.344 567.168 347.6C565.461 347.771 563.627 347.856 561.664 347.856C551.339 347.856 544.085 345.68 539.904 341.328C535.723 336.976 534.656 330.021 536.704 320.464L539.648 306H556.032L552.832 321.488C551.808 326.437 552.32 329.936 554.368 331.984C556.416 333.947 559.787 334.928 564.48 334.928C566.784 334.928 568.747 334.843 570.368 334.672C571.989 334.416 573.397 334.16 574.592 333.904L580.48 306H596.864L583.296 370ZM615.137 370H601.057L614.625 306H628.705L623.201 331.856H652.001L657.505 306H671.585L658.017 370H643.937L649.569 343.632H620.769L615.137 370ZM678.992 342.736C678.992 337.701 679.803 332.923 681.424 328.4C683.045 323.877 685.349 319.824 688.336 316.24C691.408 312.656 695.12 309.84 699.472 307.792C703.824 305.744 708.688 304.72 714.064 304.72C723.195 304.72 730.363 307.323 735.568 312.528C740.773 317.733 743.376 324.645 743.376 333.264C743.376 338.213 742.565 342.992 740.944 347.6C739.323 352.123 736.976 356.176 733.904 359.76C730.917 363.344 727.248 366.16 722.896 368.208C718.544 370.256 713.68 371.28 708.304 371.28C699.173 371.28 692.005 368.677 686.8 363.472C681.595 358.181 678.992 351.269 678.992 342.736ZM689.616 342.608C689.616 348.496 691.323 353.189 694.736 356.688C698.149 360.187 702.672 361.936 708.304 361.936C713.339 361.936 717.691 360.571 721.36 357.84C725.029 355.109 727.845 351.568 729.808 347.216C731.771 342.864 732.752 338.256 732.752 333.392C732.752 327.504 731.045 322.811 727.632 319.312C724.219 315.813 719.696 314.064 714.064 314.064C709.029 314.064 704.677 315.429 701.008 318.16C697.339 320.891 694.523 324.432 692.56 328.784C690.597 333.136 689.616 337.744 689.616 342.608ZM816.218 331.472H808.282C808.197 325.413 806.191 320.635 802.266 317.136C798.426 313.552 793.562 311.76 787.674 311.76C782.213 311.76 777.477 313.253 773.466 316.24C769.541 319.141 766.511 322.939 764.378 327.632C762.33 332.24 761.306 337.189 761.306 342.48C761.306 349.051 763.226 354.341 767.066 358.352C770.906 362.277 775.941 364.24 782.17 364.24C788.655 364.24 794.031 362.277 798.298 358.352C802.65 354.341 805.509 349.264 806.874 343.12H815.194C814.085 348.496 812.037 353.317 809.05 357.584C806.149 361.765 802.437 365.093 797.914 367.568C793.391 370.043 788.143 371.28 782.17 371.28C776.282 371.28 771.162 370.085 766.81 367.696C762.543 365.307 759.215 361.979 756.826 357.712C754.522 353.36 753.37 348.325 753.37 342.608C753.37 337.573 754.138 332.795 755.674 328.272C757.21 323.749 759.471 319.739 762.458 316.24C765.445 312.656 769.029 309.84 773.21 307.792C777.477 305.744 782.298 304.72 787.674 304.72C793.306 304.72 798.255 305.829 802.522 308.048C806.789 310.267 810.117 313.381 812.506 317.392C814.895 321.317 816.133 326.011 816.218 331.472ZM848.636 370H843.26L855.804 310.608H830.716L831.74 306H887.42L886.524 310.608H861.18L848.636 370ZM939.933 346.448C939.933 350.629 938.952 354.512 936.989 358.096C935.026 361.68 932.125 364.581 928.285 366.8C924.53 368.933 919.88 370 914.333 370H888.861L902.429 306H905.117L899.741 331.216H922.525C927.816 331.216 932.04 332.496 935.197 335.056C938.354 337.616 939.933 341.413 939.933 346.448ZM921.245 333.52H899.229L892.061 367.568H914.077C919.282 367.568 923.592 366.587 927.005 364.624C930.418 362.576 932.978 359.973 934.685 356.816C936.392 353.573 937.245 350.16 937.245 346.576C937.245 341.968 935.837 338.64 933.021 336.592C930.205 334.544 926.28 333.52 921.245 333.52Z" fill="#105FB0"/>
<line y1="118.5" x2="1180" y2="118.5" stroke="#105FB0" stroke-width="3"/>
<line x1="237.5" y1="-6.55671e-08" x2="237.5" y2="485" stroke="#105FB0" stroke-width="3"/>
<path d="M939 0L939 128.264L939 378.278L939 486" stroke="#105FB0" stroke-width="3"/>
<line y1="183.5" x2="1180" y2="183.5" stroke="#105FB0" stroke-width="3"/>
<line y1="305.5" x2="1180" y2="305.5" stroke="#105FB0" stroke-width="3"/>
<line y1="369.5" x2="1180" y2="369.5" stroke="#105FB0" stroke-width="3"/>
</svg>
