<svg width="329" height="342" viewBox="0 0 329 342" fill="none" xmlns="http://www.w3.org/2000/svg">
<path d="M50.1297 217.588L37.6661 216.978M50.1297 217.588L37.8967 209.528M50.1297 217.588L62.4351 214M50.1297 217.588L59.5083 223.767" stroke="#105FB0" stroke-width="3"/>
<path d="M286.103 296.912L282.523 308.866M286.103 296.912L275.345 306.856M286.103 296.912L285.571 284.106M286.103 296.912L294.351 289.289" stroke="#105FB0" stroke-width="3"/>
<path d="M210.411 38.5362L210.977 26.0706M210.411 38.5362L218.428 26.2747M210.411 38.5362L214.043 50.8288M210.411 38.5362L204.265 47.9367" stroke="#105FB0" stroke-width="3"/>
<path d="M95.5158 138.412C47.0997 124.31 19.1155 187.837 17.5845 196.111C11.6216 228.334 45.6404 240.949 78.4533 231.252C111.266 221.554 143.932 152.515 95.5158 138.412Z" stroke="#105FB0" stroke-width="3"/>
<path d="M220.121 233.863C194.82 277.484 249.782 319.886 257.448 323.356C287.301 336.872 307.706 306.872 306.16 272.691C304.614 238.51 245.422 190.241 220.121 233.863Z" stroke="#105FB0" stroke-width="3"/>
<path d="M207.951 9.36132C159.416 36.8617 196.431 70.6751 201.808 78.2722C222.752 107.861 250.754 128.011 268.383 94.5166C286.012 61.0226 256.485 -18.1391 207.951 9.36132Z" stroke="#105FB0" stroke-width="3"/>
<path d="M281.602 50.9082C285.27 61.4796 289.084 87.0796 275 104.908" stroke="#105FB0" stroke-width="3"/>
<path d="M102.024 225.96C93.6363 233.215 71.4969 246.553 50.044 241.867" stroke="#105FB0" stroke-width="3"/>
</svg>
