<svg width="1125" height="686" viewBox="0 0 1125 686" fill="none" xmlns="http://www.w3.org/2000/svg">
<path d="M511.331 506.765C496.932 496.873 469.148 472.775 472.579 456.699C474.198 449.117 480.479 452.792 487.899 460.815C491.465 458.945 499.663 457.399 503.926 466.172C509.255 477.139 507.269 480.499 505.122 483.427C507.731 487.322 510.136 491.101 512.166 494.426C511.015 485.071 507.612 465.031 503.207 459.712C497.7 453.063 450.928 435.23 460.411 424.238C467.996 415.445 491.908 438.577 502.916 451.243C489.764 430.27 466.977 388.365 481.045 388.532C495.113 388.699 500.099 405.45 500.834 413.805C500.641 408.158 501.821 398.17 508.095 403.386C514.369 408.603 509.835 435.216 506.784 447.871L508.737 455.437C511.837 435.016 521.655 395.709 536.127 401.848C550.599 407.986 526.746 443.827 513.01 460.979L515.858 483.029C517.434 471.388 523.506 448.777 535.19 451.457C544.078 453.496 541.171 461.601 536.713 468.113C543.679 460.303 554.362 452.038 562.065 458.287C571.654 466.066 535.893 492.732 516.815 505.093C513.918 507.177 511.952 507.076 511.331 506.765Z" fill="#105FB0" stroke="white" stroke-width="3"/>
<path d="M480.108 5.35519C491.068 2.82328 519.565 -0.721383 545.869 5.35519" stroke="white" stroke-width="3"/>
<path d="M436.49 683.774C452.74 622.507 443.261 581.029 436.49 567.949C436.49 528.918 436.49 430.478 436.49 348.957C436.49 267.436 467.805 220.473 483.463 207.182V55.9125L480.289 52.115V4.0127" stroke="white" stroke-width="3"/>
<path d="M589.487 683.774C573.237 622.507 582.716 581.029 589.487 567.949C589.487 528.918 589.487 430.478 589.487 348.957C589.487 318.89 586.128 296.056 579.965 275.347M545.688 4.0127V52.115L542.514 55.9125V135.471M557.749 223.447C552.604 215.886 546.434 210.509 542.514 207.182V148.762" stroke="white" stroke-width="3"/>
<path d="M435.148 683.775C482.612 683.775 499.066 683.775 590.829 683.775" stroke="white" stroke-width="3"/>
<path d="M541.172 150.761C550.337 147.188 571.865 145.906 571.865 171.133C571.865 203.927 573.144 221.397 556.519 222.847M543.09 133.923C557.584 130.139 586.06 134.301 584.014 181.223C581.968 228.145 580.604 264.262 580.177 276.455" stroke="white" stroke-width="3"/>
<path d="M450.582 557.672V305.928C450.582 301.509 454.164 297.928 458.582 297.928H566.724C571.142 297.928 574.724 301.509 574.724 305.928V557.672C574.724 562.09 571.142 565.672 566.724 565.672H458.582C454.164 565.672 450.582 562.09 450.582 557.672Z" stroke="white" stroke-width="3"/>
<path d="M483.463 85.209H542.514" stroke="white" stroke-width="3"/>
<path d="M483.463 55.6826H541.843" stroke="white" stroke-width="3"/>
<path d="M521.304 513.911C515.89 523.855 504.861 525.452 492.597 524.489C476.214 523.202 453.59 497 463.981 482.487C472.369 514.64 505.671 517.243 521.304 513.911Z" fill="#105FB0" stroke="white" stroke-width="3"/>
<path d="M482.582 496.19C485.864 501.595 492.011 503.797 498.257 504.285C505.103 504.479 508.192 503.284 505.841 497.848C504.198 494.051 495.755 486.399 489.43 487.09C484.727 487.603 478.48 489.434 482.582 496.19Z" fill="#105FB0" stroke="white" stroke-width="3"/>
<path d="M521.715 513.414C521.136 506.679 519.935 492.532 502.203 484.612C484.471 476.693 472.586 478.132 464.961 480.856" stroke="white" stroke-width="3"/>
<path d="M524.092 528.746C555.047 529.209 561.266 487.049 560.825 481.902C559.107 461.858 536.916 459.93 519.073 471.014C501.229 482.098 493.137 528.283 524.092 528.746Z" fill="#105FB0" stroke="white" stroke-width="3"/>
<path d="M538.063 474.488L545.54 472.82M538.063 474.488L546.617 477.267M538.063 474.488L531.364 478.616M538.063 474.488L531.505 472.358" stroke="white" stroke-width="3"/>
<path d="M249.696 168.607H302.685M249.696 168.607L249.696 53.2092M249.696 168.607L249.696 215.112C248.619 221.786 221.909 244.823 216.739 254.511C213.627 260.344 210.984 279.321 208.832 306.728M249.696 53.2092C274.127 53.6359 273.114 53.2086 303.332 53.2092V214.466C304.409 221.14 331.119 244.177 336.288 253.866C349.644 278.897 354.379 546.083 348.572 682.619M249.696 53.2092V51.7002M208.832 306.728C201.764 396.769 200.008 577.795 204.429 682.619M208.832 306.728H208.477M208.832 306.728H344.181M204.429 682.619C204.439 682.876 204.45 683.131 204.461 683.386M204.429 682.619H202.506M204.429 682.619H348.572M348.572 682.619C348.57 682.66 348.568 682.7 348.566 682.74M348.572 682.619H350.397M203.307 523.749H349.351" stroke="white" stroke-width="3"/>
<path d="M305.783 477.144C297.204 484.646 295.759 495.733 301.586 501.91C307.413 508.087 319.013 507.766 327.591 500.263C336.17 492.761 337.615 481.674 331.788 475.497C325.961 469.32 314.361 469.641 305.783 477.144Z" fill="#105FB0" stroke="white" stroke-width="3"/>
<path d="M286.196 501.656C291.866 507.489 300.011 508.27 304.407 504.309C308.804 500.347 308.534 492.47 302.864 486.637C297.195 480.803 289.05 480.022 284.654 483.984C280.257 487.945 280.527 495.822 286.196 501.656Z" fill="#105FB0" stroke="white" stroke-width="3"/>
<path d="M868.732 443.933C852.497 450.382 817.008 460.037 805.568 448.234C800.172 442.666 806.723 439.496 817.518 437.802C817.952 433.799 821.233 426.129 830.894 427.474C842.97 429.156 844.655 432.678 845.891 436.091C850.579 436.094 855.057 436.201 858.949 436.367C850.538 432.112 831.999 423.778 825.128 424.474C816.539 425.344 775.678 454.258 771.83 440.261C768.751 429.063 801.282 422.087 817.932 419.998C793.188 419.241 745.693 414.828 753.667 403.237C761.64 391.646 778.33 396.834 785.679 400.876C780.881 397.893 773.243 391.349 781.07 389.043C788.896 386.738 808.475 405.326 817.286 414.908L824.657 417.5C809.423 403.552 782.245 373.506 795.404 364.905C808.562 356.304 825.044 396.077 831.641 417.038L851.54 426.953C842.75 419.161 827.351 401.524 836.085 393.313C842.729 387.066 847.841 393.995 850.767 401.325C848.16 391.189 847.246 377.713 856.726 374.796C868.526 371.164 870.758 415.717 870.398 438.447C870.515 442.013 869.336 443.59 868.732 443.933Z" fill="#105FB0" stroke="white" stroke-width="3"/>
<path d="M628.471 503.184C634.236 481.369 647.434 436.459 668.478 433.637C678.404 432.307 676.667 441.545 670.138 454.06C673.964 457.583 679.412 466.881 670.597 475.883C659.579 487.136 654.627 486.182 650.133 484.846C646.531 489.713 642.982 494.283 639.821 498.198C650.698 492.727 673.589 479.868 678.141 472.197C683.831 462.607 677.1 391.699 694.594 398.448C708.589 403.848 698.928 449.259 688.314 468.158C708.098 443.037 733.262 390.206 739.18 407.387C745.099 424.569 725.056 446.138 715.215 450.667C721.997 447.975 752.384 443.733 748.77 453.633C745.156 463.533 710.816 469.599 694.098 471.395L685.746 477.062C711.931 471.946 768.621 461.739 767.453 482.01C766.285 502.282 693.946 502.141 667.108 492.9L645.355 504.899C658.053 508.457 721.459 497.345 716.172 512.391C710.884 527.437 663.82 523.883 628.871 508.493L628.471 503.184Z" fill="#105FB0"/>
<path d="M670.138 454.06C676.667 441.545 678.404 432.307 668.478 433.637C647.434 436.459 634.236 481.369 628.471 503.184L628.871 508.493C663.82 523.883 710.884 527.437 716.172 512.391C721.459 497.345 658.053 508.457 645.355 504.899L667.108 492.9C693.946 502.141 766.285 502.282 767.453 482.01C768.621 461.739 711.931 471.946 685.746 477.062L694.098 471.395C710.816 469.599 745.156 463.533 748.77 453.633C752.384 443.733 721.997 447.975 715.215 450.667C725.056 446.138 745.099 424.569 739.18 407.387C733.262 390.206 708.098 443.037 688.314 468.158C698.928 449.259 708.589 403.848 694.594 398.448C677.1 391.699 683.831 462.607 678.141 472.197C673.589 479.868 650.698 492.727 639.821 498.198C642.982 494.283 646.531 489.713 650.133 484.846M670.138 454.06C673.964 457.583 679.412 466.881 670.597 475.883C659.579 487.136 654.627 486.182 650.133 484.846M670.138 454.06C667.038 451.606 658.455 449.318 648.921 459.798C639.387 470.278 645.756 480.863 650.133 484.846" stroke="white" stroke-width="3"/>
<rect x="829" y="337.478" width="52" height="130" fill="#105FB0"/>
<rect x="614" y="408.478" width="67" height="129" fill="#105FB0"/>
<path d="M718.227 193.02V63.4975C681.955 53.5002 705.209 36.5649 718.227 36.3594H792.068M696.46 683.974H813.195" stroke="white" stroke-width="3"/>
<path d="M791.345 36.3594C804.364 36.5647 825.922 49.9155 791.345 63.4717V192.871H830.772C839.056 192.871 845.772 199.587 845.772 207.871V683.974H664.562V207.871C664.562 199.587 671.277 192.871 679.562 192.871H720.044" stroke="white" stroke-width="3"/>
<path d="M728.501 11.7197H781.832V100.209H728.501V11.7197Z" stroke="white" stroke-width="3"/>
<path d="M1049.92 635.824L1045.02 643.36H1050.98V646H1042V642.64L1047.59 634L1042 625.36V622H1051V624.64H1045.02L1049.92 632.176V635.824Z" fill="white"/>
<path d="M1049.92 635.824L1045.02 643.36H1050.98V646H1042V642.64L1047.59 634L1042 625.36V622H1051V624.64H1045.02L1049.92 632.176V635.824Z" stroke="white"/>
<path d="M1075.92 635.824L1071.02 643.36H1076.98V646H1068V642.64L1073.59 634L1068 625.36V622H1077V624.64H1071.02L1075.92 632.176V635.824Z" fill="white"/>
<path d="M1075.92 635.824L1071.02 643.36H1076.98V646H1068V642.64L1073.59 634L1068 625.36V622H1077V624.64H1071.02L1075.92 632.176V635.824Z" stroke="white"/>
<path d="M970.92 635.824L966.024 643.36H971.976V646H963V642.64L968.592 634L963 625.36V622H972V624.64H966.024L970.92 632.176V635.824Z" fill="white"/>
<path d="M970.92 635.824L966.024 643.36H971.976V646H963V642.64L968.592 634L963 625.36V622H972V624.64H966.024L970.92 632.176V635.824Z" stroke="white"/>
<path d="M1023.92 635.824L1019.02 643.36H1024.98V646H1016V642.64L1021.59 634L1016 625.36V622H1025V624.64H1019.02L1023.92 632.176V635.824Z" fill="white"/>
<path d="M1023.92 635.824L1019.02 643.36H1024.98V646H1016V642.64L1021.59 634L1016 625.36V622H1025V624.64H1019.02L1023.92 632.176V635.824Z" stroke="white"/>
<path d="M944.92 635.824L940.024 643.36H945.976V646H937V642.64L942.592 634L937 625.36V622H946V624.64H940.024L944.92 632.176V635.824Z" fill="white"/>
<path d="M944.92 635.824L940.024 643.36H945.976V646H937V642.64L942.592 634L937 625.36V622H946V624.64H940.024L944.92 632.176V635.824Z" stroke="white"/>
<path d="M996.92 635.824L992.024 643.36H997.976V646H989V642.64L994.592 634L989 625.36V622H998V624.64H992.024L996.92 632.176V635.824Z" fill="white"/>
<path d="M996.92 635.824L992.024 643.36H997.976V646H989V642.64L994.592 634L989 625.36V622H998V624.64H992.024L996.92 632.176V635.824Z" stroke="white"/>
<path d="M1051.08 635.824L1055.98 643.36H1050.02V646H1059V642.64L1053.41 634L1059 625.36V622H1050V624.64H1055.98L1051.08 632.176V635.824Z" fill="white"/>
<path d="M1051.08 635.824L1055.98 643.36H1050.02V646H1059V642.64L1053.41 634L1059 625.36V622H1050V624.64H1055.98L1051.08 632.176V635.824Z" stroke="white"/>
<path d="M1077.08 635.824L1081.98 643.36H1076.02V646H1085V642.64L1079.41 634L1085 625.36V622H1076V624.64H1081.98L1077.08 632.176V635.824Z" fill="white"/>
<path d="M1077.08 635.824L1081.98 643.36H1076.02V646H1085V642.64L1079.41 634L1085 625.36V622H1076V624.64H1081.98L1077.08 632.176V635.824Z" stroke="white"/>
<path d="M972.08 635.824L976.976 643.36H971.024V646H980V642.64L974.408 634L980 625.36V622H971V624.64H976.976L972.08 632.176V635.824Z" fill="white"/>
<path d="M972.08 635.824L976.976 643.36H971.024V646H980V642.64L974.408 634L980 625.36V622H971V624.64H976.976L972.08 632.176V635.824Z" stroke="white"/>
<path d="M1025.08 635.824L1029.98 643.36H1024.02V646H1033V642.64L1027.41 634L1033 625.36V622H1024V624.64H1029.98L1025.08 632.176V635.824Z" fill="white"/>
<path d="M1025.08 635.824L1029.98 643.36H1024.02V646H1033V642.64L1027.41 634L1033 625.36V622H1024V624.64H1029.98L1025.08 632.176V635.824Z" stroke="white"/>
<path d="M946.08 635.824L950.976 643.36H945.024V646H954V642.64L948.408 634L954 625.36V622H945V624.64H950.976L946.08 632.176V635.824Z" fill="white"/>
<path d="M946.08 635.824L950.976 643.36H945.024V646H954V642.64L948.408 634L954 625.36V622H945V624.64H950.976L946.08 632.176V635.824Z" stroke="white"/>
<path d="M998.08 635.824L1002.98 643.36H997.024V646H1006V642.64L1000.41 634L1006 625.36V622H997V624.64H1002.98L998.08 632.176V635.824Z" fill="white"/>
<path d="M998.08 635.824L1002.98 643.36H997.024V646H1006V642.64L1000.41 634L1006 625.36V622H997V624.64H1002.98L998.08 632.176V635.824Z" stroke="white"/>
<path d="M1094.94 583H899C899.473 589.02 900.65 596.139 902.706 603.768M1021.79 684H1000.89C980.924 683.722 964.563 678.819 951.251 671.144M902.706 603.768H1119M902.706 603.768C908.99 627.075 923.488 655.137 951.251 671.144M951.251 671.144C990.875 671.122 1070.12 671.09 1070.12 671.144" stroke="white" stroke-width="3"/>
<path d="M927 583H1123C1120.39 615.9 1096.34 682.961 1021.08 684" stroke="white" stroke-width="3"/>
<path d="M10.8483 431L106.318 431C115.166 464.531 120.661 541.745 71.8556 582.354C68.4974 585.148 61.2375 590.923 65.3357 669.906" stroke="white" stroke-width="3"/>
<path d="M103.346 431L7.87654 431C3.39421 447.986 -0.227674 476.181 3.63375 505.149M48.8585 669.906C52.9567 590.923 45.6969 585.148 42.3387 582.354C18.2564 562.316 7.39501 533.366 3.63375 505.149M3.63375 505.149C10.2753 513.833 27.3145 529.398 42.3387 522.183C61.1189 513.165 97.1915 492.123 107.546 522.183" stroke="white" stroke-width="3"/>
<path d="M49.5018 668.509C46.2842 669.285 38.4265 671.676 32.7365 675.029" stroke="white" stroke-width="3"/>
<path d="M64.4043 668.509C67.6219 669.285 75.4796 671.676 81.1697 675.029" stroke="white" stroke-width="3"/>
<rect x="10.3826" y="674.098" width="94.0723" height="2.79423" fill="white"/>
<rect x="10.3826" y="680.617" width="94.0723" height="2.79423" fill="white"/>
<path d="M11.7798 675.028L11.7798 682.48" stroke="white" stroke-width="3"/>
<path d="M103.058 674.563L103.058 682.48" stroke="white" stroke-width="3"/>
<path d="M43.4477 583.285C47.7942 585.458 59.2816 588.501 70.4585 583.285" stroke="white" stroke-width="3"/>
<rect x="679.5" y="258.5" width="149" height="341" rx="6.5" stroke="white" stroke-width="3"/>
<path d="M482.332 485.244C483.01 484.885 483.526 485.019 484.245 484.916C484.867 484.827 485.415 484.57 485.999 484.411C486.682 484.225 488.285 484.128 488.999 484.128C489.637 484.128 486.717 484.128 486.079 484.128C485.41 484.128 484.894 483.809 484.21 483.809C483.424 483.809 482.647 483.705 481.925 483.499C481.71 483.437 481.394 483.573 481.251 483.33C481.089 483.055 481.212 482.848 480.932 482.569C480.379 482.015 480.667 482.214 481.411 482.214C482.038 482.214 482.568 482.374 483.2 482.374C483.735 482.374 484.321 482.287 484.795 482.498C485.097 482.632 485.166 482.533 484.724 482.533C484.285 482.533 483.887 482.374 483.448 482.374C482.927 482.374 482.363 482.43 481.845 482.365C481.381 482.307 480.324 482.198 480.064 481.736C479.914 481.469 486.753 482.574 487 482.574C490 483.33 482.819 481.994 483.519 482.179C484.208 482.361 485.081 482.453 485.681 482.852" stroke="#105FB0" stroke-width="3" stroke-linecap="round"/>
</svg>
