<svg width="1128" height="691" viewBox="0 0 1128 691" fill="none" xmlns="http://www.w3.org/2000/svg">
<path d="M524.331 506.765C509.932 496.873 482.148 472.775 485.579 456.699C487.198 449.117 493.479 452.792 500.899 460.815C504.465 458.945 512.663 457.399 516.926 466.172C522.255 477.139 520.269 480.499 518.122 483.427C520.731 487.322 523.136 491.101 525.166 494.426C524.015 485.071 520.612 465.031 516.207 459.712C510.7 453.063 463.928 435.23 473.411 424.238C480.996 415.445 504.908 438.577 515.916 451.243C502.764 430.27 479.977 388.365 494.045 388.532C508.113 388.699 513.099 405.45 513.834 413.805C513.641 408.158 514.821 398.17 521.095 403.386C527.369 408.603 522.835 435.216 519.784 447.871L521.737 455.437C524.837 435.016 534.655 395.709 549.127 401.848C563.599 407.986 539.746 443.827 526.01 460.979L528.858 483.029C530.434 471.388 536.506 448.777 548.19 451.457C557.078 453.496 554.171 461.601 549.713 468.113C556.679 460.303 567.362 452.038 575.065 458.287C584.654 466.066 548.893 492.732 529.815 505.093C526.918 507.177 524.952 507.076 524.331 506.765Z" fill="#105FB0" stroke="white" stroke-width="3"/>
<path d="M493.108 5.35519C504.068 2.82328 532.565 -0.721383 558.869 5.35519" stroke="white" stroke-width="3"/>
<path d="M449.49 683.774C465.74 622.507 456.261 581.029 449.49 567.949C449.49 528.918 449.49 430.478 449.49 348.957C449.49 267.436 480.805 220.473 496.463 207.182V55.9125L493.289 52.115V4.0127" stroke="white" stroke-width="3"/>
<path d="M602.487 683.774C586.237 622.507 595.716 581.029 602.487 567.949C602.487 528.918 602.487 430.478 602.487 348.957C602.487 318.89 599.128 296.056 592.965 275.347M558.688 4.0127V52.115L555.514 55.9125V135.471M570.749 223.447C565.604 215.886 559.434 210.509 555.514 207.182V148.762" stroke="white" stroke-width="3"/>
<path d="M448.148 683.775C495.612 683.775 512.066 683.775 603.829 683.775" stroke="white" stroke-width="3"/>
<path d="M554.172 150.761C563.337 147.188 584.865 145.906 584.865 171.133C584.865 203.927 586.144 221.397 569.519 222.847M556.09 133.923C570.584 130.139 599.06 134.301 597.014 181.223C594.968 228.145 593.604 264.262 593.177 276.455" stroke="white" stroke-width="3"/>
<path d="M463.582 557.672V305.928C463.582 301.509 467.164 297.928 471.582 297.928H579.724C584.142 297.928 587.724 301.509 587.724 305.928V557.672C587.724 562.09 584.142 565.672 579.724 565.672H471.582C467.164 565.672 463.582 562.09 463.582 557.672Z" stroke="white" stroke-width="3"/>
<path d="M496.463 85.209H555.514" stroke="white" stroke-width="3"/>
<path d="M496.463 55.6826H554.843" stroke="white" stroke-width="3"/>
<path d="M534.304 513.911C528.89 523.855 517.861 525.452 505.597 524.489C489.214 523.202 466.59 497 476.981 482.487C485.369 514.64 518.671 517.243 534.304 513.911Z" fill="#105FB0" stroke="white" stroke-width="3"/>
<path d="M495.582 496.19C498.864 501.595 505.011 503.797 511.257 504.285C518.103 504.479 521.192 503.284 518.841 497.848C517.198 494.051 508.755 486.399 502.43 487.09C497.727 487.603 491.48 489.434 495.582 496.19Z" fill="#105FB0" stroke="white" stroke-width="3"/>
<path d="M534.715 513.414C534.136 506.679 532.935 492.532 515.203 484.612C497.471 476.693 485.586 478.132 477.961 480.856" stroke="white" stroke-width="3"/>
<path d="M537.092 528.746C568.047 529.209 574.266 487.049 573.825 481.902C572.107 461.858 549.916 459.93 532.073 471.014C514.229 482.098 506.137 528.283 537.092 528.746Z" fill="#105FB0" stroke="white" stroke-width="3"/>
<path d="M551.063 474.488L558.54 472.82M551.063 474.488L559.617 477.267M551.063 474.488L544.364 478.616M551.063 474.488L544.505 472.358" stroke="white" stroke-width="3"/>
<path d="M262.696 168.607H315.685M262.696 168.607L262.696 53.2092M262.696 168.607L262.696 215.112C261.619 221.786 234.909 244.823 229.739 254.511C226.627 260.344 223.984 279.321 221.832 306.728M262.696 53.2092C287.127 53.6359 286.114 53.2086 316.332 53.2092V214.466C317.409 221.14 344.119 244.177 349.288 253.866C362.644 278.897 367.379 546.083 361.572 682.619M262.696 53.2092V51.7002M221.832 306.728C214.764 396.769 213.008 577.795 217.429 682.619M221.832 306.728H221.477M221.832 306.728H357.181M217.429 682.619C217.439 682.876 217.45 683.131 217.461 683.386M217.429 682.619H215.506M217.429 682.619H361.572M361.572 682.619C361.57 682.66 361.568 682.7 361.566 682.74M361.572 682.619H363.397M216.307 523.749H362.351" stroke="white" stroke-width="3"/>
<path d="M318.783 477.144C310.204 484.646 308.759 495.733 314.586 501.91C320.413 508.087 332.013 507.766 340.591 500.263C349.17 492.761 350.615 481.674 344.788 475.497C338.961 469.32 327.361 469.641 318.783 477.144Z" fill="#105FB0" stroke="white" stroke-width="3"/>
<path d="M299.196 501.656C304.866 507.489 313.011 508.27 317.407 504.309C321.804 500.347 321.534 492.47 315.864 486.637C310.195 480.803 302.05 480.022 297.654 483.984C293.257 487.945 293.527 495.822 299.196 501.656Z" fill="#105FB0" stroke="white" stroke-width="3"/>
<path d="M881.732 443.933C865.497 450.382 830.008 460.037 818.568 448.234C813.172 442.666 819.723 439.496 830.518 437.802C830.952 433.799 834.233 426.129 843.894 427.474C855.97 429.156 857.655 432.678 858.891 436.091C863.579 436.094 868.057 436.201 871.949 436.367C863.538 432.112 844.999 423.778 838.128 424.474C829.539 425.344 788.678 454.258 784.83 440.261C781.751 429.063 814.282 422.087 830.932 419.998C806.188 419.241 758.693 414.828 766.667 403.237C774.64 391.646 791.33 396.834 798.679 400.876C793.881 397.893 786.243 391.349 794.07 389.043C801.896 386.738 821.475 405.326 830.286 414.908L837.657 417.5C822.423 403.552 795.245 373.506 808.404 364.905C821.562 356.304 838.044 396.077 844.641 417.038L864.54 426.953C855.75 419.161 840.351 401.524 849.085 393.313C855.729 387.066 860.841 393.995 863.767 401.325C861.16 391.189 860.246 377.713 869.726 374.796C881.526 371.164 883.758 415.717 883.398 438.447C883.515 442.013 882.336 443.59 881.732 443.933Z" fill="#105FB0" stroke="white" stroke-width="3"/>
<path d="M641.471 503.184C647.236 481.369 660.434 436.459 681.478 433.637C691.404 432.307 689.667 441.545 683.138 454.06C686.964 457.583 692.412 466.881 683.597 475.883C672.579 487.136 667.627 486.182 663.133 484.846C659.531 489.713 655.982 494.283 652.821 498.198C663.698 492.727 686.589 479.868 691.141 472.197C696.831 462.607 690.1 391.699 707.594 398.448C721.589 403.848 711.928 449.259 701.314 468.158C721.098 443.037 746.262 390.206 752.18 407.387C758.099 424.569 738.056 446.138 728.215 450.667C734.997 447.975 765.384 443.733 761.77 453.633C758.156 463.533 723.816 469.599 707.098 471.395L698.746 477.062C724.931 471.946 781.621 461.739 780.453 482.01C779.285 502.282 706.946 502.141 680.108 492.9L658.355 504.899C671.053 508.457 734.459 497.345 729.172 512.391C723.884 527.437 676.82 523.883 641.871 508.493L641.471 503.184Z" fill="#105FB0"/>
<path d="M683.138 454.06C689.667 441.545 691.404 432.307 681.478 433.637C660.434 436.459 647.236 481.369 641.471 503.184L641.871 508.493C676.82 523.883 723.884 527.437 729.172 512.391C734.459 497.345 671.053 508.457 658.355 504.899L680.108 492.9C706.946 502.141 779.285 502.282 780.453 482.01C781.621 461.739 724.931 471.946 698.746 477.062L707.098 471.395C723.816 469.599 758.156 463.533 761.77 453.633C765.384 443.733 734.997 447.975 728.215 450.667C738.056 446.138 758.099 424.569 752.18 407.387C746.262 390.206 721.098 443.037 701.314 468.158C711.928 449.259 721.589 403.848 707.594 398.448C690.1 391.699 696.831 462.607 691.141 472.197C686.589 479.868 663.698 492.727 652.821 498.198C655.982 494.283 659.531 489.713 663.133 484.846M683.138 454.06C686.964 457.583 692.412 466.881 683.597 475.883C672.579 487.136 667.627 486.182 663.133 484.846M683.138 454.06C680.038 451.606 671.455 449.318 661.921 459.798C652.387 470.278 658.756 480.863 663.133 484.846" stroke="white" stroke-width="3"/>
<rect x="842" y="337.478" width="52" height="130" fill="#105FB0"/>
<rect x="627" y="408.478" width="67" height="129" fill="#105FB0"/>
<path d="M731.227 194.02V64.4975C694.955 54.5002 718.209 37.5649 731.227 37.3594H805.068M709.46 684.974H826.195" stroke="white" stroke-width="3"/>
<path d="M804.345 37.3594C817.364 37.5647 838.922 50.9155 804.345 64.4717V193.871H843.772C852.056 193.871 858.772 200.587 858.772 208.871V684.974H677.562V208.871C677.562 200.587 684.277 193.871 692.562 193.871H733.044" stroke="white" stroke-width="3"/>
<path d="M741.501 12.7197H794.832V101.209H741.501V12.7197Z" stroke="white" stroke-width="3"/>
<path d="M1052.92 640.824L1048.02 648.36H1053.98V651H1045V647.64L1050.59 639L1045 630.36V627H1054V629.64H1048.02L1052.92 637.176V640.824Z" fill="white"/>
<path d="M1052.92 640.824L1048.02 648.36H1053.98V651H1045V647.64L1050.59 639L1045 630.36V627H1054V629.64H1048.02L1052.92 637.176V640.824Z" stroke="white"/>
<path d="M1078.92 640.824L1074.02 648.36H1079.98V651H1071V647.64L1076.59 639L1071 630.36V627H1080V629.64H1074.02L1078.92 637.176V640.824Z" fill="white"/>
<path d="M1078.92 640.824L1074.02 648.36H1079.98V651H1071V647.64L1076.59 639L1071 630.36V627H1080V629.64H1074.02L1078.92 637.176V640.824Z" stroke="white"/>
<path d="M973.92 640.824L969.024 648.36H974.976V651H966V647.64L971.592 639L966 630.36V627H975V629.64H969.024L973.92 637.176V640.824Z" fill="white"/>
<path d="M973.92 640.824L969.024 648.36H974.976V651H966V647.64L971.592 639L966 630.36V627H975V629.64H969.024L973.92 637.176V640.824Z" stroke="white"/>
<path d="M1026.92 640.824L1022.02 648.36H1027.98V651H1019V647.64L1024.59 639L1019 630.36V627H1028V629.64H1022.02L1026.92 637.176V640.824Z" fill="white"/>
<path d="M1026.92 640.824L1022.02 648.36H1027.98V651H1019V647.64L1024.59 639L1019 630.36V627H1028V629.64H1022.02L1026.92 637.176V640.824Z" stroke="white"/>
<path d="M947.92 640.824L943.024 648.36H948.976V651H940V647.64L945.592 639L940 630.36V627H949V629.64H943.024L947.92 637.176V640.824Z" fill="white"/>
<path d="M947.92 640.824L943.024 648.36H948.976V651H940V647.64L945.592 639L940 630.36V627H949V629.64H943.024L947.92 637.176V640.824Z" stroke="white"/>
<path d="M999.92 640.824L995.024 648.36H1000.98V651H992V647.64L997.592 639L992 630.36V627H1001V629.64H995.024L999.92 637.176V640.824Z" fill="white"/>
<path d="M999.92 640.824L995.024 648.36H1000.98V651H992V647.64L997.592 639L992 630.36V627H1001V629.64H995.024L999.92 637.176V640.824Z" stroke="white"/>
<path d="M1054.08 640.824L1058.98 648.36H1053.02V651H1062V647.64L1056.41 639L1062 630.36V627H1053V629.64H1058.98L1054.08 637.176V640.824Z" fill="white"/>
<path d="M1054.08 640.824L1058.98 648.36H1053.02V651H1062V647.64L1056.41 639L1062 630.36V627H1053V629.64H1058.98L1054.08 637.176V640.824Z" stroke="white"/>
<path d="M1080.08 640.824L1084.98 648.36H1079.02V651H1088V647.64L1082.41 639L1088 630.36V627H1079V629.64H1084.98L1080.08 637.176V640.824Z" fill="white"/>
<path d="M1080.08 640.824L1084.98 648.36H1079.02V651H1088V647.64L1082.41 639L1088 630.36V627H1079V629.64H1084.98L1080.08 637.176V640.824Z" stroke="white"/>
<path d="M975.08 640.824L979.976 648.36H974.024V651H983V647.64L977.408 639L983 630.36V627H974V629.64H979.976L975.08 637.176V640.824Z" fill="white"/>
<path d="M975.08 640.824L979.976 648.36H974.024V651H983V647.64L977.408 639L983 630.36V627H974V629.64H979.976L975.08 637.176V640.824Z" stroke="white"/>
<path d="M1028.08 640.824L1032.98 648.36H1027.02V651H1036V647.64L1030.41 639L1036 630.36V627H1027V629.64H1032.98L1028.08 637.176V640.824Z" fill="white"/>
<path d="M1028.08 640.824L1032.98 648.36H1027.02V651H1036V647.64L1030.41 639L1036 630.36V627H1027V629.64H1032.98L1028.08 637.176V640.824Z" stroke="white"/>
<path d="M949.08 640.824L953.976 648.36H948.024V651H957V647.64L951.408 639L957 630.36V627H948V629.64H953.976L949.08 637.176V640.824Z" fill="white"/>
<path d="M949.08 640.824L953.976 648.36H948.024V651H957V647.64L951.408 639L957 630.36V627H948V629.64H953.976L949.08 637.176V640.824Z" stroke="white"/>
<path d="M1001.08 640.824L1005.98 648.36H1000.02V651H1009V647.64L1003.41 639L1009 630.36V627H1000V629.64H1005.98L1001.08 637.176V640.824Z" fill="white"/>
<path d="M1001.08 640.824L1005.98 648.36H1000.02V651H1009V647.64L1003.41 639L1009 630.36V627H1000V629.64H1005.98L1001.08 637.176V640.824Z" stroke="white"/>
<path d="M1097.94 588H902C902.473 594.02 903.65 601.139 905.706 608.768M1024.79 689H1003.89C983.924 688.722 967.563 683.819 954.251 676.144M905.706 608.768H1122M905.706 608.768C911.99 632.075 926.488 660.137 954.251 676.144M954.251 676.144C993.875 676.122 1073.12 676.09 1073.12 676.144" stroke="white" stroke-width="3"/>
<path d="M930 588H1126C1123.39 620.9 1099.34 687.961 1024.08 689" stroke="white" stroke-width="3"/>
<path d="M10.8483 437L106.318 437C115.166 470.531 120.661 547.745 71.8556 588.354C68.4974 591.148 61.2375 596.923 65.3357 675.906" stroke="white" stroke-width="3"/>
<path d="M103.346 437L7.87654 437C3.39421 453.986 -0.227674 482.181 3.63375 511.149M48.8585 675.906C52.9567 596.923 45.6969 591.148 42.3387 588.354C18.2564 568.316 7.39501 539.366 3.63375 511.149M3.63375 511.149C10.2753 519.833 27.3145 535.398 42.3387 528.183C61.1189 519.165 97.1915 498.123 107.546 528.183" stroke="white" stroke-width="3"/>
<path d="M49.5018 674.509C46.2842 675.285 38.4265 677.676 32.7365 681.029" stroke="white" stroke-width="3"/>
<path d="M64.4043 674.509C67.6219 675.285 75.4796 677.676 81.1697 681.029" stroke="white" stroke-width="3"/>
<rect x="10.3826" y="680.098" width="94.0723" height="2.79423" fill="white"/>
<rect x="10.3826" y="686.617" width="94.0723" height="2.79423" fill="white"/>
<path d="M11.7798 681.028L11.7798 688.48" stroke="white" stroke-width="3"/>
<path d="M103.058 680.563L103.058 688.48" stroke="white" stroke-width="3"/>
<path d="M43.4477 589.285C47.7942 591.458 59.2816 594.501 70.4585 589.285" stroke="white" stroke-width="3"/>
<rect x="692.5" y="258.5" width="149" height="341" rx="6.5" stroke="white" stroke-width="3"/>
<path d="M495.332 485.244C496.01 484.885 496.526 485.019 497.245 484.916C497.867 484.827 498.415 484.57 498.999 484.411C499.682 484.225 501.285 484.128 501.999 484.128C502.637 484.128 499.717 484.128 499.079 484.128C498.41 484.128 497.894 483.809 497.21 483.809C496.424 483.809 495.647 483.705 494.925 483.499C494.71 483.437 494.394 483.573 494.251 483.33C494.089 483.055 494.212 482.848 493.932 482.569C493.379 482.015 493.667 482.214 494.411 482.214C495.038 482.214 495.568 482.374 496.2 482.374C496.735 482.374 497.321 482.287 497.795 482.498C498.097 482.632 498.166 482.533 497.724 482.533C497.285 482.533 496.887 482.374 496.448 482.374C495.927 482.374 495.363 482.43 494.845 482.365C494.381 482.307 493.324 482.198 493.064 481.736C492.914 481.469 499.753 482.574 500 482.574C503 483.33 495.819 481.994 496.519 482.179C497.208 482.361 498.081 482.453 498.681 482.852" stroke="#105FB0" stroke-width="3" stroke-linecap="round"/>
</svg>
