<svg width="849" height="453" viewBox="0 0 849 453" fill="none" xmlns="http://www.w3.org/2000/svg">
<path d="M115.247 92.474C137 79 267.113 97.2043 285.951 140.768C294.836 161.315 273.907 163.183 243.022 156.731C237.762 167.1 221.064 184.462 196.349 170.959C165.454 154.08 164.501 142.848 164.65 132.368C151.993 127.572 140.008 122.709 129.667 118.285C148.036 138.366 189.589 179.812 208.856 184.951C232.939 191.374 372.826 155.031 368.919 196.763C365.794 230.148 270.816 215.757 223.718 204.389C289.767 231.712 413.522 292.147 380.149 315.304C346.775 338.462 307.002 307.402 291.287 288.978C301.195 301.936 315.137 327.411 291.646 325.642C268.154 323.874 234.269 253.674 220.263 218.796L203.004 204.266C229.895 257.496 272.598 366.401 228.277 376.187C183.956 385.972 180.073 261.727 183.672 198.38L140.059 151.275C155.84 181.299 179.407 244.659 147.432 257.912C123.11 267.994 116.382 244.06 115.969 221.277C112.655 251.312 101.357 288.639 72.7761 286.834C33.797 280.701 86.8974 153.038 115.247 92.474Z" fill="white"/>
<path d="M243.022 156.731C273.907 163.183 294.836 161.315 285.951 140.768C267.113 97.2043 137 79 115.247 92.474C86.8974 153.038 33.797 280.701 72.7761 286.834C108.355 289.081 117.152 230.688 117.103 201.211C113.89 225.633 115.458 271.166 147.432 257.912C179.407 244.659 155.84 181.299 140.059 151.275L183.672 198.38C180.073 261.727 183.956 385.972 228.277 376.187C272.598 366.401 229.895 257.496 203.004 204.266L220.263 218.796C234.269 253.674 268.154 323.874 291.646 325.642C315.137 327.411 301.195 301.936 291.287 288.978C307.002 307.402 346.775 338.462 380.149 315.304C413.522 292.147 289.767 231.712 223.718 204.389C270.816 215.757 365.794 230.148 368.919 196.763C372.826 155.031 232.939 191.374 208.856 184.951C189.589 179.812 148.036 138.366 129.667 118.285C140.008 122.709 151.993 127.572 164.65 132.368M243.022 156.731C237.762 167.1 221.064 184.462 196.349 170.959C165.454 154.08 164.501 142.848 164.65 132.368M243.022 156.731C246.42 148.573 246.134 128.718 217.803 114.564C189.472 100.41 170.563 120.536 164.65 132.368" stroke="#105FB0" stroke-width="3"/>
<path d="M213.097 160.063L202.628 160.177M213.097 160.063L203.214 153.551M213.097 160.063L223.655 156.231M213.097 160.063L220.675 165.056" stroke="#105FB0" stroke-width="3"/>
<path d="M742.805 131.511C719.607 145.741 671.036 178.686 662.339 196.629C651.467 219.059 679.785 375.736 639.55 363.991C607.363 354.595 620.348 251.627 640.437 207.537C601.09 267.211 554.97 389.617 538.558 352.46C522.146 315.302 562.737 263.491 583.806 251.553C569.204 258.825 502.317 273.984 508.506 251.253C514.695 228.522 590.045 208.556 626.946 201.415L644.483 187.222C587.121 203.538 462.765 236.928 461.557 191.556C460.35 146.183 621.506 132.902 683.022 148.441L729.221 117.625C700.268 112.087 561.123 148.756 570.074 114.248C579.024 79.7401 769 82 769 106C769 126.887 784.5 240 691.109 280.701C670.587 289.645 671.383 264.627 683.572 235.525C674.388 228.395 660.505 208.709 678.448 187.001C700.876 159.865 712.085 161.058 722.347 163.191C729.455 151.672 736.501 140.826 742.805 131.511Z" fill="white"/>
<path d="M683.572 235.525C671.383 264.627 670.587 289.645 691.109 280.701C784.5 240 769 126.887 769 106C769 82 579.024 79.7401 570.074 114.248C561.123 148.756 700.268 112.087 729.221 117.625L683.022 148.441C621.506 132.902 460.35 146.183 461.557 191.556C462.765 236.928 587.121 203.538 644.483 187.222L626.946 201.415C590.045 208.556 514.695 228.522 508.506 251.253C502.317 273.984 569.204 258.825 583.806 251.553C562.737 263.491 522.146 315.302 538.558 352.46C554.97 389.617 601.09 267.211 640.437 207.537C620.348 251.627 607.363 354.595 639.55 363.991C679.785 375.736 651.467 219.059 662.339 196.629C671.036 178.686 719.607 145.741 742.805 131.511C736.501 140.826 729.455 151.672 722.347 163.191M683.572 235.525C674.388 228.395 660.505 208.709 678.448 187.001C700.876 159.865 712.085 161.058 722.347 163.191M683.572 235.525C690.938 240.408 710.487 243.89 729.754 218.755C749.021 193.62 732.844 171.24 722.347 163.191" stroke="#105FB0" stroke-width="3"/>
<path d="M685.972 205.512L687.844 195.211M685.972 205.512L694.239 197.042M685.972 205.512L687.733 216.604M685.972 205.512L679.633 212.006" stroke="#105FB0" stroke-width="3"/>
</svg>
