<svg width="477" height="485" viewBox="0 0 477 485" fill="none" xmlns="http://www.w3.org/2000/svg">
<path d="M172.249 114.803C237.645 109.418 375.095 108.761 401.719 149.209C416.056 170.992 389.617 178.529 351.148 178.369C344.995 200.28 333.32 213.711 295.786 209.856C262.42 206.429 253.688 187.109 252.935 168.066C232.665 163.774 212.346 157.221 201.969 152.535C155.362 131.492 284.261 227.096 245.282 321.713C214.099 397.406 187.244 243.141 177.715 156.547C174.363 226.104 203.34 349.158 157.238 371.734C99.6112 399.952 142.645 163.801 159.02 127.533C162.527 119.765 164.632 115.105 172.249 114.803Z" fill="#105FB0"/>
<path d="M252.935 168.066C232.665 163.774 212.346 157.221 201.969 152.536C155.362 131.492 284.261 227.096 245.282 321.713C214.099 397.406 187.244 243.141 177.715 156.547C174.363 226.104 203.34 349.158 157.238 371.734C99.6112 399.952 142.645 163.801 159.02 127.533C162.527 119.765 164.632 115.105 172.249 114.803C237.645 109.418 375.095 108.761 401.719 149.209C416.056 170.992 389.617 178.529 351.148 178.369M252.935 168.066C258.494 135.041 285.117 131.307 298.835 132.682C317.838 134.778 354.905 146.849 351.148 178.369M252.935 168.066C253.688 187.109 262.42 206.429 295.786 209.856C333.32 213.711 344.995 200.28 351.148 178.369" stroke="white" stroke-width="3"/>
<path d="M331.67 170.725L331.8 181.868M331.67 170.725L325.146 182.064M331.67 170.725L327.808 159.95M331.67 170.725L336.672 162.032" stroke="white" stroke-width="3"/>
</svg>
