<svg width="1181" height="447" viewBox="0 0 1181 447" fill="none" xmlns="http://www.w3.org/2000/svg">
<path d="M714.649 234.888C702.044 171.575 675.483 219.931 647.506 218.441C643.433 203.319 637.185 166.914 644.78 142.266C652.374 117.619 640.915 105.899 634.236 103.12C649.083 105.399 659.892 126.816 663.441 137.24C659.939 125.888 658.202 103.257 679.273 103.546C700.345 103.835 716.885 121.537 722.521 130.352C694.292 133.875 713.978 143.771 727.349 148.279C745.353 155.673 752.347 172.284 753.594 179.665C725.91 166.717 723.812 179.185 726.224 187.037C743.048 215.153 725.518 230.653 714.649 234.888Z" fill="white" stroke="#105FB0" stroke-width="3"/>
<path d="M650.926 182.737C655.057 171.822 670.11 150.576 697.28 152.905" stroke="#105FB0" stroke-width="3"/>
<path d="M673.362 157.826C678.171 158.758 688.749 161.789 692.583 166.455" stroke="#105FB0" stroke-width="3"/>
<path d="M620.717 140.214C604.113 145.918 594.912 161.207 599.306 173.995C603.699 186.784 620.353 193.191 636.957 187.486C653.562 181.782 662.762 166.493 658.369 153.704C653.975 140.916 637.322 134.509 620.717 140.214Z" fill="white" stroke="#105FB0" stroke-width="3"/>
<path d="M574.234 145.58C561.006 150.124 553.782 162.256 557.237 172.311C560.691 182.366 573.846 187.497 587.074 182.953C600.301 178.408 607.525 166.276 604.071 156.221C600.617 146.166 587.462 141.035 574.234 145.58Z" fill="white" stroke="#105FB0" stroke-width="3"/>
<path d="M587.449 162.564C570.844 168.269 561.644 183.557 566.037 196.346C570.431 209.135 587.085 215.541 603.689 209.837C620.294 204.132 629.494 188.844 625.1 176.055C620.707 163.266 604.053 156.86 587.449 162.564Z" fill="white" stroke="#105FB0" stroke-width="3"/>
<path d="M539.781 151.158C524.684 148.621 511.346 156.514 509.407 168.053C507.467 179.593 517.493 191.412 532.589 193.95C547.686 196.487 561.024 188.594 562.963 177.054C564.902 165.514 554.877 153.695 539.781 151.158Z" fill="white" stroke="#105FB0" stroke-width="3"/>
<path d="M472.802 239.382C468.89 244.565 469.391 250.775 472.933 253.447C476.474 256.12 482.584 254.898 486.495 249.715C490.406 244.532 489.906 238.322 486.364 235.649C482.822 232.977 476.713 234.199 472.802 239.382Z" fill="white" stroke="#105FB0" stroke-width="3"/>
<path d="M477.757 212.106C470.084 211.43 463.784 216.237 463.244 222.356C462.704 228.475 468.066 234.312 475.739 234.988C483.412 235.665 489.712 230.857 490.252 224.738C490.792 218.619 485.43 212.783 477.757 212.106Z" fill="white" stroke="#105FB0" stroke-width="3"/>
<path d="M625.598 181.512C608.993 187.217 599.793 202.506 604.186 215.294C608.58 228.083 625.233 234.489 641.838 228.785C658.442 223.081 667.643 207.792 663.249 195.003C658.856 182.215 642.202 175.808 625.598 181.512Z" fill="white" stroke="#105FB0" stroke-width="3"/>
<path d="M578.461 181.942C563.365 179.405 550.027 187.297 548.087 198.837C546.148 210.377 556.173 222.196 571.27 224.733C586.366 227.27 599.704 219.378 601.643 207.838C603.583 196.298 593.558 184.479 578.461 181.942Z" fill="white" stroke="#105FB0" stroke-width="3"/>
<path d="M630.222 207.342C613.117 203.38 597.213 211.47 594.162 224.644C591.111 237.817 601.839 252.076 618.943 256.037C636.048 259.999 651.952 251.908 655.003 238.735C658.054 225.561 647.326 211.303 630.222 207.342Z" fill="white" stroke="#105FB0" stroke-width="3"/>
<path d="M556.513 208.708C539.909 214.413 530.708 229.701 535.102 242.49C539.495 255.279 556.149 261.685 572.754 255.981C589.358 250.276 598.558 234.988 594.165 222.199C589.771 209.41 573.118 203.004 556.513 208.708Z" fill="white" stroke="#105FB0" stroke-width="3"/>
<path d="M515.774 186.513C500.887 191.627 492.692 205.311 496.608 216.709C500.524 228.107 515.398 233.865 530.284 228.75C545.171 223.636 553.366 209.953 549.451 198.555C545.535 187.157 530.661 181.399 515.774 186.513Z" fill="white" stroke="#105FB0" stroke-width="3"/>
<path d="M668.211 196.305C651.107 192.344 635.203 200.434 632.152 213.607C629.101 226.781 639.829 241.039 656.933 245C674.038 248.962 689.942 240.872 692.993 227.698C696.044 214.525 685.316 200.266 668.211 196.305Z" fill="white" stroke="#105FB0" stroke-width="3"/>
<path d="M651.949 180.314C652.051 180.363 651.542 180.454 651.949 180.314C652.23 180.218 652.947 180.011 654.601 179.603C657.75 178.826 658.936 178.697 662.009 179.183C663.958 179.491 666.017 180.328 667.892 180.745C670.471 181.318 672.704 181.097 673.827 177.61C675.116 173.608 671.768 174.726 670.696 174.939C668.918 175.293 667.975 178.13 667.892 180.745C666.017 180.328 663.958 179.491 662.009 179.183C658.936 178.697 657.75 178.826 654.601 179.603C652.947 180.011 652.23 180.218 651.949 180.314Z" fill="white"/>
<path d="M651.568 180.291C652.99 180.263 649.728 180.804 654.601 179.603C657.75 178.826 658.936 178.697 662.009 179.183C666.638 179.915 671.887 183.632 673.827 177.61C675.116 173.608 671.768 174.726 670.696 174.939C668.78 175.32 667.834 178.585 667.888 181.35C668.032 188.601 673.672 190.906 677.204 190.836" stroke="#105FB0" stroke-width="3" stroke-linecap="round"/>
<path d="M493.98 183.275C481.672 187.503 474.987 198.775 478.185 208.085C481.384 217.395 493.585 222.179 505.893 217.95C518.2 213.722 524.886 202.45 521.688 193.14C518.489 183.83 506.288 179.046 493.98 183.275Z" fill="white" stroke="#105FB0" stroke-width="3"/>
<path d="M502.437 209.939C490.129 214.167 483.444 225.44 486.642 234.75C489.84 244.06 502.042 248.843 514.35 244.615C526.657 240.387 533.343 229.115 530.144 219.805C526.946 210.494 514.744 205.711 502.437 209.939Z" fill="white" stroke="#105FB0" stroke-width="3"/>
<rect x="457" y="203" width="280" height="62" fill="white"/>
<path d="M543.88 317.32L529.736 339.3H546.931V347H521V337.2L537.155 312L521 286.8V277H547V284.7H529.736L543.88 306.68V317.32Z" fill="#105FB0"/>
<path d="M543.88 317.32L529.736 339.3H546.931V347H521V337.2L537.155 312L521 286.8V277H547V284.7H529.736L543.88 306.68V317.32Z" stroke="#105FB0"/>
<path d="M500.88 317.32L486.736 339.3H503.931V347H478V337.2L494.155 312L478 286.8V277H504V284.7H486.736L500.88 306.68V317.32Z" fill="#105FB0"/>
<path d="M500.88 317.32L486.736 339.3H503.931V347H478V337.2L494.155 312L478 286.8V277H504V284.7H486.736L500.88 306.68V317.32Z" stroke="#105FB0"/>
<path d="M631.12 317.32L645.264 339.3H628.069V347H654V337.2L637.845 312L654 286.8V277H628V284.7H645.264L631.12 306.68V317.32Z" fill="#105FB0"/>
<path d="M631.12 317.32L645.264 339.3H628.069V347H654V337.2L637.845 312L654 286.8V277H628V284.7H645.264L631.12 306.68V317.32Z" stroke="#105FB0"/>
<path d="M674.12 317.32L688.264 339.3H671.069V347H697V337.2L680.845 312L697 286.8V277H671V284.7H688.264L674.12 306.68V317.32Z" fill="#105FB0"/>
<path d="M674.12 317.32L688.264 339.3H671.069V347H697V337.2L680.845 312L697 286.8V277H671V284.7H688.264L674.12 306.68V317.32Z" stroke="#105FB0"/>
<path d="M585.056 352V328.061C577.695 327.73 571.845 325.677 567.507 321.903C563.169 318.128 561 312.169 561 304.023V277.502H568.887V303.328C568.887 307.434 569.61 310.811 571.056 313.46C572.502 316.109 574.441 318.062 576.873 319.32C579.305 320.512 582 321.108 584.958 321.108H585.056V263H592.944V321.108H593.042C596.066 321.108 598.761 320.512 601.127 319.32C603.559 318.062 605.498 316.109 606.944 313.46C608.39 310.811 609.113 307.434 609.113 303.328V277.502H617V304.023C617 312.169 614.831 318.128 610.493 321.903C606.155 325.677 600.305 327.73 592.944 328.061V352H585.056Z" fill="#105FB0"/>
<path d="M585.056 352V328.061C577.695 327.73 571.845 325.677 567.507 321.903C563.169 318.128 561 312.169 561 304.023V277.502H568.887V303.328C568.887 307.434 569.61 310.811 571.056 313.46C572.502 316.109 574.441 318.062 576.873 319.32C579.305 320.512 582 321.108 584.958 321.108H585.056V263H592.944V321.108H593.042C596.066 321.108 598.761 320.512 601.127 319.32C603.559 318.062 605.498 316.109 606.944 313.46C608.39 310.811 609.113 307.434 609.113 303.328V277.502H617V304.023C617 312.169 614.831 318.128 610.493 321.903C606.155 325.677 600.305 327.73 592.944 328.061V352H585.056Z" stroke="#105FB0"/>
<path d="M62.3089 216H70.6911L87 284.736V288H46V284.736L62.3089 216ZM52.0133 282.72H80.9867L66.5 219.936L52.0133 282.72Z" fill="#105FB0"/>
<path d="M62.3089 216H70.6911L87 284.736V288H46V284.736L62.3089 216ZM52.0133 282.72H80.9867L66.5 219.936L52.0133 282.72Z" stroke="#105FB0"/>
<path d="M63.1044 364H71.8956L89 295.264V292H46V295.264L63.1044 364ZM82.6933 297.28L67.5 360.064L52.3067 297.28H82.6933Z" fill="#105FB0"/>
<path d="M63.1044 364H71.8956L89 295.264V292H46V295.264L63.1044 364ZM82.6933 297.28L67.5 360.064L52.3067 297.28H82.6933Z" stroke="#105FB0"/>
<path d="M282.896 288L274.104 288L257 219.264L257 216L300 216L300 219.264L282.896 288ZM263.307 221.28L278.5 284.064L293.693 221.28L263.307 221.28Z" fill="#105FB0"/>
<path d="M282.896 288L274.104 288L257 219.264L257 216L300 216L300 219.264L282.896 288ZM263.307 221.28L278.5 284.064L293.693 221.28L263.307 221.28Z" stroke="#105FB0"/>
<path d="M122.309 216H130.691L147 284.736V288H106V284.736L122.309 216ZM112.013 282.72H140.987L126.5 219.936L112.013 282.72Z" fill="#105FB0"/>
<path d="M122.309 216H130.691L147 284.736V288H106V284.736L122.309 216ZM112.013 282.72H140.987L126.5 219.936L112.013 282.72Z" stroke="#105FB0"/>
<path d="M122.911 364H131.089L147 295.264V292H107V295.264L122.911 364ZM141.133 297.28L127 360.064L112.867 297.28H141.133Z" fill="#105FB0"/>
<path d="M122.911 364H131.089L147 295.264V292H107V295.264L122.911 364ZM141.133 297.28L127 360.064L112.867 297.28H141.133Z" stroke="#105FB0"/>
<path d="M222.896 288L214.104 288L197 219.264L197 216L240 216L240 219.264L222.896 288ZM203.307 221.28L218.5 284.064L233.693 221.28L203.307 221.28Z" fill="#105FB0"/>
<path d="M222.896 288L214.104 288L197 219.264L197 216L240 216L240 219.264L222.896 288ZM203.307 221.28L218.5 284.064L233.693 221.28L203.307 221.28Z" stroke="#105FB0"/>
<path d="M223.293 292L214.707 292L198 360.736L198 364L240 364L240 360.736L223.293 292ZM233.84 358.72L204.16 358.72L219 295.936L233.84 358.72Z" fill="#105FB0"/>
<path d="M223.293 292L214.707 292L198 360.736L198 364L240 364L240 360.736L223.293 292ZM233.84 358.72L204.16 358.72L219 295.936L233.84 358.72Z" stroke="#105FB0"/>
<path d="M41.8956 288L33.1044 288L16 219.264L16 216L59 216L59 219.264L41.8956 288ZM22.3067 221.28L37.5 284.064L52.6933 221.28L22.3067 221.28Z" fill="#105FB0"/>
<path d="M41.8956 288L33.1044 288L16 219.264L16 216L59 216L59 219.264L41.8956 288ZM22.3067 221.28L37.5 284.064L52.6933 221.28L22.3067 221.28Z" stroke="#105FB0"/>
<path d="M101.293 288L92.7067 288L76 219.264L76 216L118 216L118 219.264L101.293 288ZM111.84 221.28L82.16 221.28L97 284.064L111.84 221.28Z" fill="#105FB0"/>
<path d="M101.293 288L92.7067 288L76 219.264L76 216L118 216L118 219.264L101.293 288ZM111.84 221.28L82.16 221.28L97 284.064L111.84 221.28Z" stroke="#105FB0"/>
<path d="M102.498 292L93.5022 292L76 360.736L76 364L120 364L120 360.736L102.498 292ZM113.547 358.72L82.4533 358.72L98 295.936L113.547 358.72Z" fill="#105FB0"/>
<path d="M102.498 292L93.5022 292L76 360.736L76 364L120 364L120 360.736L102.498 292ZM113.547 358.72L82.4533 358.72L98 295.936L113.547 358.72Z" stroke="#105FB0"/>
<path d="M244.104 216L252.896 216L270 284.736L270 288L227 288L227 284.736L244.104 216ZM233.307 282.72L263.693 282.72L248.5 219.936L233.307 282.72Z" fill="#105FB0"/>
<path d="M244.104 216L252.896 216L270 284.736L270 288L227 288L227 284.736L244.104 216ZM233.307 282.72L263.693 282.72L248.5 219.936L233.307 282.72Z" stroke="#105FB0"/>
<path d="M244.707 364L253.293 364L270 295.264L270 292L228 292L228 295.264L244.707 364ZM234.16 297.28L263.84 297.28L249 360.064L234.16 297.28Z" fill="#105FB0"/>
<path d="M244.707 364L253.293 364L270 295.264L270 292L228 292L228 295.264L244.707 364ZM234.16 297.28L263.84 297.28L249 360.064L234.16 297.28Z" stroke="#105FB0"/>
<path d="M161.293 288L152.707 288L136 219.264L136 216L178 216L178 219.264L161.293 288ZM171.84 221.28L142.16 221.28L157 284.064L171.84 221.28Z" fill="#105FB0"/>
<path d="M161.293 288L152.707 288L136 219.264L136 216L178 216L178 219.264L161.293 288ZM171.84 221.28L142.16 221.28L157 284.064L171.84 221.28Z" stroke="#105FB0"/>
<path d="M162.498 292L153.502 292L136 360.736L136 364L180 364L180 360.736L162.498 292ZM173.547 358.72L142.453 358.72L158 295.936L173.547 358.72Z" fill="#105FB0"/>
<path d="M162.498 292L153.502 292L136 360.736L136 364L180 364L180 360.736L162.498 292ZM173.547 358.72L142.453 358.72L158 295.936L173.547 358.72Z" stroke="#105FB0"/>
<path d="M183.309 216L191.691 216L208 284.736L208 288L167 288L167 284.736L183.309 216ZM201.987 282.72L187.5 219.936L173.013 282.72L201.987 282.72Z" fill="#105FB0"/>
<path d="M183.309 216L191.691 216L208 284.736L208 288L167 288L167 284.736L183.309 216ZM201.987 282.72L187.5 219.936L173.013 282.72L201.987 282.72Z" stroke="#105FB0"/>
<path d="M184.707 364L193.293 364L210 295.264L210 292L168 292L168 295.264L184.707 364ZM174.16 297.28L203.84 297.28L189 360.064L174.16 297.28Z" fill="#105FB0"/>
<path d="M184.707 364L193.293 364L210 295.264L210 292L168 292L168 295.264L184.707 364ZM174.16 297.28L203.84 297.28L189 360.064L174.16 297.28Z" stroke="#105FB0"/>
<path d="M96.8051 144.288C95.0827 104.351 69.5338 78.7891 56.9746 71H260.907" stroke="#105FB0" stroke-width="3"/>
<path d="M32.5551 167.648C7.88698 113.18 65.1465 71.8904 87.1716 145.685C57.5751 145.685 38.4287 160.327 32.5551 167.648Z" fill="white" stroke="#105FB0" stroke-width="3"/>
<path d="M281.913 167.648C306.106 114.207 249.948 73.6972 228.347 146.099C257.374 146.099 276.152 160.465 281.913 167.648Z" fill="white" stroke="#105FB0" stroke-width="3"/>
<path d="M69.5281 82.7723C44.7101 79.8819 -5.37628 96.9932 11.246 188.563C-6.9346 227.584 -9.53114 332.855 111.673 434.831" stroke="#105FB0" stroke-width="3"/>
<path d="M246.5 83.5C271.409 80.6142 320.179 98.1369 303.496 189.558C321.743 228.517 328.647 332.69 207 434.5" stroke="#105FB0" stroke-width="3"/>
<path d="M220.352 145C222.066 104.675 247.498 78.8647 260 71H57" stroke="#105FB0" stroke-width="3"/>
<path d="M117 147C126.624 147 175.01 147 198 147" stroke="#105FB0" stroke-width="3"/>
<path d="M926 215L926 222.553L916.885 222.553C919.782 224.279 922.043 226.832 923.668 230.213C925.223 233.666 926 237.946 926 243.053L926 269.811C926 278.946 923.951 285.743 919.853 290.203C915.754 294.734 910.137 297 903 297C895.863 297 890.246 294.734 886.147 290.203C882.049 285.743 880 278.946 880 269.811L880 243.053C880 232.839 882.968 226.005 888.903 222.553L880 222.553L880 215L900.88 215L900.88 222.553C896.499 224.063 893.355 226.329 891.447 229.35C889.469 232.443 888.479 237.011 888.479 243.053L888.479 269.811C888.479 276.644 889.751 281.571 892.295 284.592C894.839 287.613 898.407 289.124 903 289.124C907.522 289.124 911.091 287.613 913.705 284.592C916.249 281.571 917.521 276.644 917.521 269.811L917.521 243.053C917.521 237.011 916.567 232.443 914.659 229.35C912.68 226.329 909.501 224.063 905.12 222.553L905.12 215L926 215Z" fill="#105FB0"/>
<path d="M926 215L926 222.553L916.885 222.553C919.782 224.279 922.043 226.832 923.668 230.213C925.223 233.666 926 237.946 926 243.053L926 269.811C926 278.946 923.951 285.743 919.853 290.203C915.754 294.734 910.137 297 903 297C895.863 297 890.246 294.734 886.147 290.203C882.049 285.743 880 278.946 880 269.811L880 243.053C880 232.839 882.968 226.005 888.903 222.553L880 222.553L880 215L900.88 215L900.88 222.553C896.499 224.063 893.355 226.329 891.447 229.35C889.469 232.443 888.479 237.011 888.479 243.053L888.479 269.811C888.479 276.644 889.751 281.571 892.295 284.592C894.839 287.613 898.407 289.124 903 289.124C907.522 289.124 911.091 287.613 913.705 284.592C916.249 281.571 917.521 276.644 917.521 269.811L917.521 243.053C917.521 237.011 916.567 232.443 914.659 229.35C912.68 226.329 909.501 224.063 905.12 222.553L905.12 215L926 215Z" stroke="#105FB0"/>
<path d="M1169 215L1169 222.553L1159.69 222.553C1162.65 224.279 1164.96 226.832 1166.62 230.213C1168.21 233.666 1169 237.946 1169 243.053L1169 269.811C1169 278.946 1166.91 285.743 1162.72 290.203C1158.53 294.734 1152.79 297 1145.5 297C1138.21 297 1132.47 294.734 1128.28 290.203C1124.09 285.743 1122 278.946 1122 269.811L1122 243.053C1122 232.839 1125.03 226.005 1131.1 222.553L1122 222.553L1122 215L1143.33 215L1143.33 222.553C1138.86 224.063 1135.65 226.329 1133.7 229.35C1131.67 232.443 1130.66 237.011 1130.66 243.053L1130.66 269.811C1130.66 276.644 1131.96 281.571 1134.56 284.592C1137.16 287.613 1140.81 289.124 1145.5 289.124C1150.12 289.124 1153.77 287.613 1156.44 284.592C1159.04 281.571 1160.34 276.644 1160.34 269.811L1160.34 243.053C1160.34 237.011 1159.36 232.443 1157.41 229.35C1155.39 226.329 1152.14 224.063 1147.67 222.553L1147.67 215L1169 215Z" fill="#105FB0"/>
<path d="M1169 215L1169 222.553L1159.69 222.553C1162.65 224.279 1164.96 226.832 1166.62 230.213C1168.21 233.666 1169 237.946 1169 243.053L1169 269.811C1169 278.946 1166.91 285.743 1162.72 290.203C1158.53 294.734 1152.79 297 1145.5 297C1138.21 297 1132.47 294.734 1128.28 290.203C1124.09 285.743 1122 278.946 1122 269.811L1122 243.053C1122 232.839 1125.03 226.005 1131.1 222.553L1122 222.553L1122 215L1143.33 215L1143.33 222.553C1138.86 224.063 1135.65 226.329 1133.7 229.35C1131.67 232.443 1130.66 237.011 1130.66 243.053L1130.66 269.811C1130.66 276.644 1131.96 281.571 1134.56 284.592C1137.16 287.613 1140.81 289.124 1145.5 289.124C1150.12 289.124 1153.77 287.613 1156.44 284.592C1159.04 281.571 1160.34 276.644 1160.34 269.811L1160.34 243.053C1160.34 237.011 1159.36 232.443 1157.41 229.35C1155.39 226.329 1152.14 224.063 1147.67 222.553L1147.67 215L1169 215Z" stroke="#105FB0"/>
<path d="M1008 215L1008 222.553L998.885 222.553C1001.78 224.279 1004.04 226.832 1005.67 230.213C1007.22 233.666 1008 237.946 1008 243.053L1008 269.811C1008 278.946 1005.95 285.743 1001.85 290.203C997.754 294.734 992.137 297 985 297C977.863 297 972.246 294.734 968.147 290.203C964.049 285.743 962 278.946 962 269.811L962 243.053C962 232.839 964.968 226.005 970.903 222.553L962 222.553L962 215L982.88 215L982.88 222.553C978.499 224.063 975.355 226.329 973.447 229.35C971.469 232.443 970.479 237.011 970.479 243.053L970.479 269.811C970.479 276.644 971.751 281.571 974.295 284.592C976.839 287.613 980.407 289.124 985 289.124C989.522 289.124 993.091 287.613 995.705 284.592C998.249 281.571 999.521 276.644 999.521 269.811L999.521 243.053C999.521 237.011 998.567 232.443 996.659 229.35C994.68 226.329 991.501 224.063 987.12 222.553L987.12 215L1008 215Z" fill="#105FB0"/>
<path d="M1008 215L1008 222.553L998.885 222.553C1001.78 224.279 1004.04 226.832 1005.67 230.213C1007.22 233.666 1008 237.946 1008 243.053L1008 269.811C1008 278.946 1005.95 285.743 1001.85 290.203C997.754 294.734 992.137 297 985 297C977.863 297 972.246 294.734 968.147 290.203C964.049 285.743 962 278.946 962 269.811L962 243.053C962 232.839 964.968 226.005 970.903 222.553L962 222.553L962 215L982.88 215L982.88 222.553C978.499 224.063 975.355 226.329 973.447 229.35C971.469 232.443 970.479 237.011 970.479 243.053L970.479 269.811C970.479 276.644 971.751 281.571 974.295 284.592C976.839 287.613 980.407 289.124 985 289.124C989.522 289.124 993.091 287.613 995.705 284.592C998.249 281.571 999.521 276.644 999.521 269.811L999.521 243.053C999.521 237.011 998.567 232.443 996.659 229.35C994.68 226.329 991.501 224.063 987.12 222.553L987.12 215L1008 215Z" stroke="#105FB0"/>
<path d="M1088 215L1088 222.553L1078.88 222.553C1081.78 224.279 1084.04 226.832 1085.67 230.213C1087.22 233.666 1088 237.946 1088 243.053L1088 269.811C1088 278.946 1085.95 285.743 1081.85 290.203C1077.75 294.734 1072.14 297 1065 297C1057.86 297 1052.25 294.734 1048.15 290.203C1044.05 285.743 1042 278.946 1042 269.811L1042 243.053C1042 232.839 1044.97 226.005 1050.9 222.553L1042 222.553L1042 215L1062.88 215L1062.88 222.553C1058.5 224.063 1055.35 226.329 1053.45 229.35C1051.47 232.443 1050.48 237.011 1050.48 243.053L1050.48 269.811C1050.48 276.644 1051.75 281.571 1054.29 284.592C1056.84 287.613 1060.41 289.124 1065 289.124C1069.52 289.124 1073.09 287.613 1075.71 284.592C1078.25 281.571 1079.52 276.644 1079.52 269.811L1079.52 243.053C1079.52 237.011 1078.57 232.443 1076.66 229.35C1074.68 226.329 1071.5 224.063 1067.12 222.553L1067.12 215L1088 215Z" fill="#105FB0"/>
<path d="M1088 215L1088 222.553L1078.88 222.553C1081.78 224.279 1084.04 226.832 1085.67 230.213C1087.22 233.666 1088 237.946 1088 243.053L1088 269.811C1088 278.946 1085.95 285.743 1081.85 290.203C1077.75 294.734 1072.14 297 1065 297C1057.86 297 1052.25 294.734 1048.15 290.203C1044.05 285.743 1042 278.946 1042 269.811L1042 243.053C1042 232.839 1044.97 226.005 1050.9 222.553L1042 222.553L1042 215L1062.88 215L1062.88 222.553C1058.5 224.063 1055.35 226.329 1053.45 229.35C1051.47 232.443 1050.48 237.011 1050.48 243.053L1050.48 269.811C1050.48 276.644 1051.75 281.571 1054.29 284.592C1056.84 287.613 1060.41 289.124 1065 289.124C1069.52 289.124 1073.09 287.613 1075.71 284.592C1078.25 281.571 1079.52 276.644 1079.52 269.811L1079.52 243.053C1079.52 237.011 1078.57 232.443 1076.66 229.35C1074.68 226.329 1071.5 224.063 1067.12 222.553L1067.12 215L1088 215Z" stroke="#105FB0"/>
<path d="M921 352V344.447H930.115C927.218 342.721 924.957 340.168 923.332 336.787C921.777 333.334 921 329.054 921 323.947V297.189C921 288.054 923.049 281.257 927.147 276.797C931.246 272.266 936.863 270 944 270C951.137 270 956.754 272.266 960.853 276.797C964.951 281.257 967 288.054 967 297.189V323.947C967 334.161 964.032 340.995 958.097 344.447H967V352H946.12V344.447C950.501 342.937 953.645 340.671 955.553 337.65C957.531 334.557 958.521 329.989 958.521 323.947V297.189C958.521 290.356 957.249 285.429 954.705 282.408C952.161 279.387 948.593 277.876 944 277.876C939.478 277.876 935.909 279.387 933.295 282.408C930.751 285.429 929.479 290.356 929.479 297.189V323.947C929.479 329.989 930.433 334.557 932.341 337.65C934.32 340.671 937.499 342.937 941.88 344.447V352H921Z" fill="#105FB0"/>
<path d="M921 352V344.447H930.115C927.218 342.721 924.957 340.168 923.332 336.787C921.777 333.334 921 329.054 921 323.947V297.189C921 288.054 923.049 281.257 927.147 276.797C931.246 272.266 936.863 270 944 270C951.137 270 956.754 272.266 960.853 276.797C964.951 281.257 967 288.054 967 297.189V323.947C967 334.161 964.032 340.995 958.097 344.447H967V352H946.12V344.447C950.501 342.937 953.645 340.671 955.553 337.65C957.531 334.557 958.521 329.989 958.521 323.947V297.189C958.521 290.356 957.249 285.429 954.705 282.408C952.161 279.387 948.593 277.876 944 277.876C939.478 277.876 935.909 279.387 933.295 282.408C930.751 285.429 929.479 290.356 929.479 297.189V323.947C929.479 329.989 930.433 334.557 932.341 337.65C934.32 340.671 937.499 342.937 941.88 344.447V352H921Z" stroke="#105FB0"/>
<path d="M1003 352V344.447H1012.12C1009.22 342.721 1006.96 340.168 1005.33 336.787C1003.78 333.334 1003 329.054 1003 323.947V297.189C1003 288.054 1005.05 281.257 1009.15 276.797C1013.25 272.266 1018.86 270 1026 270C1033.14 270 1038.75 272.266 1042.85 276.797C1046.95 281.257 1049 288.054 1049 297.189V323.947C1049 334.161 1046.03 340.995 1040.1 344.447H1049V352H1028.12V344.447C1032.5 342.937 1035.65 340.671 1037.55 337.65C1039.53 334.557 1040.52 329.989 1040.52 323.947V297.189C1040.52 290.356 1039.25 285.429 1036.71 282.408C1034.16 279.387 1030.59 277.876 1026 277.876C1021.48 277.876 1017.91 279.387 1015.29 282.408C1012.75 285.429 1011.48 290.356 1011.48 297.189V323.947C1011.48 329.989 1012.43 334.557 1014.34 337.65C1016.32 340.671 1019.5 342.937 1023.88 344.447V352H1003Z" fill="#105FB0"/>
<path d="M1003 352V344.447H1012.12C1009.22 342.721 1006.96 340.168 1005.33 336.787C1003.78 333.334 1003 329.054 1003 323.947V297.189C1003 288.054 1005.05 281.257 1009.15 276.797C1013.25 272.266 1018.86 270 1026 270C1033.14 270 1038.75 272.266 1042.85 276.797C1046.95 281.257 1049 288.054 1049 297.189V323.947C1049 334.161 1046.03 340.995 1040.1 344.447H1049V352H1028.12V344.447C1032.5 342.937 1035.65 340.671 1037.55 337.65C1039.53 334.557 1040.52 329.989 1040.52 323.947V297.189C1040.52 290.356 1039.25 285.429 1036.71 282.408C1034.16 279.387 1030.59 277.876 1026 277.876C1021.48 277.876 1017.91 279.387 1015.29 282.408C1012.75 285.429 1011.48 290.356 1011.48 297.189V323.947C1011.48 329.989 1012.43 334.557 1014.34 337.65C1016.32 340.671 1019.5 342.937 1023.88 344.447V352H1003Z" stroke="#105FB0"/>
<path d="M1083 352V344.447H1092.12C1089.22 342.721 1086.96 340.168 1085.33 336.787C1083.78 333.334 1083 329.054 1083 323.947V297.189C1083 288.054 1085.05 281.257 1089.15 276.797C1093.25 272.266 1098.86 270 1106 270C1113.14 270 1118.75 272.266 1122.85 276.797C1126.95 281.257 1129 288.054 1129 297.189V323.947C1129 334.161 1126.03 340.995 1120.1 344.447H1129V352H1108.12V344.447C1112.5 342.937 1115.65 340.671 1117.55 337.65C1119.53 334.557 1120.52 329.989 1120.52 323.947V297.189C1120.52 290.356 1119.25 285.429 1116.71 282.408C1114.16 279.387 1110.59 277.876 1106 277.876C1101.48 277.876 1097.91 279.387 1095.29 282.408C1092.75 285.429 1091.48 290.356 1091.48 297.189V323.947C1091.48 329.989 1092.43 334.557 1094.34 337.65C1096.32 340.671 1099.5 342.937 1103.88 344.447V352H1083Z" fill="#105FB0"/>
<path d="M1083 352V344.447H1092.12C1089.22 342.721 1086.96 340.168 1085.33 336.787C1083.78 333.334 1083 329.054 1083 323.947V297.189C1083 288.054 1085.05 281.257 1089.15 276.797C1093.25 272.266 1098.86 270 1106 270C1113.14 270 1118.75 272.266 1122.85 276.797C1126.95 281.257 1129 288.054 1129 297.189V323.947C1129 334.161 1126.03 340.995 1120.1 344.447H1129V352H1108.12V344.447C1112.5 342.937 1115.65 340.671 1117.55 337.65C1119.53 334.557 1120.52 329.989 1120.52 323.947V297.189C1120.52 290.356 1119.25 285.429 1116.71 282.408C1114.16 279.387 1110.59 277.876 1106 277.876C1101.48 277.876 1097.91 279.387 1095.29 282.408C1092.75 285.429 1091.48 290.356 1091.48 297.189V323.947C1091.48 329.989 1092.43 334.557 1094.34 337.65C1096.32 340.671 1099.5 342.937 1103.88 344.447V352H1083Z" stroke="#105FB0"/>
<path d="M963.319 143.912C961.605 104.18 936.187 78.7491 923.693 71H1126.58" stroke="#105FB0" stroke-width="3"/>
<path d="M899.398 167.153C874.857 112.964 931.822 71.8862 953.735 145.302C924.29 145.302 905.242 159.869 899.398 167.153Z" fill="white" stroke="#105FB0" stroke-width="3"/>
<path d="M1147.48 167.152C1171.55 113.986 1115.68 73.6834 1094.19 145.714C1123.06 145.714 1141.75 160.006 1147.48 167.152Z" fill="white" stroke="#105FB0" stroke-width="3"/>
<path d="M937.5 82.5C912.809 79.6244 861.662 96.8598 878.199 187.96C860.111 226.781 857.917 332.548 978.5 434" stroke="#105FB0" stroke-width="3"/>
<path d="M1111.5 83.5C1136.28 80.629 1185.55 97.9975 1168.95 188.95C1187.1 227.708 1193.15 332.837 1072.13 434.125" stroke="#105FB0" stroke-width="3"/>
<path d="M1086.55 144C1088.25 104.22 1113.56 78.7585 1126 71H924" stroke="#105FB0" stroke-width="3"/>
<path d="M984 147C993.505 147 1041.29 147 1064 147" stroke="#105FB0" stroke-width="3"/>
<path d="M1000.6 344H1013C1013 353.022 1010.42 360.111 1005.25 365.267C1000.08 370.422 993.3 373 984.903 373C976.636 373 969.918 370.422 964.751 365.267C959.584 360.111 957 353.022 957 344H969.401C969.401 350.316 970.952 354.891 974.052 357.727C977.281 360.562 980.899 361.98 984.903 361.98C989.295 361.98 992.977 360.562 995.948 357.727C999.048 354.891 1000.6 350.316 1000.6 344Z" fill="#105FB0"/>
<path d="M1081.6 344H1094C1094 353.022 1091.42 360.111 1086.25 365.267C1081.08 370.422 1074.3 373 1065.9 373C1057.64 373 1050.92 370.422 1045.75 365.267C1040.58 360.111 1038 353.022 1038 344H1050.4C1050.4 350.316 1051.95 354.891 1055.05 357.727C1058.28 360.562 1061.9 361.98 1065.9 361.98C1070.3 361.98 1073.98 360.562 1076.95 357.727C1080.05 354.891 1081.6 350.316 1081.6 344Z" fill="#105FB0"/>
<path d="M1089.62 223L1077 223C1077 213.978 1079.63 206.889 1084.89 201.733C1090.15 196.578 1097.05 194 1105.6 194C1114.01 194 1120.85 196.578 1126.11 201.733C1131.37 206.889 1134 213.978 1134 223L1121.38 223C1121.38 216.684 1119.8 212.109 1116.64 209.273C1113.36 206.438 1109.67 205.02 1105.6 205.02C1101.13 205.02 1097.38 206.438 1094.36 209.273C1091.2 212.109 1089.62 216.684 1089.62 223Z" fill="#105FB0"/>
<path d="M1008.4 223L996 223C996 213.978 998.584 206.889 1003.75 201.733C1008.92 196.578 1015.7 194 1024.1 194C1032.36 194 1039.08 196.578 1044.25 201.733C1049.42 206.889 1052 213.978 1052 223L1039.6 223C1039.6 216.684 1038.05 212.109 1034.95 209.273C1031.72 206.438 1028.1 205.02 1024.1 205.02C1019.7 205.02 1016.02 206.438 1013.05 209.273C1009.95 212.109 1008.4 216.684 1008.4 223Z" fill="#105FB0"/>
<path d="M927.401 223L915 223C915 213.978 917.584 206.889 922.751 201.733C927.918 196.578 934.7 194 943.097 194C951.364 194 958.082 196.578 963.249 201.733C968.416 206.889 971 213.978 971 223L958.599 223C958.599 216.684 957.048 212.109 953.948 209.273C950.719 206.438 947.101 205.02 943.097 205.02C938.705 205.02 935.023 206.438 932.052 209.273C928.952 212.109 927.401 216.684 927.401 223Z" fill="#105FB0"/>
<path d="M1026 369C1023.99 369 1022.3 368.356 1020.93 367.069C1019.64 365.701 1019 364.011 1019 362C1019 359.989 1019.64 358.339 1020.93 357.052C1022.3 355.684 1023.99 355 1026 355C1028.09 355 1029.78 355.684 1031.07 357.052C1032.36 358.339 1033 359.989 1033 362C1033 364.011 1032.36 365.701 1031.07 367.069C1029.78 368.356 1028.09 369 1026 369Z" fill="#105FB0"/>
<path d="M1106 369C1103.99 369 1102.3 368.356 1100.93 367.069C1099.64 365.701 1099 364.011 1099 362C1099 359.989 1099.64 358.339 1100.93 357.052C1102.3 355.684 1103.99 355 1106 355C1108.09 355 1109.78 355.684 1111.07 357.052C1112.36 358.339 1113 359.989 1113 362C1113 364.011 1112.36 365.701 1111.07 367.069C1109.78 368.356 1108.09 369 1106 369Z" fill="#105FB0"/>
<path d="M944 369C941.989 369 940.299 368.356 938.931 367.069C937.644 365.701 937 364.011 937 362C937 359.989 937.644 358.339 938.931 357.052C940.299 355.684 941.989 355 944 355C946.092 355 947.782 355.684 949.069 357.052C950.356 358.339 951 359.989 951 362C951 364.011 950.356 365.701 949.069 367.069C947.782 368.356 946.092 369 944 369Z" fill="#105FB0"/>
<path d="M985 212C982.989 212 981.299 211.356 979.931 210.069C978.644 208.701 978 207.011 978 205C978 202.989 978.644 201.339 979.931 200.052C981.299 198.684 982.989 198 985 198C987.092 198 988.782 198.684 990.069 200.052C991.356 201.339 992 202.989 992 205C992 207.011 991.356 208.701 990.069 210.069C988.782 211.356 987.092 212 985 212Z" fill="#105FB0"/>
<path d="M903 212C900.989 212 899.299 211.356 897.931 210.069C896.644 208.701 896 207.011 896 205C896 202.989 896.644 201.339 897.931 200.052C899.299 198.684 900.989 198 903 198C905.092 198 906.782 198.684 908.069 200.052C909.356 201.339 910 202.989 910 205C910 207.011 909.356 208.701 908.069 210.069C906.782 211.356 905.092 212 903 212Z" fill="#105FB0"/>
<path d="M1066 212C1063.99 212 1062.3 211.356 1060.93 210.069C1059.64 208.701 1059 207.011 1059 205C1059 202.989 1059.64 201.339 1060.93 200.052C1062.3 198.684 1063.99 198 1066 198C1068.09 198 1069.78 198.684 1071.07 200.052C1072.36 201.339 1073 202.989 1073 205C1073 207.011 1072.36 208.701 1071.07 210.069C1069.78 211.356 1068.09 212 1066 212Z" fill="#105FB0"/>
<path d="M1146 212C1143.99 212 1142.3 211.356 1140.93 210.069C1139.64 208.701 1139 207.011 1139 205C1139 202.989 1139.64 201.339 1140.93 200.052C1142.3 198.684 1143.99 198 1146 198C1148.09 198 1149.78 198.684 1151.07 200.052C1152.36 201.339 1153 202.989 1153 205C1153 207.011 1152.36 208.701 1151.07 210.069C1149.78 211.356 1148.09 212 1146 212Z" fill="#105FB0"/>
<path d="M750.744 202H374C374.91 213.542 377.172 227.192 381.127 241.819M569.907 395.648V434H610.093V395.648H569.907ZM569.907 395.648C531.517 395.114 500.059 385.713 474.465 370.999M381.127 241.819H797M381.127 241.819C393.207 286.505 421.084 340.31 474.465 370.999M474.465 370.999C550.651 370.956 703.023 370.896 703.023 370.999" stroke="#105FB0" stroke-width="3"/>
<path d="M428 202H805C799.973 265.498 754.268 393.495 609.5 395.5" stroke="#105FB0" stroke-width="3"/>
<rect x="480.5" y="434.5" width="224" height="11" stroke="#105FB0" stroke-width="3"/>
<rect x="64.5" y="434.5" width="188" height="11" stroke="#105FB0" stroke-width="3"/>
<rect x="932.5" y="434.5" width="188" height="11" stroke="#105FB0" stroke-width="3"/>
</svg>
