<svg width="432" height="250" viewBox="0 0 432 250" fill="none" xmlns="http://www.w3.org/2000/svg">
<path fill-rule="evenodd" clip-rule="evenodd" d="M431.41 131.993L218.965 57.9549L158.722 87.0598L187.827 147.303L400.272 221.341L431.41 131.993ZM427.59 133.839L398.426 217.521L189.987 144.879L162.728 88.456L219.151 61.1967L427.59 133.839ZM211.894 84.6903L177.588 93.6855L199.349 120.687L211.894 84.6903ZM207.208 89.0204L198.294 114.597L182.832 95.4118L207.208 89.0204Z" fill="#105FB0"/>
<path fill-rule="evenodd" clip-rule="evenodd" d="M29.5737 102.299C40.3961 105.005 52.783 102.123 67.3708 91.7215C90.0604 75.5429 119.648 68.7964 143.963 71.4414C168.353 74.0947 186.763 86.0376 188.505 106.627L191.495 106.374C189.57 83.6295 169.23 71.1724 144.287 68.459C119.268 65.7374 88.9396 72.6575 65.6292 89.2789C51.467 99.3771 39.9789 101.808 30.3013 99.3888C20.5606 96.9536 12.2634 89.5138 4.71866 79.0007C-2.81595 68.5016 -9.45244 55.1488 -15.9531 41.21C-17.3669 38.1785 -18.7745 35.1186 -20.1831 32.0566C-25.2283 21.0893 -30.2863 10.0944 -35.6857 0.277344L-38.3143 1.7231C-32.9721 11.4363 -27.975 22.2984 -22.9367 33.2499C-21.5212 36.3267 -20.1025 39.4106 -18.6719 42.478C-12.1726 56.4141 -5.43405 69.9988 2.28134 80.7498C9.9866 91.4866 18.8144 99.6094 29.5737 102.299Z" fill="#105FB0"/>
<path fill-rule="evenodd" clip-rule="evenodd" d="M5.47955 174.97C11.4028 176.206 17.6041 173.339 24.1536 165.459C28.0713 160.745 31.3922 158.496 34.2012 157.86C36.8983 157.25 39.4104 158.069 41.9515 160.254C44.538 162.479 47.0376 166.034 49.5362 170.607C52.0238 175.16 54.4487 180.605 56.9293 186.518C58.0378 189.16 59.1573 191.896 60.2971 194.682C64.2345 204.305 68.414 214.52 73.2165 223.497C79.387 235.03 86.7848 244.924 96.4298 248.887C100.531 250.573 104.924 250.235 109.364 248.492C113.783 246.757 118.33 243.602 122.877 239.505C131.974 231.309 141.348 219.09 150.015 205.951C167.36 179.656 182.102 149.321 186.384 139.079L183.616 137.921C179.398 148.012 164.74 178.178 147.51 204.299C138.89 217.368 129.682 229.336 120.869 237.276C116.462 241.247 112.222 244.147 108.268 245.699C104.335 247.244 100.769 247.427 97.5702 246.113C88.9652 242.576 81.988 233.532 75.8617 222.081C71.1397 213.255 67.0414 203.24 63.113 193.64C61.9632 190.83 60.8279 188.056 59.6957 185.357C57.2075 179.426 54.734 173.863 52.1689 169.168C49.6148 164.494 46.9073 160.56 43.9078 157.98C40.8631 155.361 37.4103 154.058 33.5391 154.934C29.7797 155.785 25.9287 158.63 21.8464 163.541C15.5959 171.061 10.418 172.936 6.09233 172.033C1.57979 171.092 -2.69136 167.03 -6.79887 161.016C-10.8625 155.067 -14.5363 147.559 -17.9866 140.275C-18.3683 139.469 -18.7477 138.665 -19.1247 137.866C-22.1237 131.51 -24.9772 125.463 -27.7401 121.186L-30.2599 122.814C-27.6139 126.91 -24.8542 132.756 -21.8311 139.161C-21.4575 139.953 -21.0798 140.753 -20.6978 141.559C-17.2575 148.822 -13.4917 156.537 -9.27612 162.709C-5.10448 168.816 -0.256866 173.773 5.47955 174.97Z" fill="#105FB0"/>
</svg>
