<svg width="453" height="519" viewBox="0 0 453 519" fill="none" xmlns="http://www.w3.org/2000/svg">
<path d="M386.901 412.557C342 425.5 195.586 394.624 177.269 338.733C168.629 312.371 194.668 312.434 232.052 323.892C239.716 311.691 262.287 292.155 291.259 311.615C327.474 335.94 327.379 349.908 326.009 362.824C341.086 370.175 355.325 377.532 367.586 384.162C347.191 357.303 300.602 301.454 277.407 292.933C248.414 282.281 58.6888 336.438 68.2317 285.381C75.866 244.536 204.432 247.905 261.267 267.264C182.851 226.072 26.2458 184.23 70.0506 159.429C113.856 134.628 182.729 178.32 200.037 202.835C189.277 185.723 162.371 105.104 191.161 109.945C219.951 114.786 253.823 205.249 267.161 249.876L286.815 269.759C259.653 201.028 203.209 51.7815 259.011 44.7209C314.813 37.6603 350.978 234.755 339.369 312.52L383.041 365.706C386.316 329.324 324.014 162.243 367.665 169.043C411.317 175.842 426.257 303.536 402 406.5L386.901 412.557Z" fill="#105FB0"/>
<path d="M232.052 323.892C194.668 312.434 168.629 312.371 177.269 338.733C195.586 394.624 342 425.5 386.901 412.557L402 406.5C426.257 303.536 411.317 175.842 367.665 169.043C324.014 162.243 386.316 329.324 383.041 365.706L339.369 312.52C350.978 234.755 314.813 37.6603 259.011 44.7209C203.209 51.7814 259.653 201.028 286.815 269.759L267.161 249.876C253.823 205.249 219.951 114.786 191.161 109.945C162.371 105.104 189.277 185.723 200.037 202.835C182.729 178.32 113.856 134.628 70.0506 159.429C26.2458 184.23 182.851 226.072 261.267 267.264C204.432 247.905 75.866 244.536 68.2317 285.381C58.6888 336.438 248.414 282.281 277.407 292.933C300.602 301.454 347.191 357.303 367.586 384.162C355.325 377.532 341.086 370.175 326.009 362.824M232.052 323.892C239.716 311.691 262.287 292.155 291.259 311.615C327.474 335.94 327.379 349.909 326.009 362.824M232.052 323.892C226.935 333.574 225.041 358.108 258.401 378.781C291.761 399.453 317.373 376.757 326.009 362.824" stroke="white" stroke-width="3"/>
<path d="M248.066 333.803L248.006 322.379M248.066 333.803L254.829 322.22M248.066 333.803L251.955 344.875M248.066 333.803L242.881 342.682" stroke="white" stroke-width="3"/>
</svg>
