<svg width="423" height="789" viewBox="0 0 423 789" fill="none" xmlns="http://www.w3.org/2000/svg">
<path d="M418.155 450.846C372.14 458.988 229.792 412.865 217.463 355.355C211.647 328.23 237.535 331.035 273.504 346.366C282.41 335.04 306.913 317.99 333.675 340.393C367.127 368.396 365.561 382.277 362.839 394.977C377.058 403.874 390.443 412.691 401.937 420.575C384.484 391.717 344.036 331.273 321.868 320.356C294.157 306.71 99.7838 340.585 114.65 290.818C126.544 251.003 254.04 267.893 308.52 293.13C234.878 243.909 83.5503 185.807 129.723 165.757C175.896 145.708 239.786 196.41 254.416 222.611C245.518 204.461 227.252 121.457 255.372 129.303C283.491 137.148 307.649 230.676 316.212 276.459L333.663 298.302C313.89 227.093 273.478 72.7315 329.713 71.5867C385.948 70.4419 401.156 270.25 381.422 346.359L419.25 403.848C426.339 368.013 381.978 195.301 424.671 206.66C467.363 218.019 468.773 346.576 433.808 446.412L418.155 450.846Z" fill="#105FB0"/>
<path d="M273.504 346.366C237.535 331.035 211.647 328.23 217.463 355.355C229.792 412.865 372.14 458.988 418.155 450.846L433.808 446.412C468.773 346.576 467.363 218.019 424.671 206.66C381.978 195.301 426.339 368.013 419.25 403.848L381.422 346.359C401.156 270.25 385.948 70.4419 329.713 71.5867C273.478 72.7315 313.89 227.093 333.663 298.302L316.212 276.459C307.649 230.676 283.491 137.148 255.372 129.303C227.252 121.457 245.518 204.461 254.416 222.611C239.786 196.41 175.896 145.708 129.723 165.757C83.5503 185.807 234.878 243.909 308.52 293.13C254.04 267.893 126.544 251.003 114.65 290.818C99.7838 340.585 294.157 306.71 321.868 320.356C344.036 331.273 384.484 391.717 401.937 420.575C390.443 412.691 377.058 403.874 362.839 394.977M273.504 346.366C282.41 335.04 306.913 317.99 333.675 340.393C367.127 368.396 365.561 382.277 362.839 394.977M273.504 346.366C267.396 355.456 262.929 379.654 293.926 403.725C324.924 427.795 352.784 407.922 362.839 394.977" stroke="white" stroke-width="3"/>
<path d="M441.631 465.448C447.84 530.694 450.243 667.963 410.183 695.067C388.61 709.663 380.747 683.353 380.418 644.93C358.456 639.063 344.893 627.574 348.267 590.037C351.266 556.669 370.451 547.704 389.46 546.709C393.489 526.41 399.776 506.033 404.324 495.61C424.748 448.794 330.902 578.746 235.909 541.018C159.915 510.835 313.645 482.055 400.009 471.437C330.497 468.974 207.965 499.477 184.833 453.72C155.917 396.524 392.318 436.503 428.749 452.397C436.552 455.801 441.233 457.845 441.631 465.448Z" fill="#105FB0"/>
<path d="M389.46 546.709C393.489 526.41 399.776 506.033 404.324 495.61C424.748 448.794 330.902 578.746 235.909 541.018C159.915 510.835 313.645 482.055 400.009 471.437C330.497 468.974 207.965 499.477 184.833 453.72C155.917 396.524 392.318 436.503 428.749 452.397C436.552 455.801 441.233 457.845 441.631 465.448C447.84 530.694 450.243 667.963 410.183 695.067C388.61 709.663 380.747 683.353 380.418 644.93M389.46 546.709C422.515 551.842 426.582 578.384 425.383 592.102C423.531 611.108 411.946 648.282 380.418 644.93M389.46 546.709C370.451 547.704 351.266 556.669 348.267 590.037C344.893 627.574 358.456 639.063 380.418 644.93" stroke="white" stroke-width="3"/>
<path d="M378.175 629.241L367.048 629.512M378.175 629.241L366.767 622.869M378.175 629.241L388.887 625.246M378.175 629.241L386.921 634.126" stroke="white" stroke-width="3"/>
<path d="M286.047 358.153L281.56 369.342M286.047 358.153L286.42 372.152M286.047 358.153L293.159 348.8M286.047 358.153L285.76 347.421" stroke="white" stroke-width="3"/>
</svg>
