<svg width="1180" height="494" viewBox="0 0 1180 494" fill="none" xmlns="http://www.w3.org/2000/svg">
<rect x="1.5" y="1.5" width="1177" height="490.345" stroke="#105FB0" stroke-width="3"/>
<rect x="160.578" y="34.7253" width="200.392" height="200.392" fill="white" stroke="#105FB0" stroke-width="3"/>
<rect x="160.578" y="257.22" width="200.392" height="200.392" fill="white" stroke="#105FB0" stroke-width="3"/>
<rect x="379.703" y="34.7253" width="200.392" height="200.392" fill="white" stroke="#105FB0" stroke-width="3"/>
<rect x="379.703" y="257.22" width="200.392" height="200.392" fill="white" stroke="#105FB0" stroke-width="3"/>
<rect x="599.951" y="34.7253" width="200.392" height="200.392" fill="white" stroke="#105FB0" stroke-width="3"/>
<path d="M599.951 257.22H800.343V457.613H599.951V257.22Z" fill="white" stroke="#105FB0" stroke-width="3"/>
<rect x="819.075" y="34.7253" width="200.392" height="200.392" fill="white" stroke="#105FB0" stroke-width="3"/>
<rect x="819.075" y="257.22" width="200.392" height="200.392" fill="white" stroke="#105FB0" stroke-width="3"/>
<path d="M310.556 365.735H304.164C302.08 365.735 300.281 366.398 298.766 367.724C297.251 369.05 296.161 371.228 295.499 374.258L289.674 401.674C288.065 409.629 285.176 415.216 281.009 418.436C276.843 421.656 271.681 423.266 265.526 423.266H254.872L257.855 409.203H262.259C264.626 409.203 266.615 408.398 268.225 406.788C269.929 405.273 271.113 402.763 271.776 399.259L277.6 372.128C278.452 368.245 279.731 365.025 281.436 362.468C283.14 359.911 285.224 357.875 287.686 356.36C286.076 354.466 284.939 352.193 284.277 349.542C283.614 346.89 283.661 343.86 284.419 340.45L289.674 315.165C290.432 311.756 290.243 309.247 289.106 307.637C287.97 306.027 286.076 305.222 283.424 305.222H279.873L282.856 291.159H287.686C296.114 291.159 301.986 293.479 305.3 298.119C308.615 302.665 309.325 309.294 307.431 318.006L302.743 340.166C301.607 345.848 303.548 348.689 308.567 348.689H314.107L310.556 365.735Z" fill="#105FB0"/>
<path d="M310.556 365.735H304.164C302.08 365.735 300.281 366.398 298.766 367.724C297.251 369.05 296.161 371.228 295.499 374.258L289.674 401.674C288.065 409.629 285.176 415.216 281.009 418.436C276.843 421.656 271.681 423.266 265.526 423.266H254.872L257.855 409.203H262.259C264.626 409.203 266.615 408.398 268.225 406.788C269.929 405.273 271.113 402.763 271.776 399.259L277.6 372.128C278.452 368.245 279.731 365.025 281.436 362.468C283.14 359.911 285.224 357.875 287.686 356.36C286.076 354.466 284.939 352.193 284.277 349.542C283.614 346.89 283.661 343.86 284.419 340.45L289.674 315.165C290.432 311.756 290.243 309.247 289.106 307.637C287.97 306.027 286.076 305.222 283.424 305.222H279.873L282.856 291.159H287.686C296.114 291.159 301.986 293.479 305.3 298.119C308.615 302.665 309.325 309.294 307.431 318.006L302.743 340.166C301.607 345.848 303.548 348.689 308.567 348.689H314.107L310.556 365.735Z" stroke="#105FB0"/>
<path d="M206.597 423.266L209.58 409.203H228.047L250.065 305.222H231.74L234.581 291.159H271.514L243.388 423.266H206.597Z" fill="#105FB0"/>
<path d="M206.597 423.266L209.58 409.203H228.047L250.065 305.222H231.74L234.581 291.159H271.514L243.388 423.266H206.597Z" stroke="#105FB0"/>
<path d="M933.669 196.359C930.203 198.194 927.296 199.34 924.948 199.799C922.6 200.372 920.252 200.659 917.904 200.659C909.742 200.659 903.648 197.792 899.623 192.06C895.709 186.212 893.473 178.588 892.914 169.186C888.777 169.874 884.64 170.218 880.503 170.218L882.18 160.931C885.646 160.931 889.168 160.587 892.746 159.899C892.97 151.529 893.864 143.045 895.43 134.446C896.995 125.732 899.119 117.419 901.803 109.508C904.598 101.597 907.897 94.5458 911.698 88.3544C915.612 82.0484 919.917 77.1183 924.613 73.564C929.309 69.895 934.452 68.0605 940.043 68.0605C944.962 68.0605 948.764 69.0351 951.448 70.9842C954.243 72.9334 956.2 75.5131 957.318 78.7234C958.548 81.9338 959.163 85.5454 959.163 89.5583C959.163 98.2721 957.765 106.699 954.97 114.84C952.174 122.98 948.205 130.49 943.062 137.369C938.03 144.134 932.048 150.096 925.116 155.255C918.295 160.3 910.916 164.084 902.977 166.606C903.312 174.288 904.822 180.365 907.505 184.836C910.301 189.308 914.326 191.544 919.581 191.544C921.706 191.544 923.83 191.257 925.954 190.684C928.079 190.111 930.595 189.079 933.502 187.588L933.669 196.359ZM938.701 77.0036C935.011 77.0036 931.489 78.6088 928.135 81.8191C924.78 85.0294 921.594 89.3863 918.575 94.8898C915.668 100.393 913.096 106.642 910.86 113.636C908.623 120.515 906.779 127.681 905.325 135.134C903.983 142.586 903.201 149.867 902.977 156.975C911.363 153.88 919.078 149.121 926.122 142.701C933.166 136.28 938.813 128.713 943.062 119.999C947.311 111.171 949.435 101.597 949.435 91.2781C949.435 87.2652 948.652 83.8829 947.087 81.1312C945.633 78.3795 942.838 77.0036 938.701 77.0036Z" fill="#105FB0"/>
<path d="M933.669 196.359C930.203 198.194 927.296 199.34 924.948 199.799C922.6 200.372 920.252 200.659 917.904 200.659C909.742 200.659 903.648 197.792 899.623 192.06C895.709 186.212 893.473 178.588 892.914 169.186C888.777 169.874 884.64 170.218 880.503 170.218L882.18 160.931C885.646 160.931 889.168 160.587 892.746 159.899C892.97 151.529 893.864 143.045 895.43 134.446C896.995 125.732 899.119 117.419 901.803 109.508C904.598 101.597 907.897 94.5458 911.698 88.3544C915.612 82.0484 919.917 77.1183 924.613 73.564C929.309 69.895 934.452 68.0605 940.043 68.0605C944.962 68.0605 948.764 69.0351 951.448 70.9842C954.243 72.9334 956.2 75.5131 957.318 78.7234C958.548 81.9338 959.163 85.5454 959.163 89.5583C959.163 98.2721 957.765 106.699 954.97 114.84C952.174 122.98 948.205 130.49 943.062 137.369C938.03 144.134 932.048 150.096 925.116 155.255C918.295 160.3 910.916 164.084 902.977 166.606C903.312 174.288 904.822 180.365 907.505 184.836C910.301 189.308 914.326 191.544 919.581 191.544C921.706 191.544 923.83 191.257 925.954 190.684C928.079 190.111 930.595 189.079 933.502 187.588L933.669 196.359ZM938.701 77.0036C935.011 77.0036 931.489 78.6088 928.135 81.8191C924.78 85.0294 921.594 89.3863 918.575 94.8898C915.668 100.393 913.096 106.642 910.86 113.636C908.623 120.515 906.779 127.681 905.325 135.134C903.983 142.586 903.201 149.867 902.977 156.975C911.363 153.88 919.078 149.121 926.122 142.701C933.166 136.28 938.813 128.713 943.062 119.999C947.311 111.171 949.435 101.597 949.435 91.2781C949.435 87.2652 948.652 83.8829 947.087 81.1312C945.633 78.3795 942.838 77.0036 938.701 77.0036Z" stroke="#105FB0"/>
<path d="M475.677 200.659H442.254L470.252 68.0605H535.523L529.398 96.3482H497.725L475.677 200.659Z" fill="#105FB0"/>
<path d="M475.677 200.659H442.254L470.252 68.0605H535.523L529.398 96.3482H497.725L475.677 200.659Z" stroke="#105FB0"/>
<path d="M662.502 200.659V188.446H677.421C672.68 185.654 668.979 181.525 666.319 176.058C663.774 170.475 662.502 163.555 662.502 155.296V112.027C662.502 97.2554 665.856 86.2637 672.564 79.0522C679.272 71.7244 688.466 68.0605 700.147 68.0605C711.827 68.0605 721.022 71.7244 727.729 79.0522C734.437 86.2637 737.791 97.2554 737.791 112.027V155.296C737.791 171.813 732.934 182.863 723.219 188.446H737.791V200.659H703.616V188.446C710.787 186.003 715.933 182.339 719.056 177.454C722.294 172.453 723.913 165.067 723.913 155.296V112.027C723.913 100.977 721.831 93.0099 717.668 88.1247C713.504 83.2396 707.664 80.797 700.147 80.797C692.745 80.797 686.905 83.2396 682.626 88.1247C678.462 93.0099 676.38 100.977 676.38 112.027V155.296C676.38 165.067 677.942 172.453 681.064 177.454C684.302 182.339 689.507 186.003 696.677 188.446V200.659H662.502Z" fill="#105FB0"/>
<path d="M662.502 200.659V188.446H677.421C672.68 185.654 668.979 181.525 666.319 176.058C663.774 170.475 662.502 163.555 662.502 155.296V112.027C662.502 97.2554 665.856 86.2637 672.564 79.0522C679.272 71.7244 688.466 68.0605 700.147 68.0605C711.827 68.0605 721.022 71.7244 727.729 79.0522C734.437 86.2637 737.791 97.2554 737.791 112.027V155.296C737.791 171.813 732.934 182.863 723.219 188.446H737.791V200.659H703.616V188.446C710.787 186.003 715.933 182.339 719.056 177.454C722.294 172.453 723.913 165.067 723.913 155.296V112.027C723.913 100.977 721.831 93.0099 717.668 88.1247C713.504 83.2396 707.664 80.797 700.147 80.797C692.745 80.797 686.905 83.2396 682.626 88.1247C678.462 93.0099 676.38 100.977 676.38 112.027V155.296C676.38 165.067 677.942 172.453 681.064 177.454C684.302 182.339 689.507 186.003 696.677 188.446V200.659H662.502Z" stroke="#105FB0"/>
<path d="M649.018 425.402L670.532 324.25C671.966 317.718 674.252 312.025 677.389 307.17C680.616 302.316 684.919 298.52 690.297 295.784C695.765 293.048 702.533 291.68 710.601 291.68C718.31 291.68 724.451 292.96 729.022 295.519C733.684 298.079 736.956 301.433 738.838 305.581C740.81 309.642 741.527 314.055 740.989 318.821C740.72 321.116 740.048 323.632 738.972 326.368C737.986 329.104 736.283 331.752 733.863 334.312C731.532 336.783 728.216 338.813 723.913 340.402C728.664 341.55 732.563 344.242 735.611 348.478C738.659 352.627 739.824 358.055 739.107 364.763C738.479 371.56 736.597 377.12 733.46 381.445C730.322 385.682 726.468 388.772 721.896 390.713C717.414 392.655 712.663 393.626 707.643 393.626C702.713 393.626 698.634 392.832 695.407 391.243C692.18 389.566 689.535 387.05 687.474 383.696L678.599 425.402H649.018ZM701.996 369C704.326 369 706.522 368.25 708.584 366.749C710.736 365.161 711.99 362.777 712.349 359.6C712.708 356.775 712.17 354.392 710.736 352.45C709.391 350.42 706.836 349.405 703.071 349.405H697.693L701.458 332.326H705.76C708.719 332.326 710.96 331.531 712.484 329.943C714.097 328.266 714.993 326.28 715.173 323.985C715.352 322.043 714.993 320.234 714.097 318.556C713.29 316.879 711.453 316.041 708.584 316.041C705.716 316.041 703.699 317.012 702.533 318.954C701.368 320.896 700.561 322.837 700.113 324.779L693.121 356.687C692.135 361.365 692.583 364.587 694.466 366.352C696.438 368.117 698.948 369 701.996 369Z" fill="#105FB0"/>
<path d="M649.018 425.402L670.532 324.25C671.966 317.718 674.252 312.025 677.389 307.17C680.616 302.316 684.919 298.52 690.297 295.784C695.765 293.048 702.533 291.68 710.601 291.68C718.31 291.68 724.451 292.96 729.022 295.519C733.684 298.079 736.956 301.433 738.838 305.581C740.81 309.642 741.527 314.055 740.989 318.821C740.72 321.116 740.048 323.632 738.972 326.368C737.986 329.104 736.283 331.752 733.863 334.312C731.532 336.783 728.216 338.813 723.913 340.402C728.664 341.55 732.563 344.242 735.611 348.478C738.659 352.627 739.824 358.055 739.107 364.763C738.479 371.56 736.597 377.12 733.46 381.445C730.322 385.682 726.468 388.772 721.896 390.713C717.414 392.655 712.663 393.626 707.643 393.626C702.713 393.626 698.634 392.832 695.407 391.243C692.18 389.566 689.535 387.05 687.474 383.696L678.599 425.402H649.018ZM701.996 369C704.326 369 706.522 368.25 708.584 366.749C710.736 365.161 711.99 362.777 712.349 359.6C712.708 356.775 712.17 354.392 710.736 352.45C709.391 350.42 706.836 349.405 703.071 349.405H697.693L701.458 332.326H705.76C708.719 332.326 710.96 331.531 712.484 329.943C714.097 328.266 714.993 326.28 715.173 323.985C715.352 322.043 714.993 320.234 714.097 318.556C713.29 316.879 711.453 316.041 708.584 316.041C705.716 316.041 703.699 317.012 702.533 318.954C701.368 320.896 700.561 322.837 700.113 324.779L693.121 356.687C692.135 361.365 692.583 364.587 694.466 366.352C696.438 368.117 698.948 369 701.996 369Z" stroke="#105FB0"/>
<path d="M252.619 68.0605H268.93L300.666 194.648V200.659H220.883V194.648L252.619 68.0605ZM288.965 190.935L260.775 75.3093L232.584 190.935H288.965Z" fill="#105FB0"/>
<path d="M252.619 68.0605H268.93L300.666 194.648V200.659H220.883V194.648L252.619 68.0605ZM288.965 190.935L260.775 75.3093L232.584 190.935H288.965Z" stroke="#105FB0"/>
<path d="M937.632 368.532L911.346 409.815H943.302V424.277H895.111V405.871L925.134 358.54L895.111 311.209V292.803H943.431V307.265H911.346L937.632 348.548V368.532Z" fill="#105FB0"/>
<path d="M937.632 368.532L911.346 409.815H943.302V424.277H895.111V405.871L925.134 358.54L895.111 311.209V292.803H943.431V307.265H911.346L937.632 348.548V368.532Z" stroke="#105FB0"/>
<path d="M475.087 424.278V388.613C464.008 388.119 455.205 385.061 448.676 379.437C442.148 373.814 438.883 364.934 438.883 352.799V313.286H450.753V351.763C450.753 357.88 451.842 362.912 454.018 366.858C456.194 370.805 459.112 373.715 462.772 375.59C466.432 377.365 470.488 378.253 474.939 378.253H475.087V291.68H486.958V378.253H487.106C491.656 378.253 495.712 377.365 499.273 375.59C502.933 373.715 505.851 370.805 508.027 366.858C510.203 362.912 511.292 357.88 511.292 351.763V313.286H523.162V352.799C523.162 364.934 519.897 373.814 513.369 379.437C506.84 385.061 498.036 388.119 486.958 388.613V424.278H475.087Z" fill="#105FB0"/>
<path d="M475.087 424.278V388.613C464.008 388.119 455.205 385.061 448.676 379.437C442.148 373.814 438.883 364.934 438.883 352.799V313.286H450.753V351.763C450.753 357.88 451.842 362.912 454.018 366.858C456.194 370.805 459.112 373.715 462.772 375.59C466.432 377.365 470.488 378.253 474.939 378.253H475.087V291.68H486.958V378.253H487.106C491.656 378.253 495.712 377.365 499.273 375.59C502.933 373.715 505.851 370.805 508.027 366.858C510.203 362.912 511.292 357.88 511.292 351.763V313.286H523.162V352.799C523.162 364.934 519.897 373.814 513.369 379.437C506.84 385.061 498.036 388.119 486.958 388.613V424.278H475.087Z" stroke="#105FB0"/>
<path d="M80.1469 98.1581C52.826 88.2082 81.763 53.3557 96.9982 74.0823C86.3542 44.041 33.8926 75.731 79.209 124.762C147.521 198.674 126.704 246.194 80.6802 240.915C34.7879 235.652 40.3378 193.408 54.2859 182.356C87.6077 155.952 110.16 207.825 88.0356 213.642C81.6644 215.958 68.1598 217.407 65.7469 199.135C52.6489 233.483 129.417 227.526 92.5717 174.095C78.0322 153.448 -2.11832 58.0792 76.6194 42.9244C115.521 35.437 130.865 116.629 80.1469 98.1581Z" fill="#105FB0" stroke="#105FB0" stroke-width="3"/>
<path d="M1099.45 393.173C1126.77 403.123 1097.84 437.975 1082.6 417.249C1093.25 447.29 1145.71 415.6 1100.39 366.569C1032.08 292.657 1052.9 245.137 1098.92 250.416C1144.81 255.679 1139.26 297.923 1125.31 308.975C1091.99 335.379 1069.44 283.506 1091.56 277.689C1097.93 275.373 1111.44 273.924 1113.85 292.196C1126.95 257.848 1050.18 263.805 1087.03 317.237C1101.57 337.883 1181.72 433.252 1102.98 448.407C1064.08 455.894 1048.73 374.702 1099.45 393.173Z" fill="#105FB0" stroke="#105FB0" stroke-width="3"/>
<path d="M80.1469 391.159C52.826 401.109 81.763 435.962 96.9982 415.235C86.3542 445.276 33.8926 413.586 79.209 364.555C147.521 290.643 126.704 243.123 80.6802 248.402C34.7879 253.666 40.3378 295.909 54.2859 306.961C87.6077 333.365 110.16 281.493 88.0356 275.675C81.6644 273.36 68.1598 271.91 65.7469 290.182C52.6489 255.835 129.417 261.791 92.5717 315.223C78.0322 335.87 -2.11832 431.238 76.6194 446.393C115.521 453.88 130.865 372.688 80.1469 391.159Z" fill="#105FB0" stroke="#105FB0" stroke-width="3"/>
<path d="M1099.45 100.172C1126.77 90.2219 1097.84 55.3693 1082.6 76.0959C1093.25 46.0547 1145.71 77.7447 1100.39 126.776C1032.08 200.688 1052.89 248.208 1098.92 242.929C1144.81 237.665 1139.26 195.422 1125.31 184.37C1091.99 157.966 1069.44 209.838 1091.56 215.656C1097.93 217.971 1111.44 219.421 1113.85 201.149C1126.95 235.496 1050.18 229.54 1087.03 176.108C1101.57 155.461 1181.72 60.0929 1102.98 44.9381C1064.08 37.4507 1048.73 118.643 1099.45 100.172Z" fill="#105FB0" stroke="#105FB0" stroke-width="3"/>
</svg>
