<svg width="1226" height="1297" viewBox="0 0 1226 1297" fill="none" xmlns="http://www.w3.org/2000/svg">
<path d="M0 1118H1179" stroke="white" stroke-width="3"/>
<path d="M1179 1118H400V1214" stroke="white" stroke-width="3"/>
<rect x="1.5" y="925.5" width="1176" height="288" rx="43.5" stroke="white" stroke-width="3"/>
<path d="M1120.51 1190.09C1084.55 1112.93 1065.66 1183.19 1029.36 1190.04C1019.41 1171.94 1000.01 1127.26 1002.02 1093.31C1004.03 1059.36 985.683 1047.94 976.258 1046.47C995.99 1044.74 1016.54 1068.79 1024.35 1081.03C1016.31 1067.59 1007 1039.14 1034.08 1032.91C1061.17 1026.69 1087.9 1044.19 1097.87 1053.72C1062.82 1067.06 1091.13 1073.58 1109.67 1075.17C1135.05 1079 1149.21 1098.09 1153.12 1107.16C1113.6 1099.24 1114.82 1115.87 1120.36 1125.17C1150.72 1155.92 1133.11 1181.26 1120.51 1190.09Z" fill="#105FB0" stroke="white" stroke-width="3"/>
<path d="M1022.56 1143.23C1024.44 1127.96 1037.07 1096.03 1072.6 1090.51" stroke="white" stroke-width="3"/>
<path d="M1043.5 1104.3C1049.96 1103.99 1064.45 1104.56 1070.83 1109.33" stroke="white" stroke-width="3"/>
<path d="M970.294 1097.81C950.67 1110.41 943.474 1133.15 953.297 1148.45C963.119 1163.76 986.789 1166.68 1006.41 1154.09C1026.04 1141.5 1033.23 1118.76 1023.41 1103.45C1013.59 1088.15 989.917 1085.22 970.294 1097.81Z" fill="#105FB0" stroke="white" stroke-width="3"/>
<path d="M912.429 1119.24C896.768 1129.29 891.115 1147.37 898.879 1159.46C906.642 1171.56 925.431 1173.95 941.092 1163.9C956.752 1153.85 962.405 1135.77 954.642 1123.67C946.878 1111.58 928.089 1109.19 912.429 1119.24Z" fill="#105FB0" stroke="white" stroke-width="3"/>
<path d="M934.674 1136.86C915.05 1149.45 907.854 1172.19 917.677 1187.5C927.499 1202.8 951.169 1205.73 970.792 1193.14C990.415 1180.54 997.611 1157.8 987.789 1142.5C977.967 1127.19 954.297 1124.26 934.674 1136.86Z" fill="#105FB0" stroke="white" stroke-width="3"/>
<path d="M870.264 1137.1C849.967 1138.58 835.048 1153.02 836.202 1168.76C837.356 1184.5 854.22 1196.6 874.517 1195.12C894.814 1193.63 909.732 1179.2 908.578 1163.45C907.424 1147.71 890.561 1135.61 870.264 1137.1Z" fill="#105FB0" stroke="white" stroke-width="3"/>
<path d="M811.677 1271.36C808.227 1279.37 810.794 1287.51 816.498 1289.97C822.202 1292.43 829.881 1288.7 833.331 1280.69C836.781 1272.68 834.214 1264.54 828.51 1262.09C822.806 1259.63 815.127 1263.36 811.677 1271.36Z" fill="#105FB0" stroke="white" stroke-width="3"/>
<path d="M809.853 1234.59C799.619 1236.15 792.797 1244.48 794.071 1252.81C795.344 1261.14 804.342 1267.04 814.576 1265.48C824.81 1263.91 831.632 1255.59 830.358 1247.26C829.085 1238.93 820.088 1233.03 809.853 1234.59Z" fill="#105FB0" stroke="white" stroke-width="3"/>
<path d="M989.474 1149.19C969.85 1161.78 962.654 1184.52 972.477 1199.83C982.299 1215.13 1005.97 1218.06 1025.59 1205.47C1045.22 1192.87 1052.41 1170.13 1042.59 1154.83C1032.77 1139.53 1009.1 1136.6 989.474 1149.19Z" fill="#105FB0" stroke="white" stroke-width="3"/>
<path d="M929.45 1164.42C909.153 1165.91 894.234 1180.34 895.388 1196.08C896.542 1211.83 913.406 1223.93 933.702 1222.44C953.999 1220.95 968.918 1206.52 967.764 1190.78C966.61 1175.04 949.746 1162.93 929.45 1164.42Z" fill="#105FB0" stroke="white" stroke-width="3"/>
<path d="M1003.73 1180.75C980.419 1181.04 962.267 1196.51 962.487 1214.69C962.706 1232.87 981.227 1247.9 1004.54 1247.62C1027.86 1247.34 1046.01 1231.87 1045.79 1213.68C1045.57 1195.5 1027.05 1180.47 1003.73 1180.75Z" fill="#105FB0" stroke="white" stroke-width="3"/>
<path d="M909.49 1205.65C889.867 1218.25 882.671 1240.99 892.493 1256.29C902.315 1271.59 925.985 1274.52 945.608 1261.93C965.232 1249.34 972.428 1226.6 962.605 1211.29C952.783 1195.99 929.113 1193.06 909.49 1205.65Z" fill="#105FB0" stroke="white" stroke-width="3"/>
<path d="M850.355 1189.97C832.748 1201.27 826.337 1221.64 835.112 1235.31C843.887 1248.99 865.074 1251.64 882.681 1240.34C900.289 1229.04 906.7 1208.67 897.925 1195C889.15 1181.33 867.963 1178.67 850.355 1189.97Z" fill="#105FB0" stroke="white" stroke-width="3"/>
<path d="M1048.94 1154.72C1025.63 1155.01 1007.48 1170.48 1007.7 1188.66C1007.92 1206.84 1026.44 1221.87 1049.75 1221.59C1073.07 1221.31 1091.22 1205.84 1091 1187.65C1090.78 1169.47 1072.26 1154.44 1048.94 1154.72Z" fill="#105FB0" stroke="white" stroke-width="3"/>
<path d="M1023.11 1139.81C1023.26 1139.84 1022.64 1140.11 1023.11 1139.81C1023.44 1139.6 1024.3 1139.11 1026.29 1138.07C1030.08 1136.09 1031.56 1135.55 1035.65 1135.21C1038.24 1134.99 1041.14 1135.42 1043.67 1135.37C1047.15 1135.3 1049.94 1134.31 1050.29 1129.49C1050.69 1123.96 1046.75 1126.44 1045.44 1127.05C1043.28 1128.06 1042.96 1131.99 1043.67 1135.37C1041.14 1135.42 1038.24 1134.99 1035.65 1135.21C1031.56 1135.55 1030.08 1136.09 1026.29 1138.07C1024.3 1139.11 1023.44 1139.6 1023.11 1139.81Z" fill="#105FB0"/>
<path d="M1022.62 1139.9C1024.43 1139.42 1020.42 1141.13 1026.29 1138.07C1030.08 1136.09 1031.56 1135.55 1035.65 1135.21C1041.8 1134.7 1049.69 1137.82 1050.29 1129.49C1050.69 1123.96 1046.75 1126.44 1045.44 1127.05C1043.11 1128.14 1042.92 1132.62 1043.86 1136.14C1046.31 1145.39 1054.26 1146.58 1058.76 1145.38" stroke="white" stroke-width="3" stroke-linecap="round"/>
<path d="M821.424 1192.65C806.843 1202.01 801.611 1218.81 808.813 1230.04C816.016 1241.26 833.474 1243.5 848.055 1234.14C862.636 1224.79 867.868 1207.98 860.666 1196.76C853.463 1185.53 836.005 1183.29 821.424 1192.65Z" fill="#105FB0" stroke="white" stroke-width="3"/>
<path d="M840.604 1224.16C826.023 1233.52 820.791 1250.32 827.993 1261.55C835.196 1272.77 852.654 1275.01 867.235 1265.65C881.816 1256.3 887.048 1239.49 879.846 1228.27C872.643 1217.04 855.185 1214.8 840.604 1224.16Z" fill="#105FB0" stroke="white" stroke-width="3"/>
<path d="M765.495 383.873C735.645 385.993 672.961 385.586 661.028 367.004C654.602 356.997 666.697 353.696 684.24 353.966C687.158 344.006 692.551 337.941 709.648 339.892C724.846 341.626 728.728 350.481 728.974 359.169C738.196 361.231 747.428 364.324 752.136 366.513C773.282 376.349 714.992 332.089 733.254 289.142C747.863 254.784 759.317 325.271 763.217 364.809C765.103 333.106 752.521 276.841 773.661 266.783C800.085 254.211 779.247 361.681 771.593 378.136C769.954 381.66 768.97 383.775 765.495 383.873Z" fill="#105FB0"/>
<path d="M728.974 359.169C738.196 361.231 747.428 364.324 752.136 366.513C773.282 376.349 714.992 332.089 733.254 289.142C747.863 254.784 759.317 325.271 763.217 364.809C765.103 333.106 752.521 276.841 773.661 266.783C800.085 254.211 779.247 361.681 771.593 378.136C769.954 381.66 768.97 383.775 765.495 383.873C735.645 385.993 672.961 385.586 661.028 367.004C654.602 356.997 666.697 353.696 684.24 353.966M728.974 359.169C726.269 374.201 714.109 375.767 707.861 375.069C699.205 374.016 682.364 368.321 684.24 353.966M728.974 359.169C728.728 350.481 724.846 341.626 709.648 339.892C692.551 337.941 687.158 344.006 684.24 353.966" stroke="white" stroke-width="3"/>
<path d="M692.552 353.452L692.55 348.37M692.552 353.452L695.585 348.314M692.552 353.452L694.258 358.385M692.552 353.452L690.226 357.391" stroke="white" stroke-width="3"/>
<rect x="303.5" y="105.499" width="506" height="377" rx="43.5" stroke="white" stroke-width="3"/>
<rect x="1.5" y="-1.5" width="275" height="782" rx="43.5" transform="matrix(1 0 0 -1 0 886)" stroke="white" stroke-width="3"/>
<path d="M303 409.999H811" stroke="white" stroke-width="3"/>
<path d="M2 816L278 816" stroke="white" stroke-width="3"/>
<path d="M303 409.999H567V483.999" stroke="white" stroke-width="3"/>
<path d="M327.075 107.048C369.781 149.084 434.856 98.3913 441.12 90.5981C465.516 60.2464 437.034 27.8789 397.241 19.5344C357.448 11.19 284.37 65.0114 327.075 107.048Z" fill="#105FB0" stroke="white" stroke-width="3"/>
<path d="M702.843 765.356C693.535 782.449 674.577 785.195 653.494 783.539C625.332 781.327 586.44 736.285 604.303 711.337C618.722 766.608 675.969 771.083 702.843 765.356Z" fill="#105FB0" stroke="white" stroke-width="3"/>
<path d="M636.278 734.891C641.92 744.182 652.488 747.967 663.223 748.806C674.992 749.139 680.303 747.085 676.261 737.741C673.436 731.213 658.922 718.059 648.05 719.247C639.965 720.129 629.226 723.277 636.278 734.891Z" fill="white" stroke="white" stroke-width="3"/>
<path d="M703.549 764.5C702.554 752.921 700.489 728.603 670.007 714.989C639.525 701.375 622.515 699.939 604.488 710.762" stroke="white" stroke-width="3"/>
<rect x="306.5" y="510.499" width="505" height="377" rx="43.5" stroke="white" stroke-width="3"/>
<path d="M306 815.999H813" stroke="white" stroke-width="3"/>
<path d="M306 815.999H493V888.999" stroke="white" stroke-width="3"/>
<path d="M710.557 784.164C763.77 784.961 774.461 712.486 773.703 703.639C770.75 669.182 732.603 665.868 701.93 684.921C671.257 703.974 657.345 783.368 710.557 784.164Z" fill="#105FB0" stroke="white" stroke-width="3"/>
<path d="M734.574 690.895L747.427 688.027M734.574 690.895L749.278 695.672M734.574 690.895L723.058 697.991M734.574 690.895L723.302 687.233" stroke="white" stroke-width="3"/>
<path d="M423.584 53.6043L434.724 60.6276M423.584 53.6043L430.648 67.356M423.584 53.6043L410.413 50.5213M423.584 53.6043L418.168 43.0613" stroke="white" stroke-width="3"/>
<path d="M1178 254.5V143.999C1178 119.146 1157.85 98.999 1133 98.999H891C866.147 98.999 846 119.146 846 143.999V176.749V254.5V395.542C846 404.944 849.18 414.01 853.247 422.487C865.601 448.244 875.548 495.462 850.943 549.458C847.901 556.133 846 563.335 846 570.671V724.25V843.999C846 868.852 866.147 888.999 891 888.999H1133C1157.85 888.999 1178 868.852 1178 843.999V724.25" stroke="white" stroke-width="3"/>
<path d="M1178.1 254V395.043C1178.1 404.445 1174.92 413.51 1170.85 421.987C1158.5 447.744 1148.55 494.963 1173.16 548.958C1176.2 555.633 1178.1 562.835 1178.1 570.171V710V728" stroke="white" stroke-width="3"/>
<path d="M846 599.999H1178" stroke="white" stroke-width="3"/>
<path d="M846 807H1178" stroke="white" stroke-width="3"/>
<path d="M138.899 642.365C119.131 655.208 36.9046 618.107 46.628 566.81C52.7502 534.511 143.879 616.09 138.899 642.365Z" fill="#105FB0" stroke="white" stroke-width="3"/>
<path d="M129.362 644.56C105.915 618.306 141.981 488.527 219.893 491.218C268.95 492.913 169.268 645.938 129.362 644.56Z" fill="#105FB0"/>
<path d="M129.362 644.56C105.915 618.306 141.981 488.527 219.893 491.218C268.95 492.913 169.268 645.938 129.362 644.56ZM129.362 644.56C133.915 631.244 141.488 611.755 150.757 592.13M197.824 524.257C187.496 530.855 176.984 544.53 167.27 560.799M167.27 560.799C173.649 555.956 188.485 547.86 196.789 554.223M167.27 560.799C161.402 570.626 155.826 581.398 150.757 592.13M150.757 592.13C150.428 587.815 148.337 577.235 142.611 569.442" stroke="white" stroke-width="3"/>
</svg>
