<svg width="717" height="282" viewBox="0 0 717 282" fill="none" xmlns="http://www.w3.org/2000/svg">
<path d="M9.60375 8H14.4038L19.7798 32H16.5478L15.2998 26.112H8.70775L7.45975 32H4.22775L9.60375 8ZM9.34775 23.168H14.6598L12.0038 10.56L9.34775 23.168Z" fill="white"/>
<path d="M15.1006 228H11.9006V214.944H6.71663V212H20.2846V214.944H15.1006V228Z" fill="white"/>
<path d="M6.06888 265.864C6.06888 264.691 6.33554 263.752 6.86888 263.048C7.40221 262.344 8.11688 261.832 9.01288 261.512C9.90888 261.171 10.8902 261 11.9569 261H18.8369V277H15.6369V269.992H15.6049L8.69288 277H4.94888L11.2209 270.792C10.3249 270.749 9.48221 270.536 8.69288 270.152C7.92488 269.747 7.29554 269.192 6.80488 268.488C6.31421 267.763 6.06888 266.888 6.06888 265.864ZM12.5009 268.52H15.6369V263.432H12.5009C11.4982 263.432 10.7089 263.645 10.1329 264.072C9.55688 264.477 9.26888 265.085 9.26888 265.896C9.26888 266.813 9.55688 267.485 10.1329 267.912C10.7089 268.317 11.4982 268.52 12.5009 268.52Z" fill="white"/>
<path d="M72.5204 229.792C72.0724 231.051 71.571 232.171 71.0164 233.152C70.4617 234.133 69.7577 234.891 68.9044 235.424C68.0724 235.979 66.995 236.256 65.6724 236.256C65.2244 236.256 64.787 236.213 64.3604 236.128C63.9337 236.064 63.571 235.989 63.2724 235.904V233.088C63.571 233.173 63.9017 233.248 64.2644 233.312C64.627 233.397 65.0004 233.44 65.3844 233.44C66.387 233.44 67.1977 233.131 67.8164 232.512C68.435 231.915 69.0004 230.997 69.5124 229.76L63.1764 212H66.3764L71.0164 225.408L75.6244 212H78.8244L72.5204 229.792Z" fill="white"/>
<path d="M126.897 225.376V214.624C125.382 214.709 124.134 215.221 123.153 216.16C122.172 217.077 121.681 218.357 121.681 220C121.681 221.643 122.172 222.933 123.153 223.872C124.134 224.789 125.382 225.291 126.897 225.376ZM130.097 214.624V225.376C131.612 225.291 132.86 224.789 133.841 223.872C134.822 222.933 135.313 221.643 135.313 220C135.313 218.357 134.822 217.077 133.841 216.16C132.86 215.221 131.612 214.709 130.097 214.624ZM130.097 236H126.897V228.32C125.276 228.277 123.825 227.904 122.545 227.2C121.286 226.496 120.294 225.536 119.569 224.32C118.844 223.083 118.481 221.643 118.481 220C118.481 218.336 118.844 216.896 119.569 215.68C120.294 214.443 121.286 213.483 122.545 212.8C123.825 212.096 125.276 211.723 126.897 211.68V204H130.097V211.68C131.74 211.723 133.19 212.096 134.449 212.8C135.708 213.483 136.7 214.443 137.425 215.68C138.15 216.896 138.513 218.336 138.513 220C138.513 221.643 138.15 223.083 137.425 224.32C136.7 225.536 135.708 226.496 134.449 227.2C133.19 227.904 131.74 228.277 130.097 228.32V236Z" fill="white"/>
<path d="M182.56 228H178.816L185.088 219.712L179.136 212H182.88L187.104 217.44L191.136 212H194.88L188.928 219.808L195.2 228H191.456L186.848 222.08L182.56 228Z" fill="white"/>
<path d="M238.49 212V225.056H245.722V212H248.922V225.056H251.162V232.32H248.218V228H235.29V212H238.49Z" fill="white"/>
<path d="M303.685 219.168V212H306.885V228H303.685V222.048C303.237 222.197 302.693 222.315 302.053 222.4C301.435 222.464 300.848 222.496 300.293 222.496C297.947 222.496 296.187 221.963 295.013 220.896C293.861 219.808 293.285 218.059 293.285 215.648V212H296.485V215.616C296.485 217.045 296.837 218.059 297.541 218.656C298.245 219.253 299.248 219.552 300.549 219.552C301.339 219.552 301.979 219.509 302.469 219.424C302.981 219.339 303.387 219.253 303.685 219.168Z" fill="white"/>
<path d="M352.574 212V225.056H358.398V212H361.598V225.056H367.678V212H370.878V228H349.118V212H352.574Z" fill="white"/>
<path d="M3.70863 107V128.056H10.4926V107H13.6926V128.056H20.4766V107H23.6766V128.056H25.9166V135.32H22.9726V131H0.508625V107H3.70863Z" fill="white"/>
<path d="M14.2973 81H10.4253L5.59325 59.304V81H2.64925V57H8.12125L12.5053 76.776L16.7933 57H22.3613V81H19.1613V59.4L14.2973 81Z" fill="white"/>
<path d="M20.3015 172.088H7.7575C7.9495 173.475 8.47217 174.563 9.3255 175.352C10.1788 176.12 11.2775 176.504 12.6215 176.504C13.6028 176.504 14.4135 176.301 15.0535 175.896C15.6935 175.491 16.1735 174.925 16.4935 174.2H19.9495C19.4588 175.843 18.5522 177.112 17.2295 178.008C15.9068 178.883 14.3282 179.32 12.4935 179.32C10.9788 179.32 9.62417 178.968 8.4295 178.264C7.25617 177.56 6.32817 176.579 5.6455 175.32C4.96283 174.061 4.6215 172.621 4.6215 171C4.6215 169.357 4.96283 167.917 5.6455 166.68C6.32817 165.421 7.25617 164.44 8.4295 163.736C9.62417 163.032 10.9788 162.68 12.4935 162.68C14.0082 162.68 15.3522 163.032 16.5255 163.736C17.7202 164.44 18.6588 165.421 19.3415 166.68C20.0242 167.917 20.3655 169.357 20.3655 171C20.3655 171.192 20.3548 171.384 20.3335 171.576C20.3335 171.747 20.3228 171.917 20.3015 172.088ZM12.4935 165.496C11.2135 165.496 10.1575 165.88 9.3255 166.648C8.4935 167.395 7.9815 168.44 7.7895 169.784H17.1975C17.0055 168.44 16.4935 167.395 15.6615 166.648C14.8295 165.88 13.7735 165.496 12.4935 165.496ZM9.2935 159.256C8.7815 159.256 8.34417 159.075 7.9815 158.712C7.61883 158.349 7.4375 157.912 7.4375 157.4C7.4375 156.888 7.61883 156.451 7.9815 156.088C8.34417 155.725 8.7815 155.544 9.2935 155.544C9.82683 155.544 10.2642 155.725 10.6055 156.088C10.9682 156.451 11.1495 156.888 11.1495 157.4C11.1495 157.912 10.9682 158.349 10.6055 158.712C10.2642 159.075 9.82683 159.256 9.2935 159.256ZM15.6935 159.256C15.1815 159.256 14.7442 159.075 14.3815 158.712C14.0188 158.349 13.8375 157.912 13.8375 157.4C13.8375 156.888 14.0188 156.451 14.3815 156.088C14.7442 155.725 15.1815 155.544 15.6935 155.544C16.2268 155.544 16.6642 155.725 17.0055 156.088C17.3682 156.451 17.5495 156.888 17.5495 157.4C17.5495 157.912 17.3682 158.349 17.0055 158.712C16.6642 159.075 16.2268 159.256 15.6935 159.256Z" fill="white"/>
<path d="M64.8836 32V8H76.5636V10.944H68.0836V17.536H71.4116C73.3743 17.536 74.985 18.08 76.2436 19.168C77.5023 20.2347 78.1316 21.9093 78.1316 24.192V25.408C78.1316 26.9653 77.8436 28.2347 77.2676 29.216C76.6916 30.176 75.9023 30.88 74.8996 31.328C73.897 31.776 72.7343 32 71.4116 32H64.8836ZM70.9956 20.48H68.0836V29.056H71.0596C72.425 29.056 73.4063 28.7253 74.0036 28.064C74.6223 27.4027 74.9316 26.3893 74.9316 25.024V24.48C74.9316 23.0933 74.6223 22.08 74.0036 21.44C73.385 20.8 72.3823 20.48 70.9956 20.48Z" fill="white"/>
<path d="M68.4486 277H65.2486V255.944H60.9606V253H73.9526V255.944H68.4486V263.016C68.8966 262.867 69.398 262.749 69.9526 262.664C70.5286 262.579 71.1153 262.536 71.7126 262.536C74.0593 262.536 75.7233 263.091 76.7046 264.2C77.686 265.288 78.1766 266.984 78.1766 269.288V275.304C78.1766 276.797 77.9206 277.96 77.4086 278.792C76.8966 279.624 76.2246 280.2 75.3926 280.52C74.5606 280.861 73.6433 281.032 72.6406 281.032C72.3633 281.032 72.086 281.011 71.8086 280.968C71.5313 280.947 71.3073 280.925 71.1366 280.904V277.992C71.286 278.013 71.4673 278.035 71.6806 278.056C71.894 278.077 72.0966 278.088 72.2886 278.088C72.758 278.088 73.1953 278.013 73.6006 277.864C74.006 277.736 74.3366 277.469 74.5926 277.064C74.8486 276.659 74.9766 276.051 74.9766 275.24V269.32C74.9766 267.997 74.6993 267.027 74.1446 266.408C73.6113 265.789 72.6833 265.48 71.3606 265.48C70.8913 265.48 70.3793 265.512 69.8246 265.576C69.27 265.64 68.8113 265.757 68.4486 265.928V277Z" fill="white"/>
<path d="M60.7575 109.944V107H68.2455V115.64H71.3495C73.6322 115.64 75.4028 116.28 76.6615 117.56C77.9202 118.819 78.5495 120.504 78.5495 122.616V123.832C78.5495 125.197 78.2615 126.424 77.6855 127.512C77.1308 128.6 76.3202 129.453 75.2535 130.072C74.1868 130.691 72.8855 131 71.3495 131H65.0455V109.944H60.7575ZM70.8695 118.584H68.2455V128.056H70.8695C72.4908 128.056 73.6428 127.661 74.3255 126.872C75.0082 126.083 75.3495 124.963 75.3495 123.512V122.936C75.3495 121.549 75.0082 120.483 74.3255 119.736C73.6428 118.968 72.4908 118.584 70.8695 118.584Z" fill="white"/>
<path d="M66.6305 81H63.4305V57H66.6305V67.176H74.3745V57H77.5745V81H74.3745V70.12H66.6305V81Z" fill="white"/>
<path d="M72.1538 163V170.072L78.3298 163H82.4258L75.7058 170.296L83.0338 179H79.0978L72.1538 170.584V179H68.9538V170.648L62.0098 179H57.9778L65.4338 170.296L58.5538 163H62.8098L68.9538 170.04V163H72.1538Z" fill="white"/>
<path d="M121.071 32V8H127.631C129.594 8 131.183 8.50133 132.399 9.504C133.636 10.5067 134.255 11.968 134.255 13.888V14.208C134.255 15.4453 133.978 16.4587 133.423 17.248C132.868 18.0373 132.122 18.6347 131.183 19.04C132.314 19.4667 133.21 20.1493 133.871 21.088C134.554 22.0267 134.895 23.2107 134.895 24.64V25.28C134.895 27.456 134.276 29.12 133.039 30.272C131.823 31.424 130.234 32 128.271 32H121.071ZM127.311 10.944H124.271V17.952H127.375C128.506 17.952 129.402 17.6853 130.063 17.152C130.724 16.5973 131.055 15.7013 131.055 14.464V14.144C131.055 13.0133 130.724 12.2027 130.063 11.712C129.423 11.2 128.506 10.944 127.311 10.944ZM127.951 20.864H124.271V29.056H127.951C129.146 29.056 130.063 28.736 130.703 28.096C131.364 27.456 131.695 26.4213 131.695 24.992V24.672C131.695 23.2853 131.364 22.304 130.703 21.728C130.042 21.152 129.124 20.864 127.951 20.864Z" fill="white"/>
<path d="M125.631 277H122.431V253H133.055V255.944H125.631V277ZM129.247 250.76H126.591L128.639 245.96H132.191L129.247 250.76Z" fill="white"/>
<path d="M121.521 107V115.64H124.625C126.908 115.64 128.678 116.28 129.937 117.56C131.196 118.819 131.825 120.504 131.825 122.616V123.832C131.825 125.197 131.537 126.424 130.961 127.512C130.406 128.6 129.596 129.453 128.529 130.072C127.462 130.691 126.161 131 124.625 131H118.321V107H121.521ZM124.145 118.584H121.521V128.056H124.145C125.766 128.056 126.918 127.661 127.601 126.872C128.284 126.083 128.625 124.963 128.625 123.512V122.936C128.625 121.549 128.284 120.483 127.601 119.736C126.918 118.968 125.766 118.584 124.145 118.584ZM137.681 131H134.481V107H137.681V131Z" fill="white"/>
<path d="M127.995 81.32C125.798 81.32 124.07 80.648 122.811 79.304C121.552 77.9387 120.923 75.88 120.923 73.128V64.872C120.923 62.1413 121.552 60.0933 122.811 58.728C124.07 57.3627 125.798 56.68 127.995 56.68C130.214 56.68 131.942 57.3627 133.179 58.728C134.438 60.0933 135.067 62.1413 135.067 64.872V73.128C135.067 75.88 134.438 77.9387 133.179 79.304C131.942 80.648 130.214 81.32 127.995 81.32ZM127.995 78.376C129.19 78.376 130.128 77.992 130.811 77.224C131.515 76.4347 131.867 75.0693 131.867 73.128V64.872C131.867 62.952 131.526 61.5973 130.843 60.808C130.16 60.0187 129.211 59.624 127.995 59.624C126.8 59.624 125.851 60.0187 125.147 60.808C124.464 61.5973 124.123 62.952 124.123 64.872V73.128C124.123 75.0693 124.464 76.4347 125.147 77.224C125.83 77.992 126.779 78.376 127.995 78.376Z" fill="white"/>
<path d="M126.195 169.656H128.723C130.515 169.656 131.411 168.941 131.411 167.512C131.411 166.829 131.145 166.285 130.611 165.88C130.078 165.453 129.257 165.24 128.147 165.24C126.974 165.24 126.067 165.517 125.427 166.072C124.809 166.627 124.499 167.416 124.499 168.44H121.299C121.299 167.395 121.555 166.435 122.067 165.56C122.579 164.685 123.347 163.992 124.371 163.48C125.395 162.947 126.654 162.68 128.147 162.68C130.281 162.68 131.87 163.128 132.915 164.024C133.961 164.92 134.483 165.997 134.483 167.256C134.483 168.045 134.281 168.76 133.875 169.4C133.47 170.04 132.883 170.531 132.115 170.872C133.95 171.512 134.867 172.717 134.867 174.488C134.867 175.981 134.291 177.165 133.139 178.04C132.009 178.893 130.345 179.32 128.147 179.32C125.907 179.32 124.158 178.797 122.899 177.752C121.662 176.707 121.043 175.235 121.043 173.336H124.243C124.243 174.424 124.574 175.277 125.235 175.896C125.897 176.493 126.878 176.792 128.179 176.792C129.438 176.792 130.334 176.568 130.867 176.12C131.401 175.651 131.667 175.075 131.667 174.392C131.667 173.645 131.401 173.069 130.867 172.664C130.355 172.259 129.641 172.056 128.723 172.056H126.195V169.656Z" fill="white"/>
<path d="M183.131 32H179.931V8H190.555V10.944H183.131V32Z" fill="white"/>
<path d="M189.367 268.36H192.567V269.128C192.567 271.859 191.938 273.907 190.679 275.272C189.442 276.637 187.714 277.32 185.495 277.32C183.298 277.32 181.57 276.637 180.311 275.272C179.052 273.907 178.423 271.859 178.423 269.128V260.872C178.423 258.141 179.052 256.093 180.311 254.728C181.57 253.363 183.298 252.68 185.495 252.68C187.714 252.68 189.442 253.363 190.679 254.728C191.938 256.093 192.567 258.141 192.567 260.872V261.32H189.367V260.872C189.367 258.952 189.026 257.597 188.343 256.808C187.66 256.019 186.711 255.624 185.495 255.624C184.3 255.624 183.351 256.019 182.647 256.808C181.964 257.597 181.623 258.952 181.623 260.872V263.176H188.279V266.12H181.623V269.128C181.623 271.048 181.964 272.403 182.647 273.192C183.33 273.981 184.279 274.376 185.495 274.376C186.69 274.376 187.628 273.981 188.311 273.192C189.015 272.403 189.367 271.048 189.367 269.128V268.36Z" fill="white"/>
<path d="M182.256 107V115.64H185.36C187.642 115.64 189.413 116.28 190.672 117.56C191.93 118.819 192.56 120.504 192.56 122.616V123.832C192.56 125.197 192.272 126.424 191.696 127.512C191.141 128.6 190.33 129.453 189.264 130.072C188.197 130.691 186.896 131 185.36 131H179.056V107H182.256ZM184.88 118.584H182.256V128.056H184.88C186.501 128.056 187.653 127.661 188.336 126.872C189.018 126.083 189.36 124.963 189.36 123.512V122.936C189.36 121.549 189.018 120.483 188.336 119.736C187.653 118.968 186.501 118.584 184.88 118.584Z" fill="white"/>
<path d="M181.724 81H178.524V57H192.476V81H189.276V59.944H181.724V81Z" fill="white"/>
<path d="M193.738 179H190.666V166.232L183.338 179H179.274V163H182.346V175.768L189.674 163H193.738V179Z" fill="white"/>
<path d="M233.136 36.32V29.056H234.832C235.109 28.544 235.344 27.968 235.536 27.328C235.728 26.6667 235.888 25.8453 236.016 24.864C236.165 23.8827 236.272 22.656 236.336 21.184C236.421 19.6907 236.474 17.8667 236.496 15.712C236.538 13.5573 236.549 10.9867 236.528 8H249.135V29.056H251.376V36.32H248.432V32H236.08V36.32H233.136ZM238.768 26.048C238.661 26.624 238.544 27.1573 238.416 27.648C238.288 28.1387 238.106 28.608 237.872 29.056H245.936V10.944H239.472C239.472 13.184 239.45 15.1147 239.408 16.736C239.386 18.336 239.344 19.712 239.28 20.864C239.237 22.016 239.173 23.008 239.088 23.84C239.002 24.672 238.896 25.408 238.768 26.048Z" fill="white"/>
<path d="M235.994 258.568C235.994 257.16 236.261 256.029 236.794 255.176C237.349 254.301 238.085 253.672 239.002 253.288C239.92 252.883 240.933 252.68 242.042 252.68C243.194 252.68 244.229 252.915 245.146 253.384C246.064 253.853 246.789 254.557 247.322 255.496C247.877 256.435 248.154 257.629 248.154 259.08V260.552H244.954V259.176C244.954 257.939 244.688 257.043 244.154 256.488C243.642 255.912 242.938 255.624 242.042 255.624C241.189 255.624 240.496 255.88 239.962 256.392C239.45 256.883 239.194 257.608 239.194 258.568C239.194 259.507 239.461 260.285 239.994 260.904C240.549 261.523 241.221 262.099 242.01 262.632L244.602 264.488C245.669 265.235 246.586 266.109 247.354 267.112C248.122 268.093 248.506 269.363 248.506 270.92C248.506 272.349 248.218 273.544 247.642 274.504C247.066 275.443 246.288 276.147 245.306 276.616C244.346 277.085 243.269 277.32 242.074 277.32C240.901 277.32 239.824 277.075 238.842 276.584C237.861 276.093 237.082 275.368 236.506 274.408C235.93 273.448 235.642 272.285 235.642 270.92V269.128H238.842V270.696C238.842 271.827 239.13 272.723 239.706 273.384C240.304 274.045 241.093 274.376 242.074 274.376C243.077 274.376 243.866 274.109 244.442 273.576C245.018 273.021 245.306 272.264 245.306 271.304C245.306 270.301 245.029 269.459 244.474 268.776C243.941 268.093 243.269 267.475 242.458 266.92L239.93 265.16C238.842 264.413 237.914 263.528 237.146 262.504C236.378 261.48 235.994 260.168 235.994 258.568Z" fill="white"/>
<path d="M239.123 122.36V123.128C239.123 125.048 239.464 126.403 240.147 127.192C240.851 127.981 241.8 128.376 242.995 128.376C244.211 128.376 245.16 127.981 245.843 127.192C246.526 126.403 246.867 125.048 246.867 123.128V120.12H240.467V117.176H246.867V114.872C246.867 112.952 246.515 111.597 245.811 110.808C245.128 110.019 244.19 109.624 242.995 109.624C241.779 109.624 240.83 110.019 240.147 110.808C239.464 111.597 239.123 112.952 239.123 114.872V115.32H235.923V114.872C235.923 112.141 236.552 110.093 237.811 108.728C239.07 107.363 240.798 106.68 242.995 106.68C245.214 106.68 246.942 107.363 248.179 108.728C249.438 110.093 250.067 112.141 250.067 114.872V123.128C250.067 125.859 249.438 127.907 248.179 129.272C246.942 130.637 245.214 131.32 242.995 131.32C240.798 131.32 239.07 130.637 237.811 129.272C236.552 127.907 235.923 125.859 235.923 123.128V122.36H239.123Z" fill="white"/>
<path d="M239.584 81H236.384V57H243.328C245.269 57 246.858 57.544 248.096 58.632C249.333 59.72 249.952 61.3093 249.952 63.4V65.128C249.952 67.304 249.333 68.968 248.096 70.12C246.858 71.272 245.269 71.848 243.328 71.848H239.584V81ZM243.008 59.944H239.584V68.904H243.008C244.16 68.904 245.066 68.584 245.728 67.944C246.41 67.304 246.752 66.2587 246.752 64.808V63.72C246.752 62.3547 246.41 61.384 245.728 60.808C245.066 60.232 244.16 59.944 243.008 59.944Z" fill="white"/>
<path d="M251.238 179H248.166V166.232L240.838 179H236.774V163H239.846V175.768L247.174 163H251.238V179ZM246.214 155H248.774C248.774 156.493 248.326 157.667 247.43 158.52C246.556 159.373 245.393 159.8 243.942 159.8C242.513 159.8 241.35 159.373 240.454 158.52C239.58 157.667 239.142 156.493 239.142 155H241.702C241.702 155.896 241.926 156.547 242.374 156.952C242.822 157.336 243.345 157.528 243.942 157.528C244.582 157.528 245.116 157.336 245.542 156.952C245.99 156.547 246.214 155.896 246.214 155Z" fill="white"/>
<path d="M307.354 29.056V32H296.602V8H307.354V10.944H299.802V18.176H306.714V21.12H299.802V29.056H307.354Z" fill="white"/>
<path d="M302.599 277H299.399V253H302.599V277ZM297.799 250.216C297.287 250.216 296.85 250.035 296.487 249.672C296.125 249.309 295.943 248.872 295.943 248.36C295.943 247.848 296.125 247.411 296.487 247.048C296.85 246.685 297.287 246.504 297.799 246.504C298.333 246.504 298.77 246.685 299.111 247.048C299.474 247.411 299.655 247.848 299.655 248.36C299.655 248.872 299.474 249.309 299.111 249.672C298.77 250.035 298.333 250.216 297.799 250.216ZM304.199 250.216C303.687 250.216 303.25 250.035 302.887 249.672C302.525 249.309 302.343 248.872 302.343 248.36C302.343 247.848 302.525 247.411 302.887 247.048C303.25 246.685 303.687 246.504 304.199 246.504C304.733 246.504 305.17 246.685 305.511 247.048C305.874 247.411 306.055 247.848 306.055 248.36C306.055 248.872 305.874 249.309 305.511 249.672C305.17 250.035 304.733 250.216 304.199 250.216Z" fill="white"/>
<path d="M294.912 131H291.712V107H294.912V117.176H297.728V114.872C297.728 112.141 298.346 110.093 299.584 108.728C300.821 107.363 302.517 106.68 304.672 106.68C306.826 106.68 308.522 107.363 309.76 108.728C310.997 110.093 311.616 112.141 311.616 114.872V123.128C311.616 125.859 310.997 127.907 309.76 129.272C308.522 130.637 306.826 131.32 304.672 131.32C302.517 131.32 300.821 130.637 299.584 129.272C298.346 127.907 297.728 125.859 297.728 123.128V120.12H294.912V131ZM304.672 128.376C305.845 128.376 306.762 127.981 307.424 127.192C308.085 126.403 308.416 125.048 308.416 123.128V114.872C308.416 112.952 308.085 111.597 307.424 110.808C306.762 110.019 305.845 109.624 304.672 109.624C303.498 109.624 302.581 110.019 301.92 110.808C301.258 111.597 300.928 112.952 300.928 114.872V123.128C300.928 125.048 301.258 126.403 301.92 127.192C302.581 127.981 303.498 128.376 304.672 128.376Z" fill="white"/>
<path d="M305.367 71.848H308.567V73.128C308.567 75.8587 307.938 77.9067 306.679 79.272C305.442 80.6373 303.714 81.32 301.495 81.32C299.298 81.32 297.57 80.6373 296.311 79.272C295.052 77.9067 294.423 75.8587 294.423 73.128V64.872C294.423 62.1413 295.052 60.0933 296.311 58.728C297.57 57.3627 299.298 56.68 301.495 56.68C303.714 56.68 305.442 57.3627 306.679 58.728C307.938 60.0933 308.567 62.1413 308.567 64.872V65.832H305.367V64.872C305.367 62.952 305.026 61.5973 304.343 60.808C303.66 60.0187 302.711 59.624 301.495 59.624C300.3 59.624 299.351 60.0187 298.647 60.808C297.964 61.5973 297.623 62.952 297.623 64.872V73.128C297.623 75.048 297.964 76.4027 298.647 77.192C299.33 77.9813 300.279 78.376 301.495 78.376C302.69 78.376 303.628 77.9813 304.311 77.192C305.015 76.4027 305.367 75.048 305.367 73.128V71.848Z" fill="white"/>
<path d="M298.24 163V170.104L305.12 163H309.376L301.856 170.296L309.952 179H305.888L298.24 170.584V179H295.04V163H298.24Z" fill="white"/>
<path d="M363.854 29.056V32H353.102V8H363.854V10.944H356.302V18.176H363.214V21.12H356.302V29.056H363.854ZM355.438 5.216C354.926 5.216 354.489 5.03467 354.126 4.672C353.764 4.30933 353.582 3.872 353.582 3.36C353.582 2.848 353.764 2.41067 354.126 2.048C354.489 1.68533 354.926 1.504 355.438 1.504C355.972 1.504 356.409 1.68533 356.75 2.048C357.113 2.41067 357.294 2.848 357.294 3.36C357.294 3.872 357.113 4.30933 356.75 4.672C356.409 5.03467 355.972 5.216 355.438 5.216ZM361.838 5.216C361.326 5.216 360.889 5.03467 360.526 4.672C360.164 4.30933 359.982 3.872 359.982 3.36C359.982 2.848 360.164 2.41067 360.526 2.048C360.889 1.68533 361.326 1.504 361.838 1.504C362.372 1.504 362.809 1.68533 363.15 2.048C363.513 2.41067 363.694 2.848 363.694 3.36C363.694 3.872 363.513 4.30933 363.15 4.672C362.809 5.03467 362.372 5.216 361.838 5.216Z" fill="white"/>
<path d="M348.054 253H359.446V261.64H362.55C364.854 261.64 366.625 262.28 367.862 263.56C369.121 264.819 369.75 266.504 369.75 268.616V269.832C369.75 271.197 369.462 272.424 368.886 273.512C368.332 274.6 367.521 275.453 366.454 276.072C365.388 276.691 364.086 277 362.55 277H356.246V255.944H350.998C350.977 259.955 350.924 263.261 350.838 265.864C350.774 268.445 350.625 270.547 350.39 272.168C350.156 273.981 349.686 275.24 348.982 275.944C348.278 276.648 347.18 277 345.686 277H345.206V274.056H345.398C346.017 274.056 346.476 273.875 346.774 273.512C347.073 273.128 347.308 272.616 347.478 271.976C347.713 271.016 347.862 268.968 347.926 265.832C348.012 262.675 348.054 258.397 348.054 253ZM362.07 264.584H359.446V274.056H362.07C363.713 274.056 364.865 273.661 365.526 272.872C366.209 272.083 366.55 270.963 366.55 269.512V268.936C366.55 267.549 366.209 266.483 365.526 265.736C364.865 264.968 363.713 264.584 362.07 264.584Z" fill="white"/>
<path d="M350.471 131L357.671 120.632C356.455 120.568 355.356 120.301 354.375 119.832C353.394 119.341 352.615 118.637 352.039 117.72C351.484 116.803 351.207 115.661 351.207 114.296V113.336C351.207 111.949 351.495 110.787 352.071 109.848C352.647 108.909 353.436 108.205 354.439 107.736C355.463 107.245 356.615 107 357.895 107H364.935V131H361.735V119.768L354.183 131H350.471ZM358.215 118.008H361.735V109.944H358.215C357.042 109.944 356.114 110.232 355.431 110.808C354.748 111.363 354.407 112.312 354.407 113.656V113.976C354.407 115.405 354.748 116.44 355.431 117.08C356.114 117.699 357.042 118.008 358.215 118.008Z" fill="white"/>
<path d="M359.607 81H356.407V59.944H351.383V57H364.631V59.944H359.607V81Z" fill="white"/>
<path d="M366.533 179H363.333V165.944H357.605C357.563 167.821 357.499 169.411 357.413 170.712C357.349 172.013 357.253 173.091 357.125 173.944C356.912 175.267 356.603 176.301 356.197 177.048C355.792 177.773 355.28 178.285 354.661 178.584C354.064 178.861 353.339 179 352.485 179H351.909V176.056H352.165C352.592 176.056 352.976 175.917 353.317 175.64C353.659 175.363 353.904 174.925 354.053 174.328C354.181 173.859 354.288 173.208 354.373 172.376C354.48 171.523 354.555 170.349 354.597 168.856C354.661 167.341 354.693 165.389 354.693 163H366.533V179Z" fill="white"/>
<path d="M416.66 8V19.648L423.06 8H426.484L419.796 19.616L426.708 32H423.092L416.66 20.224V32H413.46V20.288L407.06 32H403.284L410.228 19.584L403.508 8H407.092L413.46 19.584V8H416.66Z" fill="white"/>
<path d="M413.271 253V264.68L420.279 253H423.799L416.599 264.488L424.183 277H420.343L413.271 265.192V277H410.071V253H413.271ZM417.847 250.76H415.191L417.239 245.96H420.791L417.847 250.76Z" fill="white"/>
<path d="M414.179 131.32C413.24 131.32 412.355 131.16 411.523 130.84C410.691 130.52 410.019 130.029 409.507 129.368C408.995 128.685 408.739 127.821 408.739 126.776C408.739 125.795 408.931 125.005 409.315 124.408C409.72 123.789 410.243 123.32 410.883 123C411.523 122.659 412.216 122.403 412.963 122.232C413.731 122.061 414.499 121.933 415.267 121.848C416.035 121.741 416.739 121.624 417.379 121.496C418.019 121.347 418.531 121.133 418.915 120.856C419.32 120.579 419.523 120.184 419.523 119.672C419.523 118.883 419.192 118.285 418.531 117.88C417.87 117.453 417.048 117.24 416.067 117.24C415.022 117.24 414.168 117.507 413.507 118.04C412.867 118.552 412.547 119.331 412.547 120.376H409.219C409.219 118.989 409.539 117.88 410.179 117.048C410.84 116.216 411.694 115.619 412.739 115.256C413.784 114.872 414.894 114.68 416.067 114.68C417.219 114.68 418.296 114.851 419.299 115.192C420.323 115.533 421.144 116.077 421.763 116.824C422.403 117.571 422.723 118.563 422.723 119.8V131H419.587V128.312C419.054 129.379 418.307 130.147 417.347 130.616C416.387 131.085 415.331 131.32 414.179 131.32ZM412.003 126.584C412.003 127.267 412.27 127.779 412.803 128.12C413.336 128.461 414.008 128.632 414.819 128.632C415.651 128.632 416.43 128.472 417.155 128.152C417.88 127.832 418.467 127.363 418.915 126.744C419.363 126.104 419.587 125.325 419.587 124.408V123.256C419.032 123.533 418.424 123.736 417.763 123.864C417.102 123.992 416.43 124.109 415.747 124.216C415.064 124.323 414.435 124.461 413.859 124.632C413.304 124.781 412.856 125.016 412.515 125.336C412.174 125.635 412.003 126.051 412.003 126.584Z" fill="white"/>
<path d="M418.364 74.888C417.98 76.2533 417.553 77.416 417.084 78.376C416.636 79.336 416.07 80.072 415.388 80.584C414.726 81.0747 413.862 81.32 412.796 81.32C412.348 81.32 411.91 81.2773 411.484 81.192C411.078 81.128 410.726 81.0533 410.428 80.968V78.12C411.046 78.2907 411.644 78.376 412.22 78.376C412.774 78.376 413.254 78.2693 413.66 78.056C414.065 77.8213 414.428 77.4053 414.748 76.808L408.476 57H411.772L416.22 72.296L420.284 57H423.516L418.364 74.888Z" fill="white"/>
<path d="M417.141 179H413.557L409.109 165.176V179H406.165V163H411.573L415.541 176.184L419.509 163H424.821V179H421.621V165.176L417.141 179Z" fill="white"/>
<path d="M407.683 212V225.056H413.507V212H416.707V225.056H422.787V212H425.987V225.056H428.227V232.32H425.283V228H404.227V212H407.683Z" fill="white"/>
<path d="M474.827 21.12H472.683V18.176H474.699C475.637 18.176 476.341 17.8773 476.811 17.28C477.301 16.6613 477.547 15.7013 477.547 14.4V14.176C477.547 13.024 477.28 12.1493 476.747 11.552C476.213 10.9333 475.456 10.624 474.475 10.624C473.493 10.624 472.683 10.912 472.043 11.488C471.424 12.0427 471.115 12.9813 471.115 14.304V15.264H467.915V14.208C467.915 12.736 468.213 11.52 468.811 10.56C469.429 9.6 470.229 8.88533 471.211 8.416C472.213 7.92533 473.301 7.68 474.475 7.68C475.584 7.68 476.608 7.89333 477.547 8.32C478.507 8.72533 479.275 9.376 479.851 10.272C480.448 11.1467 480.747 12.3093 480.747 13.76V14.08C480.747 15.2747 480.523 16.3093 480.075 17.184C479.627 18.0373 479.029 18.6987 478.283 19.168C479.221 19.6587 479.968 20.384 480.523 21.344C481.099 22.304 481.387 23.488 481.387 24.896V25.472C481.387 27.072 481.077 28.384 480.459 29.408C479.861 30.4107 479.04 31.1467 477.995 31.616C476.971 32.0853 475.829 32.32 474.571 32.32C473.333 32.32 472.181 32.0853 471.115 31.616C470.069 31.1467 469.227 30.4107 468.587 29.408C467.968 28.384 467.659 27.072 467.659 25.472V23.936H470.859V25.216C470.859 26.6667 471.211 27.7227 471.915 28.384C472.64 29.0453 473.525 29.376 474.571 29.376C475.701 29.376 476.587 29.056 477.227 28.416C477.867 27.776 478.187 26.7307 478.187 25.28V25.024C478.187 23.7227 477.931 22.752 477.419 22.112C476.907 21.4507 476.043 21.12 474.827 21.12Z" fill="white"/>
<path d="M474.672 114.936C476.016 114.936 477.254 115.288 478.384 115.992C479.515 116.675 480.422 117.635 481.104 118.872C481.808 120.088 482.16 121.507 482.16 123.128C482.16 124.728 481.808 126.147 481.104 127.384C480.4 128.621 479.43 129.592 478.192 130.296C476.976 130.979 475.6 131.32 474.064 131.32C472.55 131.32 471.174 130.979 469.936 130.296C468.72 129.592 467.75 128.632 467.024 127.416C466.32 126.179 465.968 124.771 465.968 123.192V117.528C465.968 115.437 466.235 113.784 466.768 112.568C467.302 111.352 468.102 110.445 469.168 109.848C470.256 109.229 471.622 108.803 473.264 108.568L477.136 108.024C477.691 107.939 478.054 107.8 478.224 107.608C478.395 107.416 478.491 107.213 478.512 107H481.712C481.691 107.875 481.531 108.568 481.232 109.08C480.934 109.592 480.443 109.987 479.76 110.264C479.099 110.52 478.192 110.723 477.04 110.872L473.552 111.384C472.4 111.533 471.494 111.811 470.832 112.216C470.171 112.621 469.702 113.229 469.424 114.04C469.147 114.829 469.008 115.917 469.008 117.304V117.912C469.478 117.016 470.192 116.301 471.152 115.768C472.134 115.213 473.307 114.936 474.672 114.936ZM474.064 128.376C475.515 128.376 476.688 127.885 477.584 126.904C478.502 125.923 478.96 124.664 478.96 123.128C478.96 122.104 478.747 121.197 478.32 120.408C477.915 119.619 477.339 119 476.592 118.552C475.867 118.104 475.024 117.88 474.064 117.88C472.635 117.88 471.462 118.371 470.544 119.352C469.627 120.312 469.168 121.571 469.168 123.128C469.168 124.685 469.627 125.955 470.544 126.936C471.462 127.896 472.635 128.376 474.064 128.376Z" fill="white"/>
<path d="M474.585 81.32H471.385V79.048H470.553C468.846 79.048 467.46 78.696 466.393 77.992C465.326 77.2667 464.548 76.296 464.057 75.08C463.588 73.8427 463.353 72.4453 463.353 70.888V66.984C463.353 64.3813 463.972 62.3867 465.209 61C466.468 59.6133 468.26 58.92 470.585 58.92H471.385V56.68H474.585V58.92H475.417C477.742 58.92 479.524 59.6133 480.761 61C482.02 62.3867 482.649 64.3813 482.649 66.984V70.888C482.649 72.4453 482.404 73.8427 481.913 75.08C481.444 76.296 480.676 77.2667 479.609 77.992C478.564 78.696 477.177 79.048 475.449 79.048H474.585V81.32ZM475.353 61.736H474.585V76.264H475.481C478.126 76.264 479.449 74.536 479.449 71.08V66.856C479.449 65.4907 479.268 64.4453 478.905 63.72C478.542 62.9733 478.052 62.4613 477.433 62.184C476.814 61.8853 476.121 61.736 475.353 61.736ZM470.489 76.264H471.385V61.736H470.617C469.849 61.736 469.156 61.8853 468.537 62.184C467.94 62.4613 467.46 62.9733 467.097 63.72C466.734 64.4453 466.553 65.4907 466.553 66.856V71.08C466.553 74.536 467.865 76.264 470.489 76.264Z" fill="white"/>
<path d="M470.162 179H466.962V163H470.162V169.464H477.842V163H481.042V179H477.842V172.376H470.162V179Z" fill="white"/>
<path d="M465.154 214.944V212H472.674V217.28H476.226C478.167 217.28 479.671 217.781 480.738 218.784C481.826 219.765 482.37 221.045 482.37 222.624C482.37 224.203 481.847 225.493 480.802 226.496C479.778 227.499 478.263 228 476.258 228H469.474V214.944H465.154ZM475.97 219.968H472.674V225.312H475.97C477.058 225.312 477.858 225.077 478.37 224.608C478.903 224.117 479.17 223.445 479.17 222.592C479.17 220.843 478.103 219.968 475.97 219.968Z" fill="white"/>
<path d="M535.435 8H540.107V32H537.163V11.04L530.571 32H525.899V8H528.843V28.96L535.435 8Z" fill="white"/>
<path d="M524.509 131V115H532.445C533.917 115 535.111 115.352 536.029 116.056C536.946 116.739 537.405 117.773 537.405 119.16C537.405 120.013 537.202 120.717 536.797 121.272C536.413 121.827 535.879 122.243 535.197 122.52C536.071 122.797 536.765 123.267 537.277 123.928C537.81 124.568 538.077 125.389 538.077 126.392C538.077 127.928 537.597 129.08 536.637 129.848C535.677 130.616 534.365 131 532.701 131H524.509ZM531.517 117.432H527.581V121.592H531.517C532.519 121.592 533.234 121.411 533.661 121.048C534.109 120.685 534.333 120.173 534.333 119.512C534.333 118.787 534.109 118.264 533.661 117.944C533.234 117.603 532.519 117.432 531.517 117.432ZM532.157 124.024H527.581V128.568H532.157C533.97 128.568 534.877 127.811 534.877 126.296C534.877 124.781 533.97 124.024 532.157 124.024Z" fill="white"/>
<path d="M536.188 81L531.996 71.432L527.804 81H524.316L530.172 68.68L524.668 57H528.124L531.996 65.96L535.868 57H539.324L533.82 68.68L539.676 81H536.188Z" fill="white"/>
<path d="M531.499 179.32C529.963 179.32 528.576 178.968 527.339 178.264C526.123 177.56 525.163 176.579 524.459 175.32C523.755 174.061 523.403 172.621 523.403 171C523.403 169.357 523.755 167.917 524.459 166.68C525.163 165.421 526.123 164.44 527.339 163.736C528.576 163.032 529.963 162.68 531.499 162.68C533.056 162.68 534.443 163.032 535.659 163.736C536.875 164.44 537.835 165.421 538.539 166.68C539.243 167.917 539.595 169.357 539.595 171C539.595 172.621 539.243 174.061 538.539 175.32C537.835 176.579 536.875 177.56 535.659 178.264C534.443 178.968 533.056 179.32 531.499 179.32ZM531.499 176.376C532.437 176.376 533.269 176.152 533.995 175.704C534.741 175.256 535.328 174.627 535.755 173.816C536.181 173.005 536.395 172.067 536.395 171C536.395 169.912 536.181 168.973 535.755 168.184C535.328 167.373 534.741 166.744 533.995 166.296C533.269 165.848 532.437 165.624 531.499 165.624C530.581 165.624 529.749 165.848 529.003 166.296C528.256 166.744 527.669 167.373 527.243 168.184C526.816 168.973 526.603 169.912 526.603 171C526.603 172.067 526.816 173.005 527.243 173.816C527.669 174.627 528.256 175.256 529.003 175.704C529.749 176.152 530.581 176.376 531.499 176.376Z" fill="white"/>
<path d="M534.639 222.624C534.639 224.203 534.116 225.493 533.071 226.496C532.047 227.499 530.532 228 528.527 228H521.743V212H524.943V217.28H528.495C530.436 217.28 531.94 217.781 533.007 218.784C534.095 219.765 534.639 221.045 534.639 222.624ZM528.239 219.968H524.943V225.312H528.239C529.327 225.312 530.127 225.077 530.639 224.608C531.172 224.117 531.439 223.445 531.439 222.592C531.439 220.843 530.372 219.968 528.239 219.968ZM540.271 228H537.071V212H540.271V228Z" fill="white"/>
<path d="M592.435 8H597.107V32H594.163V11.04L587.571 32H582.899V8H585.843V28.96L592.435 8ZM592.339 0.959999H594.899C594.899 2.45333 594.451 3.62667 593.555 4.48C592.681 5.33333 591.518 5.76 590.067 5.76C588.638 5.76 587.475 5.33333 586.579 4.48C585.705 3.62667 585.267 2.45333 585.267 0.959999H587.827C587.827 1.856 588.051 2.50667 588.499 2.912C588.947 3.296 589.47 3.488 590.067 3.488C590.707 3.488 591.241 3.296 591.667 2.912C592.115 2.50667 592.339 1.856 592.339 0.959999Z" fill="white"/>
<path d="M587.74 131H584.54V115H595.068V117.944H587.74V131Z" fill="white"/>
<path d="M594.366 85.32V81H581.118V57H584.318V78.056H591.87V57H595.07V78.056H597.31V85.32H594.366Z" fill="white"/>
<path d="M586.365 179H583.165V163H596.797V179H593.597V165.944H586.365V179Z" fill="white"/>
<path d="M596.608 222.624C596.608 224.203 596.085 225.493 595.04 226.496C594.016 227.499 592.501 228 590.496 228H583.712V212H586.912V217.28H590.464C592.405 217.28 593.909 217.781 594.976 218.784C596.064 219.765 596.608 221.045 596.608 222.624ZM590.208 219.968H586.912V225.312H590.208C591.296 225.312 592.096 225.077 592.608 224.608C593.141 224.117 593.408 223.445 593.408 222.592C593.408 220.843 592.341 219.968 590.208 219.968Z" fill="white"/>
<path d="M644.271 8V19.68L651.279 8H654.799L647.599 19.488L655.183 32H651.343L644.271 20.192V32H641.071V8H644.271Z" fill="white"/>
<path d="M637.029 128.056H638.597C638.789 127.672 638.97 127.213 639.141 126.68C639.333 126.147 639.493 125.421 639.621 124.504C639.749 123.565 639.856 122.339 639.941 120.824C640.026 119.288 640.08 117.347 640.101 115H652.421V128.056H654.661V135.32H651.717V131H639.973V135.32H637.029V128.056ZM642.661 124.248C642.533 125.187 642.394 125.955 642.245 126.552C642.117 127.149 641.978 127.651 641.829 128.056H649.221V117.944H643.013C642.992 119.373 642.949 120.6 642.885 121.624C642.842 122.648 642.768 123.523 642.661 124.248Z" fill="white"/>
<path d="M653.001 81H649.801V71.176C649.353 71.3253 648.819 71.4427 648.201 71.528C647.582 71.592 646.985 71.624 646.409 71.624C644.019 71.624 642.217 71.08 641.001 69.992C639.785 68.8827 639.177 67.0053 639.177 64.36V57H642.377V64.36C642.377 66.0453 642.771 67.1867 643.561 67.784C644.371 68.3813 645.459 68.68 646.825 68.68C648.147 68.68 649.139 68.552 649.801 68.296V57H653.001V81Z" fill="white"/>
<path d="M641.724 187H638.524V163H641.724V165.4C642.343 164.547 643.1 163.885 643.996 163.416C644.914 162.925 645.906 162.68 646.972 162.68C648.444 162.68 649.756 163.032 650.908 163.736C652.06 164.44 652.967 165.421 653.628 166.68C654.311 167.917 654.652 169.357 654.652 171C654.652 172.621 654.311 174.061 653.628 175.32C652.967 176.579 652.06 177.56 650.908 178.264C649.756 178.968 648.444 179.32 646.972 179.32C645.906 179.32 644.914 179.085 643.996 178.616C643.1 178.125 642.343 177.453 641.724 176.6V187ZM646.588 176.376C647.527 176.376 648.359 176.152 649.084 175.704C649.81 175.256 650.386 174.627 650.812 173.816C651.239 173.005 651.452 172.067 651.452 171C651.452 169.912 651.239 168.973 650.812 168.184C650.386 167.373 649.81 166.744 649.084 166.296C648.359 165.848 647.527 165.624 646.588 165.624C645.671 165.624 644.839 165.848 644.092 166.296C643.367 166.744 642.791 167.373 642.364 168.184C641.938 168.973 641.724 169.912 641.724 171C641.724 172.067 641.938 173.005 642.364 173.816C642.791 174.627 643.367 175.256 644.092 175.704C644.839 176.152 645.671 176.376 646.588 176.376Z" fill="white"/>
<path d="M641.92 218.368H638.56C638.709 217.024 639.136 215.851 639.84 214.848C640.565 213.845 641.504 213.067 642.656 212.512C643.808 211.957 645.088 211.68 646.496 211.68C648.01 211.68 649.365 212.032 650.56 212.736C651.776 213.44 652.725 214.421 653.408 215.68C654.112 216.917 654.464 218.357 654.464 220C654.464 221.621 654.112 223.061 653.408 224.32C652.725 225.579 651.776 226.56 650.56 227.264C649.365 227.968 648.01 228.32 646.496 228.32C645.045 228.32 643.722 228.032 642.528 227.456C641.354 226.859 640.416 226.037 639.712 224.992C639.008 223.925 638.613 222.688 638.528 221.28H641.824C641.994 222.731 642.517 223.776 643.392 224.416C644.288 225.056 645.322 225.376 646.496 225.376C647.69 225.376 648.714 225.024 649.568 224.32C650.442 223.595 650.976 222.549 651.168 221.184H644.288V218.752H651.168C650.954 217.408 650.421 216.384 649.568 215.68C648.714 214.976 647.69 214.624 646.496 214.624C645.322 214.624 644.309 214.912 643.456 215.488C642.602 216.064 642.09 217.024 641.92 218.368Z" fill="white"/>
<path d="M711.411 32H708.211V10.944H701.811C701.789 14.9547 701.736 18.2613 701.651 20.864C701.587 23.4453 701.437 25.5467 701.203 27.168C700.968 28.9813 700.499 30.24 699.795 30.944C699.091 31.648 697.992 32 696.499 32H696.019V29.056H696.211C696.829 29.056 697.288 28.8747 697.587 28.512C697.885 28.128 698.12 27.616 698.291 26.976C698.525 26.016 698.675 23.968 698.739 20.832C698.824 17.6747 698.867 13.3973 698.867 8H711.411V32Z" fill="white"/>
<path d="M713.302 124.088H700.758C700.95 125.475 701.472 126.563 702.326 127.352C703.179 128.12 704.278 128.504 705.622 128.504C706.603 128.504 707.414 128.301 708.054 127.896C708.694 127.491 709.174 126.925 709.494 126.2H712.95C712.459 127.843 711.552 129.112 710.23 130.008C708.907 130.883 707.328 131.32 705.494 131.32C703.979 131.32 702.624 130.968 701.43 130.264C700.256 129.56 699.328 128.579 698.646 127.32C697.963 126.061 697.622 124.621 697.622 123C697.622 121.357 697.963 119.917 698.646 118.68C699.328 117.421 700.256 116.44 701.43 115.736C702.624 115.032 703.979 114.68 705.494 114.68C707.008 114.68 708.352 115.032 709.526 115.736C710.72 116.44 711.659 117.421 712.342 118.68C713.024 119.917 713.366 121.357 713.366 123C713.366 123.192 713.355 123.384 713.333 123.576C713.333 123.747 713.323 123.917 713.302 124.088ZM705.494 117.496C704.214 117.496 703.158 117.88 702.326 118.648C701.494 119.395 700.982 120.44 700.79 121.784H710.198C710.006 120.44 709.494 119.395 708.662 118.648C707.83 117.88 706.774 117.496 705.494 117.496Z" fill="white"/>
<path d="M696.115 57V78.056H702.899V57H706.099V78.056H712.883V57H716.083V81H692.915V57H696.115Z" fill="white"/>
<path d="M709.072 169.368C708.922 168.152 708.41 167.224 707.536 166.584C706.661 165.944 705.648 165.624 704.496 165.624C703.6 165.624 702.789 165.848 702.064 166.296C701.338 166.744 700.762 167.373 700.336 168.184C699.93 168.973 699.728 169.912 699.728 171C699.728 172.067 699.93 173.005 700.336 173.816C700.762 174.627 701.338 175.256 702.064 175.704C702.789 176.152 703.6 176.376 704.496 176.376C705.669 176.376 706.693 176.024 707.568 175.32C708.464 174.616 708.986 173.603 709.136 172.28H712.464C712.378 173.688 711.973 174.925 711.248 175.992C710.544 177.037 709.605 177.859 708.432 178.456C707.258 179.032 705.946 179.32 704.496 179.32C702.981 179.32 701.616 178.968 700.4 178.264C699.205 177.56 698.256 176.579 697.552 175.32C696.869 174.061 696.528 172.621 696.528 171C696.528 169.357 696.869 167.917 697.552 166.68C698.256 165.421 699.205 164.44 700.4 163.736C701.616 163.032 702.981 162.68 704.496 162.68C705.904 162.68 707.173 162.957 708.304 163.512C709.456 164.067 710.394 164.845 711.12 165.848C711.845 166.851 712.272 168.024 712.4 169.368H709.072Z" fill="white"/>
<path d="M697.334 228H694.134V212H697.334V218.464H700.054C700.267 217.12 700.736 215.936 701.462 214.912C702.208 213.888 703.136 213.099 704.246 212.544C705.376 211.968 706.624 211.68 707.99 211.68C709.526 211.68 710.902 212.032 712.118 212.736C713.334 213.44 714.294 214.421 714.998 215.68C715.702 216.917 716.054 218.357 716.054 220C716.054 221.621 715.702 223.061 714.998 224.32C714.294 225.579 713.334 226.56 712.118 227.264C710.902 227.968 709.526 228.32 707.99 228.32C706.603 228.32 705.344 228.032 704.214 227.456C703.083 226.88 702.144 226.069 701.398 225.024C700.672 223.979 700.214 222.763 700.022 221.376H697.334V228ZM707.99 225.376C708.928 225.376 709.76 225.152 710.486 224.704C711.211 224.256 711.787 223.627 712.214 222.816C712.64 222.005 712.854 221.067 712.854 220C712.854 218.912 712.64 217.973 712.214 217.184C711.787 216.373 711.211 215.744 710.486 215.296C709.76 214.848 708.928 214.624 707.99 214.624C707.072 214.624 706.24 214.848 705.494 215.296C704.768 215.744 704.192 216.373 703.766 217.184C703.339 217.973 703.126 218.912 703.126 220C703.126 221.067 703.339 222.005 703.766 222.816C704.192 223.627 704.768 224.256 705.494 224.704C706.24 225.152 707.072 225.376 707.99 225.376Z" fill="white"/>
</svg>
