<svg width="714" height="263" viewBox="0 0 714 263" fill="none" xmlns="http://www.w3.org/2000/svg">
<path d="M6.10375 8H10.9038L16.2798 32H13.0478L11.7998 26.112H5.20775L3.95975 32H0.72775L6.10375 8ZM5.84775 23.168H11.1598L8.50375 10.56L5.84775 23.168Z" fill="white"/>
<path d="M6.10375 239H10.9038L16.2798 263H13.0478L11.7998 257.112H5.20775L3.95975 263H0.72775L6.10375 239ZM5.84775 254.168H11.1598L8.50375 241.56L5.84775 254.168ZM7.25575 236.76L4.31175 231.96H7.86375L9.91175 236.76H7.25575Z" fill="white"/>
<path d="M64.1038 239H68.9038L74.2798 263H71.0478L69.7998 257.112H63.2078L61.9598 263H58.7278L64.1038 239ZM63.8478 254.168H69.1598L66.5038 241.56L63.8478 254.168ZM67.7198 236.76H65.0638L67.1118 231.96H70.6638L67.7198 236.76Z" fill="white"/>
<path d="M121.604 239H126.404L131.78 263H128.548L127.3 257.112H120.708L119.46 263H116.228L121.604 239ZM121.348 254.168H126.66L124.004 241.56L121.348 254.168ZM121.54 236.76H118.884L122.212 231.96H125.732L129.06 236.76H126.404L123.972 233.976L121.54 236.76Z" fill="white"/>
<path d="M179.104 239H183.904L189.28 263H186.048L184.8 257.112H178.208L176.96 263H173.728L179.104 239ZM178.848 254.168H184.16L181.504 241.56L178.848 254.168ZM176.256 236.696V235.096C176.256 233.048 177.13 232.024 178.88 232.024C179.392 232.024 179.861 232.141 180.288 232.376C180.714 232.589 181.109 232.835 181.472 233.112C181.856 233.389 182.208 233.645 182.528 233.88C182.869 234.093 183.21 234.2 183.552 234.2C183.872 234.2 184.117 234.115 184.288 233.944C184.48 233.752 184.576 233.421 184.576 232.952V232.088H186.752V233.688C186.752 235.736 185.877 236.76 184.128 236.76C183.616 236.76 183.146 236.653 182.72 236.44C182.293 236.205 181.888 235.949 181.504 235.672C181.141 235.395 180.789 235.149 180.448 234.936C180.128 234.701 179.797 234.584 179.456 234.584C179.136 234.584 178.88 234.68 178.688 234.872C178.517 235.043 178.432 235.363 178.432 235.832V236.696H176.256Z" fill="white"/>
<path d="M237.104 239H241.904L247.28 263H244.048L242.8 257.112H236.208L234.96 263H231.728L237.104 239ZM236.848 254.168H242.16L239.504 241.56L236.848 254.168ZM236.304 236.216C235.792 236.216 235.354 236.035 234.992 235.672C234.629 235.309 234.448 234.872 234.448 234.36C234.448 233.848 234.629 233.411 234.992 233.048C235.354 232.685 235.792 232.504 236.304 232.504C236.837 232.504 237.274 232.685 237.616 233.048C237.978 233.411 238.16 233.848 238.16 234.36C238.16 234.872 237.978 235.309 237.616 235.672C237.274 236.035 236.837 236.216 236.304 236.216ZM242.704 236.216C242.192 236.216 241.754 236.035 241.392 235.672C241.029 235.309 240.848 234.872 240.848 234.36C240.848 233.848 241.029 233.411 241.392 233.048C241.754 232.685 242.192 232.504 242.704 232.504C243.237 232.504 243.674 232.685 244.016 233.048C244.378 233.411 244.56 233.848 244.56 234.36C244.56 234.872 244.378 235.309 244.016 235.672C243.674 236.035 243.237 236.216 242.704 236.216Z" fill="white"/>
<path d="M295.104 239H299.904L305.28 263H302.048L300.8 257.112H294.208L292.96 263H289.728L295.104 239ZM294.848 254.168H300.16L297.504 241.56L294.848 254.168ZM297.504 237.72C296.522 237.72 295.722 237.432 295.104 236.856C294.485 236.259 294.176 235.533 294.176 234.68C294.176 233.848 294.485 233.133 295.104 232.536C295.722 231.939 296.522 231.64 297.504 231.64C298.506 231.64 299.317 231.939 299.936 232.536C300.554 233.133 300.864 233.848 300.864 234.68C300.864 235.533 300.554 236.259 299.936 236.856C299.317 237.432 298.506 237.72 297.504 237.72ZM297.504 236.056C297.93 236.056 298.272 235.928 298.528 235.672C298.805 235.416 298.944 235.085 298.944 234.68C298.944 234.275 298.805 233.944 298.528 233.688C298.272 233.432 297.93 233.304 297.504 233.304C297.12 233.304 296.789 233.432 296.512 233.688C296.234 233.944 296.096 234.275 296.096 234.68C296.096 235.085 296.234 235.416 296.512 235.672C296.789 235.928 297.12 236.056 297.504 236.056Z" fill="white"/>
<path d="M366.568 260.056V263H355.816V257.112H348.968L346.44 263H343.08L353.704 239H366.568V241.944H359.016V249.176H365.928V252.12H359.016V260.056H366.568ZM350.248 254.168H355.816V241.304L350.248 254.168Z" fill="white"/>
<path d="M7.17913 147.32C6.24046 147.32 5.35513 147.16 4.52313 146.84C3.69113 146.52 3.01913 146.029 2.50713 145.368C1.99513 144.685 1.73913 143.821 1.73913 142.776C1.73913 141.795 1.93113 141.005 2.31512 140.408C2.72046 139.789 3.24313 139.32 3.88313 139C4.52313 138.659 5.21646 138.403 5.96313 138.232C6.73113 138.061 7.49913 137.933 8.26713 137.848C9.03513 137.741 9.73913 137.624 10.3791 137.496C11.0191 137.347 11.5311 137.133 11.9151 136.856C12.3205 136.579 12.5231 136.184 12.5231 135.672C12.5231 134.883 12.1925 134.285 11.5311 133.88C10.8698 133.453 10.0485 133.24 9.06713 133.24C8.02179 133.24 7.16846 133.507 6.50713 134.04C5.86713 134.552 5.54713 135.331 5.54713 136.376H2.21913C2.21913 134.989 2.53913 133.88 3.17913 133.048C3.84046 132.216 4.69379 131.619 5.73913 131.256C6.78446 130.872 7.89379 130.68 9.06713 130.68C10.2191 130.68 11.2965 130.851 12.2991 131.192C13.3231 131.533 14.1445 132.077 14.7631 132.824C15.4031 133.571 15.7231 134.563 15.7231 135.8V147H12.5871V144.312C12.0538 145.379 11.3071 146.147 10.3471 146.616C9.38713 147.085 8.33113 147.32 7.17913 147.32ZM5.00313 142.584C5.00313 143.267 5.26979 143.779 5.80313 144.12C6.33646 144.461 7.00846 144.632 7.81913 144.632C8.65113 144.632 9.42979 144.472 10.1551 144.152C10.8805 143.832 11.4671 143.363 11.9151 142.744C12.3631 142.104 12.5871 141.325 12.5871 140.408V139.256C12.0325 139.533 11.4245 139.736 10.7631 139.864C10.1018 139.992 9.42979 140.109 8.74713 140.216C8.06446 140.323 7.43513 140.461 6.85913 140.632C6.30446 140.781 5.85646 141.016 5.51513 141.336C5.17379 141.635 5.00313 142.051 5.00313 142.584Z" fill="white"/>
<path d="M7.2745 66L13.1305 87.728V66H16.0745V90H10.7945L4.8745 68.016V90H1.9305V66H7.2745Z" fill="white"/>
<path d="M12.9526 196.264C12.9526 194.685 12.6006 193.501 11.8966 192.712C11.214 191.901 10.2753 191.496 9.08063 191.496C7.88596 191.496 6.93663 191.901 6.23263 192.712C5.54996 193.501 5.20863 194.685 5.20863 196.264V205H2.00863V189H5.20863V191.528C5.69929 190.589 6.36063 189.885 7.19263 189.416C8.04596 188.925 9.00596 188.68 10.0726 188.68C11.822 188.68 13.2726 189.256 14.4246 190.408C15.5766 191.539 16.1526 193.277 16.1526 195.624V205H12.9526V196.264Z" fill="white"/>
<path d="M60.5711 32V8H67.1311C69.0938 8 70.6831 8.50133 71.8991 9.504C73.1365 10.5067 73.7551 11.968 73.7551 13.888V14.208C73.7551 15.4453 73.4778 16.4587 72.9231 17.248C72.3685 18.0373 71.6218 18.6347 70.6831 19.04C71.8138 19.4667 72.7098 20.1493 73.3711 21.088C74.0538 22.0267 74.3951 23.2107 74.3951 24.64V25.28C74.3951 27.456 73.7765 29.12 72.5391 30.272C71.3231 31.424 69.7338 32 67.7711 32H60.5711ZM66.8111 10.944H63.7711V17.952H66.8751C68.0058 17.952 68.9018 17.6853 69.5631 17.152C70.2245 16.5973 70.5551 15.7013 70.5551 14.464V14.144C70.5551 13.0133 70.2245 12.2027 69.5631 11.712C68.9231 11.2 68.0058 10.944 66.8111 10.944ZM67.4511 20.864H63.7711V29.056H67.4511C68.6458 29.056 69.5631 28.736 70.2031 28.096C70.8645 27.456 71.1951 26.4213 71.1951 24.992V24.672C71.1951 23.2853 70.8645 22.304 70.2031 21.728C69.5418 21.152 68.6245 20.864 67.4511 20.864Z" fill="white"/>
<path d="M67.4723 130.68C68.9443 130.68 70.2563 131.032 71.4083 131.736C72.5603 132.44 73.4669 133.421 74.1283 134.68C74.8109 135.917 75.1523 137.357 75.1523 139C75.1523 140.621 74.8109 142.061 74.1283 143.32C73.4669 144.579 72.5603 145.56 71.4083 146.264C70.2563 146.968 68.9443 147.32 67.4723 147.32C66.4056 147.32 65.4136 147.085 64.4963 146.616C63.6003 146.125 62.8429 145.453 62.2243 144.6V147H59.0243V123H62.2243V133.4C62.8429 132.547 63.6003 131.885 64.4963 131.416C65.4136 130.925 66.4056 130.68 67.4723 130.68ZM67.0883 133.624C66.1709 133.624 65.3389 133.848 64.5923 134.296C63.8669 134.744 63.2909 135.373 62.8643 136.184C62.4376 136.973 62.2243 137.912 62.2243 139C62.2243 140.067 62.4376 141.005 62.8643 141.816C63.2909 142.627 63.8669 143.256 64.5923 143.704C65.3389 144.152 66.1709 144.376 67.0883 144.376C68.0269 144.376 68.8589 144.152 69.5843 143.704C70.3096 143.256 70.8856 142.627 71.3123 141.816C71.7389 141.005 71.9523 140.067 71.9523 139C71.9523 137.912 71.7389 136.973 71.3123 136.184C70.8856 135.373 70.3096 134.744 69.5843 134.296C68.8589 133.848 68.0269 133.624 67.0883 133.624Z" fill="white"/>
<path d="M66.995 90.32C64.7977 90.32 63.0697 89.648 61.811 88.304C60.5523 86.9387 59.923 84.88 59.923 82.128V73.872C59.923 71.1413 60.5523 69.0933 61.811 67.728C63.0697 66.3627 64.7977 65.68 66.995 65.68C69.2137 65.68 70.9417 66.3627 72.179 67.728C73.4377 69.0933 74.067 71.1413 74.067 73.872V82.128C74.067 84.88 73.4377 86.9387 72.179 88.304C70.9417 89.648 69.2137 90.32 66.995 90.32ZM66.995 87.376C68.1897 87.376 69.1283 86.992 69.811 86.224C70.515 85.4347 70.867 84.0693 70.867 82.128V73.872C70.867 71.952 70.5257 70.5973 69.843 69.808C69.1603 69.0187 68.211 68.624 66.995 68.624C65.8003 68.624 64.851 69.0187 64.147 69.808C63.4643 70.5973 63.123 71.952 63.123 73.872V82.128C63.123 84.0693 63.4643 85.4347 64.147 86.224C64.8297 86.992 65.779 87.376 66.995 87.376Z" fill="white"/>
<path d="M66.9988 205.32C65.4628 205.32 64.0761 204.968 62.8388 204.264C61.6228 203.56 60.6628 202.579 59.9588 201.32C59.2548 200.061 58.9028 198.621 58.9028 197C58.9028 195.357 59.2548 193.917 59.9588 192.68C60.6628 191.421 61.6228 190.44 62.8388 189.736C64.0761 189.032 65.4628 188.68 66.9988 188.68C68.5561 188.68 69.9428 189.032 71.1588 189.736C72.3748 190.44 73.3348 191.421 74.0388 192.68C74.7428 193.917 75.0948 195.357 75.0948 197C75.0948 198.621 74.7428 200.061 74.0388 201.32C73.3348 202.579 72.3748 203.56 71.1588 204.264C69.9428 204.968 68.5561 205.32 66.9988 205.32ZM66.9988 202.376C67.9374 202.376 68.7694 202.152 69.4948 201.704C70.2414 201.256 70.8281 200.627 71.2548 199.816C71.6814 199.005 71.8948 198.067 71.8948 197C71.8948 195.912 71.6814 194.973 71.2548 194.184C70.8281 193.373 70.2414 192.744 69.4948 192.296C68.7694 191.848 67.9374 191.624 66.9988 191.624C66.0814 191.624 65.2494 191.848 64.5028 192.296C63.7561 192.744 63.1694 193.373 62.7428 194.184C62.3161 194.973 62.1028 195.912 62.1028 197C62.1028 198.067 62.3161 199.005 62.7428 199.816C63.1694 200.627 63.7561 201.256 64.5028 201.704C65.2494 202.152 66.0814 202.376 66.9988 202.376Z" fill="white"/>
<path d="M128.867 22.848H132.067V24.128C132.067 26.8587 131.438 28.9067 130.179 30.272C128.942 31.6373 127.214 32.32 124.995 32.32C122.798 32.32 121.07 31.6373 119.811 30.272C118.552 28.9067 117.923 26.8587 117.923 24.128V15.872C117.923 13.1413 118.552 11.0933 119.811 9.728C121.07 8.36267 122.798 7.68 124.995 7.68C127.214 7.68 128.942 8.36267 130.179 9.728C131.438 11.0933 132.067 13.1413 132.067 15.872V16.832H128.867V15.872C128.867 13.952 128.526 12.5973 127.843 11.808C127.16 11.0187 126.211 10.624 124.995 10.624C123.8 10.624 122.851 11.0187 122.147 11.808C121.464 12.5973 121.123 13.952 121.123 15.872V24.128C121.123 26.048 121.464 27.4027 122.147 28.192C122.83 28.9813 123.779 29.376 124.995 29.376C126.19 29.376 127.128 28.9813 127.811 28.192C128.515 27.4027 128.867 26.048 128.867 24.128V22.848Z" fill="white"/>
<path d="M128.572 137.368C128.422 136.152 127.91 135.224 127.036 134.584C126.161 133.944 125.148 133.624 123.996 133.624C123.1 133.624 122.289 133.848 121.564 134.296C120.838 134.744 120.262 135.373 119.836 136.184C119.43 136.973 119.228 137.912 119.228 139C119.228 140.067 119.43 141.005 119.836 141.816C120.262 142.627 120.838 143.256 121.564 143.704C122.289 144.152 123.1 144.376 123.996 144.376C125.169 144.376 126.193 144.024 127.068 143.32C127.964 142.616 128.486 141.603 128.636 140.28H131.964C131.878 141.688 131.473 142.925 130.748 143.992C130.044 145.037 129.105 145.859 127.932 146.456C126.758 147.032 125.446 147.32 123.996 147.32C122.481 147.32 121.116 146.968 119.9 146.264C118.705 145.56 117.756 144.579 117.052 143.32C116.369 142.061 116.028 140.621 116.028 139C116.028 137.357 116.369 135.917 117.052 134.68C117.756 133.421 118.705 132.44 119.9 131.736C121.116 131.032 122.481 130.68 123.996 130.68C125.404 130.68 126.673 130.957 127.804 131.512C128.956 132.067 129.894 132.845 130.62 133.848C131.345 134.851 131.772 136.024 131.9 137.368H128.572Z" fill="white"/>
<path d="M121.584 90H118.384V66H125.328C127.269 66 128.858 66.544 130.096 67.632C131.333 68.72 131.952 70.3093 131.952 72.4V74.128C131.952 76.304 131.333 77.968 130.096 79.12C128.858 80.272 127.269 80.848 125.328 80.848H121.584V90ZM125.008 68.944H121.584V77.904H125.008C126.16 77.904 127.066 77.584 127.728 76.944C128.41 76.304 128.752 75.2587 128.752 73.808V72.72C128.752 71.3547 128.41 70.384 127.728 69.808C127.066 69.232 126.16 68.944 125.008 68.944Z" fill="white"/>
<path d="M120.224 213H117.024V189H120.224V191.4C120.843 190.547 121.6 189.885 122.496 189.416C123.414 188.925 124.406 188.68 125.472 188.68C126.944 188.68 128.256 189.032 129.408 189.736C130.56 190.44 131.467 191.421 132.128 192.68C132.811 193.917 133.152 195.357 133.152 197C133.152 198.621 132.811 200.061 132.128 201.32C131.467 202.579 130.56 203.56 129.408 204.264C128.256 204.968 126.944 205.32 125.472 205.32C124.406 205.32 123.414 205.085 122.496 204.616C121.6 204.125 120.843 203.453 120.224 202.6V213ZM125.088 202.376C126.027 202.376 126.859 202.152 127.584 201.704C128.31 201.256 128.886 200.627 129.312 199.816C129.739 199.005 129.952 198.067 129.952 197C129.952 195.912 129.739 194.973 129.312 194.184C128.886 193.373 128.31 192.744 127.584 192.296C126.859 191.848 126.027 191.624 125.088 191.624C124.171 191.624 123.339 191.848 122.592 192.296C121.867 192.744 121.291 193.373 120.864 194.184C120.438 194.973 120.224 195.912 120.224 197C120.224 198.067 120.438 199.005 120.864 199.816C121.291 200.627 121.867 201.256 122.592 201.704C123.339 202.152 124.171 202.376 125.088 202.376Z" fill="white"/>
<path d="M181.867 8C184.107 8 185.867 8.66133 187.147 9.984C188.427 11.2853 189.067 13.2907 189.067 16V24C189.067 26.7093 188.427 28.7253 187.147 30.048C185.867 31.3493 184.107 32 181.867 32H175.243V8H181.867ZM181.867 29.056C183.104 29.056 184.075 28.6827 184.779 27.936C185.504 27.1893 185.867 25.8773 185.867 24V16C185.867 14.1227 185.515 12.8107 184.811 12.064C184.107 11.3173 183.126 10.944 181.867 10.944H178.443V29.056H181.867Z" fill="white"/>
<path d="M181.52 130.68C182.587 130.68 183.568 130.925 184.464 131.416C185.382 131.885 186.15 132.547 186.768 133.4V123H189.968V147H186.768V144.6C186.15 145.453 185.382 146.125 184.464 146.616C183.568 147.085 182.587 147.32 181.52 147.32C180.07 147.32 178.758 146.968 177.584 146.264C176.432 145.56 175.515 144.579 174.832 143.32C174.171 142.061 173.84 140.621 173.84 139C173.84 137.357 174.171 135.917 174.832 134.68C175.515 133.421 176.432 132.44 177.584 131.736C178.758 131.032 180.07 130.68 181.52 130.68ZM181.904 133.624C180.987 133.624 180.155 133.848 179.408 134.296C178.683 134.744 178.107 135.373 177.68 136.184C177.254 136.973 177.04 137.912 177.04 139C177.04 140.067 177.254 141.005 177.68 141.816C178.107 142.627 178.683 143.256 179.408 143.704C180.155 144.152 180.987 144.376 181.904 144.376C182.843 144.376 183.675 144.152 184.4 143.704C185.126 143.256 185.702 142.627 186.128 141.816C186.555 141.005 186.768 140.067 186.768 139C186.768 137.912 186.555 136.973 186.128 136.184C185.702 135.373 185.126 134.744 184.4 134.296C183.675 133.848 182.843 133.624 181.904 133.624Z" fill="white"/>
<path d="M181.355 90.32C179.478 90.32 177.931 89.6373 176.715 88.272C175.52 86.9067 174.923 84.8587 174.923 82.128V73.872C174.923 71.1413 175.552 69.0933 176.811 67.728C178.07 66.3627 179.798 65.68 181.995 65.68C184.214 65.68 185.942 66.3627 187.179 67.728C188.438 69.0933 189.067 71.1413 189.067 73.872V82.128C189.067 83.216 188.928 84.1867 188.651 85.04C188.374 85.8933 187.936 86.576 187.339 87.088L189.451 90H186.347L185.067 88.24C184.768 88.9867 184.278 89.52 183.595 89.84C182.912 90.16 182.166 90.32 181.355 90.32ZM181.995 87.376C182.742 87.376 183.382 87.2373 183.915 86.96L179.947 81.68H183.147L185.483 84.944C185.739 84.1973 185.867 83.2587 185.867 82.128V73.872C185.867 71.952 185.526 70.5973 184.843 69.808C184.16 69.0187 183.211 68.624 181.995 68.624C180.8 68.624 179.851 69.0187 179.147 69.808C178.464 70.5973 178.123 71.952 178.123 73.872V82.128C178.123 84.048 178.464 85.4027 179.147 86.192C179.83 86.9813 180.779 87.376 181.995 87.376Z" fill="white"/>
<path d="M181.52 205.32C180.07 205.32 178.758 204.968 177.584 204.264C176.432 203.56 175.515 202.579 174.832 201.32C174.171 200.061 173.84 198.621 173.84 197C173.84 195.357 174.171 193.917 174.832 192.68C175.515 191.421 176.432 190.44 177.584 189.736C178.758 189.032 180.07 188.68 181.52 188.68C182.587 188.68 183.568 188.925 184.464 189.416C185.382 189.885 186.15 190.547 186.768 191.4V189H189.968V213H186.768V202.6C186.15 203.453 185.382 204.125 184.464 204.616C183.568 205.085 182.587 205.32 181.52 205.32ZM181.904 202.376C182.843 202.376 183.675 202.152 184.4 201.704C185.126 201.256 185.702 200.627 186.128 199.816C186.555 199.005 186.768 198.067 186.768 197C186.768 195.912 186.555 194.973 186.128 194.184C185.702 193.373 185.126 192.744 184.4 192.296C183.675 191.848 182.843 191.624 181.904 191.624C180.987 191.624 180.155 191.848 179.408 192.296C178.683 192.744 178.107 193.373 177.68 194.184C177.254 194.973 177.04 195.912 177.04 197C177.04 198.067 177.254 199.005 177.68 199.816C178.107 200.627 178.683 201.256 179.408 201.704C180.155 202.152 180.987 202.376 181.904 202.376Z" fill="white"/>
<path d="M245.354 29.056V32H234.602V8H245.354V10.944H237.802V18.176H244.714V21.12H237.802V29.056H245.354Z" fill="white"/>
<path d="M247.802 140.088H235.258C235.45 141.475 235.972 142.563 236.826 143.352C237.679 144.12 238.778 144.504 240.122 144.504C241.103 144.504 241.914 144.301 242.554 143.896C243.194 143.491 243.674 142.925 243.994 142.2H247.45C246.959 143.843 246.052 145.112 244.73 146.008C243.407 146.883 241.828 147.32 239.994 147.32C238.479 147.32 237.124 146.968 235.93 146.264C234.756 145.56 233.828 144.579 233.146 143.32C232.463 142.061 232.122 140.621 232.122 139C232.122 137.357 232.463 135.917 233.146 134.68C233.828 133.421 234.756 132.44 235.93 131.736C237.124 131.032 238.479 130.68 239.994 130.68C241.508 130.68 242.852 131.032 244.026 131.736C245.22 132.44 246.159 133.421 246.842 134.68C247.524 135.917 247.866 137.357 247.866 139C247.866 139.192 247.855 139.384 247.833 139.576C247.833 139.747 247.823 139.917 247.802 140.088ZM239.994 133.496C238.714 133.496 237.658 133.88 236.826 134.648C235.994 135.395 235.482 136.44 235.29 137.784H244.698C244.506 136.44 243.994 135.395 243.162 134.648C242.33 133.88 241.274 133.496 239.994 133.496Z" fill="white"/>
<path d="M236.271 90H233.071V66H240.111C241.412 66 242.564 66.2347 243.567 66.704C244.57 67.152 245.359 67.8347 245.935 68.752C246.511 69.648 246.799 70.7573 246.799 72.08V73.04C246.799 74.3627 246.511 75.472 245.935 76.368C245.38 77.2427 244.623 77.9147 243.663 78.384C242.703 78.832 241.626 79.088 240.431 79.152L247.535 90H243.695L236.271 78.256V90ZM239.791 68.944H236.271V76.496H239.791C240.964 76.496 241.892 76.208 242.575 75.632C243.258 75.0347 243.599 74.064 243.599 72.72V72.4C243.599 71.1413 243.258 70.256 242.575 69.744C241.892 69.2107 240.964 68.944 239.791 68.944Z" fill="white"/>
<path d="M239.115 189V191.88C239.691 190.835 240.448 190.045 241.387 189.512C242.347 188.957 243.435 188.68 244.651 188.68C245.078 188.68 245.419 188.712 245.675 188.776V192.264C245.163 192.093 244.598 192.008 243.979 192.008C242.443 192.008 241.248 192.424 240.395 193.256C239.542 194.088 239.115 195.325 239.115 196.968V205H235.915V189H239.115Z" fill="white"/>
<path d="M296.131 32H292.931V8H303.683V10.944H296.131V18.816H302.723V21.76H296.131V32Z" fill="white"/>
<path d="M298.514 128.6V131H303.122V133.816H298.514V147H295.314V133.816H292.562V131H295.314V128.504C295.314 126.627 295.869 125.187 296.978 124.184C298.087 123.181 299.495 122.68 301.202 122.68C302.098 122.68 302.845 122.776 303.442 122.968V125.912C302.866 125.72 302.215 125.624 301.49 125.624C300.573 125.624 299.847 125.869 299.314 126.36C298.781 126.851 298.514 127.597 298.514 128.6Z" fill="white"/>
<path d="M291.994 71.568C291.994 70.16 292.261 69.0293 292.794 68.176C293.349 67.3013 294.085 66.672 295.002 66.288C295.92 65.8827 296.933 65.68 298.042 65.68C299.194 65.68 300.229 65.9147 301.146 66.384C302.064 66.8533 302.789 67.5573 303.322 68.496C303.877 69.4347 304.154 70.6293 304.154 72.08V73.552H300.954V72.176C300.954 70.9387 300.688 70.0427 300.154 69.488C299.642 68.912 298.938 68.624 298.042 68.624C297.189 68.624 296.496 68.88 295.962 69.392C295.45 69.8827 295.194 70.608 295.194 71.568C295.194 72.5067 295.461 73.2853 295.994 73.904C296.549 74.5227 297.221 75.0987 298.01 75.632L300.602 77.488C301.669 78.2347 302.586 79.1093 303.354 80.112C304.122 81.0933 304.506 82.3627 304.506 83.92C304.506 85.3493 304.218 86.544 303.642 87.504C303.066 88.4427 302.288 89.1467 301.306 89.616C300.346 90.0853 299.269 90.32 298.074 90.32C296.901 90.32 295.824 90.0747 294.842 89.584C293.861 89.0933 293.082 88.368 292.506 87.408C291.93 86.448 291.642 85.2853 291.642 83.92V82.128H294.842V83.696C294.842 84.8267 295.13 85.7227 295.706 86.384C296.304 87.0453 297.093 87.376 298.074 87.376C299.077 87.376 299.866 87.1093 300.442 86.576C301.018 86.0213 301.306 85.264 301.306 84.304C301.306 83.3013 301.029 82.4587 300.474 81.776C299.941 81.0933 299.269 80.4747 298.458 79.92L295.93 78.16C294.842 77.4133 293.914 76.528 293.146 75.504C292.378 74.48 291.994 73.168 291.994 71.568Z" fill="white"/>
<path d="M304.158 200.488C304.158 201.491 303.88 202.355 303.326 203.08C302.771 203.805 302.014 204.36 301.054 204.744C300.094 205.128 298.995 205.32 297.758 205.32C296.456 205.32 295.283 205.107 294.238 204.68C293.192 204.253 292.36 203.635 291.742 202.824C291.144 201.992 290.846 201 290.846 199.848H294.174C294.174 200.829 294.515 201.565 295.198 202.056C295.88 202.547 296.734 202.792 297.758 202.792C298.739 202.792 299.496 202.611 300.03 202.248C300.584 201.885 300.862 201.341 300.862 200.616C300.862 199.976 300.627 199.496 300.158 199.176C299.688 198.856 299.08 198.611 298.334 198.44C297.608 198.269 296.83 198.109 295.998 197.96C295.187 197.811 294.408 197.587 293.661 197.288C292.936 196.968 292.339 196.509 291.87 195.912C291.4 195.293 291.166 194.451 291.166 193.384C291.166 192.403 291.432 191.571 291.966 190.888C292.52 190.184 293.256 189.64 294.174 189.256C295.091 188.872 296.126 188.68 297.278 188.68C298.536 188.68 299.656 188.915 300.638 189.384C301.619 189.832 302.398 190.451 302.974 191.24C303.55 192.029 303.838 192.915 303.838 193.896H300.51C300.51 193.128 300.2 192.499 299.582 192.008C298.984 191.496 298.216 191.24 297.278 191.24C296.424 191.24 295.731 191.421 295.198 191.784C294.664 192.125 294.398 192.616 294.398 193.256C294.398 193.853 294.632 194.301 295.102 194.6C295.571 194.877 296.179 195.101 296.926 195.272C297.672 195.421 298.451 195.581 299.262 195.752C300.094 195.923 300.883 196.168 301.63 196.488C302.376 196.808 302.984 197.288 303.454 197.928C303.923 198.547 304.158 199.4 304.158 200.488Z" fill="white"/>
<path d="M354.309 32.32C352.304 32.32 350.725 31.6373 349.573 30.272C348.421 28.9067 347.845 26.8587 347.845 24.128V15.872C347.845 13.1413 348.474 11.0933 349.733 9.728C350.992 8.36267 352.72 7.68 354.917 7.68C357.136 7.68 358.864 8.36267 360.101 9.728C361.36 11.0933 361.989 13.1413 361.989 15.872V16.832H358.789V15.872C358.789 13.952 358.448 12.5973 357.765 11.808C357.082 11.0187 356.133 10.624 354.917 10.624C353.722 10.624 352.773 11.0187 352.069 11.808C351.386 12.5973 351.045 13.952 351.045 15.872V24.128C351.045 26.048 351.386 27.4027 352.069 28.192C352.752 28.9813 353.701 29.376 354.917 29.376C356.112 29.376 357.05 28.992 357.733 28.224C358.437 27.4347 358.789 26.1547 358.789 24.384V22.304H354.437V19.36H361.989V32H359.109V29.152C358.213 31.264 356.613 32.32 354.309 32.32Z" fill="white"/>
<path d="M354.52 147.32C353.07 147.32 351.758 146.968 350.584 146.264C349.432 145.56 348.515 144.579 347.832 143.32C347.171 142.061 346.84 140.621 346.84 139C346.84 137.357 347.171 135.917 347.832 134.68C348.515 133.421 349.432 132.44 350.584 131.736C351.758 131.032 353.07 130.68 354.52 130.68C355.587 130.68 356.568 130.925 357.464 131.416C358.382 131.885 359.15 132.547 359.768 133.4V131H362.968V147.128C362.968 148.749 362.616 150.168 361.912 151.384C361.208 152.621 360.259 153.581 359.064 154.264C357.891 154.968 356.568 155.32 355.096 155.32C353.71 155.32 352.451 155.032 351.32 154.456C350.211 153.88 349.294 153.069 348.568 152.024C347.864 150.979 347.416 149.773 347.224 148.408H350.456C350.67 149.603 351.182 150.563 351.992 151.288C352.824 152.013 353.859 152.376 355.096 152.376C356.568 152.376 357.71 151.885 358.52 150.904C359.352 149.923 359.768 148.664 359.768 147.128V144.6C359.15 145.453 358.382 146.125 357.464 146.616C356.568 147.085 355.587 147.32 354.52 147.32ZM354.904 144.376C355.843 144.376 356.675 144.152 357.4 143.704C358.126 143.256 358.702 142.627 359.128 141.816C359.555 141.005 359.768 140.067 359.768 139C359.768 137.912 359.555 136.973 359.128 136.184C358.702 135.373 358.126 134.744 357.4 134.296C356.675 133.848 355.843 133.624 354.904 133.624C353.987 133.624 353.155 133.848 352.408 134.296C351.683 134.744 351.107 135.373 350.68 136.184C350.254 136.973 350.04 137.912 350.04 139C350.04 140.067 350.254 141.005 350.68 141.816C351.107 142.627 351.683 143.256 352.408 143.704C353.155 144.152 353.987 144.376 354.904 144.376Z" fill="white"/>
<path d="M356.607 90H353.407V68.944H348.383V66H361.631V68.944H356.607V90Z" fill="white"/>
<path d="M355.73 199.528C355.73 200.509 355.954 201.235 356.402 201.704C356.85 202.152 357.532 202.376 358.45 202.376C359.175 202.376 359.804 202.28 360.338 202.088V204.936C360.06 205.021 359.687 205.107 359.218 205.192C358.77 205.277 358.311 205.32 357.842 205.32C356.818 205.32 355.9 205.16 355.09 204.84C354.3 204.499 353.671 203.923 353.202 203.112C352.754 202.301 352.53 201.171 352.53 199.72V191.816H349.906V189H352.53V184.264H355.73V189H360.338V191.816H355.73V199.528Z" fill="white"/>
<path d="M409.131 32H405.931V8H409.131V18.176H416.875V8H420.075V32H416.875V21.12H409.131V32Z" fill="white"/>
<path d="M417.453 138.264C417.453 136.685 417.101 135.501 416.397 134.712C415.714 133.901 414.775 133.496 413.581 133.496C412.386 133.496 411.437 133.901 410.733 134.712C410.05 135.501 409.709 136.685 409.709 138.264V147H406.509V123H409.709V133.528C410.199 132.589 410.861 131.885 411.693 131.416C412.546 130.925 413.506 130.68 414.573 130.68C416.322 130.68 417.773 131.256 418.925 132.408C420.077 133.539 420.653 135.277 420.653 137.624V147H417.453V138.264Z" fill="white"/>
<path d="M406.583 66H409.783V82.608C409.783 84.3573 410.103 85.5947 410.743 86.32C411.404 87.024 412.322 87.376 413.495 87.376C414.647 87.376 415.554 87.024 416.215 86.32C416.876 85.5947 417.207 84.3573 417.207 82.608V66H420.407V82.608C420.407 85.2107 419.788 87.152 418.551 88.432C417.335 89.6907 415.65 90.32 413.495 90.32C411.34 90.32 409.644 89.6907 408.407 88.432C407.191 87.152 406.583 85.2107 406.583 82.608V66Z" fill="white"/>
<path d="M409.627 197.672C409.627 199.272 409.968 200.477 410.651 201.288C411.333 202.099 412.261 202.504 413.435 202.504C414.608 202.504 415.525 202.099 416.187 201.288C416.869 200.477 417.211 199.272 417.211 197.672V189H420.411V205H417.211V202.44C416.72 203.379 416.059 204.093 415.227 204.584C414.395 205.075 413.467 205.32 412.443 205.32C411.312 205.32 410.288 205.075 409.371 204.584C408.453 204.072 407.728 203.293 407.195 202.248C406.683 201.203 406.427 199.891 406.427 198.312V189H409.627V197.672Z" fill="white"/>
<path d="M472.599 32H469.399V8H472.599V32Z" fill="white"/>
<path d="M469.999 127.512C469.402 127.512 468.901 127.309 468.495 126.904C468.09 126.477 467.887 125.965 467.887 125.368C467.887 124.749 468.09 124.248 468.495 123.864C468.901 123.459 469.402 123.256 469.999 123.256C470.618 123.256 471.119 123.459 471.503 123.864C471.909 124.248 472.111 124.749 472.111 125.368C472.111 125.965 471.909 126.477 471.503 126.904C471.119 127.309 470.618 127.512 469.999 127.512ZM471.599 147H468.399V131H471.599V147Z" fill="white"/>
<path d="M468.104 90L462.728 66H465.96L470.504 87.44L475.048 66H478.28L472.904 90H468.104Z" fill="white"/>
<path d="M473.24 205H468.76L463.32 189H466.648L471 202.44L475.352 189H478.68L473.24 205Z" fill="white"/>
<path d="M532.35 8H535.55V25.664C535.55 27.136 535.262 28.3733 534.686 29.376C534.132 30.3573 533.364 31.0933 532.382 31.584C531.422 32.0747 530.334 32.32 529.118 32.32C527.924 32.32 526.836 32.0747 525.854 31.584C524.873 31.0933 524.094 30.3573 523.518 29.376C522.964 28.3733 522.686 27.136 522.686 25.664V23.616H525.886V25.408C525.886 26.8587 526.185 27.8827 526.782 28.48C527.38 29.0773 528.158 29.376 529.118 29.376C530.1 29.376 530.878 29.0773 531.454 28.48C532.052 27.8827 532.35 26.8587 532.35 25.408V8Z" fill="white"/>
<path d="M527.999 127.512C527.402 127.512 526.901 127.309 526.495 126.904C526.09 126.477 525.887 125.965 525.887 125.368C525.887 124.749 526.09 124.248 526.495 123.864C526.901 123.459 527.402 123.256 527.999 123.256C528.618 123.256 529.119 123.459 529.503 123.864C529.909 124.248 530.111 124.749 530.111 125.368C530.111 125.965 529.909 126.477 529.503 126.904C529.119 127.309 528.618 127.512 527.999 127.512ZM526.399 149.784V131H529.599V149.848C529.599 151.128 529.375 152.141 528.927 152.888C528.479 153.635 527.871 154.168 527.103 154.488C526.335 154.829 525.461 155 524.479 155C523.754 155 523.221 154.957 522.879 154.872V151.96C523.242 152.024 523.637 152.056 524.063 152.056C524.767 152.056 525.333 151.907 525.759 151.608C526.186 151.309 526.399 150.701 526.399 149.784Z" fill="white"/>
<path d="M525.8 90H521L517.32 66H520.52L523.464 86.832L526.6 66H531.4L534.536 86.832L537.48 66H540.68L537 90H532.2L529 68.752L525.8 90Z" fill="white"/>
<path d="M525.098 205H521.066L516.746 189H519.818L523.114 202.216L526.474 189H530.538L533.898 202.216L537.194 189H540.266L535.946 205H531.914L528.522 191.784L525.098 205Z" fill="white"/>
<path d="M584.271 8V19.68L591.279 8H594.799L587.599 19.488L595.183 32H591.343L584.271 20.192V32H581.071V8H584.271Z" fill="white"/>
<path d="M583.24 123V138.104L590.12 131H594.376L586.856 138.296L594.952 147H590.888L583.24 138.584V147H580.04V123H583.24Z" fill="white"/>
<path d="M590.188 90L585.996 80.432L581.804 90H578.316L584.172 77.68L578.668 66H582.124L585.996 74.96L589.868 66H593.324L587.82 77.68L593.676 90H590.188Z" fill="white"/>
<path d="M582.06 205H578.316L584.588 196.712L578.636 189H582.38L586.604 194.44L590.636 189H594.38L588.428 196.808L594.7 205H590.956L586.348 199.08L582.06 205Z" fill="white"/>
<path d="M650.439 29.056V32H639.431V8H642.631V29.056H650.439Z" fill="white"/>
<path d="M644.599 147H641.399V123H644.599V147Z" fill="white"/>
<path d="M645.593 90H642.393V80.336L636.345 66H639.545L643.993 77.008L648.441 66H651.641L645.593 80.336V90Z" fill="white"/>
<path d="M646.02 206.792C645.572 208.051 645.071 209.171 644.516 210.152C643.962 211.133 643.258 211.891 642.404 212.424C641.572 212.979 640.495 213.256 639.172 213.256C638.724 213.256 638.287 213.213 637.86 213.128C637.434 213.064 637.071 212.989 636.772 212.904V210.088C637.071 210.173 637.402 210.248 637.764 210.312C638.127 210.397 638.5 210.44 638.884 210.44C639.887 210.44 640.698 210.131 641.316 209.512C641.935 208.915 642.5 207.997 643.012 206.76L636.676 189H639.876L644.516 202.408L649.124 189H652.324L646.02 206.792Z" fill="white"/>
<path d="M703.797 32H699.925L695.093 10.304V32H692.149V8H697.621L702.005 27.776L706.293 8H711.861V32H708.661V10.4L703.797 32Z" fill="white"/>
<path d="M699.98 137.816C699.98 136.365 699.671 135.288 699.052 134.584C698.433 133.859 697.591 133.496 696.524 133.496C695.457 133.496 694.615 133.859 693.996 134.584C693.377 135.288 693.068 136.365 693.068 137.816V147H689.868V131H693.068V133.24C693.537 132.408 694.156 131.779 694.924 131.352C695.692 130.904 696.556 130.68 697.516 130.68C698.647 130.68 699.66 130.947 700.556 131.48C701.452 131.992 702.124 132.781 702.572 133.848C703.041 132.824 703.713 132.045 704.588 131.512C705.484 130.957 706.508 130.68 707.66 130.68C709.281 130.68 710.625 131.213 711.692 132.28C712.759 133.347 713.292 134.979 713.292 137.176V147H710.092V137.816C710.092 136.365 709.783 135.288 709.164 134.584C708.567 133.859 707.735 133.496 706.668 133.496C705.58 133.496 704.727 133.859 704.108 134.584C703.489 135.288 703.18 136.365 703.18 137.816V147H699.98V137.816Z" fill="white"/>
<path d="M696.041 86.224L704.969 68.944H696.201V66H707.945V69.776L699.049 87.056H708.265V90H696.041V86.224Z" fill="white"/>
<path d="M708.596 205H695.732V201.352L704.852 191.816H695.892V189H707.956V192.648L698.836 202.184H708.596V205Z" fill="white"/>
</svg>
