<svg width="1176" height="173" viewBox="0 0 1176 173" fill="none" xmlns="http://www.w3.org/2000/svg">
<path d="M754 3H1176" stroke="#105FB0" stroke-width="2"/>
<path d="M43.3771 148.011C29.882 148.011 19.2787 143.846 11.5672 135.517C3.85574 127.187 0 114.693 0 98.0333V49.9778C0 33.1904 3.85574 20.6959 11.5672 12.4944C19.2787 4.16481 29.882 0 43.3771 0C56.8722 0 67.4755 4.16481 75.187 12.4944C82.8985 20.6959 86.7542 33.1904 86.7542 49.9778V98.0333C86.7542 114.693 82.8985 127.187 75.187 135.517C67.4755 143.846 56.8722 148.011 43.3771 148.011ZM43.3771 126.867C49.6748 126.867 54.623 124.816 58.2217 120.716C61.8204 116.487 63.6198 108.926 63.6198 98.0333V49.9778C63.6198 39.0852 61.8204 31.5885 58.2217 27.4878C54.7516 23.2589 49.8034 21.1444 43.3771 21.1444C37.0794 21.1444 32.1312 23.2589 28.5325 27.4878C24.9338 31.5885 23.1345 39.0852 23.1345 49.9778V98.0333C23.1345 108.926 24.9338 116.487 28.5325 120.716C32.1312 124.816 37.0794 126.867 43.3771 126.867Z" fill="#105FB0"/>
<path d="M131.631 135.324C131.631 140.45 130.282 146.281 127.583 152.817C124.884 159.48 121.285 166.208 116.787 173H104.063C106.89 168.387 109.332 164.03 111.389 159.929C113.445 155.828 114.987 151.856 116.016 148.011C112.031 147.883 108.754 146.473 106.184 143.782C103.613 140.963 102.328 137.567 102.328 133.594C102.328 129.494 103.677 126.098 106.376 123.407C109.075 120.587 112.546 119.178 116.787 119.178C120.9 119.178 124.37 120.587 127.197 123.407C130.153 126.226 131.631 130.199 131.631 135.324Z" fill="#105FB0"/>
<path d="M216.343 146.089H193.209V1.92222H258.564V23.0667H216.343V146.089Z" fill="#105FB0"/>
<path d="M299.935 146.089H276.8V1.92222H319.021C330.845 1.92222 340.548 5.25407 348.131 11.9178C355.843 18.5815 359.699 28.3848 359.699 41.3278V50.9389C359.699 59.7811 357.964 67.2778 354.493 73.4289C351.023 79.58 346.204 84.2574 340.034 87.4611C333.994 90.6648 326.989 92.2667 319.021 92.2667H299.935V146.089ZM317.093 23.0667H299.935V71.1222H317.093C323.133 71.1222 327.889 69.3922 331.359 65.9322C334.829 62.4722 336.564 56.8337 336.564 49.0167V43.25C336.564 35.9456 334.829 30.7556 331.359 27.68C327.889 24.6044 323.133 23.0667 317.093 23.0667Z" fill="#105FB0"/>
<path d="M445.349 124.944V146.089H379.03V1.92222H445.349V23.0667H402.165V61.5111H441.493V82.6556H402.165V124.944H445.349Z" fill="#105FB0"/>
<path d="M544.654 172.039V146.089H466.575V1.92222H489.71V124.944H529.231V1.92222H552.365V124.944H565.86V172.039H544.654Z" fill="#105FB0"/>
<path d="M636.681 1.92222H670.997V146.089H649.791V25.7578L618.559 146.089H584.243V1.92222H605.45V122.253L636.681 1.92222Z" fill="#105FB0"/>
<path d="M688.318 146.089L725.526 85.1544C716.015 83.6167 708.175 79.7722 702.006 73.6211C695.837 67.3419 692.752 58.4996 692.752 47.0944V41.3278C692.752 28.3848 696.544 18.5815 704.126 11.9178C711.838 5.25407 721.606 1.92222 733.43 1.92222H777V146.089H753.866V79.1955L714.923 146.089H688.318ZM735.358 67.2778H753.866V23.0667H735.358C729.446 23.0667 724.69 24.6044 721.092 27.68C717.622 30.7556 715.887 35.9456 715.887 43.25V45.1722C715.887 52.9893 717.622 58.6278 721.092 62.0878C724.69 65.5478 729.446 67.2778 735.358 67.2778Z" fill="#105FB0"/>
<path d="M754 146H1176" stroke="#105FB0" stroke-width="2"/>
<path d="M976.21 146.957C976.739 147.117 977.297 146.819 977.458 146.29L980.07 137.678C980.231 137.149 979.932 136.591 979.404 136.431C978.875 136.27 978.317 136.569 978.156 137.097L975.834 144.753L968.179 142.43C967.65 142.27 967.092 142.569 966.931 143.097C966.771 143.626 967.07 144.184 967.598 144.344L976.21 146.957ZM979.001 70L979.879 70.4773L979.001 70ZM973.069 3.00234C972.518 2.96459 972.041 3.38066 972.003 3.93165L971.388 12.9106C971.35 13.4616 971.766 13.9389 972.317 13.9766C972.868 14.0144 973.346 13.5983 973.383 13.0473L973.93 5.06601L981.911 5.61279C982.462 5.65054 982.94 5.23447 982.977 4.68348C983.015 4.13249 982.599 3.65522 982.048 3.61747L973.069 3.00234ZM977.383 145.529C969.591 130.952 964.87 122.313 964.688 112.294C964.505 102.276 968.873 90.7389 979.879 70.4773L978.122 69.5227C967.128 89.7611 962.495 101.724 962.688 112.331C962.881 122.937 967.91 132.048 975.619 146.471L977.383 145.529ZM979.879 70.4773C988.189 55.1802 991.041 43.3312 989.56 32.7719C988.079 22.2199 982.296 13.1402 973.755 3.34288L972.247 4.65712C980.705 14.3598 986.18 23.0779 987.579 33.0498C988.977 43.0143 986.329 54.4153 978.122 69.5227L979.879 70.4773Z" fill="#105FB0"/>
</svg>
