<svg width="1226" height="373" viewBox="0 0 1226 373" fill="none" xmlns="http://www.w3.org/2000/svg">
<path d="M0 194H1179" stroke="white" stroke-width="3"/>
<path d="M1179 194H400V290" stroke="white" stroke-width="3"/>
<rect x="1.5" y="1.5" width="1176" height="288" rx="43.5" stroke="white" stroke-width="3"/>
<path d="M1120.51 266.089C1084.55 188.932 1065.66 259.19 1029.36 266.04C1019.41 247.944 1000.01 203.264 1002.02 169.313C1004.03 135.362 985.683 123.936 976.258 122.467C995.99 120.739 1016.54 144.791 1024.35 157.033C1016.31 143.588 1007 115.141 1034.08 108.915C1061.17 102.689 1087.9 120.188 1097.87 129.716C1062.82 143.064 1091.13 149.58 1109.67 151.169C1135.05 155.004 1149.21 174.093 1153.12 183.158C1113.6 175.238 1114.82 191.865 1120.36 201.169C1150.72 231.919 1133.11 257.262 1120.51 266.089Z" fill="#105FB0" stroke="white" stroke-width="3"/>
<path d="M1022.56 219.231C1024.44 203.957 1037.07 172.029 1072.6 166.507" stroke="white" stroke-width="3"/>
<path d="M1043.5 180.297C1049.96 179.986 1064.45 180.557 1070.83 185.335" stroke="white" stroke-width="3"/>
<path d="M970.294 173.814C950.67 186.408 943.474 209.147 953.297 224.451C963.119 239.756 986.789 242.685 1006.41 230.091C1026.04 217.497 1033.23 194.758 1023.41 179.453C1013.59 164.149 989.917 161.22 970.294 173.814Z" fill="#105FB0" stroke="white" stroke-width="3"/>
<path d="M912.429 195.239C896.768 205.29 891.115 223.367 898.879 235.463C906.642 247.56 925.431 249.95 941.092 239.899C956.752 229.848 962.405 211.771 954.642 199.675C946.878 187.578 928.089 185.188 912.429 195.239Z" fill="#105FB0" stroke="white" stroke-width="3"/>
<path d="M934.674 212.859C915.05 225.453 907.854 248.192 917.677 263.496C927.499 278.801 951.169 281.73 970.792 269.136C990.415 256.541 997.611 233.803 987.789 218.498C977.967 203.194 954.297 200.265 934.674 212.859Z" fill="#105FB0" stroke="white" stroke-width="3"/>
<path d="M870.264 213.096C849.967 214.583 835.048 229.016 836.202 244.758C837.356 260.5 854.22 272.604 874.517 271.116C894.814 269.628 909.732 255.195 908.578 239.453C907.424 223.711 890.561 211.608 870.264 213.096Z" fill="#105FB0" stroke="white" stroke-width="3"/>
<path d="M811.677 347.364C808.227 355.371 810.794 363.512 816.498 365.969C822.202 368.426 829.881 364.7 833.331 356.693C836.781 348.685 834.214 340.545 828.51 338.087C822.806 335.63 815.127 339.356 811.677 347.364Z" fill="#105FB0" stroke="white" stroke-width="3"/>
<path d="M809.853 310.59C799.619 312.155 792.797 320.477 794.071 328.808C795.344 337.14 804.342 343.043 814.576 341.479C824.81 339.914 831.632 331.592 830.358 323.261C829.085 314.929 820.088 309.026 809.853 310.59Z" fill="#105FB0" stroke="white" stroke-width="3"/>
<path d="M989.474 225.19C969.85 237.784 962.654 260.523 972.477 275.827C982.299 291.132 1005.97 294.061 1025.59 281.467C1045.22 268.873 1052.41 246.134 1042.59 230.829C1032.77 215.525 1009.1 212.596 989.474 225.19Z" fill="#105FB0" stroke="white" stroke-width="3"/>
<path d="M929.45 240.421C909.153 241.908 894.234 256.341 895.388 272.083C896.542 287.826 913.406 299.929 933.702 298.441C953.999 296.953 968.918 282.52 967.764 266.778C966.61 251.036 949.746 238.933 929.45 240.421Z" fill="#105FB0" stroke="white" stroke-width="3"/>
<path d="M1003.73 256.754C980.419 257.036 962.267 272.506 962.487 290.69C962.706 308.874 981.227 323.901 1004.54 323.619C1027.86 323.337 1046.01 307.867 1045.79 289.683C1045.57 271.5 1027.05 256.472 1003.73 256.754Z" fill="#105FB0" stroke="white" stroke-width="3"/>
<path d="M909.49 281.653C889.867 294.247 882.671 316.986 892.493 332.29C902.315 347.594 925.985 350.524 945.608 337.93C965.232 325.335 972.428 302.597 962.605 287.292C952.783 271.988 929.113 269.059 909.49 281.653Z" fill="#105FB0" stroke="white" stroke-width="3"/>
<path d="M850.355 265.974C832.748 277.275 826.337 297.642 835.112 311.315C843.887 324.988 865.074 327.643 882.681 316.342C900.289 305.042 906.7 284.674 897.925 271.002C889.15 257.329 867.963 254.674 850.355 265.974Z" fill="#105FB0" stroke="white" stroke-width="3"/>
<path d="M1048.94 230.724C1025.63 231.006 1007.48 246.476 1007.7 264.66C1007.92 282.843 1026.44 297.871 1049.75 297.589C1073.07 297.307 1091.22 281.837 1091 263.653C1090.78 245.469 1072.26 230.442 1048.94 230.724Z" fill="#105FB0" stroke="white" stroke-width="3"/>
<path d="M1023.11 215.808C1023.26 215.838 1022.64 216.115 1023.11 215.808C1023.44 215.596 1024.3 215.107 1026.29 214.066C1030.08 212.086 1031.56 211.549 1035.65 211.21C1038.24 210.994 1041.14 211.422 1043.67 211.369C1047.15 211.296 1049.94 210.313 1050.29 205.495C1050.69 199.965 1046.75 202.445 1045.44 203.054C1043.28 204.064 1042.96 207.993 1043.67 211.369C1041.14 211.422 1038.24 210.994 1035.65 211.21C1031.56 211.549 1030.08 212.086 1026.29 214.066C1024.3 215.107 1023.44 215.596 1023.11 215.808Z" fill="#105FB0"/>
<path d="M1022.62 215.897C1024.43 215.417 1020.42 217.131 1026.29 214.066C1030.08 212.086 1031.56 211.549 1035.65 211.21C1041.8 210.698 1049.69 213.817 1050.29 205.495C1050.69 199.965 1046.75 202.445 1045.44 203.054C1043.11 204.142 1042.92 208.621 1043.86 212.145C1046.31 221.389 1054.26 222.576 1058.76 221.381" stroke="white" stroke-width="3" stroke-linecap="round"/>
<path d="M821.424 268.648C806.843 278.006 801.611 294.813 808.813 306.035C816.016 317.258 833.474 319.501 848.055 310.143C862.636 300.785 867.868 283.979 860.666 272.756C853.463 261.534 836.005 259.29 821.424 268.648Z" fill="#105FB0" stroke="white" stroke-width="3"/>
<path d="M840.604 300.158C826.023 309.516 820.791 326.323 827.993 337.545C835.196 348.767 852.654 351.011 867.235 341.653C881.816 332.295 887.048 315.489 879.846 304.266C872.643 293.044 855.185 290.8 840.604 300.158Z" fill="#105FB0" stroke="white" stroke-width="3"/>
</svg>
