<svg width="597" height="520" viewBox="0 0 597 520" fill="none" xmlns="http://www.w3.org/2000/svg">
<path d="M595.5 204.408C595.5 206.753 593.902 209.362 590.061 212.165C586.263 214.937 580.565 217.673 573.082 220.315C558.136 225.592 536.425 230.37 509.496 234.391C455.662 242.43 381.24 247.408 299 247.408C216.76 247.408 142.338 242.43 88.5037 234.391C61.5753 230.37 39.8642 225.592 24.9177 220.315C17.4352 217.673 11.7373 214.937 7.93852 212.165C4.09752 209.362 2.5 206.753 2.5 204.408C2.5 202.064 4.09752 199.455 7.93852 196.652C11.7373 193.879 17.4352 191.143 24.9177 188.501C39.8642 183.224 61.5753 178.447 88.5037 174.426C142.338 166.387 216.76 161.408 299 161.408C381.24 161.408 455.662 166.387 509.496 174.426C536.425 178.447 558.136 183.224 573.082 188.501C580.565 191.143 586.263 193.879 590.061 196.652C593.902 199.455 595.5 202.064 595.5 204.408Z" stroke="#105FB0" stroke-width="3"/>
<path d="M132.5 195C140.358 213.824 159.571 218.05 181.727 218.599C211.323 219.333 256.728 176.577 240.798 148.642C219.802 204.703 159.896 203.871 132.5 195Z" fill="white" stroke="#105FB0" stroke-width="3"/>
<path d="M356.697 139.944C348.453 189.694 414.858 209.924 423.255 210.46C455.958 212.548 464.438 177.27 450.906 145.844C437.375 114.417 364.941 90.1947 356.697 139.944Z" fill="white" stroke="#105FB0" stroke-width="3"/>
<path d="M314.26 474.084L334 452.15L353.74 474.084C369.122 491.175 356.993 518.408 334 518.408C311.007 518.408 298.878 491.175 314.26 474.084Z" stroke="#105FB0" stroke-width="3"/>
<path d="M251.913 390.1L264.5 376.147L277.087 390.1C286.925 401.004 279.187 418.408 264.5 418.408C249.813 418.408 242.075 401.004 251.913 390.1Z" stroke="#105FB0" stroke-width="3"/>
<path d="M595.5 45.9082C595.5 48.2947 593.893 50.9381 590.055 53.7703C586.256 56.5735 580.559 59.3404 573.077 62.0116C558.132 67.3474 536.422 72.1785 509.494 76.2448C455.661 84.3739 381.239 89.4082 299 89.4082C216.761 89.4082 142.339 84.3739 88.5061 76.2448C61.5781 72.1785 39.868 67.3474 24.9227 62.0116C17.4409 59.3404 11.7435 56.5735 7.94497 53.7703C4.10699 50.9381 2.5 48.2947 2.5 45.9082C2.5 43.5217 4.10699 40.8783 7.94497 38.0461C11.7435 35.2429 17.4409 32.476 24.9227 29.8048C39.868 24.469 61.5781 19.6379 88.5061 15.5716C142.339 7.44247 216.761 2.4082 299 2.4082C381.239 2.4082 455.661 7.44247 509.494 15.5716C536.422 19.6379 558.132 24.469 573.077 29.8048C580.559 32.476 586.256 35.2429 590.055 38.0461C593.893 40.8783 595.5 43.5217 595.5 45.9082Z" stroke="#105FB0" stroke-width="3"/>
<path d="M406.5 39.9082C406.5 40.267 406.24 40.9546 404.896 41.9102C403.601 42.8306 401.595 43.7797 398.868 44.7177C393.432 46.587 385.485 48.2948 375.566 49.7375C355.751 52.6197 328.327 54.4082 298 54.4082C267.673 54.4082 240.249 52.6197 220.434 49.7375C210.515 48.2948 202.568 46.587 197.132 44.7177C194.405 43.7797 192.399 42.8306 191.104 41.9102C189.76 40.9546 189.5 40.267 189.5 39.9082C189.5 39.5494 189.76 38.8618 191.104 37.9062C192.399 36.9858 194.405 36.0367 197.132 35.0987C202.568 33.2294 210.515 31.5216 220.434 30.0789C240.249 27.1967 267.673 25.4082 298 25.4082C328.327 25.4082 355.751 27.1967 375.566 30.0789C385.485 31.5216 393.432 33.2294 398.868 35.0987C401.595 36.0367 403.601 36.9858 404.896 37.9062C406.24 38.8618 406.5 39.5494 406.5 39.9082Z" stroke="#105FB0" stroke-width="3"/>
<path d="M355.051 212.145C355.214 212.254 355.323 212.342 355.394 212.408C355.323 212.475 355.214 212.563 355.051 212.671C354.487 213.047 353.557 213.468 352.218 213.9C349.559 214.757 345.633 215.551 340.688 216.225C330.821 217.571 317.142 218.408 302 218.408C286.858 218.408 273.179 217.571 263.312 216.225C258.367 215.551 254.441 214.757 251.782 213.9C250.443 213.468 249.513 213.047 248.949 212.671C248.786 212.563 248.677 212.475 248.606 212.408C248.677 212.342 248.786 212.254 248.949 212.145C249.513 211.769 250.443 211.348 251.782 210.917C254.441 210.059 258.367 209.265 263.312 208.591C273.179 207.246 286.858 206.408 302 206.408C317.142 206.408 330.821 207.246 340.688 208.591C345.633 209.265 349.559 210.059 352.218 210.917C353.557 211.348 354.487 211.769 355.051 212.145ZM248.475 212.556C248.475 212.556 248.475 212.556 248.476 212.555C248.475 212.556 248.475 212.556 248.475 212.556Z" stroke="#105FB0" stroke-width="3"/>
<path d="M595 101.193C595 126.046 463.296 145.908 299.071 145.908C134.845 145.908 2 125.761 2 100.908" stroke="#105FB0" stroke-width="3"/>
<path d="M595 260.199C595 285.604 463.296 305.908 299.071 305.908C134.845 305.908 2 285.313 2 259.908" stroke="#105FB0" stroke-width="3"/>
<path d="M442 299.908C438.593 325.187 425.533 340.241 406.796 326.608C392.242 316.018 388.342 325.187 386.354 342.514C384.367 359.84 358.532 368.645 355.977 347.626C353.421 326.608 338.658 322.915 333.548 322.915C319.53 322.915 312.255 321.211 285 305.021" stroke="#105FB0" stroke-width="3"/>
<path d="M337.305 144L333 98H349.071C351.941 98 376.622 103.855 396.137 104.97C411.749 105.862 432.872 106.457 441.481 106.642C454.3 112.776 477.854 131.336 461.5 136.5C452 139.5 364 143.5 337.305 144Z" fill="white"/>
<path d="M440.709 175.592L441.586 188.04M440.709 175.592L434.162 188.697M440.709 175.592L435.683 163.801M440.709 175.592L445.729 165.545" stroke="#105FB0" stroke-width="3"/>
<path d="M204.925 169.75C198.041 178.826 186.616 181.631 175.334 181.348C163.03 180.424 157.715 177.71 162.937 168.405C166.586 161.905 183.136 149.76 194.342 152.171C202.674 153.963 213.529 158.404 204.925 169.75Z" fill="#105FB0" stroke="#105FB0" stroke-width="3"/>
<path d="M131.603 193.354C133.889 181.392 138.667 156.264 171.912 145.362C205.157 134.46 223.044 134.798 240.668 148.026" stroke="#105FB0" stroke-width="3"/>
<path d="M155.043 138.753L156.625 90.7285L172.531 92.5264C175.372 92.8475 199.126 101.574 218.313 104.893C233.662 107.549 254.5 110.518 263 111.67C274.981 119.353 295.27 137.263 278.821 142.226C263 147 165 139.5 155.043 138.753Z" fill="white"/>
<path d="M142 171.5C145.047 164.166 151.345 160.173 155.5 158C164.64 155.283 179.547 152.439 174 155C167.5 158 160.885 166.917 159.5 169C150.452 174.161 138.942 178.86 142 171.5Z" fill="white" stroke="white" stroke-width="2"/>
<path d="M215.557 158.158C215.508 159.422 215.361 160.688 215.206 161.943C215.14 162.476 214.863 164.605 214.928 162.795C214.964 161.796 215.067 160.796 215.085 159.796C215.087 159.656 215.2 159.411 215.061 159.376C214.925 159.342 214.925 159.616 214.873 159.743C214.743 160.066 214.634 160.397 214.516 160.725C214.152 161.74 213.83 162.787 213.398 163.777C213.372 163.837 213.339 163.991 213.295 163.943C213.095 163.726 213.284 163.359 213.295 163.067C213.331 162.088 213.403 161.11 213.482 160.133C213.514 159.748 213.666 158.605 213.549 158.974C213.202 160.064 213.093 161.274 212.581 162.31C212.225 163.031 212.523 160.709 212.508 159.909C212.496 159.189 211.739 160.952 211.601 161.163C211.145 161.862 211.284 157.605 211.214 160.133C211.199 160.675 211.214 161.378 211.214 161.92M211.214 161.92C211.214 161.973 210 166.5 212 165.25C212.528 165.271 210.856 162.299 211.214 161.92ZM211.214 161.92C212.491 160.569 213.652 159.122 214.867 157.72C215.195 157.342 215.523 156.963 215.865 156.596C216.106 156.338 216.613 155.675 216.748 155.999C217.083 156.802 216.46 158.793 216.331 159.53C216.098 160.858 215.819 162.175 215.508 163.487C215.485 163.588 215.436 163.686 215.436 163.789C215.436 164.097 215.607 163.196 215.702 162.902C216.048 161.825 216.416 160.74 216.978 159.749C217.948 158.039 217.262 161.011 217.238 161.139C217.059 162.11 216.796 163.148 216.803 164.144C216.803 164.218 216.789 164.342 216.863 164.357C217.174 164.421 217.232 163.849 217.383 163.576C217.9 162.643 218.338 161.54 219.028 160.713C219.097 160.63 219.241 160.49 219.319 160.565C219.696 160.935 219.381 161.612 219.343 162.133C219.31 162.578 218.844 164.555 219.246 164.972C219.326 165.055 219.48 164.902 219.561 164.818C219.89 164.476 220.357 163.607 220.565 163.239C220.758 162.894 221.261 161.893 221.278 162.287C221.323 163.321 220.947 164.433 220.685 165.422C220.482 166.192 220.644 165.68 220.794 165.28C221.191 164.224 221.603 163.174 222.04 162.133C222.178 161.804 222.318 161.476 222.464 161.151C222.578 160.895 222.812 160.146 222.881 160.417C223.014 160.939 222.563 162.032 222.439 162.511C222.401 162.661 222.122 164.143 222.101 162.967C222.092 162.467 222.31 161.205 221.956 160.772C221.906 160.712 221.791 160.816 221.744 160.879C221.549 161.139 220.945 162.458 220.885 162.582C220.521 163.34 219.268 165.513 219.802 164.86C220.929 163.482 221.624 161.745 222.21 160.098C222.654 158.848 221.376 162.652 220.625 163.753C220.446 164.016 220.561 163.123 220.565 162.807C220.575 161.879 220.614 160.956 220.722 160.033C220.781 159.524 220.871 159.286 220.71 159.814C220.348 160.999 219.845 162.135 219.343 163.268C219.208 163.572 218.855 164.545 219.222 163.375C219.628 162.08 219.962 160.769 220.311 159.459C220.393 159.149 220.472 158.838 220.565 158.53C220.605 158.396 220.621 158.244 220.71 158.134C220.752 158.081 220.729 158.269 220.722 158.335C220.614 159.295 220.333 160.232 220.19 161.186C220.119 161.656 220.007 162.806 220.438 162.588C221.168 162.219 221.719 161.177 222.21 160.583C222.406 160.346 222.596 160.103 222.814 159.885C222.968 159.732 223.352 159.261 223.389 159.82C223.484 161.25 222.848 162.871 222.572 164.268C222.41 165.095 222.439 164.95 222.657 164.369C223.16 163.03 223.713 161.711 224.284 160.4C224.571 159.739 225.323 157.85 225.427 158.56C225.588 159.654 225.235 160.972 225.04 162.038C224.955 162.503 224.559 163.844 224.798 163.434C225.22 162.71 225.557 161.947 225.996 161.228C226.429 160.518 226.99 159.396 227.725 158.903C228.018 158.707 227.942 159.59 227.883 159.932C227.754 160.676 227.548 161.403 227.411 162.145C227.397 162.222 225.929 165.234 225.996 165.28C226.235 165.443 227.722 161.909 227.865 161.66C228.298 160.902 228.688 160.109 229.165 159.376C229.218 159.295 229.258 159.179 229.352 159.152C229.586 159.084 229.295 159.627 229.225 159.855C229.025 160.517 228.803 161.195 228.512 161.825C228.321 162.24 228.774 160.953 228.929 160.524C229.247 159.641 229.546 158.724 229.951 157.874C230.214 157.322 229.813 159.382 229.794 159.471C229.74 159.728 229.68 159.983 229.625 160.24C229.57 160.491 229.254 160.986 229.516 161.003C229.754 161.018 230.39 159.502 230.423 159.435C230.742 158.779 230.981 158.06 231.342 157.424C231.509 157.131 231.276 158.098 231.173 158.418C230.872 159.354 230.49 160.26 230.145 161.18C230.073 161.371 230.003 161.561 229.939 161.754C229.892 161.896 229.691 162.209 229.842 162.192C229.904 162.185 228.478 165.022 228.512 164.972C228.662 164.749 230.63 160.966 230.701 160.849C230.994 160.368 231.757 158.946 231.735 159.506C231.684 160.83 230.611 162.024 230.145 163.239C229.767 164.225 231.328 161.385 231.862 160.471C232.459 159.449 233.193 158.576 233.435 157.413C233.529 156.961 233.836 156.358 234.173 156.028C234.53 155.679 232.723 157 233.562 157C233.345 157.69 234.689 154.145 234.5 155.001C234.361 155.628 232.013 159.354 231.696 159.932C230.888 161.409 230.223 162.764 229.018 163.943C228.112 164.829 227.883 166.5 227.145 167.586C226.736 167.89 226.284 168.145 225.905 168.486C225.704 168.666 225.537 168.911 225.246 168.911" stroke="white" stroke-width="3" stroke-linecap="round"/>
</svg>
