<svg width="1180" height="891" viewBox="0 0 1180 891" fill="none" xmlns="http://www.w3.org/2000/svg">
<path d="M765.495 383.873C735.645 385.993 672.961 385.586 661.028 367.004C654.602 356.997 666.697 353.696 684.24 353.966C687.158 344.006 692.551 337.941 709.648 339.892C724.846 341.626 728.728 350.481 728.974 359.169C738.196 361.231 747.428 364.324 752.136 366.513C773.282 376.349 714.992 332.089 733.254 289.142C747.863 254.784 759.317 325.271 763.217 364.809C765.103 333.106 752.521 276.841 773.661 266.783C800.085 254.211 779.247 361.681 771.593 378.136C769.954 381.66 768.97 383.775 765.495 383.873Z" fill="#105FB0"/>
<path d="M728.974 359.169C738.196 361.231 747.428 364.324 752.136 366.513C773.282 376.349 714.992 332.089 733.254 289.142C747.863 254.784 759.317 325.271 763.217 364.809C765.103 333.106 752.521 276.841 773.661 266.783C800.085 254.211 779.247 361.681 771.593 378.136C769.954 381.66 768.97 383.775 765.495 383.873C735.645 385.993 672.961 385.586 661.028 367.004C654.602 356.997 666.697 353.696 684.24 353.966M728.974 359.169C726.269 374.201 714.109 375.767 707.861 375.069C699.205 374.016 682.364 368.321 684.24 353.966M728.974 359.169C728.728 350.481 724.846 341.626 709.648 339.892C692.551 337.941 687.158 344.006 684.24 353.966" stroke="white" stroke-width="3"/>
<path d="M692.552 353.452L692.55 348.37M692.552 353.452L695.585 348.314M692.552 353.452L694.258 358.385M692.552 353.452L690.226 357.391" stroke="white" stroke-width="3"/>
<rect x="303.5" y="105.499" width="506" height="377" rx="43.5" stroke="white" stroke-width="3"/>
<rect x="1.5" y="-1.5" width="275" height="782" rx="43.5" transform="matrix(1 0 0 -1 0 886)" stroke="white" stroke-width="3"/>
<path d="M303 409.999H811" stroke="white" stroke-width="3"/>
<path d="M2 816L278 816" stroke="white" stroke-width="3"/>
<path d="M303 409.999H567V483.999" stroke="white" stroke-width="3"/>
<path d="M327.075 107.048C369.781 149.084 434.856 98.3913 441.12 90.5981C465.516 60.2464 437.034 27.8789 397.241 19.5344C357.448 11.19 284.37 65.0114 327.075 107.048Z" fill="#105FB0" stroke="white" stroke-width="3"/>
<path d="M702.843 765.356C693.535 782.449 674.577 785.195 653.494 783.539C625.332 781.327 586.44 736.285 604.303 711.337C618.722 766.608 675.969 771.083 702.843 765.356Z" fill="#105FB0" stroke="white" stroke-width="3"/>
<path d="M636.278 734.891C641.92 744.182 652.488 747.967 663.223 748.806C674.992 749.139 680.303 747.085 676.261 737.741C673.436 731.213 658.922 718.059 648.05 719.247C639.965 720.129 629.226 723.277 636.278 734.891Z" fill="white" stroke="white" stroke-width="3"/>
<path d="M703.549 764.5C702.554 752.921 700.489 728.603 670.007 714.989C639.525 701.375 622.515 699.939 604.488 710.762" stroke="white" stroke-width="3"/>
<rect x="306.5" y="510.499" width="505" height="377" rx="43.5" stroke="white" stroke-width="3"/>
<path d="M306 815.999H813" stroke="white" stroke-width="3"/>
<path d="M306 815.999H493V888.999" stroke="white" stroke-width="3"/>
<path d="M710.557 784.164C763.77 784.961 774.461 712.486 773.703 703.639C770.75 669.182 732.603 665.868 701.93 684.921C671.257 703.974 657.345 783.368 710.557 784.164Z" fill="#105FB0" stroke="white" stroke-width="3"/>
<path d="M734.574 690.895L747.427 688.027M734.574 690.895L749.278 695.672M734.574 690.895L723.058 697.991M734.574 690.895L723.302 687.233" stroke="white" stroke-width="3"/>
<path d="M423.584 53.6043L434.724 60.6276M423.584 53.6043L430.648 67.356M423.584 53.6043L410.413 50.5213M423.584 53.6043L418.168 43.0613" stroke="white" stroke-width="3"/>
<path d="M1178 254.5V143.999C1178 119.146 1157.85 98.999 1133 98.999H891C866.147 98.999 846 119.146 846 143.999V176.749V254.5V395.542C846 404.944 849.18 414.01 853.247 422.487C865.601 448.244 875.548 495.462 850.943 549.458C847.901 556.133 846 563.335 846 570.671V724.25V843.999C846 868.852 866.147 888.999 891 888.999H1133C1157.85 888.999 1178 868.852 1178 843.999V724.25" stroke="white" stroke-width="3"/>
<path d="M1178.1 254V395.043C1178.1 404.445 1174.92 413.51 1170.85 421.987C1158.5 447.744 1148.55 494.963 1173.16 548.958C1176.2 555.633 1178.1 562.835 1178.1 570.171V710V728" stroke="white" stroke-width="3"/>
<path d="M846 599.999H1178" stroke="white" stroke-width="3"/>
<path d="M846 807H1178" stroke="white" stroke-width="3"/>
<path d="M138.899 642.365C119.131 655.208 36.9046 618.107 46.628 566.81C52.7502 534.511 143.879 616.09 138.899 642.365Z" fill="#105FB0" stroke="white" stroke-width="3"/>
<path d="M129.362 644.56C105.915 618.306 141.981 488.527 219.893 491.218C268.95 492.913 169.268 645.938 129.362 644.56Z" fill="#105FB0"/>
<path d="M129.362 644.56C105.915 618.306 141.981 488.527 219.893 491.218C268.95 492.913 169.268 645.938 129.362 644.56ZM129.362 644.56C133.915 631.244 141.488 611.755 150.757 592.13M197.824 524.257C187.496 530.855 176.984 544.53 167.27 560.799M167.27 560.799C173.649 555.956 188.485 547.86 196.789 554.223M167.27 560.799C161.402 570.626 155.826 581.398 150.757 592.13M150.757 592.13C150.428 587.815 148.337 577.235 142.611 569.442" stroke="white" stroke-width="3"/>
</svg>
