<svg width="1036" height="643" viewBox="0 0 1036 643" fill="none" xmlns="http://www.w3.org/2000/svg">
<path d="M200.528 52.3411L221.248 56.4309L218.891 117.123L206.098 114.598L206.776 103.724L195.945 101.586L192.441 111.902L179.648 109.377L200.528 52.3411ZM199.605 90.8921L207.454 92.4413L209.184 63.0194L199.605 90.8921ZM232.921 119.893L225.073 118.343L232.819 79.1006L240.667 80.6498L237.538 96.5039L256.374 100.222L259.504 84.3679L267.352 85.9171L259.606 125.16L251.758 123.611L254.965 107.364L236.128 103.646L232.921 119.893ZM287.382 130.642L279.533 129.093L285.854 97.071L273.139 94.5613L274.564 87.3406L307.842 93.9092L306.417 101.13L293.702 98.6202L287.382 130.642ZM340.121 141.052L329.212 138.899L340.848 111.758L316.811 136.451L301.82 133.492L317.885 95.8915L328.795 98.0449L317.253 125.122L341.196 100.493L356.187 103.452L340.121 141.052ZM382.193 126.85L385.663 109.27L393.511 110.819L385.765 150.062L377.917 148.513L380.798 133.914C379.627 134.064 378.236 134.088 376.625 133.987C375.077 133.845 373.622 133.639 372.262 133.371C366.506 132.235 362.448 130.075 360.086 126.89C357.788 123.664 357.222 119.095 358.389 113.182L360.155 104.235L368.003 105.784L366.253 114.653C365.561 118.159 365.934 120.814 367.371 122.62C368.809 124.426 371.123 125.644 374.315 126.274C376.251 126.656 377.841 126.861 379.086 126.89C380.383 126.928 381.419 126.915 382.193 126.85ZM405.145 153.887L397.297 152.338L405.043 113.095L412.891 114.644L409.762 130.498L428.598 134.216L431.728 118.362L439.576 119.911L431.83 159.154L423.982 157.605L427.189 141.359L408.352 137.64L405.145 153.887ZM476.415 154.663C475.181 158.714 472.829 161.539 469.361 163.137C465.892 164.736 461.594 165.029 456.466 164.017L439.121 160.593L455.186 122.993L463.82 124.697L458.501 137.183L463.603 138.19C469.672 139.388 473.621 141.418 475.448 144.279C477.338 147.098 477.66 150.56 476.415 154.663ZM461.783 144.517L455.818 143.34L450.453 156.062L457.752 157.503C460.578 158.06 462.842 157.882 464.544 156.968C466.299 156.064 467.472 154.529 468.063 152.362C469.213 148.186 467.12 145.571 461.783 144.517ZM485.349 169.718L476.716 168.014L492.781 130.413L501.414 132.117L485.349 169.718ZM536.474 179.809L528.94 178.322L535.121 147.006L510.967 174.775L500.999 172.807L508.745 133.564L516.28 135.051L510.098 166.367L534.253 138.599L544.22 140.567L536.474 179.809ZM535.771 118.513L542.05 119.752C541.327 123.415 539.66 126.076 537.049 127.735C534.491 129.405 531.433 129.888 527.875 129.186C524.369 128.494 521.724 126.884 519.94 124.358C518.207 121.841 517.703 118.752 518.426 115.089L524.705 116.329C524.271 118.526 524.505 120.23 525.408 121.441C526.321 122.6 527.51 123.324 528.975 123.613C530.544 123.923 531.946 123.71 533.178 122.975C534.473 122.198 535.337 120.71 535.771 118.513ZM181.067 190.182L175.966 189.175L190.237 155.705L175.953 152.885L177.668 148.739L211.495 155.416L209.78 159.562L195.339 156.712L181.067 190.182ZM246.145 185.414L215.379 179.341C215.179 182.835 215.934 185.756 217.645 188.106C219.366 190.402 221.875 191.876 225.171 192.527C227.578 193.002 229.664 192.897 231.43 192.213C233.196 191.529 234.647 190.374 235.783 188.75L244.26 190.423C242.261 194.215 239.423 196.889 235.745 198.446C232.077 199.951 227.994 200.26 223.494 199.371C219.779 198.638 216.627 197.119 214.037 194.814C211.5 192.519 209.699 189.663 208.634 186.246C207.569 182.828 207.429 179.131 208.214 175.154C209.009 171.125 210.544 167.759 212.817 165.054C215.101 162.298 217.852 160.34 221.071 159.181C224.342 158.033 227.835 157.826 231.55 158.559C235.265 159.292 238.391 160.806 240.928 163.101C243.517 165.406 245.344 168.267 246.409 171.685C247.484 175.05 247.624 178.747 246.829 182.776C246.736 183.247 246.617 183.713 246.472 184.173C246.389 184.592 246.28 185.005 246.145 185.414ZM230.186 165.466C227.047 164.846 224.271 165.277 221.858 166.757C219.456 168.186 217.695 170.502 216.573 173.705L239.648 178.26C239.827 174.871 239.078 172.059 237.399 169.825C235.73 167.538 233.326 166.085 230.186 165.466ZM263.161 207.201C260.022 206.581 257.414 205.333 255.338 203.455C253.315 201.588 251.902 199.244 251.1 196.422C250.361 193.558 250.327 190.425 250.998 187.024C251.845 182.733 253.43 178.969 255.755 175.731C258.142 172.451 261.038 170.033 264.444 168.477C267.913 166.878 271.688 166.482 275.769 167.287C281.211 168.361 284.686 171.412 286.194 176.439L288.643 170.644L302.299 173.339L286.234 210.94L274.225 208.57L276.456 203.465C274.567 205.049 272.494 206.189 270.236 206.885C267.979 207.581 265.62 207.687 263.161 207.201ZM281.076 187.497C281.489 185.404 281.212 183.637 280.246 182.196C279.343 180.713 277.845 179.765 275.752 179.352C273.921 178.991 272.201 179.168 270.592 179.883C269.035 180.609 267.699 181.731 266.584 183.251C265.531 184.728 264.819 186.409 264.447 188.292C264.034 190.385 264.279 192.173 265.182 193.656C266.148 195.097 267.651 196.019 269.692 196.422C271.576 196.794 273.296 196.617 274.852 195.891C276.472 195.123 277.808 194.001 278.86 192.524C279.965 191.056 280.704 189.381 281.076 187.497ZM316.155 216.846L308.307 215.297L314.627 183.275L301.913 180.765L303.338 173.544L336.616 180.113L335.19 187.333L322.476 184.824L316.155 216.846ZM340.063 241.951L332.214 240.402L343.833 181.537L351.682 183.087L350.52 188.973C352.451 187.18 354.628 185.924 357.053 185.207C359.54 184.448 362.092 184.326 364.708 184.842C368.319 185.555 371.366 187.054 373.851 189.338C376.336 191.622 378.084 194.468 379.097 197.875C380.172 201.241 380.312 204.938 379.517 208.967C378.732 212.943 377.198 216.31 374.914 219.067C372.683 221.834 369.984 223.801 366.818 224.97C363.651 226.139 360.263 226.368 356.653 225.655C354.037 225.139 351.717 224.083 349.694 222.488C347.734 220.85 346.202 218.836 345.098 216.443L340.063 241.951ZM357.136 218.248C359.438 218.703 361.587 218.556 363.583 217.809C365.579 217.061 367.297 215.796 368.736 214.014C370.175 212.233 371.152 210.034 371.669 207.418C372.195 204.749 372.127 202.344 371.462 200.201C370.808 198.006 369.7 196.184 368.138 194.734C366.576 193.284 364.644 192.332 362.341 191.877C360.091 191.433 357.942 191.58 355.894 192.317C353.898 193.065 352.181 194.329 350.742 196.111C349.313 197.841 348.336 200.04 347.809 202.708C347.293 205.324 347.361 207.73 348.015 209.925C348.669 212.119 349.777 213.942 351.34 215.392C352.954 216.852 354.886 217.804 357.136 218.248Z" fill="white"/>
<rect x="73.9038" y="1.76208" width="909.873" height="372.54" transform="rotate(11.1658 73.9038 1.76208)" stroke="white" stroke-width="3"/>
<path d="M175.101 21.7209L103.24 385.783" stroke="white" stroke-width="3" stroke-dasharray="10 10"/>
<rect x="151.645" y="41.4836" width="11.6612" height="64.1366" transform="rotate(101.532 151.645 41.4836)" fill="white"/>
<rect x="136.784" y="114.324" width="10.2036" height="64.1366" transform="rotate(101.532 136.784 114.324)" fill="white"/>
<rect x="111.141" y="240.007" width="11.6612" height="64.1366" transform="rotate(101.532 111.141 240.007)" fill="white"/>
<rect x="133.87" y="128.606" width="11.6612" height="64.1366" transform="rotate(101.532 133.87 128.606)" fill="white"/>
<rect x="107.936" y="255.718" width="11.6612" height="64.1366" transform="rotate(101.532 107.936 255.718)" fill="white"/>
<rect x="148.44" y="57.1942" width="4.37295" height="64.1366" transform="rotate(101.532 148.44 57.1942)" fill="white"/>
<rect x="146.4" y="67.192" width="5.8306" height="64.1366" transform="rotate(101.532 146.4 67.192)" fill="white"/>
<rect x="117.261" y="210.015" width="4.37295" height="64.1366" transform="rotate(101.532 117.261 210.015)" fill="white"/>
<rect x="91.3267" y="337.127" width="5.8306" height="64.1366" transform="rotate(101.532 91.3267 337.127)" fill="white"/>
<rect x="130.665" y="144.316" width="4.37295" height="64.1366" transform="rotate(101.532 130.665 144.316)" fill="white"/>
<rect x="104.439" y="272.857" width="2.9153" height="64.1366" transform="rotate(101.532 104.439 272.857)" fill="white"/>
<rect x="129.499" y="150.029" width="2.9153" height="64.1366" transform="rotate(101.532 129.499 150.029)" fill="white"/>
<rect x="103.565" y="277.141" width="2.9153" height="64.1366" transform="rotate(101.532 103.565 277.141)" fill="white"/>
<rect x="128.334" y="155.742" width="1.45765" height="64.1366" transform="rotate(101.532 128.334 155.742)" fill="white"/>
<rect x="102.691" y="281.426" width="2.9153" height="64.1366" transform="rotate(101.532 102.691 281.426)" fill="white"/>
<rect x="144.069" y="78.6177" width="30.6107" height="64.1366" transform="rotate(101.532 144.069 78.6177)" fill="white"/>
<rect x="126.585" y="164.311" width="30.6107" height="64.1366" transform="rotate(101.532 126.585 164.311)" fill="white"/>
<rect x="100.943" y="289.995" width="32.0683" height="64.1366" transform="rotate(101.532 100.943 289.995)" fill="white"/>
<rect x="115.221" y="220.012" width="16.0342" height="64.1366" transform="rotate(101.532 115.221 220.012)" fill="white"/>
<rect x="89.2869" y="347.124" width="16.0342" height="64.1366" transform="rotate(101.532 89.2869 347.124)" fill="white"/>
<path d="M565.045 458.521L557.039 456.941L562.663 428.45L556.918 427.316L558.265 420.488L577.761 424.336L576.414 431.165L570.668 430.031L565.045 458.521ZM598.067 454.471L579.607 450.827C579.487 452.924 579.94 454.676 580.966 456.086C581.999 457.464 583.504 458.348 585.482 458.739C586.926 459.024 588.178 458.961 589.238 458.55C590.297 458.14 591.168 457.447 591.849 456.473L596.935 457.477C595.736 459.751 594.033 461.356 591.826 462.29C589.626 463.193 587.176 463.378 584.476 462.845C582.247 462.405 580.355 461.494 578.802 460.111C577.28 458.734 576.199 457.02 575.56 454.97C574.921 452.919 574.837 450.701 575.308 448.315C575.785 445.898 576.706 443.878 578.07 442.255C579.44 440.601 581.091 439.427 583.022 438.731C584.984 438.042 587.08 437.918 589.309 438.358C591.538 438.798 593.414 439.706 594.936 441.083C596.49 442.466 597.586 444.183 598.225 446.234C598.87 448.253 598.954 450.471 598.477 452.888C598.421 453.171 598.35 453.45 598.263 453.727C598.213 453.978 598.148 454.226 598.067 454.471ZM588.491 442.502C586.608 442.13 584.942 442.389 583.495 443.277C582.053 444.134 580.996 445.524 580.323 447.446L594.168 450.179C594.276 448.145 593.826 446.458 592.819 445.117C591.817 443.746 590.375 442.874 588.491 442.502ZM609.029 467.692C606.047 467.103 603.878 465.697 602.523 463.472C601.175 461.216 600.81 458.519 601.43 455.379C601.796 453.527 602.428 451.809 603.328 450.225C604.259 448.648 605.404 447.308 606.763 446.206C608.122 445.105 609.63 444.326 611.285 443.87C612.941 443.414 614.679 443.366 616.5 443.725C618.258 444.072 619.713 444.799 620.864 445.907C622.015 447.015 622.756 448.385 623.087 450.016L624.836 445.86L630.864 447.05L621.225 469.61L615.574 468.495L616.912 465.432C615.747 466.376 614.503 467.06 613.18 467.484C611.857 467.908 610.474 467.977 609.029 467.692ZM620.502 455.425C620.83 453.762 620.62 452.35 619.87 451.191C619.158 450.007 617.986 449.253 616.353 448.931C614.878 448.64 613.504 448.825 612.231 449.487C610.965 450.118 609.885 451.047 608.991 452.273C608.128 453.505 607.544 454.89 607.241 456.428C606.912 458.092 607.104 459.516 607.816 460.701C608.566 461.86 609.741 462.597 611.343 462.913C612.85 463.211 614.236 463.044 615.502 462.413C616.774 461.751 617.842 460.804 618.705 459.572C619.606 458.315 620.205 456.932 620.502 455.425ZM640.072 473.33L635.363 472.401L639.156 453.187L631.527 451.682L632.382 447.349L652.349 451.29L651.494 455.623L643.865 454.117L640.072 473.33ZM649.802 487.482L644.622 486.46L659.081 452.619L663.602 453.511C663.602 453.511 663.505 453.753 663.312 454.237C663.119 454.721 662.878 455.277 662.591 455.905C662.342 456.508 662.139 457.039 661.983 457.497C663.204 456.271 664.57 455.382 666.081 454.833C667.598 454.251 669.173 454.122 670.806 454.444C673.851 455.045 676.048 456.474 677.397 458.73C678.783 460.96 679.163 463.661 678.537 466.832C678.172 468.684 677.523 470.399 676.592 471.976C675.699 473.529 674.572 474.856 673.213 475.958C671.885 477.065 670.394 477.847 668.738 478.303C667.083 478.759 665.329 478.805 663.476 478.439C661.624 478.073 660.081 477.296 658.848 476.107C657.653 474.892 656.918 473.41 656.644 471.66L649.802 487.482ZM658.994 466.693C658.622 468.576 658.846 470.17 659.665 471.473C660.516 472.783 661.836 473.614 663.625 473.967C665.258 474.289 666.76 474.113 668.133 473.438C669.512 472.732 670.676 471.706 671.627 470.36C672.584 468.984 673.223 467.479 673.545 465.846C673.917 463.963 673.694 462.369 672.874 461.066C672.055 459.763 670.767 458.938 669.009 458.591C667.345 458.262 665.808 458.448 664.397 459.148C663.025 459.823 661.863 460.833 660.913 462.179C659.962 463.524 659.323 465.029 658.994 466.693ZM687.777 489.351L689.887 478.662L692.383 479.154C692.94 478.481 693.452 477.702 693.921 476.816C694.395 475.898 694.869 474.736 695.343 473.329C695.848 471.928 696.361 470.154 696.883 468.007C697.442 465.834 698.05 463.165 698.708 460C699.396 456.842 700.159 453.062 700.995 448.661L719.549 452.323L713.433 483.309L716.729 483.96L714.619 494.65L710.287 493.794L711.541 487.437L693.364 483.849L692.109 490.206L687.777 489.351ZM699.049 475.871C698.724 476.688 698.397 477.438 698.066 478.123C697.735 478.808 697.332 479.446 696.856 480.037L708.723 482.38L713.984 455.726L704.472 453.848C703.821 457.145 703.229 459.98 702.695 462.353C702.199 464.702 701.737 466.714 701.308 468.391C700.911 470.074 700.528 471.515 700.161 472.715C699.794 473.914 699.423 474.966 699.049 475.871ZM742.023 493.454L737.502 492.561L741.211 473.772L726.718 490.433L720.737 489.252L725.385 465.706L729.906 466.599L726.197 485.388L740.69 468.727L746.67 469.908L742.023 493.454ZM748.618 484.236C749.114 481.725 750.15 479.532 751.727 477.658C753.303 475.784 755.236 474.42 757.524 473.567C759.851 472.689 762.379 472.519 765.111 473.058C768.658 473.759 771.248 475.265 772.879 477.576C774.51 479.888 775.006 482.66 774.368 485.894C773.872 488.406 772.836 490.598 771.259 492.473C769.683 494.347 767.731 495.723 765.405 496.601C763.117 497.454 760.607 497.611 757.875 497.072C754.359 496.378 751.77 494.872 750.107 492.554C748.476 490.242 747.98 487.47 748.618 484.236ZM756.396 485.233C756.142 486.52 756.298 487.628 756.866 488.555C757.47 489.457 758.401 490.032 759.656 490.28C760.787 490.503 761.834 490.4 762.8 489.971C763.771 489.51 764.592 488.824 765.261 487.913C765.93 487.001 766.373 485.996 766.59 484.897C766.844 483.61 766.684 482.518 766.111 481.622C765.544 480.695 764.617 480.104 763.33 479.85C762.199 479.627 761.149 479.746 760.177 480.206C759.212 480.636 758.394 481.306 757.725 482.218C757.062 483.098 756.619 484.103 756.396 485.233ZM781 501.147L776.291 500.218L780.938 476.672L785.647 477.601L783.77 487.114L795.072 489.345L796.949 479.832L801.658 480.762L797.011 504.307L792.302 503.378L794.226 493.63L782.924 491.399L781 501.147ZM823.283 509.493L817.585 508.368L824.669 491.811L808.826 506.639L801.15 505.124L810.789 482.564L816.487 483.689L809.403 500.246L825.246 485.417L832.922 486.933L823.283 509.493ZM857.167 501.552L851.374 500.409C851.672 498.902 851.421 497.613 850.621 496.542C849.853 495.477 848.731 494.799 847.255 494.508C845.78 494.216 844.406 494.402 843.133 495.064C841.867 495.695 840.803 496.626 839.94 497.858C839.077 499.091 838.494 500.476 838.19 502.014C837.861 503.678 838.053 505.102 838.765 506.287C839.484 507.439 840.628 508.171 842.198 508.481C843.83 508.803 845.361 508.567 846.79 507.773C848.218 506.978 849.289 505.852 850.001 504.394L855.934 505.566C855.142 507.431 854.007 509.05 852.529 510.422C851.058 511.763 849.35 512.73 847.406 513.325C845.468 513.888 843.385 513.95 841.156 513.51C837.734 512.835 835.254 511.35 833.717 509.057C832.212 506.771 831.769 504.057 832.388 500.918C832.754 499.066 833.402 497.351 834.333 495.773C835.296 494.202 836.485 492.887 837.901 491.829C839.323 490.74 840.908 489.977 842.658 489.539C844.439 489.108 846.319 489.088 848.297 489.478C851.625 490.135 854.082 491.566 855.669 493.771C857.262 495.945 857.761 498.538 857.167 501.552ZM866.033 518.42C864.651 518.148 863.395 517.655 862.263 516.943C861.132 516.23 860.286 515.313 859.724 514.191C859.169 513.037 859.043 511.692 859.347 510.153C859.632 508.709 860.144 507.603 860.882 506.836C861.659 506.043 862.564 505.504 863.599 505.219C864.64 504.903 865.735 504.728 866.883 504.693C868.063 504.665 869.23 504.7 870.385 504.797C871.546 504.864 872.616 504.895 873.595 504.893C874.581 504.859 875.396 504.694 876.042 504.397C876.719 504.107 877.132 503.585 877.28 502.831C877.51 501.67 877.197 500.695 876.341 499.906C875.492 499.086 874.345 498.534 872.901 498.249C871.363 497.945 870.029 498.09 868.901 498.682C867.811 499.25 867.114 500.303 866.81 501.841L861.912 500.874C862.315 498.834 863.108 497.294 864.292 496.256C865.507 495.224 866.936 494.592 868.58 494.362C870.23 494.101 871.918 494.141 873.644 494.481C875.34 494.816 876.876 495.38 878.252 496.174C879.66 496.973 880.71 498.012 881.404 499.291C882.129 500.576 882.312 502.128 881.952 503.949L878.699 520.431L874.084 519.52L874.865 515.565C873.77 516.98 872.448 517.893 870.899 518.305C869.35 518.716 867.728 518.755 866.033 518.42ZM864.206 510.819C864.008 511.823 864.252 512.654 864.937 513.312C865.623 513.969 866.562 514.415 867.755 514.651C868.98 514.892 870.172 514.883 871.332 514.623C872.493 514.363 873.492 513.842 874.331 513.062C875.177 512.25 875.732 511.17 875.999 509.82L876.333 508.124C875.437 508.371 874.483 508.493 873.473 508.489C872.462 508.485 871.439 508.463 870.404 508.422C869.368 508.38 868.402 508.402 867.504 508.485C866.645 508.544 865.917 508.759 865.322 509.131C864.733 509.471 864.361 510.034 864.206 510.819Z" fill="white"/>
</svg>
