<svg width="758" height="334" viewBox="0 0 758 334" fill="none" xmlns="http://www.w3.org/2000/svg">
<path d="M50.1038 79H54.9038L60.2798 103H57.0478L55.7998 97.112H49.2078L47.9598 103H44.7278L50.1038 79ZM49.8478 94.168H55.1598L52.5038 81.56L49.8478 94.168Z" fill="white"/>
<path d="M50.1038 310H54.9038L60.2798 334H57.0478L55.7998 328.112H49.2078L47.9598 334H44.7278L50.1038 310ZM49.8478 325.168H55.1598L52.5038 312.56L49.8478 325.168ZM51.2558 307.76L48.3118 302.96H51.8638L53.9118 307.76H51.2558Z" fill="white"/>
<path d="M108.104 310H112.904L118.28 334H115.048L113.8 328.112H107.208L105.96 334H102.728L108.104 310ZM107.848 325.168H113.16L110.504 312.56L107.848 325.168ZM111.72 307.76H109.064L111.112 302.96H114.664L111.72 307.76Z" fill="white"/>
<path d="M165.604 310H170.404L175.78 334H172.548L171.3 328.112H164.708L163.46 334H160.228L165.604 310ZM165.348 325.168H170.66L168.004 312.56L165.348 325.168ZM165.54 307.76H162.884L166.212 302.96H169.732L173.06 307.76H170.404L167.972 304.976L165.54 307.76Z" fill="white"/>
<path d="M223.104 310H227.904L233.28 334H230.048L228.8 328.112H222.208L220.96 334H217.728L223.104 310ZM222.848 325.168H228.16L225.504 312.56L222.848 325.168ZM220.256 307.696V306.096C220.256 304.048 221.13 303.024 222.88 303.024C223.392 303.024 223.861 303.141 224.288 303.376C224.714 303.589 225.109 303.835 225.472 304.112C225.856 304.389 226.208 304.645 226.528 304.88C226.869 305.093 227.21 305.2 227.552 305.2C227.872 305.2 228.117 305.115 228.288 304.944C228.48 304.752 228.576 304.421 228.576 303.952V303.088H230.752V304.688C230.752 306.736 229.877 307.76 228.128 307.76C227.616 307.76 227.146 307.653 226.72 307.44C226.293 307.205 225.888 306.949 225.504 306.672C225.141 306.395 224.789 306.149 224.448 305.936C224.128 305.701 223.797 305.584 223.456 305.584C223.136 305.584 222.88 305.68 222.688 305.872C222.517 306.043 222.432 306.363 222.432 306.832V307.696H220.256Z" fill="white"/>
<path d="M281.104 310H285.904L291.28 334H288.048L286.8 328.112H280.208L278.96 334H275.728L281.104 310ZM280.848 325.168H286.16L283.504 312.56L280.848 325.168ZM280.304 307.216C279.792 307.216 279.354 307.035 278.992 306.672C278.629 306.309 278.448 305.872 278.448 305.36C278.448 304.848 278.629 304.411 278.992 304.048C279.354 303.685 279.792 303.504 280.304 303.504C280.837 303.504 281.274 303.685 281.616 304.048C281.978 304.411 282.16 304.848 282.16 305.36C282.16 305.872 281.978 306.309 281.616 306.672C281.274 307.035 280.837 307.216 280.304 307.216ZM286.704 307.216C286.192 307.216 285.754 307.035 285.392 306.672C285.029 306.309 284.848 305.872 284.848 305.36C284.848 304.848 285.029 304.411 285.392 304.048C285.754 303.685 286.192 303.504 286.704 303.504C287.237 303.504 287.674 303.685 288.016 304.048C288.378 304.411 288.56 304.848 288.56 305.36C288.56 305.872 288.378 306.309 288.016 306.672C287.674 307.035 287.237 307.216 286.704 307.216Z" fill="white"/>
<path d="M339.104 310H343.904L349.28 334H346.048L344.8 328.112H338.208L336.96 334H333.728L339.104 310ZM338.848 325.168H344.16L341.504 312.56L338.848 325.168ZM341.504 308.72C340.522 308.72 339.722 308.432 339.104 307.856C338.485 307.259 338.176 306.533 338.176 305.68C338.176 304.848 338.485 304.133 339.104 303.536C339.722 302.939 340.522 302.64 341.504 302.64C342.506 302.64 343.317 302.939 343.936 303.536C344.554 304.133 344.864 304.848 344.864 305.68C344.864 306.533 344.554 307.259 343.936 307.856C343.317 308.432 342.506 308.72 341.504 308.72ZM341.504 307.056C341.93 307.056 342.272 306.928 342.528 306.672C342.805 306.416 342.944 306.085 342.944 305.68C342.944 305.275 342.805 304.944 342.528 304.688C342.272 304.432 341.93 304.304 341.504 304.304C341.12 304.304 340.789 304.432 340.512 304.688C340.234 304.944 340.096 305.275 340.096 305.68C340.096 306.085 340.234 306.416 340.512 306.672C340.789 306.928 341.12 307.056 341.504 307.056Z" fill="white"/>
<path d="M410.568 331.056V334H399.816V328.112H392.968L390.44 334H387.08L397.704 310H410.568V312.944H403.016V320.176H409.928V323.12H403.016V331.056H410.568ZM394.248 325.168H399.816V312.304L394.248 325.168Z" fill="white"/>
<path d="M51.1791 218.32C50.2405 218.32 49.3551 218.16 48.5231 217.84C47.6911 217.52 47.0191 217.029 46.5071 216.368C45.9951 215.685 45.7391 214.821 45.7391 213.776C45.7391 212.795 45.9311 212.005 46.3151 211.408C46.7205 210.789 47.2431 210.32 47.8831 210C48.5231 209.659 49.2165 209.403 49.9631 209.232C50.7311 209.061 51.4991 208.933 52.2671 208.848C53.0351 208.741 53.7391 208.624 54.3791 208.496C55.0191 208.347 55.5311 208.133 55.9151 207.856C56.3205 207.579 56.5231 207.184 56.5231 206.672C56.5231 205.883 56.1925 205.285 55.5311 204.88C54.8698 204.453 54.0485 204.24 53.0671 204.24C52.0218 204.24 51.1685 204.507 50.5071 205.04C49.8671 205.552 49.5471 206.331 49.5471 207.376H46.2191C46.2191 205.989 46.5391 204.88 47.1791 204.048C47.8405 203.216 48.6938 202.619 49.7391 202.256C50.7845 201.872 51.8938 201.68 53.0671 201.68C54.2191 201.68 55.2965 201.851 56.2991 202.192C57.3231 202.533 58.1445 203.077 58.7631 203.824C59.4031 204.571 59.7231 205.563 59.7231 206.8V218H56.5871V215.312C56.0538 216.379 55.3071 217.147 54.3471 217.616C53.3871 218.085 52.3311 218.32 51.1791 218.32ZM49.0031 213.584C49.0031 214.267 49.2698 214.779 49.8031 215.12C50.3365 215.461 51.0085 215.632 51.8191 215.632C52.6511 215.632 53.4298 215.472 54.1551 215.152C54.8805 214.832 55.4671 214.363 55.9151 213.744C56.3631 213.104 56.5871 212.325 56.5871 211.408V210.256C56.0325 210.533 55.4245 210.736 54.7631 210.864C54.1018 210.992 53.4298 211.109 52.7471 211.216C52.0645 211.323 51.4351 211.461 50.8591 211.632C50.3045 211.781 49.8565 212.016 49.5151 212.336C49.1738 212.635 49.0031 213.051 49.0031 213.584Z" fill="white"/>
<path d="M51.2745 137L57.1305 158.728V137H60.0745V161H54.7945L48.8745 139.016V161H45.9305V137H51.2745Z" fill="white"/>
<path d="M56.9526 267.264C56.9526 265.685 56.6006 264.501 55.8966 263.712C55.214 262.901 54.2753 262.496 53.0806 262.496C51.886 262.496 50.9366 262.901 50.2326 263.712C49.55 264.501 49.2086 265.685 49.2086 267.264V276H46.0086V260H49.2086V262.528C49.6993 261.589 50.3606 260.885 51.1926 260.416C52.046 259.925 53.006 259.68 54.0726 259.68C55.822 259.68 57.2726 260.256 58.4246 261.408C59.5766 262.539 60.1526 264.277 60.1526 266.624V276H56.9526V267.264Z" fill="white"/>
<path d="M104.571 103V79H111.131C113.094 79 114.683 79.5013 115.899 80.504C117.136 81.5067 117.755 82.968 117.755 84.888V85.208C117.755 86.4453 117.478 87.4587 116.923 88.248C116.368 89.0373 115.622 89.6347 114.683 90.04C115.814 90.4667 116.71 91.1493 117.371 92.088C118.054 93.0267 118.395 94.2107 118.395 95.64V96.28C118.395 98.456 117.776 100.12 116.539 101.272C115.323 102.424 113.734 103 111.771 103H104.571ZM110.811 81.944H107.771V88.952H110.875C112.006 88.952 112.902 88.6853 113.563 88.152C114.224 87.5973 114.555 86.7013 114.555 85.464V85.144C114.555 84.0133 114.224 83.2027 113.563 82.712C112.923 82.2 112.006 81.944 110.811 81.944ZM111.451 91.864H107.771V100.056H111.451C112.646 100.056 113.563 99.736 114.203 99.096C114.864 98.456 115.195 97.4213 115.195 95.992V95.672C115.195 94.2853 114.864 93.304 114.203 92.728C113.542 92.152 112.624 91.864 111.451 91.864Z" fill="white"/>
<path d="M111.472 201.68C112.944 201.68 114.256 202.032 115.408 202.736C116.56 203.44 117.467 204.421 118.128 205.68C118.811 206.917 119.152 208.357 119.152 210C119.152 211.621 118.811 213.061 118.128 214.32C117.467 215.579 116.56 216.56 115.408 217.264C114.256 217.968 112.944 218.32 111.472 218.32C110.406 218.32 109.414 218.085 108.496 217.616C107.6 217.125 106.843 216.453 106.224 215.6V218H103.024V194H106.224V204.4C106.843 203.547 107.6 202.885 108.496 202.416C109.414 201.925 110.406 201.68 111.472 201.68ZM111.088 204.624C110.171 204.624 109.339 204.848 108.592 205.296C107.867 205.744 107.291 206.373 106.864 207.184C106.438 207.973 106.224 208.912 106.224 210C106.224 211.067 106.438 212.005 106.864 212.816C107.291 213.627 107.867 214.256 108.592 214.704C109.339 215.152 110.171 215.376 111.088 215.376C112.027 215.376 112.859 215.152 113.584 214.704C114.31 214.256 114.886 213.627 115.312 212.816C115.739 212.005 115.952 211.067 115.952 210C115.952 208.912 115.739 207.973 115.312 207.184C114.886 206.373 114.31 205.744 113.584 205.296C112.859 204.848 112.027 204.624 111.088 204.624Z" fill="white"/>
<path d="M110.995 161.32C108.798 161.32 107.07 160.648 105.811 159.304C104.552 157.939 103.923 155.88 103.923 153.128V144.872C103.923 142.141 104.552 140.093 105.811 138.728C107.07 137.363 108.798 136.68 110.995 136.68C113.214 136.68 114.942 137.363 116.179 138.728C117.438 140.093 118.067 142.141 118.067 144.872V153.128C118.067 155.88 117.438 157.939 116.179 159.304C114.942 160.648 113.214 161.32 110.995 161.32ZM110.995 158.376C112.19 158.376 113.128 157.992 113.811 157.224C114.515 156.435 114.867 155.069 114.867 153.128V144.872C114.867 142.952 114.526 141.597 113.843 140.808C113.16 140.019 112.211 139.624 110.995 139.624C109.8 139.624 108.851 140.019 108.147 140.808C107.464 141.597 107.123 142.952 107.123 144.872V153.128C107.123 155.069 107.464 156.435 108.147 157.224C108.83 157.992 109.779 158.376 110.995 158.376Z" fill="white"/>
<path d="M110.999 276.32C109.463 276.32 108.076 275.968 106.839 275.264C105.623 274.56 104.663 273.579 103.959 272.32C103.255 271.061 102.903 269.621 102.903 268C102.903 266.357 103.255 264.917 103.959 263.68C104.663 262.421 105.623 261.44 106.839 260.736C108.076 260.032 109.463 259.68 110.999 259.68C112.556 259.68 113.943 260.032 115.159 260.736C116.375 261.44 117.335 262.421 118.039 263.68C118.743 264.917 119.095 266.357 119.095 268C119.095 269.621 118.743 271.061 118.039 272.32C117.335 273.579 116.375 274.56 115.159 275.264C113.943 275.968 112.556 276.32 110.999 276.32ZM110.999 273.376C111.937 273.376 112.769 273.152 113.495 272.704C114.241 272.256 114.828 271.627 115.255 270.816C115.681 270.005 115.895 269.067 115.895 268C115.895 266.912 115.681 265.973 115.255 265.184C114.828 264.373 114.241 263.744 113.495 263.296C112.769 262.848 111.937 262.624 110.999 262.624C110.081 262.624 109.249 262.848 108.503 263.296C107.756 263.744 107.169 264.373 106.743 265.184C106.316 265.973 106.103 266.912 106.103 268C106.103 269.067 106.316 270.005 106.743 270.816C107.169 271.627 107.756 272.256 108.503 272.704C109.249 273.152 110.081 273.376 110.999 273.376Z" fill="white"/>
<path d="M172.867 93.848H176.067V95.128C176.067 97.8587 175.438 99.9067 174.179 101.272C172.942 102.637 171.214 103.32 168.995 103.32C166.798 103.32 165.07 102.637 163.811 101.272C162.552 99.9067 161.923 97.8587 161.923 95.128V86.872C161.923 84.1413 162.552 82.0933 163.811 80.728C165.07 79.3627 166.798 78.68 168.995 78.68C171.214 78.68 172.942 79.3627 174.179 80.728C175.438 82.0933 176.067 84.1413 176.067 86.872V87.832H172.867V86.872C172.867 84.952 172.526 83.5973 171.843 82.808C171.16 82.0187 170.211 81.624 168.995 81.624C167.8 81.624 166.851 82.0187 166.147 82.808C165.464 83.5973 165.123 84.952 165.123 86.872V95.128C165.123 97.048 165.464 98.4027 166.147 99.192C166.83 99.9813 167.779 100.376 168.995 100.376C170.19 100.376 171.128 99.9813 171.811 99.192C172.515 98.4027 172.867 97.048 172.867 95.128V93.848Z" fill="white"/>
<path d="M172.572 208.368C172.422 207.152 171.91 206.224 171.036 205.584C170.161 204.944 169.148 204.624 167.996 204.624C167.1 204.624 166.289 204.848 165.564 205.296C164.838 205.744 164.262 206.373 163.836 207.184C163.43 207.973 163.228 208.912 163.228 210C163.228 211.067 163.43 212.005 163.836 212.816C164.262 213.627 164.838 214.256 165.564 214.704C166.289 215.152 167.1 215.376 167.996 215.376C169.169 215.376 170.193 215.024 171.068 214.32C171.964 213.616 172.486 212.603 172.636 211.28H175.964C175.878 212.688 175.473 213.925 174.748 214.992C174.044 216.037 173.105 216.859 171.932 217.456C170.758 218.032 169.446 218.32 167.996 218.32C166.481 218.32 165.116 217.968 163.9 217.264C162.705 216.56 161.756 215.579 161.052 214.32C160.369 213.061 160.028 211.621 160.028 210C160.028 208.357 160.369 206.917 161.052 205.68C161.756 204.421 162.705 203.44 163.9 202.736C165.116 202.032 166.481 201.68 167.996 201.68C169.404 201.68 170.673 201.957 171.804 202.512C172.956 203.067 173.894 203.845 174.62 204.848C175.345 205.851 175.772 207.024 175.9 208.368H172.572Z" fill="white"/>
<path d="M165.584 161H162.384V137H169.328C171.269 137 172.858 137.544 174.096 138.632C175.333 139.72 175.952 141.309 175.952 143.4V145.128C175.952 147.304 175.333 148.968 174.096 150.12C172.858 151.272 171.269 151.848 169.328 151.848H165.584V161ZM169.008 139.944H165.584V148.904H169.008C170.16 148.904 171.066 148.584 171.728 147.944C172.41 147.304 172.752 146.259 172.752 144.808V143.72C172.752 142.355 172.41 141.384 171.728 140.808C171.066 140.232 170.16 139.944 169.008 139.944Z" fill="white"/>
<path d="M164.224 284H161.024V260H164.224V262.4C164.843 261.547 165.6 260.885 166.496 260.416C167.414 259.925 168.406 259.68 169.472 259.68C170.944 259.68 172.256 260.032 173.408 260.736C174.56 261.44 175.467 262.421 176.128 263.68C176.811 264.917 177.152 266.357 177.152 268C177.152 269.621 176.811 271.061 176.128 272.32C175.467 273.579 174.56 274.56 173.408 275.264C172.256 275.968 170.944 276.32 169.472 276.32C168.406 276.32 167.414 276.085 166.496 275.616C165.6 275.125 164.843 274.453 164.224 273.6V284ZM169.088 273.376C170.027 273.376 170.859 273.152 171.584 272.704C172.31 272.256 172.886 271.627 173.312 270.816C173.739 270.005 173.952 269.067 173.952 268C173.952 266.912 173.739 265.973 173.312 265.184C172.886 264.373 172.31 263.744 171.584 263.296C170.859 262.848 170.027 262.624 169.088 262.624C168.171 262.624 167.339 262.848 166.592 263.296C165.867 263.744 165.291 264.373 164.864 265.184C164.438 265.973 164.224 266.912 164.224 268C164.224 269.067 164.438 270.005 164.864 270.816C165.291 271.627 165.867 272.256 166.592 272.704C167.339 273.152 168.171 273.376 169.088 273.376Z" fill="white"/>
<path d="M225.867 79C228.107 79 229.867 79.6613 231.147 80.984C232.427 82.2853 233.067 84.2907 233.067 87V95C233.067 97.7093 232.427 99.7253 231.147 101.048C229.867 102.349 228.107 103 225.867 103H219.243V79H225.867ZM225.867 100.056C227.104 100.056 228.075 99.6827 228.779 98.936C229.504 98.1893 229.867 96.8773 229.867 95V87C229.867 85.1227 229.515 83.8107 228.811 83.064C228.107 82.3173 227.126 81.944 225.867 81.944H222.443V100.056H225.867Z" fill="white"/>
<path d="M225.52 201.68C226.587 201.68 227.568 201.925 228.464 202.416C229.382 202.885 230.15 203.547 230.768 204.4V194H233.968V218H230.768V215.6C230.15 216.453 229.382 217.125 228.464 217.616C227.568 218.085 226.587 218.32 225.52 218.32C224.07 218.32 222.758 217.968 221.584 217.264C220.432 216.56 219.515 215.579 218.832 214.32C218.171 213.061 217.84 211.621 217.84 210C217.84 208.357 218.171 206.917 218.832 205.68C219.515 204.421 220.432 203.44 221.584 202.736C222.758 202.032 224.07 201.68 225.52 201.68ZM225.904 204.624C224.987 204.624 224.155 204.848 223.408 205.296C222.683 205.744 222.107 206.373 221.68 207.184C221.254 207.973 221.04 208.912 221.04 210C221.04 211.067 221.254 212.005 221.68 212.816C222.107 213.627 222.683 214.256 223.408 214.704C224.155 215.152 224.987 215.376 225.904 215.376C226.843 215.376 227.675 215.152 228.4 214.704C229.126 214.256 229.702 213.627 230.128 212.816C230.555 212.005 230.768 211.067 230.768 210C230.768 208.912 230.555 207.973 230.128 207.184C229.702 206.373 229.126 205.744 228.4 205.296C227.675 204.848 226.843 204.624 225.904 204.624Z" fill="white"/>
<path d="M225.355 161.32C223.478 161.32 221.931 160.637 220.715 159.272C219.52 157.907 218.923 155.859 218.923 153.128V144.872C218.923 142.141 219.552 140.093 220.811 138.728C222.07 137.363 223.798 136.68 225.995 136.68C228.214 136.68 229.942 137.363 231.179 138.728C232.438 140.093 233.067 142.141 233.067 144.872V153.128C233.067 154.216 232.928 155.187 232.651 156.04C232.374 156.893 231.936 157.576 231.339 158.088L233.451 161H230.347L229.067 159.24C228.768 159.987 228.278 160.52 227.595 160.84C226.912 161.16 226.166 161.32 225.355 161.32ZM225.995 158.376C226.742 158.376 227.382 158.237 227.915 157.96L223.947 152.68H227.147L229.483 155.944C229.739 155.197 229.867 154.259 229.867 153.128V144.872C229.867 142.952 229.526 141.597 228.843 140.808C228.16 140.019 227.211 139.624 225.995 139.624C224.8 139.624 223.851 140.019 223.147 140.808C222.464 141.597 222.123 142.952 222.123 144.872V153.128C222.123 155.048 222.464 156.403 223.147 157.192C223.83 157.981 224.779 158.376 225.995 158.376Z" fill="white"/>
<path d="M225.52 276.32C224.07 276.32 222.758 275.968 221.584 275.264C220.432 274.56 219.515 273.579 218.832 272.32C218.171 271.061 217.84 269.621 217.84 268C217.84 266.357 218.171 264.917 218.832 263.68C219.515 262.421 220.432 261.44 221.584 260.736C222.758 260.032 224.07 259.68 225.52 259.68C226.587 259.68 227.568 259.925 228.464 260.416C229.382 260.885 230.15 261.547 230.768 262.4V260H233.968V284H230.768V273.6C230.15 274.453 229.382 275.125 228.464 275.616C227.568 276.085 226.587 276.32 225.52 276.32ZM225.904 273.376C226.843 273.376 227.675 273.152 228.4 272.704C229.126 272.256 229.702 271.627 230.128 270.816C230.555 270.005 230.768 269.067 230.768 268C230.768 266.912 230.555 265.973 230.128 265.184C229.702 264.373 229.126 263.744 228.4 263.296C227.675 262.848 226.843 262.624 225.904 262.624C224.987 262.624 224.155 262.848 223.408 263.296C222.683 263.744 222.107 264.373 221.68 265.184C221.254 265.973 221.04 266.912 221.04 268C221.04 269.067 221.254 270.005 221.68 270.816C222.107 271.627 222.683 272.256 223.408 272.704C224.155 273.152 224.987 273.376 225.904 273.376Z" fill="white"/>
<path d="M289.354 100.056V103H278.602V79H289.354V81.944H281.802V89.176H288.714V92.12H281.802V100.056H289.354Z" fill="white"/>
<path d="M291.802 211.088H279.258C279.45 212.475 279.972 213.563 280.826 214.352C281.679 215.12 282.778 215.504 284.122 215.504C285.103 215.504 285.914 215.301 286.554 214.896C287.194 214.491 287.674 213.925 287.994 213.2H291.45C290.959 214.843 290.052 216.112 288.73 217.008C287.407 217.883 285.828 218.32 283.994 218.32C282.479 218.32 281.124 217.968 279.93 217.264C278.756 216.56 277.828 215.579 277.146 214.32C276.463 213.061 276.122 211.621 276.122 210C276.122 208.357 276.463 206.917 277.146 205.68C277.828 204.421 278.756 203.44 279.93 202.736C281.124 202.032 282.479 201.68 283.994 201.68C285.508 201.68 286.852 202.032 288.026 202.736C289.22 203.44 290.159 204.421 290.842 205.68C291.524 206.917 291.866 208.357 291.866 210C291.866 210.192 291.855 210.384 291.833 210.576C291.833 210.747 291.823 210.917 291.802 211.088ZM283.994 204.496C282.714 204.496 281.658 204.88 280.826 205.648C279.994 206.395 279.482 207.44 279.29 208.784H288.698C288.506 207.44 287.994 206.395 287.162 205.648C286.33 204.88 285.274 204.496 283.994 204.496Z" fill="white"/>
<path d="M280.271 161H277.071V137H284.111C285.412 137 286.564 137.235 287.567 137.704C288.57 138.152 289.359 138.835 289.935 139.752C290.511 140.648 290.799 141.757 290.799 143.08V144.04C290.799 145.363 290.511 146.472 289.935 147.368C289.38 148.243 288.623 148.915 287.663 149.384C286.703 149.832 285.626 150.088 284.431 150.152L291.535 161H287.695L280.271 149.256V161ZM283.791 139.944H280.271V147.496H283.791C284.964 147.496 285.892 147.208 286.575 146.632C287.258 146.035 287.599 145.064 287.599 143.72V143.4C287.599 142.141 287.258 141.256 286.575 140.744C285.892 140.211 284.964 139.944 283.791 139.944Z" fill="white"/>
<path d="M283.115 260V262.88C283.691 261.835 284.448 261.045 285.387 260.512C286.347 259.957 287.435 259.68 288.651 259.68C289.078 259.68 289.419 259.712 289.675 259.776V263.264C289.163 263.093 288.598 263.008 287.979 263.008C286.443 263.008 285.248 263.424 284.395 264.256C283.542 265.088 283.115 266.325 283.115 267.968V276H279.915V260H283.115Z" fill="white"/>
<path d="M340.131 103H336.931V79H347.683V81.944H340.131V89.816H346.723V92.76H340.131V103Z" fill="white"/>
<path d="M342.514 199.6V202H347.122V204.816H342.514V218H339.314V204.816H336.562V202H339.314V199.504C339.314 197.627 339.869 196.187 340.978 195.184C342.087 194.181 343.495 193.68 345.202 193.68C346.098 193.68 346.845 193.776 347.442 193.968V196.912C346.866 196.72 346.215 196.624 345.49 196.624C344.573 196.624 343.847 196.869 343.314 197.36C342.781 197.851 342.514 198.597 342.514 199.6Z" fill="white"/>
<path d="M335.994 142.568C335.994 141.16 336.261 140.029 336.794 139.176C337.349 138.301 338.085 137.672 339.002 137.288C339.92 136.883 340.933 136.68 342.042 136.68C343.194 136.68 344.229 136.915 345.146 137.384C346.064 137.853 346.789 138.557 347.322 139.496C347.877 140.435 348.154 141.629 348.154 143.08V144.552H344.954V143.176C344.954 141.939 344.688 141.043 344.154 140.488C343.642 139.912 342.938 139.624 342.042 139.624C341.189 139.624 340.496 139.88 339.962 140.392C339.45 140.883 339.194 141.608 339.194 142.568C339.194 143.507 339.461 144.285 339.994 144.904C340.549 145.523 341.221 146.099 342.01 146.632L344.602 148.488C345.669 149.235 346.586 150.109 347.354 151.112C348.122 152.093 348.506 153.363 348.506 154.92C348.506 156.349 348.218 157.544 347.642 158.504C347.066 159.443 346.288 160.147 345.306 160.616C344.346 161.085 343.269 161.32 342.074 161.32C340.901 161.32 339.824 161.075 338.842 160.584C337.861 160.093 337.082 159.368 336.506 158.408C335.93 157.448 335.642 156.285 335.642 154.92V153.128H338.842V154.696C338.842 155.827 339.13 156.723 339.706 157.384C340.304 158.045 341.093 158.376 342.074 158.376C343.077 158.376 343.866 158.109 344.442 157.576C345.018 157.021 345.306 156.264 345.306 155.304C345.306 154.301 345.029 153.459 344.474 152.776C343.941 152.093 343.269 151.475 342.458 150.92L339.93 149.16C338.842 148.413 337.914 147.528 337.146 146.504C336.378 145.48 335.994 144.168 335.994 142.568Z" fill="white"/>
<path d="M348.158 271.488C348.158 272.491 347.88 273.355 347.326 274.08C346.771 274.805 346.014 275.36 345.054 275.744C344.094 276.128 342.995 276.32 341.758 276.32C340.456 276.32 339.283 276.107 338.238 275.68C337.192 275.253 336.36 274.635 335.742 273.824C335.144 272.992 334.846 272 334.846 270.848H338.174C338.174 271.829 338.515 272.565 339.198 273.056C339.88 273.547 340.734 273.792 341.758 273.792C342.739 273.792 343.496 273.611 344.03 273.248C344.584 272.885 344.862 272.341 344.862 271.616C344.862 270.976 344.627 270.496 344.158 270.176C343.688 269.856 343.08 269.611 342.334 269.44C341.608 269.269 340.83 269.109 339.998 268.96C339.187 268.811 338.408 268.587 337.661 268.288C336.936 267.968 336.339 267.509 335.87 266.912C335.4 266.293 335.166 265.451 335.166 264.384C335.166 263.403 335.432 262.571 335.966 261.888C336.52 261.184 337.256 260.64 338.174 260.256C339.091 259.872 340.126 259.68 341.278 259.68C342.536 259.68 343.656 259.915 344.638 260.384C345.619 260.832 346.398 261.451 346.974 262.24C347.55 263.029 347.838 263.915 347.838 264.896H344.51C344.51 264.128 344.2 263.499 343.582 263.008C342.984 262.496 342.216 262.24 341.278 262.24C340.424 262.24 339.731 262.421 339.198 262.784C338.664 263.125 338.398 263.616 338.398 264.256C338.398 264.853 338.632 265.301 339.102 265.6C339.571 265.877 340.179 266.101 340.926 266.272C341.672 266.421 342.451 266.581 343.262 266.752C344.094 266.923 344.883 267.168 345.63 267.488C346.376 267.808 346.984 268.288 347.454 268.928C347.923 269.547 348.158 270.4 348.158 271.488Z" fill="white"/>
<path d="M398.309 103.32C396.304 103.32 394.725 102.637 393.573 101.272C392.421 99.9067 391.845 97.8587 391.845 95.128V86.872C391.845 84.1413 392.474 82.0933 393.733 80.728C394.992 79.3627 396.72 78.68 398.917 78.68C401.136 78.68 402.864 79.3627 404.101 80.728C405.36 82.0933 405.989 84.1413 405.989 86.872V87.832H402.789V86.872C402.789 84.952 402.448 83.5973 401.765 82.808C401.082 82.0187 400.133 81.624 398.917 81.624C397.722 81.624 396.773 82.0187 396.069 82.808C395.386 83.5973 395.045 84.952 395.045 86.872V95.128C395.045 97.048 395.386 98.4027 396.069 99.192C396.752 99.9813 397.701 100.376 398.917 100.376C400.112 100.376 401.05 99.992 401.733 99.224C402.437 98.4347 402.789 97.1547 402.789 95.384V93.304H398.437V90.36H405.989V103H403.109V100.152C402.213 102.264 400.613 103.32 398.309 103.32Z" fill="white"/>
<path d="M398.52 218.32C397.07 218.32 395.758 217.968 394.584 217.264C393.432 216.56 392.515 215.579 391.832 214.32C391.171 213.061 390.84 211.621 390.84 210C390.84 208.357 391.171 206.917 391.832 205.68C392.515 204.421 393.432 203.44 394.584 202.736C395.758 202.032 397.07 201.68 398.52 201.68C399.587 201.68 400.568 201.925 401.464 202.416C402.382 202.885 403.15 203.547 403.768 204.4V202H406.968V218.128C406.968 219.749 406.616 221.168 405.912 222.384C405.208 223.621 404.259 224.581 403.064 225.264C401.891 225.968 400.568 226.32 399.096 226.32C397.71 226.32 396.451 226.032 395.32 225.456C394.211 224.88 393.294 224.069 392.568 223.024C391.864 221.979 391.416 220.773 391.224 219.408H394.456C394.67 220.603 395.182 221.563 395.992 222.288C396.824 223.013 397.859 223.376 399.096 223.376C400.568 223.376 401.71 222.885 402.52 221.904C403.352 220.923 403.768 219.664 403.768 218.128V215.6C403.15 216.453 402.382 217.125 401.464 217.616C400.568 218.085 399.587 218.32 398.52 218.32ZM398.904 215.376C399.843 215.376 400.675 215.152 401.4 214.704C402.126 214.256 402.702 213.627 403.128 212.816C403.555 212.005 403.768 211.067 403.768 210C403.768 208.912 403.555 207.973 403.128 207.184C402.702 206.373 402.126 205.744 401.4 205.296C400.675 204.848 399.843 204.624 398.904 204.624C397.987 204.624 397.155 204.848 396.408 205.296C395.683 205.744 395.107 206.373 394.68 207.184C394.254 207.973 394.04 208.912 394.04 210C394.04 211.067 394.254 212.005 394.68 212.816C395.107 213.627 395.683 214.256 396.408 214.704C397.155 215.152 397.987 215.376 398.904 215.376Z" fill="white"/>
<path d="M400.607 161H397.407V139.944H392.383V137H405.631V139.944H400.607V161Z" fill="white"/>
<path d="M399.73 270.528C399.73 271.509 399.954 272.235 400.402 272.704C400.85 273.152 401.532 273.376 402.45 273.376C403.175 273.376 403.804 273.28 404.338 273.088V275.936C404.06 276.021 403.687 276.107 403.218 276.192C402.77 276.277 402.311 276.32 401.842 276.32C400.818 276.32 399.9 276.16 399.09 275.84C398.3 275.499 397.671 274.923 397.202 274.112C396.754 273.301 396.53 272.171 396.53 270.72V262.816H393.906V260H396.53V255.264H399.73V260H404.338V262.816H399.73V270.528Z" fill="white"/>
<path d="M453.131 103H449.931V79H453.131V89.176H460.875V79H464.075V103H460.875V92.12H453.131V103Z" fill="white"/>
<path d="M461.453 209.264C461.453 207.685 461.101 206.501 460.397 205.712C459.714 204.901 458.775 204.496 457.581 204.496C456.386 204.496 455.437 204.901 454.733 205.712C454.05 206.501 453.709 207.685 453.709 209.264V218H450.509V194H453.709V204.528C454.199 203.589 454.861 202.885 455.693 202.416C456.546 201.925 457.506 201.68 458.573 201.68C460.322 201.68 461.773 202.256 462.925 203.408C464.077 204.539 464.653 206.277 464.653 208.624V218H461.453V209.264Z" fill="white"/>
<path d="M450.583 137H453.783V153.608C453.783 155.357 454.103 156.595 454.743 157.32C455.404 158.024 456.322 158.376 457.495 158.376C458.647 158.376 459.554 158.024 460.215 157.32C460.876 156.595 461.207 155.357 461.207 153.608V137H464.407V153.608C464.407 156.211 463.788 158.152 462.551 159.432C461.335 160.691 459.65 161.32 457.495 161.32C455.34 161.32 453.644 160.691 452.407 159.432C451.191 158.152 450.583 156.211 450.583 153.608V137Z" fill="white"/>
<path d="M453.627 268.672C453.627 270.272 453.968 271.477 454.651 272.288C455.333 273.099 456.261 273.504 457.435 273.504C458.608 273.504 459.525 273.099 460.187 272.288C460.869 271.477 461.211 270.272 461.211 268.672V260H464.411V276H461.211V273.44C460.72 274.379 460.059 275.093 459.227 275.584C458.395 276.075 457.467 276.32 456.443 276.32C455.312 276.32 454.288 276.075 453.371 275.584C452.453 275.072 451.728 274.293 451.195 273.248C450.683 272.203 450.427 270.891 450.427 269.312V260H453.627V268.672Z" fill="white"/>
<path d="M516.599 103H513.399V79H516.599V103Z" fill="white"/>
<path d="M513.999 198.512C513.402 198.512 512.901 198.309 512.495 197.904C512.09 197.477 511.887 196.965 511.887 196.368C511.887 195.749 512.09 195.248 512.495 194.864C512.901 194.459 513.402 194.256 513.999 194.256C514.618 194.256 515.119 194.459 515.503 194.864C515.909 195.248 516.111 195.749 516.111 196.368C516.111 196.965 515.909 197.477 515.503 197.904C515.119 198.309 514.618 198.512 513.999 198.512ZM515.599 218H512.399V202H515.599V218Z" fill="white"/>
<path d="M512.104 161L506.728 137H509.96L514.504 158.44L519.048 137H522.28L516.904 161H512.104Z" fill="white"/>
<path d="M517.24 276H512.76L507.32 260H510.648L515 273.44L519.352 260H522.68L517.24 276Z" fill="white"/>
<path d="M576.35 79H579.55V96.664C579.55 98.136 579.262 99.3733 578.686 100.376C578.132 101.357 577.364 102.093 576.382 102.584C575.422 103.075 574.334 103.32 573.118 103.32C571.924 103.32 570.836 103.075 569.854 102.584C568.873 102.093 568.094 101.357 567.518 100.376C566.964 99.3733 566.686 98.136 566.686 96.664V94.616H569.886V96.408C569.886 97.8587 570.185 98.8827 570.782 99.48C571.38 100.077 572.158 100.376 573.118 100.376C574.1 100.376 574.878 100.077 575.454 99.48C576.052 98.8827 576.35 97.8587 576.35 96.408V79Z" fill="white"/>
<path d="M571.999 198.512C571.402 198.512 570.901 198.309 570.495 197.904C570.09 197.477 569.887 196.965 569.887 196.368C569.887 195.749 570.09 195.248 570.495 194.864C570.901 194.459 571.402 194.256 571.999 194.256C572.618 194.256 573.119 194.459 573.503 194.864C573.909 195.248 574.111 195.749 574.111 196.368C574.111 196.965 573.909 197.477 573.503 197.904C573.119 198.309 572.618 198.512 571.999 198.512ZM570.399 220.784V202H573.599V220.848C573.599 222.128 573.375 223.141 572.927 223.888C572.479 224.635 571.871 225.168 571.103 225.488C570.335 225.829 569.461 226 568.479 226C567.754 226 567.221 225.957 566.879 225.872V222.96C567.242 223.024 567.637 223.056 568.063 223.056C568.767 223.056 569.333 222.907 569.759 222.608C570.186 222.309 570.399 221.701 570.399 220.784Z" fill="white"/>
<path d="M569.8 161H565L561.32 137H564.52L567.464 157.832L570.6 137H575.4L578.536 157.832L581.48 137H584.68L581 161H576.2L573 139.752L569.8 161Z" fill="white"/>
<path d="M569.098 276H565.066L560.746 260H563.818L567.114 273.216L570.474 260H574.538L577.898 273.216L581.194 260H584.266L579.946 276H575.914L572.522 262.784L569.098 276Z" fill="white"/>
<path d="M628.271 79V90.68L635.279 79H638.799L631.599 90.488L639.183 103H635.343L628.271 91.192V103H625.071V79H628.271Z" fill="white"/>
<path d="M627.24 194V209.104L634.12 202H638.376L630.856 209.296L638.952 218H634.888L627.24 209.584V218H624.04V194H627.24Z" fill="white"/>
<path d="M634.188 161L629.996 151.432L625.804 161H622.316L628.172 148.68L622.668 137H626.124L629.996 145.96L633.868 137H637.324L631.82 148.68L637.676 161H634.188Z" fill="white"/>
<path d="M626.06 276H622.316L628.588 267.712L622.636 260H626.38L630.604 265.44L634.636 260H638.38L632.428 267.808L638.7 276H634.956L630.348 270.08L626.06 276Z" fill="white"/>
<path d="M694.439 100.056V103H683.431V79H686.631V100.056H694.439Z" fill="white"/>
<path d="M688.599 218H685.399V194H688.599V218Z" fill="white"/>
<path d="M689.593 161H686.393V151.336L680.345 137H683.545L687.993 148.008L692.441 137H695.641L689.593 151.336V161Z" fill="white"/>
<path d="M690.02 277.792C689.572 279.051 689.071 280.171 688.516 281.152C687.962 282.133 687.258 282.891 686.404 283.424C685.572 283.979 684.495 284.256 683.172 284.256C682.724 284.256 682.287 284.213 681.86 284.128C681.434 284.064 681.071 283.989 680.772 283.904V281.088C681.071 281.173 681.402 281.248 681.764 281.312C682.127 281.397 682.5 281.44 682.884 281.44C683.887 281.44 684.698 281.131 685.316 280.512C685.935 279.915 686.5 278.997 687.012 277.76L680.676 260H683.876L688.516 273.408L693.124 260H696.324L690.02 277.792Z" fill="white"/>
<path d="M747.797 103H743.925L739.093 81.304V103H736.149V79H741.621L746.005 98.776L750.293 79H755.861V103H752.661V81.4L747.797 103Z" fill="white"/>
<path d="M743.98 208.816C743.98 207.365 743.671 206.288 743.052 205.584C742.433 204.859 741.591 204.496 740.524 204.496C739.457 204.496 738.615 204.859 737.996 205.584C737.377 206.288 737.068 207.365 737.068 208.816V218H733.868V202H737.068V204.24C737.537 203.408 738.156 202.779 738.924 202.352C739.692 201.904 740.556 201.68 741.516 201.68C742.647 201.68 743.66 201.947 744.556 202.48C745.452 202.992 746.124 203.781 746.572 204.848C747.041 203.824 747.713 203.045 748.588 202.512C749.484 201.957 750.508 201.68 751.66 201.68C753.281 201.68 754.625 202.213 755.692 203.28C756.759 204.347 757.292 205.979 757.292 208.176V218H754.092V208.816C754.092 207.365 753.783 206.288 753.164 205.584C752.567 204.859 751.735 204.496 750.668 204.496C749.58 204.496 748.727 204.859 748.108 205.584C747.489 206.288 747.18 207.365 747.18 208.816V218H743.98V208.816Z" fill="white"/>
<path d="M740.041 157.224L748.969 139.944H740.201V137H751.945V140.776L743.049 158.056H752.265V161H740.041V157.224Z" fill="white"/>
<path d="M752.596 276H739.732V272.352L748.852 262.816H739.892V260H751.956V263.648L742.836 273.184H752.596V276Z" fill="white"/>
<rect x="1.64347" y="27.3291" width="254.989" height="59.9441" rx="29.972" transform="rotate(-5.78133 1.64347 27.3291)" fill="#105FB0" stroke="white" stroke-width="3"/>
<path d="M71.638 61.1245L68.4573 61.4756L66.1471 40.5467L59.7858 41.2489C60.2046 45.2377 60.5144 48.5303 60.7151 51.1266C60.9347 53.6994 61.0169 55.8044 60.9615 57.4417C60.9272 59.2698 60.5988 60.5724 59.9763 61.3494C59.3538 62.1264 58.3004 62.5968 56.816 62.7606L56.3389 62.8133L56.0159 59.8871L56.2068 59.866C56.8217 59.7981 57.2577 59.5675 57.5148 59.1743C57.7695 58.7598 57.9466 58.2252 58.046 57.5703C58.1739 56.5904 58.0977 54.5384 57.8172 51.4143C57.5556 48.2666 57.1287 44.0104 56.5365 38.6457L69.0048 37.2694L71.638 61.1245ZM80.9632 60.4171C80.0302 60.5201 79.1327 60.4582 78.2706 60.2314C77.4085 60.0046 76.6867 59.5907 76.1052 58.9895C75.5214 58.3671 75.1722 57.5364 75.0575 56.4974C74.9498 55.522 75.0541 54.7164 75.3702 54.0805C75.7052 53.4211 76.1732 52.8973 76.7743 52.509C77.3729 52.0995 78.034 51.769 78.7574 51.5174C79.5021 51.2635 80.2514 51.052 81.0054 50.8829C81.7571 50.6926 82.4439 50.4988 83.066 50.3013C83.6858 50.0827 84.1713 49.8145 84.5225 49.4967C84.895 49.1765 85.0531 48.762 84.997 48.2531C84.9104 47.4685 84.5162 46.9111 83.8143 46.5808C83.1102 46.2292 82.2704 46.1073 81.295 46.215C80.256 46.3297 79.437 46.6883 78.8382 47.291C78.2583 47.8701 78.0256 48.6792 78.1403 49.7182L74.8324 50.0834C74.6803 48.7051 74.8766 47.5673 75.4215 46.6701C75.9875 45.7706 76.7702 45.0833 77.7694 44.6081C78.7663 44.1117 79.8479 43.7992 81.0141 43.6704C82.1592 43.544 83.2487 43.5955 84.2828 43.8247C85.3381 44.0517 86.2141 44.5023 86.911 45.1765C87.629 45.8485 88.0559 46.7994 88.1917 48.0292L89.4205 59.1616L86.3034 59.5057L86.0085 56.8339C85.5954 57.9527 84.9376 58.798 84.0348 59.3698C83.1321 59.9416 82.1083 60.2907 80.9632 60.4171ZM78.2807 55.9485C78.3556 56.627 78.6769 57.1066 79.2444 57.3874C79.812 57.6682 80.4987 57.7641 81.3044 57.6751C82.1314 57.5838 82.8878 57.3394 83.5737 56.9417C84.2595 56.5441 84.7911 56.0132 85.1686 55.3491C85.5436 54.6638 85.6808 53.8653 85.5802 52.9535L85.4538 51.8084C84.9329 52.145 84.3508 52.4131 83.7075 52.6129C83.0642 52.8127 82.4092 53.003 81.7423 53.184C81.0755 53.3649 80.4651 53.5718 79.9114 53.8046C79.3764 54.0139 78.9569 54.2963 78.6527 54.6518C78.3462 54.9861 78.2222 55.4183 78.2807 55.9485ZM100.263 57.9648L97.0827 58.3158L95.6503 45.3387L90.4976 45.9074L90.1746 42.9812L103.661 41.4926L103.984 44.4188L98.8309 44.9876L100.263 57.9648ZM122.718 55.4862L119.664 55.8232L118.263 43.1323L112.381 56.6272L108.341 57.0731L106.586 41.1697L109.639 40.8327L111.04 53.5236L116.923 40.0287L120.962 39.5828L122.718 55.4862ZM130.593 54.6168L127.413 54.9679L125.657 39.0645L128.838 38.7134L129.547 45.1384L137.181 44.2958L136.472 37.8708L139.652 37.5197L141.408 53.4231L138.227 53.7742L137.5 47.1902L129.867 48.0328L130.593 54.6168ZM160.488 51.3169L157.435 51.654L156.034 38.9631L150.151 52.458L146.112 52.9039L144.356 37.0005L147.41 36.6634L148.811 49.3543L154.693 35.8594L158.733 35.4135L160.488 51.3169ZM166.609 34.5442L168.041 47.5214L175.229 46.7279L173.797 33.7507L176.978 33.3996L178.41 46.3768L180.637 46.131L181.434 53.3512L178.507 53.6742L178.033 49.3803L165.183 50.7987L163.428 34.8953L166.609 34.5442ZM188.963 48.4957C188.03 48.5987 187.133 48.5368 186.271 48.31C185.409 48.0832 184.687 47.6692 184.106 47.0681C183.522 46.4457 183.172 45.615 183.058 44.576C182.95 43.6006 183.054 42.7949 183.37 42.1591C183.705 41.4997 184.174 40.9758 184.775 40.5876C185.373 40.1781 186.034 39.8475 186.758 39.596C187.502 39.3421 188.252 39.1306 189.006 38.9615C189.757 38.7712 190.444 38.5774 191.066 38.3799C191.686 38.1613 192.172 37.893 192.523 37.5752C192.895 37.2551 193.053 36.8406 192.997 36.3317C192.911 35.5471 192.516 34.9897 191.815 34.6593C191.11 34.3078 190.271 34.1859 189.295 34.2936C188.256 34.4082 187.437 34.7669 186.839 35.3696C186.259 35.9487 186.026 36.7578 186.141 37.7968L182.833 38.162C182.681 36.7837 182.877 35.6459 183.422 34.7487C183.988 33.8492 184.77 33.1618 185.77 32.6867C186.767 32.1903 187.848 31.8777 189.014 31.749C190.159 31.6226 191.249 31.674 192.283 31.9033C193.338 32.1302 194.214 32.5808 194.911 33.2551C195.629 33.9271 196.056 34.878 196.192 36.1078L197.421 47.2402L194.304 47.5843L194.009 44.9125C193.596 46.0312 192.938 46.8765 192.035 47.4484C191.132 48.0202 190.109 48.3693 188.963 48.4957ZM186.281 44.027C186.356 44.7056 186.677 45.1852 187.245 45.466C187.812 45.7467 188.499 45.8426 189.305 45.7537C190.132 45.6624 190.888 45.418 191.574 45.0203C192.26 44.6227 192.791 44.0918 193.169 43.4277C193.544 42.7424 193.681 41.9439 193.58 41.0321L193.454 39.887C192.933 40.2235 192.351 40.4917 191.708 40.6915C191.065 40.8913 190.409 41.0816 189.743 41.2625C189.076 41.4435 188.465 41.6503 187.912 41.8832C187.377 42.0925 186.957 42.3749 186.653 42.7304C186.346 43.0647 186.222 43.4969 186.281 44.027Z" fill="white"/>
</svg>
