<svg width="755" height="221" viewBox="0 0 755 221" fill="none" xmlns="http://www.w3.org/2000/svg">
<path d="M1.72713 81L3.39113 74.408H0.703125V72.232H3.93513L5.56713 65.768H2.59113V63.592H6.11113L7.77513 57H10.2071L8.54313 63.592H13.1831L14.8471 57H17.2791L15.6151 63.592H18.3031V65.768H15.0711L13.4391 72.232H16.4151V74.408H12.8951L11.2311 81H8.79913L10.4631 74.408H5.82313L4.15913 81H1.72713ZM6.36713 72.232H11.0071L12.6391 65.768H7.99913L6.36713 72.232Z" fill="white"/>
<path d="M16.9 179.728H4.1V177.552H16.9V179.728Z" fill="white"/>
<path d="M9.35113 197H11.6551L17.8951 209.8H15.4311L10.5031 199.72L5.57513 209.8H3.11113L9.35113 197Z" fill="white"/>
<path d="M76.3151 204.808C75.3338 204.808 74.5338 204.456 73.9151 203.752C73.3178 203.048 73.0191 202.045 73.0191 200.744C73.0191 199.485 73.3178 198.515 73.9151 197.832C74.5338 197.128 75.3338 196.776 76.3151 196.776C77.3178 196.776 78.1178 197.128 78.7151 197.832C79.3125 198.515 79.6111 199.485 79.6111 200.744C79.6111 202.045 79.3125 203.048 78.7151 203.752C78.1178 204.456 77.3178 204.808 76.3151 204.808ZM67.4831 197L69.8511 217.896V197H72.0911V221H68.5391L65.8511 199.336V221H63.5471V197H67.4831ZM76.3151 203.016C76.8485 203.016 77.2325 202.824 77.4671 202.44C77.7018 202.035 77.8191 201.469 77.8191 200.744C77.8191 200.061 77.7018 199.517 77.4671 199.112C77.2325 198.707 76.8485 198.504 76.3151 198.504C75.7818 198.504 75.3978 198.707 75.1631 199.112C74.9285 199.517 74.8111 200.061 74.8111 200.744C74.8111 201.469 74.9285 202.035 75.1631 202.44C75.3978 202.824 75.7818 203.016 76.3151 203.016ZM73.2751 207.592V205.8H79.3871V207.592H73.2751Z" fill="white"/>
<path d="M133.67 212.04H132.422V209.608C131.291 209.48 130.353 209.085 129.606 208.424C128.881 207.741 128.518 206.824 128.518 205.672H130.95C130.95 206.205 131.089 206.632 131.366 206.952C131.643 207.272 131.995 207.485 132.422 207.592V204.104C131.846 203.912 131.281 203.688 130.726 203.432C130.171 203.155 129.702 202.781 129.318 202.312C128.955 201.821 128.774 201.149 128.774 200.296C128.774 199.293 129.115 198.493 129.798 197.896C130.502 197.277 131.377 196.925 132.422 196.84V194.376H133.67V196.872C134.737 197.021 135.611 197.448 136.294 198.152C136.998 198.835 137.35 199.656 137.35 200.616H134.918C134.918 200.232 134.801 199.891 134.566 199.592C134.353 199.272 134.054 199.048 133.67 198.92V202.12C134.267 202.312 134.854 202.547 135.43 202.824C136.006 203.08 136.486 203.453 136.87 203.944C137.275 204.435 137.478 205.117 137.478 205.992C137.478 207.059 137.115 207.912 136.39 208.552C135.686 209.171 134.779 209.523 133.67 209.608V212.04ZM131.174 200.2C131.174 200.563 131.291 200.861 131.526 201.096C131.761 201.331 132.059 201.523 132.422 201.672V198.824C131.59 198.995 131.174 199.453 131.174 200.2ZM135.046 206.12C135.046 205.715 134.918 205.395 134.662 205.16C134.406 204.904 134.075 204.701 133.67 204.552V207.656C134.587 207.507 135.046 206.995 135.046 206.12Z" fill="white"/>
<path d="M196.096 197.864C196.885 197.864 197.621 197.917 198.304 198.024C198.986 198.131 199.616 198.28 200.192 198.472C200.768 198.664 201.29 198.877 201.76 199.112L200.768 201.32C200.106 201.021 199.381 200.765 198.592 200.552C197.824 200.339 197.002 200.232 196.128 200.232C194.997 200.232 194.09 200.541 193.408 201.16C192.746 201.779 192.416 202.792 192.416 204.2V207.016H198.88V209.096H192.416V211.592H198.88V213.704H192.384C192.384 214.621 192.288 215.389 192.096 216.008C191.925 216.627 191.669 217.128 191.328 217.512C191.008 217.896 190.634 218.205 190.208 218.44H202.496V221H186.4V218.632C187.061 218.483 187.626 218.216 188.096 217.832C188.586 217.448 188.96 216.915 189.216 216.232C189.472 215.549 189.6 214.707 189.6 213.704H186.496V211.592H189.6V209.096H186.496V207.016H189.6V204.904C189.6 203.432 189.824 202.173 190.272 201.128C190.72 200.083 191.413 199.283 192.352 198.728C193.312 198.152 194.56 197.864 196.096 197.864Z" fill="white"/>
<path d="M253.185 204.072V204.104H256.065V205.512H253.313C253.462 206.195 253.707 206.696 254.049 207.016C254.411 207.336 254.859 207.496 255.393 207.496C256.097 207.496 256.641 207.251 257.025 206.76C257.43 206.269 257.633 205.469 257.633 204.36H260.161C260.161 206.109 259.713 207.432 258.817 208.328C257.942 209.203 256.801 209.64 255.393 209.64C254.198 209.64 253.185 209.299 252.353 208.616C251.521 207.912 250.998 206.877 250.785 205.512H249.057V204.104H250.657V204.072V202.312V202.28H249.057V200.904H250.753C250.987 199.56 251.521 198.547 252.353 197.864C253.185 197.16 254.198 196.808 255.393 196.808C256.801 196.808 257.942 197.256 258.817 198.152C259.713 199.027 260.161 200.317 260.161 202.024H257.633C257.633 200.936 257.43 200.157 257.025 199.688C256.641 199.197 256.097 198.952 255.393 198.952C254.283 198.952 253.59 199.603 253.313 200.904H256.065V202.28H253.185V202.312V204.072Z" fill="white"/>
<path d="M321.641 201V202.376H311.369V201H318.153C318.324 200.744 318.409 200.477 318.409 200.2C318.409 199.389 317.769 198.984 316.489 198.984C315.849 198.984 315.369 199.112 315.049 199.368C314.729 199.624 314.569 199.933 314.569 200.296V200.328H312.009V200.232C312.009 199.485 312.222 198.867 312.649 198.376C313.076 197.864 313.63 197.48 314.313 197.224C314.996 196.968 315.721 196.84 316.489 196.84C317.79 196.84 318.857 197.085 319.689 197.576C320.521 198.067 320.937 198.867 320.937 199.976C320.937 200.189 320.916 200.381 320.873 200.552C320.83 200.723 320.788 200.872 320.745 201H321.641ZM321.641 203.752V205.128H314.793C314.516 205.405 314.377 205.757 314.377 206.184C314.377 206.653 314.569 206.995 314.953 207.208C315.337 207.421 315.828 207.528 316.425 207.528C317.044 207.528 317.545 207.411 317.929 207.176C318.334 206.92 318.537 206.557 318.537 206.088V205.992H321.097V206.152C321.097 207.283 320.67 208.157 319.817 208.776C318.964 209.373 317.833 209.672 316.425 209.672C315.081 209.672 313.972 209.405 313.097 208.872C312.244 208.317 311.817 207.517 311.817 206.472C311.817 206.195 311.849 205.939 311.913 205.704C311.977 205.469 312.052 205.277 312.137 205.128H311.369V203.752H321.641Z" fill="white"/>
<path d="M381.967 197.032V198.408H373.999V197.032H381.967ZM379.311 209.448H376.687V202.408H373.999V200.264H381.967V202.408H379.311V209.448Z" fill="white"/>
<path d="M438.392 209.448H435.736V207.624H434.712V206.248H435.736V204.584H434.712V203.208H435.736V197.032H439.704C441.24 197.032 442.371 197.32 443.096 197.896C443.843 198.472 444.216 199.293 444.216 200.36V200.936C444.216 203.368 442.712 204.584 439.704 204.584H438.392V206.248H441.624V207.624H438.392V209.448ZM439.544 199.112H438.392V202.664H439.544C440.205 202.664 440.707 202.547 441.048 202.312C441.411 202.056 441.592 201.619 441.592 201V200.808C441.592 200.189 441.432 199.752 441.112 199.496C440.813 199.24 440.291 199.112 439.544 199.112Z" fill="white"/>
<path d="M10.9743 120H8.03025L7.77425 104H11.2303L10.9743 120ZM9.50225 128.32C8.96892 128.32 8.49958 128.128 8.09425 127.744C7.68892 127.339 7.48625 126.869 7.48625 126.336C7.48625 125.781 7.68892 125.312 8.09425 124.928C8.49958 124.523 8.96892 124.32 9.50225 124.32C10.0569 124.32 10.5263 124.523 10.9103 124.928C11.2943 125.312 11.4863 125.781 11.4863 126.336C11.4863 126.869 11.2943 127.339 10.9103 127.744C10.5263 128.128 10.0569 128.32 9.50225 128.32Z" fill="white"/>
<path d="M71.5312 89.32C70.4006 89.32 69.3659 89.096 68.4273 88.648C67.5099 88.2213 66.7739 87.56 66.2193 86.664C65.6859 85.7893 65.4193 84.68 65.4193 83.336V82.312H68.6193V83.24C68.6193 84.328 68.8753 85.1173 69.3873 85.608C69.9206 86.12 70.6353 86.376 71.5312 86.376C72.3846 86.376 73.0673 86.1627 73.5793 85.736C74.1126 85.3093 74.3793 84.7013 74.3793 83.912C74.3793 83.1013 74.1019 82.4293 73.5473 81.896C72.9926 81.384 72.3206 80.904 71.5312 80.456L68.9393 78.856C67.8726 78.1947 66.9659 77.4267 66.2193 76.552C65.4939 75.6773 65.1313 74.5467 65.1313 73.16C65.1313 71.8373 65.4726 70.7387 66.1553 69.864C66.8379 68.968 67.8086 68.2853 69.0673 67.816C68.0006 66.984 67.1259 66.1627 66.4433 65.352C65.7606 64.52 65.4193 63.4853 65.4193 62.248C65.4193 60.904 65.6859 59.8267 66.2193 59.016C66.7739 58.2053 67.5099 57.6187 68.4273 57.256C69.3446 56.872 70.3579 56.68 71.4673 56.68C72.6193 56.68 73.6539 56.904 74.5713 57.352C75.4886 57.7787 76.2139 58.44 76.7473 59.336C77.3019 60.2107 77.5793 61.3307 77.5793 62.696V63.688H74.3793V62.76C74.3793 61.672 74.1126 60.8827 73.5793 60.392C73.0673 59.88 72.3633 59.624 71.4673 59.624C70.6139 59.624 69.9206 59.8373 69.3873 60.264C68.8753 60.6907 68.6193 61.3093 68.6193 62.12C68.6193 62.9093 68.8966 63.5707 69.4513 64.104C70.0059 64.6373 70.6779 65.128 71.4673 65.576L74.0593 67.144C75.1259 67.8053 76.0219 68.5733 76.7473 69.448C77.4939 70.3227 77.8673 71.4533 77.8673 72.84C77.8673 74.1627 77.5259 75.2613 76.8433 76.136C76.1819 77.0107 75.2539 77.6933 74.0593 78.184C75.1686 78.9093 76.0326 79.72 76.6513 80.616C77.2699 81.4907 77.5793 82.5467 77.5793 83.784C77.5793 85.1067 77.3019 86.1733 76.7473 86.984C76.2139 87.7947 75.4886 88.3813 74.5713 88.744C73.6539 89.128 72.6406 89.32 71.5312 89.32ZM71.4993 76.008C72.4166 76.008 73.1739 75.7413 73.7713 75.208C74.3686 74.6533 74.6673 73.9173 74.6673 73C74.6673 72.0827 74.3686 71.3573 73.7713 70.824C73.1739 70.2693 72.4166 69.992 71.4993 69.992C70.6033 69.992 69.8459 70.2693 69.2273 70.824C68.6299 71.3573 68.3313 72.0827 68.3313 73C68.3313 73.9173 68.6299 74.6533 69.2273 75.208C69.8459 75.7413 70.6033 76.008 71.4993 76.008Z" fill="white"/>
<path d="M74.8783 166.672H67.1343V163.728H74.8783V166.672Z" fill="white"/>
<path d="M71.5023 111.68C72.0569 111.68 72.5263 111.872 72.9103 112.256C73.2943 112.64 73.4863 113.109 73.4863 113.664C73.4863 114.197 73.2943 114.667 72.9103 115.072C72.5263 115.477 72.0569 115.68 71.5023 115.68C70.9689 115.68 70.4996 115.477 70.0943 115.072C69.6889 114.667 69.4863 114.197 69.4863 113.664C69.4863 113.109 69.6889 112.64 70.0943 112.256C70.4996 111.872 70.9689 111.68 71.5023 111.68ZM70.0303 120H72.9743L73.2303 136H69.7743L70.0303 120Z" fill="white"/>
<path d="M125.337 69.64C123.929 69.64 122.756 69.128 121.817 68.104C120.9 67.0587 120.441 65.4373 120.441 63.24C120.441 61.0427 120.9 59.4213 121.817 58.376C122.756 57.3307 123.929 56.808 125.337 56.808C126.745 56.808 127.908 57.3307 128.825 58.376C129.743 59.4213 130.201 61.0427 130.201 63.24C130.201 65.4373 129.743 67.0587 128.825 68.104C127.908 69.128 126.745 69.64 125.337 69.64ZM125.337 67.336C126.063 67.336 126.628 67.016 127.033 66.376C127.439 65.7147 127.641 64.6693 127.641 63.24C127.641 61.7893 127.439 60.7333 127.033 60.072C126.628 59.3893 126.063 59.048 125.337 59.048C124.612 59.048 124.036 59.3893 123.609 60.072C123.204 60.7333 123.001 61.7893 123.001 63.24C123.001 64.6693 123.204 65.7147 123.609 66.376C124.036 67.016 124.612 67.336 125.337 67.336ZM123.225 81L139.865 57H141.785L125.145 81H123.225ZM139.673 81.192C138.265 81.192 137.092 80.68 136.153 79.656C135.236 78.6107 134.777 76.9893 134.777 74.792C134.777 72.5947 135.236 70.9733 136.153 69.928C137.092 68.8827 138.265 68.36 139.673 68.36C141.081 68.36 142.244 68.8827 143.161 69.928C144.079 70.9733 144.537 72.5947 144.537 74.792C144.537 76.9893 144.079 78.6107 143.161 79.656C142.244 80.68 141.081 81.192 139.673 81.192ZM139.673 78.888C140.399 78.888 140.964 78.568 141.369 77.928C141.775 77.2667 141.977 76.2213 141.977 74.792C141.977 73.3413 141.775 72.2853 141.369 71.624C140.964 70.9413 140.399 70.6 139.673 70.6C138.948 70.6 138.372 70.9413 137.945 71.624C137.54 72.2853 137.337 73.3413 137.337 74.792C137.337 76.2213 137.54 77.2667 137.945 77.928C138.372 78.568 138.948 78.888 139.673 78.888Z" fill="white"/>
<path d="M124.624 163.728V161.392H140.368V163.728H124.624Z" fill="white"/>
<path d="M139.523 109.792C139.523 110.773 139.342 111.605 138.979 112.288C138.616 112.971 138.168 113.568 137.635 114.08C137.123 114.592 136.59 115.093 136.035 115.584C135.502 116.075 135.043 116.619 134.659 117.216C134.296 117.792 134.104 118.485 134.083 119.296L134.051 120H131.107V119.136C131.107 118.176 131.278 117.355 131.619 116.672C131.982 115.968 132.419 115.349 132.931 114.816C133.464 114.261 133.987 113.739 134.499 113.248C135.011 112.736 135.438 112.213 135.779 111.68C136.142 111.125 136.323 110.496 136.323 109.792C136.323 108.789 136.003 108.011 135.363 107.456C134.723 106.901 133.806 106.624 132.611 106.624C131.544 106.624 130.627 106.944 129.859 107.584C129.091 108.224 128.707 109.312 128.707 110.848V111.744H125.475V110.528C125.475 108.992 125.806 107.723 126.467 106.72C127.128 105.696 128.003 104.939 129.091 104.448C130.179 103.936 131.352 103.68 132.611 103.68C134.702 103.68 136.376 104.213 137.635 105.28C138.894 106.325 139.523 107.829 139.523 109.792ZM132.579 128.32C132.046 128.32 131.576 128.128 131.171 127.744C130.787 127.339 130.595 126.869 130.595 126.336C130.595 125.781 130.787 125.312 131.171 124.928C131.576 124.523 132.046 124.32 132.579 124.32C133.134 124.32 133.603 124.523 133.987 124.928C134.392 125.312 134.595 125.781 134.595 126.336C134.595 126.869 134.392 127.339 133.987 127.744C133.603 128.128 133.134 128.32 132.579 128.32Z" fill="white"/>
<path d="M180.587 69.64C179.179 69.64 178.006 69.128 177.067 68.104C176.15 67.0587 175.691 65.4373 175.691 63.24C175.691 61.0427 176.15 59.4213 177.067 58.376C178.006 57.3307 179.179 56.808 180.587 56.808C181.995 56.808 183.158 57.3307 184.075 58.376C184.993 59.4213 185.451 61.0427 185.451 63.24C185.451 65.4373 184.993 67.0587 184.075 68.104C183.158 69.128 181.995 69.64 180.587 69.64ZM180.587 67.336C181.313 67.336 181.878 67.016 182.283 66.376C182.689 65.7147 182.891 64.6693 182.891 63.24C182.891 61.7893 182.689 60.7333 182.283 60.072C181.878 59.3893 181.313 59.048 180.587 59.048C179.862 59.048 179.286 59.3893 178.859 60.072C178.454 60.7333 178.251 61.7893 178.251 63.24C178.251 64.6693 178.454 65.7147 178.859 66.376C179.286 67.016 179.862 67.336 180.587 67.336ZM178.475 81L195.115 57H197.035L180.395 81H178.475ZM194.923 81.192C193.515 81.192 192.342 80.68 191.403 79.656C190.486 78.6107 190.027 76.9893 190.027 74.792C190.027 72.5947 190.486 70.9733 191.403 69.928C192.342 68.8827 193.515 68.36 194.923 68.36C196.331 68.36 197.494 68.8827 198.411 69.928C199.329 70.9733 199.787 72.5947 199.787 74.792C199.787 76.9893 199.329 78.6107 198.411 79.656C197.494 80.68 196.331 81.192 194.923 81.192ZM194.923 78.888C195.649 78.888 196.214 78.568 196.619 77.928C197.025 77.2667 197.227 76.2213 197.227 74.792C197.227 73.3413 197.025 72.2853 196.619 71.624C196.214 70.9413 195.649 70.6 194.923 70.6C194.198 70.6 193.622 70.9413 193.195 71.624C192.79 72.2853 192.587 73.3413 192.587 74.792C192.587 76.2213 192.79 77.2667 193.195 77.928C193.622 78.568 194.198 78.888 194.923 78.888ZM206.411 81.192C205.003 81.192 203.83 80.68 202.891 79.656C201.974 78.6107 201.515 76.9893 201.515 74.792C201.515 72.5947 201.974 70.9733 202.891 69.928C203.83 68.8827 205.003 68.36 206.411 68.36C207.819 68.36 208.982 68.8827 209.899 69.928C210.817 70.9733 211.275 72.5947 211.275 74.792C211.275 76.9893 210.817 78.6107 209.899 79.656C208.982 80.68 207.819 81.192 206.411 81.192ZM206.411 78.888C207.137 78.888 207.702 78.568 208.107 77.928C208.513 77.2667 208.715 76.2213 208.715 74.792C208.715 73.3413 208.513 72.2853 208.107 71.624C207.702 70.9413 207.137 70.6 206.411 70.6C205.686 70.6 205.11 70.9413 204.683 71.624C204.278 72.2853 204.075 73.3413 204.075 74.792C204.075 76.2213 204.278 77.2667 204.683 77.928C205.11 78.568 205.686 78.888 206.411 78.888Z" fill="white"/>
<path d="M208.4 166.288H179.6V164.112H208.4V166.288Z" fill="white"/>
<path d="M193.919 111.68C194.474 111.68 194.943 111.883 195.327 112.288C195.711 112.672 195.903 113.131 195.903 113.664C195.903 114.197 195.711 114.667 195.327 115.072C194.943 115.477 194.474 115.68 193.919 115.68C193.364 115.68 192.884 115.477 192.479 115.072C192.095 114.667 191.903 114.197 191.903 113.664C191.903 113.131 192.095 112.672 192.479 112.288C192.884 111.883 193.364 111.68 193.919 111.68ZM186.975 130.208C186.975 129.227 187.156 128.395 187.519 127.712C187.882 127.029 188.319 126.432 188.831 125.92C189.364 125.408 189.898 124.907 190.431 124.416C190.986 123.925 191.444 123.392 191.807 122.816C192.191 122.219 192.394 121.515 192.415 120.704L192.447 120H195.391V120.864C195.391 121.824 195.21 122.656 194.847 123.36C194.506 124.043 194.079 124.661 193.567 125.216C193.055 125.749 192.532 126.272 191.999 126.784C191.487 127.275 191.05 127.787 190.687 128.32C190.346 128.875 190.175 129.504 190.175 130.208C190.175 131.211 190.495 131.989 191.135 132.544C191.796 133.099 192.714 133.376 193.887 133.376C194.954 133.376 195.871 133.056 196.639 132.416C197.407 131.776 197.791 130.688 197.791 129.152V128.256H201.023V129.472C201.023 131.008 200.692 132.277 200.031 133.28C199.37 134.304 198.495 135.061 197.407 135.552C196.34 136.064 195.167 136.32 193.887 136.32C191.818 136.32 190.143 135.787 188.863 134.72C187.604 133.653 186.975 132.149 186.975 130.208Z" fill="white"/>
<path d="M261.015 81H258.135V78.824C257.281 80.488 255.767 81.32 253.591 81.32C251.607 81.32 250.071 80.7653 248.983 79.656C247.916 78.5467 247.383 76.8827 247.383 74.664V73.512C247.383 72.232 247.703 71.1653 248.343 70.312C248.983 69.4373 249.825 68.776 250.871 68.328C250.017 67.9013 249.324 67.2933 248.791 66.504C248.279 65.7147 248.023 64.744 248.023 63.592V62.504C248.023 61.224 248.289 60.1573 248.823 59.304C249.377 58.4293 250.113 57.7787 251.031 57.352C251.969 56.904 253.025 56.68 254.199 56.68C255.372 56.68 256.417 56.904 257.335 57.352C258.273 57.7787 259.009 58.4293 259.543 59.304C260.097 60.1573 260.375 61.224 260.375 62.504V64.04H257.175V62.76C257.175 61.6507 256.908 60.8507 256.375 60.36C255.863 59.8693 255.137 59.624 254.199 59.624C253.281 59.624 252.556 59.8693 252.023 60.36C251.489 60.8507 251.223 61.6507 251.223 62.76V63.592C251.223 64.808 251.511 65.672 252.087 66.184C252.663 66.696 253.409 66.952 254.327 66.952H263.895V69.864H261.015V81ZM254.199 78.408C255.393 78.408 256.289 78.1093 256.887 77.512C257.505 76.9147 257.815 75.9653 257.815 74.664V69.864H254.263C253.175 69.864 252.289 70.152 251.607 70.728C250.924 71.2827 250.583 72.2213 250.583 73.544V74.632C250.583 75.9973 250.881 76.968 251.479 77.544C252.076 78.12 252.983 78.408 254.199 78.408Z" fill="white"/>
<path d="M254.145 159.792L252.961 158.608L255.297 156.272L252.833 153.808L254.049 152.592L256.513 155.056L258.849 152.72L260.033 153.904L257.697 156.24L260.161 158.672L258.945 159.888L256.481 157.456L254.145 159.792Z" fill="white"/>
<path d="M260.579 131.712C259.725 132.16 258.808 132.501 257.827 132.736C256.867 132.992 255.864 133.12 254.819 133.12C253.048 133.12 251.416 132.8 249.923 132.16C248.429 131.52 247.128 130.635 246.019 129.504C244.909 128.373 244.045 127.072 243.427 125.6C242.808 124.107 242.499 122.507 242.499 120.8C242.499 119.093 242.808 117.493 243.427 116C244.045 114.507 244.909 113.195 246.019 112.064C247.128 110.933 248.429 110.059 249.923 109.44C251.416 108.8 253.048 108.48 254.819 108.48C256.632 108.48 258.307 108.8 259.843 109.44C261.4 110.08 262.744 110.955 263.875 112.064C265.027 113.173 265.912 114.453 266.531 115.904C267.171 117.355 267.491 118.901 267.491 120.544C267.491 122.336 267.267 123.808 266.819 124.96C266.371 126.091 265.763 126.933 264.995 127.488C264.227 128.043 263.363 128.32 262.403 128.32C261.421 128.32 260.589 128.107 259.907 127.68C259.245 127.253 258.744 126.667 258.403 125.92C257.805 126.752 257.059 127.36 256.163 127.744C255.288 128.128 254.36 128.32 253.379 128.32C252.504 128.32 251.672 128.171 250.883 127.872C250.115 127.573 249.485 127.115 248.995 126.496C248.504 125.877 248.259 125.109 248.259 124.192C248.259 123.189 248.493 122.421 248.963 121.888C249.432 121.333 250.029 120.928 250.755 120.672C251.48 120.395 252.259 120.203 253.091 120.096C253.923 119.968 254.701 119.851 255.427 119.744C256.152 119.616 256.749 119.424 257.219 119.168C257.688 118.891 257.923 118.475 257.923 117.92C257.923 117.216 257.624 116.672 257.027 116.288C256.429 115.883 255.693 115.68 254.819 115.68C253.923 115.68 253.176 115.915 252.579 116.384C251.981 116.853 251.683 117.536 251.683 118.432H248.707C248.707 117.195 248.995 116.203 249.571 115.456C250.147 114.709 250.893 114.165 251.811 113.824C252.749 113.483 253.731 113.312 254.755 113.312C255.8 113.312 256.781 113.483 257.699 113.824C258.616 114.144 259.363 114.677 259.939 115.424C260.515 116.149 260.803 117.12 260.803 118.336V124C260.803 125.877 261.432 126.816 262.691 126.816C263.608 126.816 264.355 126.293 264.931 125.248C265.528 124.203 265.827 122.635 265.827 120.544C265.827 119.115 265.549 117.771 264.995 116.512C264.461 115.232 263.693 114.101 262.691 113.12C261.709 112.139 260.547 111.371 259.203 110.816C257.88 110.261 256.419 109.984 254.819 109.984C253.283 109.984 251.864 110.261 250.563 110.816C249.261 111.371 248.131 112.149 247.171 113.152C246.211 114.133 245.464 115.275 244.931 116.576C244.419 117.877 244.163 119.285 244.163 120.8C244.163 122.293 244.419 123.701 244.931 125.024C245.464 126.325 246.211 127.467 247.171 128.448C248.131 129.451 249.261 130.229 250.563 130.784C251.864 131.339 253.283 131.616 254.819 131.616C255.757 131.616 256.653 131.499 257.507 131.264C258.36 131.029 259.171 130.709 259.939 130.304L260.579 131.712ZM251.139 124C251.139 124.597 251.384 125.045 251.875 125.344C252.365 125.621 252.995 125.76 253.763 125.76C254.488 125.76 255.16 125.621 255.779 125.344C256.419 125.067 256.931 124.651 257.315 124.096C257.72 123.541 257.923 122.869 257.923 122.08V121.056C257.304 121.355 256.611 121.568 255.843 121.696C255.075 121.803 254.328 121.92 253.603 122.048C252.899 122.155 252.312 122.357 251.843 122.656C251.373 122.933 251.139 123.381 251.139 124Z" fill="white"/>
<path d="M320.338 81L312.338 57H314.674L322.674 81H320.338Z" fill="white"/>
<path d="M315.649 160.56V157.072H312.353V155.408H315.649V151.92H317.345V155.408H320.673V157.072H317.345V160.56H315.649Z" fill="white"/>
<path d="M315.197 122.08C315.197 120.245 315.463 118.517 315.997 116.896C316.551 115.275 317.351 113.771 318.397 112.384H320.477C319.453 113.749 318.695 115.253 318.205 116.896C317.714 118.517 317.469 120.245 317.469 122.08C317.469 123.893 317.714 125.621 318.205 127.264C318.695 128.885 319.453 130.379 320.477 131.744H318.397C317.351 130.357 316.551 128.853 315.997 127.232C315.463 125.611 315.197 123.893 315.197 122.08Z" fill="white"/>
<path d="M379.082 89H376.906V57H379.082V89Z" fill="white"/>
<path d="M377.329 152.912C377.329 152.592 377.446 152.315 377.681 152.08C377.916 151.845 378.193 151.728 378.513 151.728C378.854 151.728 379.132 151.845 379.345 152.08C379.58 152.315 379.697 152.592 379.697 152.912C379.697 153.253 379.58 153.541 379.345 153.776C379.132 153.989 378.854 154.096 378.513 154.096C378.193 154.096 377.916 153.989 377.681 153.776C377.446 153.541 377.329 153.253 377.329 152.912ZM374.353 157.072V155.408H382.673V157.072H374.353ZM377.329 159.6C377.329 159.28 377.446 159.003 377.681 158.768C377.916 158.533 378.193 158.416 378.513 158.416C378.854 158.416 379.132 158.533 379.345 158.768C379.58 159.003 379.697 159.28 379.697 159.6C379.697 159.941 379.58 160.219 379.345 160.432C379.132 160.645 378.854 160.752 378.513 160.752C378.193 160.752 377.916 160.645 377.681 160.432C377.446 160.219 377.329 159.941 377.329 159.6Z" fill="white"/>
<path d="M379.313 122.08C379.313 123.893 379.035 125.611 378.481 127.232C377.947 128.853 377.158 130.357 376.113 131.744H374.033C375.057 130.379 375.814 128.885 376.305 127.264C376.795 125.621 377.041 123.893 377.041 122.08C377.041 120.245 376.795 118.517 376.305 116.896C375.814 115.253 375.057 113.749 374.033 112.384H376.113C377.158 113.771 377.947 115.275 378.481 116.896C379.035 118.517 379.313 120.245 379.313 122.08Z" fill="white"/>
<path d="M437.174 81H434.838L442.838 57H445.174L437.174 81Z" fill="white"/>
<path d="M438.351 170.928V165.392H433.103V163.216H438.351V157.68H440.655V163.216H445.903V165.392H440.655V170.928H438.351ZM433.103 174V171.824H445.903V174H433.103Z" fill="white"/>
<path d="M445.283 131.328V133.76H438.019V104H445.283V106.432H440.963V131.328H445.283Z" fill="white"/>
<path d="M501.486 81.32C500.888 81.32 500.387 81.1173 499.982 80.712C499.576 80.3067 499.374 79.8053 499.374 79.208C499.374 78.5893 499.576 78.0773 499.982 77.672C500.387 77.2667 500.888 77.064 501.486 77.064C502.126 77.064 502.638 77.2667 503.022 77.672C503.427 78.0773 503.63 78.5893 503.63 79.208C503.63 79.8053 503.427 80.3067 503.022 80.712C502.638 81.1173 502.126 81.32 501.486 81.32Z" fill="white"/>
<path d="M497.411 164.24C497.006 164.24 496.654 164.389 496.355 164.688C496.056 164.965 495.907 165.392 495.907 165.968V166.64H493.603V165.584C493.603 164.347 493.912 163.408 494.531 162.768C495.171 162.128 495.96 161.808 496.899 161.808C497.603 161.808 498.222 161.936 498.755 162.192C499.31 162.448 499.811 162.747 500.259 163.088C500.707 163.429 501.134 163.728 501.539 163.984C501.944 164.24 502.36 164.368 502.787 164.368C503.15 164.368 503.459 164.229 503.715 163.952C503.971 163.653 504.099 163.216 504.099 162.64V161.968H506.403V163.024C506.403 164.261 506.083 165.2 505.443 165.84C504.824 166.48 504.046 166.8 503.107 166.8C502.51 166.8 501.966 166.672 501.475 166.416C501.006 166.16 500.547 165.861 500.099 165.52C499.672 165.179 499.235 164.88 498.787 164.624C498.36 164.368 497.902 164.24 497.411 164.24Z" fill="white"/>
<path d="M555.603 170.928L557.331 168.592H555.603V166.416H558.963L562.131 162.192H555.603V160.016H563.763L565.491 157.68H568.403L566.675 160.016H568.403V162.192H565.043L561.875 166.416H568.403V168.592H560.243L558.515 170.928H555.603Z" fill="white"/>
<path d="M617.103 164.944V162.64L629.903 156.912V159.376L620.015 163.792L629.903 168.208V170.672L617.103 164.944ZM617.103 174V171.824H629.903V174H617.103Z" fill="white"/>
<path d="M691.903 164.944L679.103 170.672V168.208L688.991 163.792L679.103 159.376V156.912L691.903 162.64V164.944ZM691.903 174H679.103V171.824H691.903V174Z" fill="white"/>
<path d="M748.653 159.728L746.925 156.496L745.293 159.728L742.893 158.032L745.325 155.344L741.837 154.832L742.733 152.048L745.869 153.616L745.485 150H748.397L748.045 153.616L751.245 152.048L752.173 154.832L748.589 155.344L751.021 158L748.653 159.728Z" fill="white"/>
<path d="M495.223 133.76V131.328H499.543V106.432H495.223V104H502.487V133.76H495.223Z" fill="white"/>
<path d="M564.694 79.464C564.694 80.2533 564.491 81.1387 564.086 82.12C563.68 83.1227 563.136 84.136 562.454 85.16H560.63C561.056 84.4347 561.419 83.7627 561.718 83.144C562.038 82.5253 562.283 81.9173 562.454 81.32C561.835 81.2987 561.334 81.0853 560.95 80.68C560.566 80.2747 560.374 79.784 560.374 79.208C560.374 78.5893 560.576 78.0773 560.982 77.672C561.387 77.2667 561.899 77.064 562.518 77.064C563.136 77.064 563.648 77.2773 564.054 77.704C564.48 78.1307 564.694 78.7173 564.694 79.464Z" fill="white"/>
<path d="M561.799 122.432C561.799 121.664 561.585 121.131 561.159 120.832C560.753 120.512 560.369 120.352 560.007 120.352H558.407V117.408H560.007C560.369 117.408 560.753 117.259 561.159 116.96C561.585 116.64 561.799 116.096 561.799 115.328V108.864C561.799 107.349 562.215 106.165 563.047 105.312C563.879 104.437 564.977 104 566.343 104H567.783V106.432H566.887C566.268 106.432 565.756 106.656 565.351 107.104C564.945 107.531 564.743 108.192 564.743 109.088V115.744C564.743 116.427 564.572 117.035 564.231 117.568C563.911 118.101 563.495 118.539 562.983 118.88C563.495 119.221 563.911 119.659 564.231 120.192C564.572 120.725 564.743 121.333 564.743 122.016V128.672C564.743 129.568 564.945 130.229 565.351 130.656C565.756 131.104 566.268 131.328 566.887 131.328H567.783V133.76H566.343C564.977 133.76 563.879 133.323 563.047 132.448C562.215 131.595 561.799 130.411 561.799 128.896V122.432Z" fill="white"/>
<path d="M623.986 68.936C623.388 68.936 622.887 68.7333 622.482 68.328C622.076 67.9227 621.874 67.4213 621.874 66.824C621.874 66.2053 622.076 65.6933 622.482 65.288C622.887 64.8827 623.388 64.68 623.986 64.68C624.626 64.68 625.138 64.8827 625.522 65.288C625.927 65.6933 626.13 66.2053 626.13 66.824C626.13 67.4213 625.927 67.9227 625.522 68.328C625.138 68.7333 624.626 68.936 623.986 68.936ZM623.986 81.32C623.388 81.32 622.887 81.1173 622.482 80.712C622.076 80.3067 621.874 79.8053 621.874 79.208C621.874 78.5893 622.076 78.0773 622.482 77.672C622.887 77.2667 623.388 77.064 623.986 77.064C624.626 77.064 625.138 77.2667 625.522 77.672C625.927 78.0773 626.13 78.5893 626.13 79.208C626.13 79.8053 625.927 80.3067 625.522 80.712C625.138 81.1173 624.626 81.32 623.986 81.32Z" fill="white"/>
<path d="M623.707 122.432V128.896C623.707 130.411 623.291 131.595 622.459 132.448C621.627 133.323 620.528 133.76 619.163 133.76H617.723V131.328H618.618C619.237 131.328 619.749 131.104 620.155 130.656C620.56 130.229 620.763 129.568 620.763 128.672V122.016C620.763 121.333 620.923 120.725 621.243 120.192C621.584 119.659 622.011 119.221 622.523 118.88C622.011 118.539 621.584 118.101 621.243 117.568C620.923 117.035 620.763 116.427 620.763 115.744V109.088C620.763 108.192 620.56 107.531 620.155 107.104C619.749 106.656 619.237 106.432 618.618 106.432H617.723V104H619.163C620.528 104 621.627 104.437 622.459 105.312C623.291 106.165 623.707 107.349 623.707 108.864V115.328C623.707 116.096 623.92 116.64 624.347 116.96C624.773 117.259 625.157 117.408 625.499 117.408H627.099V120.352H625.499C625.157 120.352 624.773 120.512 624.347 120.832C623.92 121.131 623.707 121.664 623.707 122.432Z" fill="white"/>
<path d="M684.986 68.936C684.388 68.936 683.887 68.7333 683.482 68.328C683.076 67.9227 682.874 67.4213 682.874 66.824C682.874 66.2053 683.076 65.6933 683.482 65.288C683.887 64.8827 684.388 64.68 684.986 64.68C685.626 64.68 686.138 64.8827 686.522 65.288C686.927 65.6933 687.13 66.2053 687.13 66.824C687.13 67.4213 686.927 67.9227 686.522 68.328C686.138 68.7333 685.626 68.936 684.986 68.936ZM687.194 79.464C687.194 80.2533 686.991 81.1387 686.586 82.12C686.18 83.1227 685.636 84.136 684.954 85.16H683.13C683.556 84.4347 683.919 83.7627 684.218 83.144C684.538 82.5253 684.783 81.9173 684.954 81.32C684.335 81.2987 683.834 81.0853 683.45 80.68C683.066 80.2747 682.874 79.784 682.874 79.208C682.874 78.5893 683.076 78.0773 683.482 77.672C683.887 77.2667 684.399 77.064 685.018 77.064C685.636 77.064 686.148 77.2773 686.554 77.704C686.98 78.1307 687.194 78.7173 687.194 79.464Z" fill="white"/>
<path d="M677.319 121.472V118.208L684.359 113.472V116.448L678.983 119.84L684.359 123.232V126.208L677.319 121.472ZM685.639 121.472V118.208L692.679 113.472V116.448L687.303 119.84L692.679 123.232V126.208L685.639 121.472Z" fill="white"/>
<path d="M739.845 81.32C739.312 81.32 738.842 81.128 738.437 80.744C738.053 80.3387 737.861 79.8693 737.861 79.336C737.861 78.7813 738.053 78.312 738.437 77.928C738.842 77.5227 739.312 77.32 739.845 77.32C740.421 77.32 740.901 77.5227 741.285 77.928C741.669 78.312 741.861 78.7813 741.861 79.336C741.861 79.8693 741.669 80.3387 741.285 80.744C740.901 81.128 740.421 81.32 739.845 81.32ZM745.989 81.32C745.456 81.32 744.986 81.128 744.581 80.744C744.197 80.3387 744.005 79.8693 744.005 79.336C744.005 78.7813 744.197 78.312 744.581 77.928C744.986 77.5227 745.456 77.32 745.989 77.32C746.565 77.32 747.045 77.5227 747.429 77.928C747.813 78.312 748.005 78.7813 748.005 79.336C748.005 79.8693 747.813 80.3387 747.429 80.744C747.045 81.128 746.565 81.32 745.989 81.32ZM752.133 81.32C751.6 81.32 751.13 81.128 750.725 80.744C750.341 80.3387 750.149 79.8693 750.149 79.336C750.149 78.7813 750.341 78.312 750.725 77.928C751.13 77.5227 751.6 77.32 752.133 77.32C752.709 77.32 753.189 77.5227 753.573 77.928C753.957 78.312 754.149 78.7813 754.149 79.336C754.149 79.8693 753.957 80.3387 753.573 80.744C753.189 81.128 752.709 81.32 752.133 81.32Z" fill="white"/>
<path d="M753.679 121.472L746.639 126.208V123.232L752.015 119.84L746.639 116.448V113.472L753.679 118.208V121.472ZM745.359 121.472L738.319 126.208V123.232L743.695 119.84L738.319 116.448V113.472L745.359 118.208V121.472Z" fill="white"/>
<path d="M10.5031 32.32C8.41246 32.32 6.75913 31.6693 5.54313 30.368C4.34846 29.0667 3.75113 27.0933 3.75113 24.448V15.552C3.75113 12.928 4.34846 10.9653 5.54313 9.664C6.75913 8.34133 8.41246 7.68 10.5031 7.68C12.6151 7.68 14.2685 8.34133 15.4631 9.664C16.6578 10.9653 17.2551 12.928 17.2551 15.552V24.448C17.2551 27.0933 16.6578 29.0667 15.4631 30.368C14.2685 31.6693 12.6151 32.32 10.5031 32.32ZM10.5031 29.376C11.6125 29.376 12.4765 29.0133 13.0951 28.288C13.7351 27.5413 14.0551 26.2613 14.0551 24.448V15.552C14.0551 13.76 13.7351 12.4907 13.0951 11.744C12.4765 10.9973 11.6125 10.624 10.5031 10.624C9.39379 10.624 8.51913 10.9973 7.87913 11.744C7.26046 12.4907 6.95113 13.76 6.95113 15.552V24.448C6.95113 26.2613 7.26046 27.5413 7.87913 28.288C8.51913 29.0133 9.39379 29.376 10.5031 29.376Z" fill="white"/>
<path d="M71.8311 9.632V8H75.0311V32H71.8311V15.488H67.2551V12.8H68.6311C69.7618 12.8 70.5725 12.5547 71.0631 12.064C71.5751 11.5733 71.8311 10.7627 71.8311 9.632Z" fill="white"/>
<path d="M132.331 9.632V8H135.531V32H132.331V15.488H127.755V12.8H129.131C130.262 12.8 131.072 12.5547 131.563 12.064C132.075 11.5733 132.331 10.7627 132.331 9.632Z" fill="white"/>
<path d="M199.115 14.368C199.115 15.4773 198.912 16.4907 198.507 17.408C198.102 18.3253 197.579 19.1787 196.939 19.968C196.299 20.7573 195.606 21.5147 194.859 22.24C194.134 22.9653 193.43 23.6907 192.747 24.416C192.064 25.12 191.478 25.856 190.987 26.624C190.496 27.3707 190.176 28.1813 190.027 29.056H199.435V32H186.571V30.4C186.571 29.12 186.795 27.9787 187.243 26.976C187.691 25.952 188.267 25.0133 188.971 24.16C189.696 23.3067 190.454 22.496 191.243 21.728C192.032 20.96 192.779 20.2027 193.483 19.456C194.208 18.688 194.795 17.8987 195.243 17.088C195.691 16.256 195.915 15.3493 195.915 14.368C195.915 13.0453 195.638 12.096 195.083 11.52C194.528 10.9227 193.824 10.624 192.971 10.624C192.075 10.624 191.35 10.9227 190.795 11.52C190.24 12.096 189.963 13.1413 189.963 14.656V16.512H186.763V14.4C186.763 12.9067 187.04 11.6693 187.595 10.688C188.15 9.68533 188.896 8.93866 189.835 8.448C190.774 7.936 191.819 7.68 192.971 7.68C194.102 7.68 195.126 7.936 196.043 8.448C196.982 8.93866 197.728 9.68533 198.283 10.688C198.838 11.6693 199.115 12.896 199.115 14.368Z" fill="white"/>
<path d="M254.323 21.248H252.531V18.048H254.323C255.219 18.048 255.923 17.7813 256.435 17.248C256.968 16.7147 257.235 15.8613 257.235 14.688V13.728C257.235 12.6187 256.968 11.8293 256.435 11.36C255.902 10.8693 255.198 10.624 254.323 10.624C253.47 10.624 252.755 10.8693 252.179 11.36C251.624 11.8293 251.347 12.5973 251.347 13.664V14.528H248.147V13.376C248.147 12.1387 248.424 11.104 248.979 10.272C249.534 9.41867 250.28 8.77867 251.219 8.352C252.158 7.904 253.192 7.68 254.323 7.68C255.454 7.68 256.478 7.904 257.395 8.352C258.312 8.77867 259.048 9.41867 259.603 10.272C260.158 11.1253 260.435 12.1813 260.435 13.44V14.592C260.435 15.7227 260.179 16.6933 259.667 17.504C259.155 18.2933 258.472 18.9013 257.619 19.328C258.664 19.7547 259.496 20.4053 260.115 21.28C260.755 22.1547 261.075 23.2427 261.075 24.544V25.952C261.075 27.3173 260.766 28.48 260.147 29.44C259.55 30.3787 258.739 31.0933 257.715 31.584C256.712 32.0747 255.582 32.32 254.323 32.32C253.064 32.32 251.912 32.0747 250.867 31.584C249.843 31.0933 249.022 30.368 248.403 29.408C247.806 28.448 247.507 27.2747 247.507 25.888V24.48H250.707V25.6C250.707 26.9013 251.038 27.8613 251.699 28.48C252.36 29.0773 253.235 29.376 254.323 29.376C255.411 29.376 256.275 29.088 256.915 28.512C257.555 27.9147 257.875 26.9653 257.875 25.664V24.96C257.875 23.6373 257.555 22.688 256.915 22.112C256.275 21.536 255.411 21.248 254.323 21.248Z" fill="white"/>
<path d="M307.803 24.64L314.235 8H319.067V24.64H322.139V27.584H319.067V32H315.867V27.584H307.803V24.64ZM310.459 24.64H315.867V10.496L310.459 24.64Z" fill="white"/>
<path d="M371.963 10.944V17.728C372.368 17.1093 372.902 16.6187 373.563 16.256C374.224 15.872 374.992 15.68 375.867 15.68C377.702 15.68 379.088 16.2773 380.027 17.472C380.966 18.6453 381.435 20.3733 381.435 22.656V25.216C381.435 26.7733 381.147 28.0853 380.571 29.152C379.995 30.1973 379.227 30.9867 378.267 31.52C377.307 32.0533 376.23 32.32 375.035 32.32C373.84 32.32 372.752 32.064 371.771 31.552C370.79 31.04 370.011 30.2827 369.435 29.28C368.859 28.2773 368.571 27.0507 368.571 25.6V24.704H371.771V25.088C371.771 26.6027 372.059 27.7013 372.635 28.384C373.232 29.0453 374.032 29.376 375.035 29.376C375.974 29.376 376.742 29.0453 377.339 28.384C377.936 27.7013 378.235 26.6453 378.235 25.216V22.848C378.235 21.2693 377.936 20.1493 377.339 19.488C376.763 18.8267 375.995 18.496 375.035 18.496C374.075 18.496 373.35 18.7413 372.859 19.232C372.368 19.7227 372.07 20.2987 371.963 20.96H368.891V8H380.859V10.944H371.963Z" fill="white"/>
<path d="M432.451 15.552V19.584C432.963 18.688 433.592 18.048 434.339 17.664C435.107 17.28 435.939 17.088 436.835 17.088C437.944 17.088 438.936 17.3653 439.811 17.92C440.707 18.4533 441.422 19.264 441.955 20.352C442.488 21.4187 442.755 22.7627 442.755 24.384V25.024C442.755 26.6027 442.456 27.936 441.859 29.024C441.262 30.112 440.451 30.9333 439.427 31.488C438.424 32.0427 437.283 32.32 436.003 32.32C434.723 32.32 433.571 32.032 432.547 31.456C431.544 30.88 430.744 30.0267 430.147 28.896C429.55 27.7653 429.251 26.368 429.251 24.704V15.296C429.251 13.632 429.55 12.2347 430.147 11.104C430.744 9.97333 431.544 9.12 432.547 8.544C433.571 7.968 434.723 7.68 436.003 7.68C437.24 7.68 438.339 7.94667 439.299 8.48C440.28 8.992 441.059 9.76 441.635 10.784C442.211 11.7867 442.499 13.0347 442.499 14.528V15.072H439.299V14.784C439.299 13.312 439 12.256 438.403 11.616C437.827 10.9547 437.027 10.624 436.003 10.624C434.936 10.624 434.072 11.008 433.411 11.776C432.771 12.5227 432.451 13.7813 432.451 15.552ZM432.451 24.416V24.992C432.451 26.5493 432.771 27.6693 433.411 28.352C434.051 29.0347 434.915 29.376 436.003 29.376C437.091 29.376 437.955 29.0347 438.595 28.352C439.235 27.648 439.555 26.528 439.555 24.992V24.416C439.555 22.8373 439.246 21.7173 438.627 21.056C438.008 20.3733 437.134 20.032 436.003 20.032C434.915 20.032 434.051 20.3733 433.411 21.056C432.771 21.7173 432.451 22.8373 432.451 24.416Z" fill="white"/>
<path d="M497.803 30.368V32H494.603V30.912C494.603 28.5653 494.763 26.4747 495.083 24.64C495.403 22.8053 495.83 21.1307 496.363 19.616C496.918 18.08 497.547 16.6187 498.251 15.232C498.955 13.8453 499.702 12.416 500.491 10.944H490.891V8H503.115V12C502.347 13.4933 501.632 14.8907 500.971 16.192C500.331 17.472 499.766 18.7947 499.275 20.16C498.806 21.504 498.443 22.9973 498.187 24.64C497.931 26.2613 497.803 28.1707 497.803 30.368Z" fill="white"/>
<path d="M551.123 24.48C551.123 23.1787 551.443 22.0907 552.083 21.216C552.723 20.32 553.566 19.648 554.611 19.2C553.779 18.7733 553.107 18.1653 552.595 17.376C552.083 16.5867 551.827 15.6373 551.827 14.528V13.376C551.827 12.1387 552.104 11.104 552.659 10.272C553.214 9.41867 553.96 8.77867 554.899 8.352C555.838 7.904 556.872 7.68 558.003 7.68C559.155 7.68 560.19 7.904 561.107 8.352C562.046 8.77867 562.792 9.41867 563.347 10.272C563.902 11.104 564.179 12.1387 564.179 13.376V14.528C564.179 15.6373 563.923 16.5867 563.411 17.376C562.899 18.1653 562.227 18.7733 561.395 19.2C562.44 19.648 563.283 20.32 563.923 21.216C564.563 22.0907 564.883 23.1787 564.883 24.48V25.888C564.883 27.2747 564.574 28.448 563.955 29.408C563.336 30.368 562.504 31.0933 561.459 31.584C560.435 32.0747 559.283 32.32 558.003 32.32C556.744 32.32 555.592 32.0747 554.547 31.584C553.502 31.0933 552.67 30.368 552.051 29.408C551.432 28.448 551.123 27.2747 551.123 25.888V24.48ZM555.027 13.664V14.496C555.027 15.648 555.294 16.4907 555.827 17.024C556.382 17.536 557.107 17.792 558.003 17.792C558.92 17.792 559.646 17.536 560.179 17.024C560.712 16.4907 560.979 15.648 560.979 14.496V13.664C560.979 12.5973 560.702 11.8293 560.147 11.36C559.592 10.8693 558.878 10.624 558.003 10.624C557.15 10.624 556.435 10.8693 555.859 11.36C555.304 11.8293 555.027 12.5973 555.027 13.664ZM554.323 24.512V25.6C554.323 26.9013 554.654 27.8613 555.315 28.48C555.998 29.0773 556.894 29.376 558.003 29.376C559.134 29.376 560.03 29.0773 560.691 28.48C561.352 27.8613 561.683 26.9013 561.683 25.6V24.512C561.683 23.168 561.352 22.208 560.691 21.632C560.03 21.0347 559.134 20.736 558.003 20.736C556.894 20.736 555.998 21.0347 555.315 21.632C554.654 22.208 554.323 23.168 554.323 24.512Z" fill="white"/>
<path d="M622.555 24.448V20.416C622.043 21.312 621.403 21.952 620.635 22.336C619.888 22.72 619.067 22.912 618.171 22.912C617.083 22.912 616.091 22.6453 615.195 22.112C614.299 21.5573 613.584 20.7467 613.051 19.68C612.518 18.592 612.251 17.2373 612.251 15.616V14.976C612.251 13.376 612.55 12.0427 613.147 10.976C613.744 9.888 614.544 9.06667 615.547 8.512C616.571 7.95733 617.723 7.68 619.003 7.68C620.283 7.68 621.424 7.968 622.427 8.544C623.451 9.12 624.262 9.97333 624.859 11.104C625.456 12.2347 625.755 13.632 625.755 15.296V24.704C625.755 26.368 625.456 27.7653 624.859 28.896C624.262 30.0267 623.451 30.88 622.427 31.456C621.424 32.032 620.283 32.32 619.003 32.32C617.787 32.32 616.688 32.064 615.707 31.552C614.726 31.0187 613.947 30.2507 613.371 29.248C612.795 28.224 612.507 26.9653 612.507 25.472V24.928H615.707V25.216C615.707 26.688 615.995 27.7547 616.571 28.416C617.168 29.056 617.979 29.376 619.003 29.376C620.07 29.376 620.923 28.992 621.563 28.224C622.224 27.456 622.555 26.1973 622.555 24.448ZM622.555 15.584V15.008C622.555 13.4507 622.235 12.3307 621.595 11.648C620.955 10.9653 620.091 10.624 619.003 10.624C617.915 10.624 617.051 10.976 616.411 11.68C615.771 12.3627 615.451 13.472 615.451 15.008V15.584C615.451 17.1413 615.76 18.2613 616.379 18.944C617.019 19.6267 617.894 19.968 619.003 19.968C620.091 19.968 620.955 19.6267 621.595 18.944C622.235 18.2613 622.555 17.1413 622.555 15.584Z" fill="white"/>
</svg>
