<svg width="1440" height="1376" viewBox="0 0 1440 1376" fill="none" xmlns="http://www.w3.org/2000/svg">
<path d="M399.247 92.474C421 79 551.113 97.2043 569.951 140.768C578.836 161.315 557.907 163.183 527.022 156.731C521.762 167.1 505.064 184.462 480.349 170.959C449.454 154.08 448.501 142.848 448.65 132.368C435.993 127.572 424.008 122.709 413.667 118.285C432.036 138.366 473.589 179.812 492.856 184.951C516.939 191.374 656.826 155.031 652.919 196.763C649.794 230.148 554.816 215.757 507.718 204.389C573.767 231.712 697.522 292.147 664.149 315.304C630.775 338.462 591.002 307.402 575.287 288.978C585.195 301.936 599.137 327.411 575.646 325.642C552.154 323.874 518.269 253.674 504.263 218.796L487.004 204.266C513.895 257.496 556.598 366.401 512.277 376.187C467.956 385.972 464.073 261.727 467.672 198.38L424.059 151.275C439.84 181.299 463.407 244.659 431.432 257.912C407.11 267.994 400.382 244.06 399.969 221.277C396.655 251.312 385.357 288.639 356.776 286.834C317.797 280.701 370.897 153.038 399.247 92.474Z" fill="white"/>
<path d="M527.022 156.731C557.907 163.183 578.836 161.315 569.951 140.768C551.113 97.2043 421 79 399.247 92.474C370.897 153.038 317.797 280.701 356.776 286.834C392.355 289.081 401.152 230.688 401.103 201.211C397.89 225.633 399.458 271.166 431.432 257.912C463.407 244.659 439.84 181.299 424.059 151.275L467.672 198.38C464.073 261.727 467.956 385.972 512.277 376.187C556.598 366.401 513.895 257.496 487.004 204.266L504.263 218.796C518.269 253.674 552.154 323.874 575.646 325.642C599.137 327.411 585.195 301.936 575.287 288.978C591.002 307.402 630.775 338.462 664.149 315.304C697.522 292.147 573.767 231.712 507.718 204.389C554.816 215.757 649.794 230.148 652.919 196.763C656.826 155.031 516.939 191.374 492.856 184.951C473.589 179.812 432.036 138.366 413.667 118.285C424.008 122.709 435.993 127.572 448.65 132.368M527.022 156.731C521.762 167.1 505.064 184.462 480.349 170.959C449.454 154.08 448.501 142.848 448.65 132.368M527.022 156.731C530.42 148.573 530.134 128.718 501.803 114.564C473.472 100.41 454.563 120.536 448.65 132.368" stroke="#105FB0" stroke-width="3"/>
<path d="M497.097 160.063L486.628 160.177M497.097 160.063L487.214 153.551M497.097 160.063L507.655 156.231M497.097 160.063L504.675 165.056" stroke="#105FB0" stroke-width="3"/>
<path d="M1026.81 131.511C1003.61 145.741 955.036 178.686 946.339 196.629C935.467 219.059 963.785 375.736 923.55 363.991C891.363 354.595 904.348 251.627 924.437 207.537C885.09 267.211 838.97 389.617 822.558 352.46C806.146 315.302 846.737 263.491 867.806 251.553C853.204 258.825 786.317 273.984 792.506 251.253C798.695 228.522 874.045 208.556 910.946 201.415L928.483 187.222C871.121 203.538 746.765 236.928 745.557 191.556C744.35 146.183 905.506 132.902 967.022 148.441L1013.22 117.625C984.268 112.087 845.123 148.756 854.074 114.248C863.024 79.7401 1053 82 1053 106C1053 126.887 1068.5 240 975.109 280.701C954.587 289.645 955.383 264.627 967.572 235.525C958.388 228.395 944.505 208.709 962.448 187.001C984.876 159.865 996.085 161.058 1006.35 163.191C1013.45 151.672 1020.5 140.826 1026.81 131.511Z" fill="white"/>
<path d="M967.572 235.525C955.383 264.627 954.587 289.645 975.109 280.701C1068.5 240 1053 126.887 1053 106C1053 82 863.024 79.7401 854.074 114.248C845.123 148.756 984.268 112.087 1013.22 117.625L967.022 148.441C905.506 132.902 744.35 146.183 745.557 191.556C746.765 236.928 871.121 203.538 928.483 187.222L910.946 201.415C874.045 208.556 798.695 228.522 792.506 251.253C786.317 273.984 853.204 258.825 867.806 251.553C846.737 263.491 806.146 315.302 822.558 352.46C838.97 389.617 885.09 267.211 924.437 207.537C904.348 251.627 891.363 354.595 923.55 363.991C963.785 375.736 935.467 219.059 946.339 196.629C955.036 178.686 1003.61 145.741 1026.81 131.511C1020.5 140.826 1013.45 151.672 1006.35 163.191M967.572 235.525C958.388 228.395 944.505 208.709 962.448 187.001C984.876 159.865 996.085 161.058 1006.35 163.191M967.572 235.525C974.938 240.408 994.487 243.89 1013.75 218.755C1033.02 193.62 1016.84 171.24 1006.35 163.191" stroke="#105FB0" stroke-width="3"/>
<path d="M969.972 205.512L971.844 195.211M969.972 205.512L978.239 197.042M969.972 205.512L971.733 216.604M969.972 205.512L963.633 212.006" stroke="#105FB0" stroke-width="3"/>
<line x1="408.037" y1="892.576" x2="408.609" y2="836.548" stroke="#105FB0" stroke-width="3"/>
<line x1="408.037" y1="1051.51" x2="408.609" y2="995.486" stroke="#105FB0" stroke-width="3"/>
<line x1="1001.05" y1="892.576" x2="1001.62" y2="836.548" stroke="#105FB0" stroke-width="3"/>
<line x1="1001.05" y1="1051.51" x2="1001.62" y2="995.486" stroke="#105FB0" stroke-width="3"/>
<path d="M1001.5 995.408C1001.5 997.753 999.902 1000.36 996.061 1003.16C992.263 1005.94 986.565 1008.67 979.082 1011.32C964.136 1016.59 942.425 1021.37 915.496 1025.39C861.662 1033.43 787.24 1038.41 705 1038.41C622.76 1038.41 548.338 1033.43 494.504 1025.39C467.575 1021.37 445.864 1016.59 430.918 1011.32C423.435 1008.67 417.737 1005.94 413.939 1003.16C410.098 1000.36 408.5 997.753 408.5 995.408C408.5 993.064 410.098 990.455 413.939 987.652C417.737 984.879 423.435 982.143 430.918 979.501C445.864 974.224 467.575 969.447 494.504 965.426C548.338 957.387 622.76 952.408 705 952.408C787.24 952.408 861.662 957.387 915.496 965.426C942.425 969.447 964.136 974.224 979.082 979.501C986.565 982.143 992.263 984.879 996.061 987.652C999.902 990.455 1001.5 993.064 1001.5 995.408Z" stroke="#105FB0" stroke-width="3"/>
<path d="M538.5 986C546.358 1004.82 565.571 1009.05 587.727 1009.6C617.323 1010.33 662.728 967.577 646.798 939.642C625.802 995.703 565.896 994.871 538.5 986Z" fill="white" stroke="#105FB0" stroke-width="3"/>
<path d="M762.697 930.944C754.453 980.694 820.858 1000.92 829.255 1001.46C861.958 1003.55 870.438 968.27 856.906 936.844C843.375 905.417 770.941 881.195 762.697 930.944Z" fill="white" stroke="#105FB0" stroke-width="3"/>
<path d="M720.26 1265.08L740 1243.15L759.74 1265.08C775.122 1282.17 762.993 1309.41 740 1309.41C717.007 1309.41 704.878 1282.17 720.26 1265.08Z" stroke="#105FB0" stroke-width="3"/>
<path d="M657.913 1181.1L670.5 1167.15L683.087 1181.1C692.925 1192 685.187 1209.41 670.5 1209.41C655.813 1209.41 648.075 1192 657.913 1181.1Z" stroke="#105FB0" stroke-width="3"/>
<path d="M1001.5 836.908C1001.5 839.295 999.893 841.938 996.055 844.77C992.256 847.573 986.559 850.34 979.077 853.012C964.132 858.347 942.422 863.179 915.494 867.245C861.661 875.374 787.239 880.408 705 880.408C622.761 880.408 548.339 875.374 494.506 867.245C467.578 863.179 445.868 858.347 430.923 853.012C423.441 850.34 417.744 847.573 413.945 844.77C410.107 841.938 408.5 839.295 408.5 836.908C408.5 834.522 410.107 831.878 413.945 829.046C417.744 826.243 423.441 823.476 430.923 820.805C445.868 815.469 467.578 810.638 494.506 806.572C548.339 798.442 622.761 793.408 705 793.408C787.239 793.408 861.661 798.442 915.494 806.572C942.422 810.638 964.132 815.469 979.077 820.805C986.559 823.476 992.256 826.243 996.055 829.046C999.893 831.878 1001.5 834.522 1001.5 836.908Z" stroke="#105FB0" stroke-width="3"/>
<path d="M812.5 830.908C812.5 831.267 812.24 831.955 810.896 832.91C809.601 833.831 807.595 834.78 804.868 835.718C799.432 837.587 791.485 839.295 781.566 840.738C761.751 843.62 734.327 845.408 704 845.408C673.673 845.408 646.249 843.62 626.434 840.738C616.515 839.295 608.568 837.587 603.132 835.718C600.405 834.78 598.399 833.831 597.104 832.91C595.76 831.955 595.5 831.267 595.5 830.908C595.5 830.549 595.76 829.862 597.104 828.906C598.399 827.986 600.405 827.037 603.132 826.099C608.568 824.229 616.515 822.522 626.434 821.079C646.249 818.197 673.673 816.408 704 816.408C734.327 816.408 761.751 818.197 781.566 821.079C791.485 822.522 799.432 824.229 804.868 826.099C807.595 827.037 809.601 827.986 810.896 828.906C812.24 829.862 812.5 830.549 812.5 830.908Z" stroke="#105FB0" stroke-width="3"/>
<path d="M761.051 1003.14C761.214 1003.25 761.323 1003.34 761.394 1003.41C761.323 1003.47 761.214 1003.56 761.051 1003.67C760.487 1004.05 759.557 1004.47 758.218 1004.9C755.559 1005.76 751.633 1006.55 746.688 1007.23C736.821 1008.57 723.142 1009.41 708 1009.41C692.858 1009.41 679.179 1008.57 669.312 1007.23C664.367 1006.55 660.441 1005.76 657.782 1004.9C656.443 1004.47 655.513 1004.05 654.949 1003.67C654.786 1003.56 654.677 1003.47 654.606 1003.41C654.677 1003.34 654.786 1003.25 654.949 1003.14C655.513 1002.77 656.443 1002.35 657.782 1001.92C660.441 1001.06 664.367 1000.27 669.312 999.591C679.179 998.246 692.858 997.408 708 997.408C723.142 997.408 736.821 998.246 746.688 999.591C751.633 1000.27 755.559 1001.06 758.218 1001.92C759.557 1002.35 760.487 1002.77 761.051 1003.14ZM654.475 1003.56C654.475 1003.56 654.475 1003.56 654.476 1003.55C654.475 1003.56 654.475 1003.56 654.475 1003.56Z" stroke="#105FB0" stroke-width="3"/>
<path d="M1001 892.193C1001 917.046 869.296 936.908 705.071 936.908C540.845 936.908 408 916.761 408 891.908" stroke="#105FB0" stroke-width="3"/>
<path d="M1001 1051.2C1001 1076.6 869.296 1096.91 705.071 1096.91C540.845 1096.91 408 1076.31 408 1050.91" stroke="#105FB0" stroke-width="3"/>
<path d="M848 1090.91C844.593 1116.19 831.533 1131.24 812.796 1117.61C798.242 1107.02 794.342 1116.19 792.354 1133.51C790.367 1150.84 764.532 1159.65 761.977 1138.63C759.421 1117.61 744.658 1113.92 739.548 1113.92C725.53 1113.92 718.255 1112.21 691 1096.02" stroke="#105FB0" stroke-width="3"/>
<path d="M743.305 935L739 889H755.071C757.941 889 782.622 894.855 802.137 895.97C817.749 896.862 838.872 897.457 847.481 897.642C860.3 903.776 883.854 922.336 867.5 927.5C858 930.5 770 934.5 743.305 935Z" fill="white"/>
<path d="M846.709 966.592L847.586 979.04M846.709 966.592L840.162 979.697M846.709 966.592L841.683 954.801M846.709 966.592L851.729 956.545" stroke="#105FB0" stroke-width="3"/>
<path d="M610.925 960.75C604.041 969.826 592.616 972.631 581.334 972.348C569.03 971.424 563.715 968.71 568.937 959.405C572.586 952.905 589.136 940.76 600.342 943.171C608.674 944.963 619.529 949.404 610.925 960.75Z" fill="#105FB0" stroke="#105FB0" stroke-width="3"/>
<path d="M537.603 984.354C539.889 972.392 544.667 947.264 577.912 936.362C611.157 925.46 629.044 925.798 646.668 939.026" stroke="#105FB0" stroke-width="3"/>
<path d="M561.043 929.753L562.625 881.729L578.531 883.526C581.372 883.848 605.126 892.574 624.313 895.893C639.662 898.549 660.5 901.518 669 902.67C680.981 910.353 701.27 928.263 684.821 933.226C669 938 571 930.5 561.043 929.753Z" fill="white"/>
<path d="M548 962.5C551.047 955.166 557.345 951.173 561.5 949C570.64 946.283 585.547 943.439 580 946C573.5 949 566.885 957.917 565.5 960C556.452 965.161 544.942 969.86 548 962.5Z" fill="white" stroke="white" stroke-width="2"/>
<path d="M621.557 949.158C621.508 950.422 621.361 951.688 621.206 952.943C621.14 953.476 620.863 955.605 620.928 953.795C620.964 952.796 621.067 951.796 621.085 950.796C621.087 950.656 621.2 950.411 621.061 950.376C620.925 950.342 620.925 950.616 620.873 950.743C620.743 951.066 620.634 951.397 620.516 951.725C620.152 952.74 619.83 953.787 619.398 954.777C619.372 954.837 619.339 954.991 619.295 954.943C619.095 954.726 619.284 954.359 619.295 954.067C619.331 953.088 619.403 952.11 619.482 951.133C619.514 950.748 619.666 949.605 619.549 949.974C619.202 951.064 619.093 952.274 618.581 953.31C618.225 954.031 618.523 951.709 618.508 950.909C618.496 950.189 617.739 951.952 617.601 952.163C617.145 952.862 617.284 948.605 617.214 951.133C617.199 951.675 617.214 952.378 617.214 952.92M617.214 952.92C617.214 952.973 616 957.5 618 956.25C618.528 956.271 616.856 953.299 617.214 952.92ZM617.214 952.92C618.491 951.569 619.652 950.122 620.867 948.72C621.195 948.342 621.523 947.963 621.865 947.596C622.106 947.338 622.613 946.675 622.748 946.999C623.083 947.802 622.46 949.793 622.331 950.53C622.098 951.858 621.819 953.175 621.508 954.487C621.485 954.588 621.436 954.686 621.436 954.789C621.436 955.097 621.607 954.196 621.702 953.902C622.048 952.825 622.416 951.74 622.978 950.749C623.948 949.039 623.262 952.011 623.238 952.139C623.059 953.11 622.796 954.148 622.803 955.144C622.803 955.218 622.789 955.342 622.863 955.357C623.174 955.421 623.232 954.849 623.383 954.576C623.9 953.643 624.338 952.54 625.028 951.713C625.097 951.63 625.241 951.49 625.319 951.565C625.696 951.935 625.381 952.612 625.343 953.133C625.31 953.578 624.844 955.555 625.246 955.972C625.326 956.055 625.48 955.902 625.561 955.818C625.89 955.476 626.357 954.607 626.565 954.239C626.758 953.894 627.261 952.893 627.278 953.287C627.323 954.321 626.947 955.433 626.685 956.422C626.482 957.192 626.644 956.68 626.794 956.28C627.191 955.224 627.603 954.174 628.04 953.133C628.178 952.804 628.318 952.476 628.464 952.151C628.578 951.895 628.812 951.146 628.881 951.417C629.014 951.939 628.563 953.032 628.439 953.511C628.401 953.661 628.122 955.143 628.101 953.967C628.092 953.467 628.31 952.205 627.956 951.772C627.906 951.712 627.791 951.816 627.744 951.879C627.549 952.139 626.945 953.458 626.885 953.582C626.521 954.34 625.268 956.513 625.802 955.86C626.929 954.482 627.624 952.745 628.21 951.098C628.654 949.848 627.376 953.652 626.625 954.753C626.446 955.016 626.561 954.123 626.565 953.807C626.575 952.879 626.614 951.956 626.722 951.033C626.781 950.524 626.871 950.286 626.71 950.814C626.348 951.999 625.845 953.135 625.343 954.268C625.208 954.572 624.855 955.545 625.222 954.375C625.628 953.08 625.962 951.769 626.311 950.459C626.393 950.149 626.472 949.838 626.565 949.53C626.605 949.396 626.621 949.244 626.71 949.134C626.752 949.081 626.729 949.269 626.722 949.335C626.614 950.295 626.333 951.232 626.19 952.186C626.119 952.656 626.007 953.806 626.438 953.588C627.168 953.219 627.719 952.177 628.21 951.583C628.406 951.346 628.596 951.103 628.814 950.885C628.968 950.732 629.352 950.261 629.389 950.82C629.484 952.25 628.848 953.871 628.572 955.268C628.41 956.095 628.439 955.95 628.657 955.369C629.16 954.03 629.713 952.711 630.284 951.4C630.571 950.739 631.323 948.85 631.427 949.56C631.588 950.654 631.235 951.972 631.04 953.038C630.955 953.503 630.559 954.844 630.798 954.434C631.22 953.71 631.557 952.947 631.996 952.228C632.429 951.518 632.99 950.396 633.725 949.903C634.018 949.707 633.942 950.59 633.883 950.932C633.754 951.676 633.548 952.403 633.411 953.145C633.397 953.222 631.929 956.234 631.996 956.28C632.235 956.443 633.722 952.909 633.865 952.66C634.298 951.902 634.688 951.109 635.165 950.376C635.218 950.295 635.258 950.179 635.352 950.152C635.586 950.084 635.295 950.627 635.225 950.855C635.025 951.517 634.803 952.195 634.512 952.825C634.321 953.24 634.774 951.953 634.929 951.524C635.247 950.641 635.546 949.724 635.951 948.874C636.214 948.322 635.813 950.382 635.794 950.471C635.74 950.728 635.68 950.983 635.625 951.24C635.57 951.491 635.254 951.986 635.516 952.003C635.754 952.018 636.39 950.502 636.423 950.435C636.742 949.779 636.981 949.06 637.342 948.424C637.509 948.131 637.276 949.098 637.173 949.418C636.872 950.354 636.49 951.26 636.145 952.18C636.073 952.371 636.003 952.561 635.939 952.754C635.892 952.896 635.691 953.209 635.842 953.192C635.904 953.185 634.478 956.022 634.512 955.972C634.662 955.749 636.63 951.966 636.701 951.849C636.994 951.368 637.757 949.946 637.735 950.506C637.684 951.83 636.611 953.024 636.145 954.239C635.767 955.225 637.328 952.385 637.862 951.471C638.459 950.449 639.193 949.576 639.435 948.413C639.529 947.961 639.836 947.358 640.173 947.028C640.53 946.679 638.723 948 639.562 948C639.345 948.69 640.689 945.145 640.5 946.001C640.361 946.628 638.013 950.354 637.696 950.932C636.888 952.409 636.223 953.764 635.018 954.943C634.112 955.829 633.883 957.5 633.145 958.586C632.736 958.89 632.284 959.145 631.905 959.486C631.704 959.666 631.537 959.911 631.246 959.911" stroke="white" stroke-width="3" stroke-linecap="round"/>
<path d="M563.13 605.588L550.666 604.978M563.13 605.588L550.897 597.528M563.13 605.588L575.435 602M563.13 605.588L572.508 611.767" stroke="#105FB0" stroke-width="3"/>
<path d="M799.103 684.912L795.523 696.866M799.103 684.912L788.345 694.856M799.103 684.912L798.571 672.106M799.103 684.912L807.351 677.289" stroke="#105FB0" stroke-width="3"/>
<path d="M723.411 426.536L723.977 414.071M723.411 426.536L731.428 414.275M723.411 426.536L727.043 438.829M723.411 426.536L717.265 435.937" stroke="#105FB0" stroke-width="3"/>
<path d="M608.516 526.412C560.1 512.31 532.115 575.837 530.585 584.111C524.622 616.334 558.64 628.949 591.453 619.252C624.266 609.554 656.932 540.515 608.516 526.412Z" stroke="#105FB0" stroke-width="3"/>
<path d="M733.121 621.863C707.82 665.484 762.782 707.886 770.448 711.356C800.301 724.872 820.706 694.872 819.16 660.691C817.614 626.51 758.422 578.241 733.121 621.863Z" stroke="#105FB0" stroke-width="3"/>
<path d="M720.951 397.361C672.416 424.862 709.431 458.675 714.808 466.272C735.752 495.861 763.754 516.011 781.383 482.517C799.012 449.023 769.485 369.861 720.951 397.361Z" stroke="#105FB0" stroke-width="3"/>
<path d="M794.602 438.908C798.27 449.48 802.084 475.08 788 492.908" stroke="#105FB0" stroke-width="3"/>
<path d="M615.024 613.96C606.636 621.215 584.497 634.553 563.044 629.867" stroke="#105FB0" stroke-width="3"/>
<path fill-rule="evenodd" clip-rule="evenodd" d="M1009.09 500.494L1221.54 426.455L1281.78 455.56L1252.67 515.803L1040.23 589.842L1009.09 500.494ZM1012.91 502.339L1042.07 586.022L1250.51 513.379L1277.77 456.957L1221.35 429.697L1012.91 502.339ZM1228.61 453.191L1262.91 462.186L1241.15 489.188L1228.61 453.191ZM1233.29 457.521L1242.21 483.098L1257.67 463.912L1233.29 457.521Z" fill="#105FB0"/>
<path fill-rule="evenodd" clip-rule="evenodd" d="M1396.62 397.49C1373.83 407.863 1347.26 406.494 1318.13 385.721C1306.92 377.73 1297.67 376.791 1290 380.088C1282.19 383.443 1275.61 391.342 1270.21 401.884C1259.43 422.935 1253.82 453.531 1251.99 475.127L1249.01 474.874C1250.84 453.136 1256.49 422.082 1267.54 400.516C1273.06 389.75 1280.04 381.099 1288.81 377.331C1297.72 373.505 1308.08 374.87 1319.87 383.279C1348.24 403.507 1373.67 404.637 1395.38 394.76C1417.21 384.825 1435.51 363.641 1449.19 338.777L1451.81 340.223C1437.99 365.36 1419.29 387.176 1396.62 397.49Z" fill="#105FB0"/>
<path fill-rule="evenodd" clip-rule="evenodd" d="M1420.52 522.805C1413.44 521.502 1406.42 517.372 1399.85 509.459C1392 500.018 1385.57 497.633 1379.89 498.805C1373.97 500.027 1368.25 505.179 1362.08 512.411C1359.33 515.638 1356.55 519.203 1353.66 522.908C1353.34 523.312 1353.02 523.718 1352.7 524.126C1349.48 528.253 1346.12 532.512 1342.57 536.56C1335.49 544.637 1327.52 552.004 1318.07 555.888C1302.66 562.221 1288.66 555.338 1277.69 544.702C1266.71 534.059 1258.42 519.364 1254.12 509.079L1256.88 507.922C1261.08 517.97 1269.19 532.275 1279.78 542.548C1290.39 552.829 1303.14 558.78 1316.93 553.113C1325.73 549.496 1333.33 542.551 1340.32 534.581C1343.81 530.605 1347.12 526.407 1350.34 522.279C1350.66 521.871 1350.98 521.464 1351.29 521.058C1354.18 517.363 1357 513.744 1359.8 510.464C1365.94 503.259 1372.25 497.318 1379.28 495.867C1386.55 494.368 1394 497.733 1402.15 507.541C1408.38 515.028 1414.8 518.703 1421.06 519.855C1427.34 521.01 1433.63 519.663 1439.63 516.762C1451.69 510.935 1462.23 498.988 1468.24 489.687L1470.76 491.314C1464.6 500.846 1453.69 513.299 1440.94 519.463C1434.54 522.558 1427.59 524.106 1420.52 522.805Z" fill="#105FB0"/>
<path fill-rule="evenodd" clip-rule="evenodd" d="M431.41 1257.99L218.965 1183.95L158.722 1213.06L187.827 1273.3L400.272 1347.34L431.41 1257.99ZM427.59 1259.84L398.426 1343.52L189.987 1270.88L162.728 1214.46L219.151 1187.2L427.59 1259.84ZM211.894 1210.69L177.588 1219.69L199.349 1246.69L211.894 1210.69ZM207.208 1215.02L198.294 1240.6L182.832 1221.41L207.208 1215.02Z" fill="#105FB0"/>
<path fill-rule="evenodd" clip-rule="evenodd" d="M29.5737 1228.3C40.3961 1231 52.783 1228.12 67.3708 1217.72C90.0604 1201.54 119.648 1194.8 143.963 1197.44C168.353 1200.09 186.763 1212.04 188.505 1232.63L191.495 1232.37C189.57 1209.63 169.23 1197.17 144.287 1194.46C119.268 1191.74 88.9396 1198.66 65.6292 1215.28C51.467 1225.38 39.9789 1227.81 30.3013 1225.39C20.5606 1222.95 12.2634 1215.51 4.71866 1205C-2.81595 1194.5 -9.45244 1181.15 -15.9531 1167.21C-17.3669 1164.18 -18.7745 1161.12 -20.1831 1158.06C-25.2283 1147.09 -30.2863 1136.09 -35.6857 1126.28L-38.3143 1127.72C-32.9721 1137.44 -27.975 1148.3 -22.9367 1159.25C-21.5212 1162.33 -20.1025 1165.41 -18.6719 1168.48C-12.1726 1182.41 -5.43405 1196 2.28134 1206.75C9.9866 1217.49 18.8144 1225.61 29.5737 1228.3Z" fill="#105FB0"/>
<path fill-rule="evenodd" clip-rule="evenodd" d="M5.47955 1300.97C11.4028 1302.21 17.6041 1299.34 24.1536 1291.46C28.0713 1286.75 31.3922 1284.5 34.2012 1283.86C36.8983 1283.25 39.4104 1284.07 41.9515 1286.25C44.538 1288.48 47.0376 1292.03 49.5362 1296.61C52.0238 1301.16 54.4487 1306.61 56.9293 1312.52C58.0378 1315.16 59.1573 1317.9 60.2971 1320.68C64.2345 1330.31 68.414 1340.52 73.2165 1349.5C79.387 1361.03 86.7848 1370.92 96.4298 1374.89C100.531 1376.57 104.924 1376.24 109.364 1374.49C113.783 1372.76 118.33 1369.6 122.877 1365.51C131.974 1357.31 141.348 1345.09 150.015 1331.95C167.36 1305.66 182.102 1275.32 186.384 1265.08L183.616 1263.92C179.398 1274.01 164.74 1304.18 147.51 1330.3C138.89 1343.37 129.682 1355.34 120.869 1363.28C116.462 1367.25 112.222 1370.15 108.268 1371.7C104.335 1373.24 100.769 1373.43 97.5702 1372.11C88.9652 1368.58 81.988 1359.53 75.8617 1348.08C71.1397 1339.26 67.0414 1329.24 63.113 1319.64C61.9632 1316.83 60.8279 1314.06 59.6957 1311.36C57.2075 1305.43 54.734 1299.86 52.1689 1295.17C49.6148 1290.49 46.9073 1286.56 43.9078 1283.98C40.8631 1281.36 37.4103 1280.06 33.5391 1280.93C29.7797 1281.79 25.9287 1284.63 21.8464 1289.54C15.5959 1297.06 10.418 1298.94 6.09233 1298.03C1.57979 1297.09 -2.69136 1293.03 -6.79887 1287.02C-10.8625 1281.07 -14.5363 1273.56 -17.9866 1266.28C-18.3683 1265.47 -18.7477 1264.67 -19.1247 1263.87C-22.1237 1257.51 -24.9772 1251.46 -27.7401 1247.19L-30.2599 1248.81C-27.6139 1252.91 -24.8542 1258.76 -21.8311 1265.16C-21.4575 1265.95 -21.0798 1266.75 -20.6978 1267.56C-17.2575 1274.82 -13.4917 1282.54 -9.27612 1288.71C-5.10448 1294.82 -0.256866 1299.77 5.47955 1300.97Z" fill="#105FB0"/>
</svg>
