<svg width="1440" height="688" viewBox="0 0 1440 688" fill="none" xmlns="http://www.w3.org/2000/svg">
<rect x="653.953" y="475.31" width="377.494" height="112.296" rx="56.1481" transform="rotate(-4 653.953 475.31)" fill="#105FB0" stroke="white" stroke-width="3"/>
<rect x="465.382" y="73.0679" width="243.461" height="112" rx="56" transform="rotate(-4 465.382 73.0679)" fill="#105FB0" stroke="white" stroke-width="3"/>
<path d="M983.651 138.448L970.332 137.796M983.651 138.448L970.579 129.835M983.651 138.448L996.8 134.614M983.651 138.448L993.672 145.051" stroke="white" stroke-width="3"/>
<path d="M1032.15 53.8426C980.413 38.773 950.51 106.657 948.874 115.498C942.502 149.931 978.853 163.411 1013.92 153.049C1048.98 142.686 1083.89 68.9123 1032.15 53.8426Z" stroke="white" stroke-width="3"/>
<path d="M1039.1 147.394C1030.14 155.146 1006.48 169.399 983.559 164.392" stroke="white" stroke-width="3"/>
<path d="M522.721 546.304L534.841 551.862M522.721 546.304L531.652 559.16M522.721 546.304L509.089 544.972M522.721 546.304L515.873 536.447" stroke="white" stroke-width="3"/>
<path d="M446.235 606.803C488.656 640.033 541.661 588.14 546.468 580.542C565.188 550.948 536.458 524.915 500.056 521.494C463.654 518.073 403.815 573.573 446.235 606.803Z" stroke="white" stroke-width="3"/>
<path d="M519.491 616.209C509.448 622.499 483.888 632.965 462 624.511" stroke="white" stroke-width="3"/>
<path d="M1366.11 191.486L1367.08 200.445M1366.11 191.486L1361.74 201.119M1366.11 191.486L1362.17 183.113M1366.11 191.486L1369.46 184.101" stroke="white" stroke-width="3"/>
<path d="M1304.53 168.028C1299.92 204.15 1348.38 216.958 1354.46 217.118C1378.11 217.743 1383.28 192.058 1372.67 169.745C1362.06 147.432 1309.14 131.906 1304.53 168.028Z" stroke="white" stroke-width="3"/>
<path d="M1366.24 153.528C1372.36 158.694 1384.37 172.984 1383.44 188.813" stroke="white" stroke-width="3"/>
<path d="M55.9966 543.771C49.2873 484.981 49.1469 360.399 97.8697 333.448C120.851 320.736 125.413 344.961 121.392 381.757C134.097 386.719 156.269 404.241 143.314 434.635C127.121 472.628 114.115 475.019 101.861 476.037C97.7016 491.361 93.3865 505.908 89.397 518.486C110.754 494.754 154.421 441.521 158.229 418.44C162.989 389.589 104.641 230.389 153.812 230.203C193.148 230.054 187.151 342.589 179.235 398.876C203.624 318.647 260.11 167.272 290.946 203.605C321.782 239.939 290.041 289.912 270.315 310.357C284.319 297.315 312.478 278.137 313.085 305.767C313.692 333.398 235.581 380.949 196.449 401.271L181.448 423.076C240.54 385.621 362.843 323.371 379.311 374.008C395.779 424.645 251.148 443.313 176.775 446.318L126.735 502.599C159.996 480.758 231.295 446.032 250.408 481.859C264.946 509.112 237.766 519.69 211.212 522.765C246.657 523.216 291.527 532.162 292.67 565.739C294.093 607.537 146.454 575.379 72.4568 554.076C60.694 551.301 56.5822 546.049 55.9966 543.771Z" fill="#105FB0"/>
<path d="M121.392 381.757C125.413 344.961 120.851 320.736 97.8697 333.448C49.1469 360.399 49.2873 484.981 55.9966 543.771C56.5822 546.049 60.694 551.301 72.4568 554.076C146.454 575.379 294.093 607.537 292.67 565.739C291.247 523.941 222.066 520.313 187.653 523.723C216.535 524.696 269.52 517.686 250.408 481.859C231.295 446.032 159.996 480.758 126.735 502.599L176.775 446.318C251.148 443.313 395.779 424.645 379.311 374.008C362.843 323.371 240.54 385.621 181.448 423.076L196.449 401.271C235.581 380.949 313.692 333.398 313.085 305.767C312.478 278.137 284.319 297.315 270.315 310.357C290.041 289.912 321.782 239.939 290.946 203.605C260.11 167.272 203.624 318.647 179.235 398.876C187.151 342.589 193.148 230.054 153.812 230.203C104.641 230.389 162.989 389.589 158.229 418.44C154.421 441.521 110.754 494.754 89.397 518.486C93.3865 505.908 97.7016 491.361 101.861 476.037M121.392 381.757C134.097 386.719 156.269 404.241 143.314 434.635C127.121 472.628 114.115 475.019 101.861 476.037M121.392 381.757C111.48 378.717 88.3299 381.31 75.0262 416C61.7225 450.69 87.373 470.479 101.861 476.037" stroke="white" stroke-width="3"/>
<path d="M120.871 403.972L134.594 410.826M120.871 403.972L130.647 419.096M120.871 403.972L105.249 401.92M120.871 403.972L113.376 392.378" stroke="white" stroke-width="3"/>
<path d="M1373.9 580.557C1329 593.5 1182.59 562.624 1164.27 506.733C1155.63 480.371 1181.67 480.434 1219.05 491.892C1226.72 479.691 1249.29 460.155 1278.26 479.615C1314.47 503.94 1314.38 517.908 1313.01 530.824C1328.09 538.175 1342.33 545.532 1354.59 552.162C1334.19 525.303 1287.6 469.454 1264.41 460.933C1235.41 450.281 1045.69 504.438 1055.23 453.381C1062.87 412.536 1191.43 415.905 1248.27 435.264C1169.85 394.072 1013.25 352.23 1057.05 327.429C1100.86 302.628 1169.73 346.32 1187.04 370.835C1176.28 353.723 1149.37 273.104 1178.16 277.945C1206.95 282.786 1240.82 373.249 1254.16 417.876L1273.81 437.759C1246.65 369.028 1190.21 219.781 1246.01 212.721C1301.81 205.66 1337.98 402.755 1326.37 480.52L1370.04 533.706C1373.32 497.324 1311.01 330.243 1354.67 337.043C1398.32 343.842 1413.26 471.536 1389 574.5L1373.9 580.557Z" fill="#105FB0"/>
<path d="M1219.05 491.892C1181.67 480.434 1155.63 480.371 1164.27 506.733C1182.59 562.624 1329 593.5 1373.9 580.557L1389 574.5C1413.26 471.536 1398.32 343.842 1354.67 337.043C1311.01 330.243 1373.32 497.324 1370.04 533.706L1326.37 480.52C1337.98 402.755 1301.81 205.66 1246.01 212.721C1190.21 219.781 1246.65 369.028 1273.81 437.759L1254.16 417.876C1240.82 373.249 1206.95 282.786 1178.16 277.945C1149.37 273.104 1176.28 353.723 1187.04 370.835C1169.73 346.32 1100.86 302.628 1057.05 327.429C1013.25 352.23 1169.85 394.072 1248.27 435.264C1191.43 415.905 1062.87 412.536 1055.23 453.381C1045.69 504.438 1235.41 450.281 1264.41 460.933C1287.6 469.454 1334.19 525.303 1354.59 552.162C1342.33 545.532 1328.09 538.175 1313.01 530.824M1219.05 491.892C1226.72 479.691 1249.29 460.155 1278.26 479.615C1314.47 503.94 1314.38 517.909 1313.01 530.824M1219.05 491.892C1213.93 501.574 1212.04 526.108 1245.4 546.781C1278.76 567.453 1304.37 544.757 1313.01 530.824" stroke="white" stroke-width="3"/>
<path d="M1235.07 501.803L1235.01 490.379M1235.07 501.803L1241.83 490.22M1235.07 501.803L1238.96 512.875M1235.07 501.803L1229.88 510.682" stroke="white" stroke-width="3"/>
<path d="M1457.85 226.785C1492.29 194.647 1469.2 62.9467 1453.36 1.11399C1451.82 -6.14026 1447.01 -7.39781 1438.99 -9.49203C1401.53 -19.27 1168.05 -21.9581 1204.52 28.6936C1233.7 69.2149 1346.97 21.3249 1414.22 13.1752C1332.74 36.46 1189.19 87.414 1266.87 104.952C1363.97 126.873 1434.59 -12.3529 1422.03 35.7785C1419.23 46.4947 1416.27 67.0505 1415.46 87.1897C1415.5 107.756 1416.8 155.722 1421.63 183.054C1427.76 219.97 1439.3 244.093 1457.85 226.785Z" stroke="white" stroke-width="3"/>
<path d="M5.2485 -9.19685C70.6453 -14.5817 208.095 -15.2393 234.719 25.2094C249.056 46.9916 222.617 54.5287 184.148 54.3692C177.995 76.2798 166.32 89.7112 128.786 85.856C95.4196 82.429 86.6885 63.1086 85.935 44.0658C65.6649 39.7742 45.3456 33.2206 34.9689 28.5356C-11.6381 7.49247 117.261 103.096 78.2821 197.713C47.0989 273.406 20.2441 119.141 10.7146 32.5468C7.36349 102.104 36.3402 225.158 -9.76161 247.734C-67.3888 275.952 -24.3554 39.8016 -7.98019 3.53321C-4.47301 -4.23462 -2.36771 -8.89487 5.2485 -9.19685Z" fill="#105FB0"/>
<path d="M85.935 44.0658C65.6649 39.7742 45.3456 33.2206 34.9689 28.5356C-11.6381 7.49247 117.261 103.096 78.2821 197.713C47.0989 273.406 20.2441 119.141 10.7146 32.5468C7.3635 102.104 36.3402 225.158 -9.76161 247.734C-67.3888 275.952 -24.3554 39.8016 -7.98019 3.53321C-4.47301 -4.23462 -2.36771 -8.89487 5.24851 -9.19686C70.6453 -14.5817 208.095 -15.2393 234.719 25.2094C249.056 46.9916 222.617 54.5287 184.148 54.3692M85.935 44.0658C91.4945 11.0409 118.117 7.30674 131.835 8.68181C150.838 10.7776 187.905 22.8493 184.148 54.3692M85.935 44.0658C86.6885 63.1086 95.4196 82.429 128.786 85.856C166.32 89.7112 177.995 76.2798 184.148 54.3692" stroke="white" stroke-width="3"/>
<path d="M164.67 46.7251L164.8 57.8676M164.67 46.7251L158.146 58.0644M164.67 46.7251L160.808 35.9504M164.67 46.7251L169.672 38.0317" stroke="white" stroke-width="3"/>
</svg>
