<svg width="1180" height="141" viewBox="0 0 1180 141" fill="none" xmlns="http://www.w3.org/2000/svg">
<mask id="path-1-outside-1_267_15" maskUnits="userSpaceOnUse" x="0" y="0" width="782" height="141" fill="black">
<rect fill="white" width="782" height="141"/>
<path d="M47.6742 96.1053C38.7665 96.1053 30.7739 94.0934 23.6965 90.0697C16.7411 86.0461 11.189 80.4373 7.04019 73.2434C3.0134 66.0496 1 57.8193 1 48.5526C1 39.164 3.0134 30.9338 7.04019 23.8619C11.189 16.668 16.7411 11.0592 23.6965 7.03554C30.7739 3.01185 38.7665 1 47.6742 1C56.582 1 64.5136 3.01185 71.4689 7.03554C78.5463 11.0592 84.0984 16.668 88.1252 23.8619C92.274 30.9338 94.3484 39.164 94.3484 48.5526C94.3484 57.8193 92.274 66.0496 88.1252 73.2434C84.0984 80.4373 78.5463 86.0461 71.4689 90.0697C64.5136 94.0934 56.582 96.1053 47.6742 96.1053ZM47.6742 75.9868C54.7516 75.9868 60.6088 73.4873 65.2457 68.4882C70.0046 63.3671 72.3841 56.7219 72.3841 48.5526C72.3841 40.2614 70.0046 33.6162 65.2457 28.6171C60.6088 23.618 54.7516 21.1184 47.6742 21.1184C40.5968 21.1184 34.6787 23.618 29.9197 28.6171C25.2828 33.6162 22.9643 40.2614 22.9643 48.5526C22.9643 56.7219 25.2828 63.3671 29.9197 68.4882C34.6787 73.4873 40.5968 75.9868 47.6742 75.9868Z"/>
<path d="M134.124 84.0342C134.124 88.9114 132.843 94.4592 130.281 100.678C127.718 107.018 124.302 113.419 120.031 119.882H107.95C110.635 115.492 112.953 111.347 114.906 107.445C116.858 103.543 118.322 99.7632 119.299 96.1053C115.516 95.9833 112.404 94.6421 109.964 92.0816C107.523 89.3991 106.303 86.168 106.303 82.3882C106.303 78.4864 107.584 75.2553 110.147 72.6947C112.709 70.0123 116.004 68.6711 120.031 68.6711C123.935 68.6711 127.23 70.0123 129.915 72.6947C132.721 75.3772 134.124 79.157 134.124 84.0342Z"/>
<path d="M214.552 94.2763H192.587V2.82896H254.088V22.9474H214.552V94.2763Z"/>
<path d="M292.485 140H270.521V2.82896H292.485V14.3513C295.902 10.0838 299.929 6.79166 304.565 4.475C309.324 2.15833 314.449 1 319.941 1C328.36 1 335.865 3.01185 342.454 7.03554C349.043 11.0592 354.229 16.668 358.012 23.8619C361.917 30.9338 363.869 39.164 363.869 48.5526C363.869 57.8193 361.917 66.0496 358.012 73.2434C354.229 80.4373 349.043 86.0461 342.454 90.0697C335.865 94.0934 328.36 96.1053 319.941 96.1053C314.449 96.1053 309.324 94.9469 304.565 92.6303C299.929 90.3136 295.902 87.0215 292.485 82.754V140ZM317.195 75.9868C324.272 75.9868 330.13 73.4873 334.766 68.4882C339.525 63.3671 341.905 56.7219 341.905 48.5526C341.905 40.2614 339.525 33.6162 334.766 28.6171C330.13 23.618 324.272 21.1184 317.195 21.1184C310.118 21.1184 304.199 23.618 299.44 28.6171C294.804 33.6162 292.485 40.2614 292.485 48.5526C292.485 56.7219 294.804 63.3671 299.44 68.4882C304.199 73.4873 310.118 75.9868 317.195 75.9868Z"/>
<path d="M467.144 55.8684H398.323C399.543 62.5746 402.228 67.7566 406.376 71.4145C410.647 75.0724 416.199 76.9013 423.033 76.9013C427.914 76.9013 431.818 76.0478 434.747 74.3408C437.676 72.5118 439.872 70.0123 441.336 66.8421H465.131C462.447 76.3526 457.322 83.6075 449.756 88.6066C442.191 93.6057 432.978 96.1053 422.118 96.1053C413.454 96.1053 405.644 94.0934 398.689 90.0697C391.856 86.0461 386.487 80.4373 382.582 73.2434C378.677 66.0496 376.725 57.8193 376.725 48.5526C376.725 39.164 378.677 30.9338 382.582 23.8619C386.487 16.668 391.856 11.0592 398.689 7.03554C405.644 3.01185 413.454 1 422.118 1C430.903 1 438.713 3.01185 445.546 7.03554C452.38 11.0592 457.749 16.668 461.653 23.8619C465.558 30.9338 467.511 39.164 467.511 48.5526C467.511 49.7719 467.45 50.9912 467.327 52.2105C467.327 53.4298 467.267 54.6491 467.144 55.8684ZM422.118 20.204C415.65 20.204 410.403 21.9719 406.376 25.5079C402.35 28.9219 399.726 33.8601 398.506 40.3224H445.729C444.509 33.8601 441.885 28.9219 437.859 25.5079C433.832 21.9719 428.585 20.204 422.118 20.204Z"/>
<path d="M508.768 2.82896V74.1579H544.46V2.82896H566.424V74.1579H579.237V118.967H559.103V94.2763H486.804V2.82896H508.768Z"/>
<path d="M681.666 94.2763H660.617V26.0566L624.741 94.2763H596.554V2.82896H617.603V71.2316L653.478 2.82896H681.666V94.2763Z"/>
<path d="M706.138 31.5434C706.138 24.5934 707.724 19.0456 710.897 14.9C714.192 10.6325 718.463 7.58422 723.71 5.75527C729.079 3.80439 734.814 2.82896 740.915 2.82896H781V94.2763H759.036V54.5882L724.625 94.2763H699.183L730.665 59.5263C726.272 58.6728 722.184 57.0877 718.402 54.7711C714.741 52.3325 711.751 49.2233 709.433 45.4434C707.236 41.5417 706.138 36.9083 706.138 31.5434ZM744.393 44.8947H759.036V19.2895H744.393C739.268 19.2895 735.241 20.3868 732.312 22.5816C729.506 24.7763 728.103 27.8246 728.103 31.7263C728.103 36.2377 729.567 39.5908 732.495 41.7855C735.424 43.8583 739.39 44.8947 744.393 44.8947Z"/>
</mask>
<path d="M47.6742 96.1053C38.7665 96.1053 30.7739 94.0934 23.6965 90.0697C16.7411 86.0461 11.189 80.4373 7.04019 73.2434C3.0134 66.0496 1 57.8193 1 48.5526C1 39.164 3.0134 30.9338 7.04019 23.8619C11.189 16.668 16.7411 11.0592 23.6965 7.03554C30.7739 3.01185 38.7665 1 47.6742 1C56.582 1 64.5136 3.01185 71.4689 7.03554C78.5463 11.0592 84.0984 16.668 88.1252 23.8619C92.274 30.9338 94.3484 39.164 94.3484 48.5526C94.3484 57.8193 92.274 66.0496 88.1252 73.2434C84.0984 80.4373 78.5463 86.0461 71.4689 90.0697C64.5136 94.0934 56.582 96.1053 47.6742 96.1053ZM47.6742 75.9868C54.7516 75.9868 60.6088 73.4873 65.2457 68.4882C70.0046 63.3671 72.3841 56.7219 72.3841 48.5526C72.3841 40.2614 70.0046 33.6162 65.2457 28.6171C60.6088 23.618 54.7516 21.1184 47.6742 21.1184C40.5968 21.1184 34.6787 23.618 29.9197 28.6171C25.2828 33.6162 22.9643 40.2614 22.9643 48.5526C22.9643 56.7219 25.2828 63.3671 29.9197 68.4882C34.6787 73.4873 40.5968 75.9868 47.6742 75.9868Z" fill="#105FB0"/>
<path d="M134.124 84.0342C134.124 88.9114 132.843 94.4592 130.281 100.678C127.718 107.018 124.302 113.419 120.031 119.882H107.95C110.635 115.492 112.953 111.347 114.906 107.445C116.858 103.543 118.322 99.7632 119.299 96.1053C115.516 95.9833 112.404 94.6421 109.964 92.0816C107.523 89.3991 106.303 86.168 106.303 82.3882C106.303 78.4864 107.584 75.2553 110.147 72.6947C112.709 70.0123 116.004 68.6711 120.031 68.6711C123.935 68.6711 127.23 70.0123 129.915 72.6947C132.721 75.3772 134.124 79.157 134.124 84.0342Z" fill="#105FB0"/>
<path d="M214.552 94.2763H192.587V2.82896H254.088V22.9474H214.552V94.2763Z" fill="#105FB0"/>
<path d="M292.485 140H270.521V2.82896H292.485V14.3513C295.902 10.0838 299.929 6.79166 304.565 4.475C309.324 2.15833 314.449 1 319.941 1C328.36 1 335.865 3.01185 342.454 7.03554C349.043 11.0592 354.229 16.668 358.012 23.8619C361.917 30.9338 363.869 39.164 363.869 48.5526C363.869 57.8193 361.917 66.0496 358.012 73.2434C354.229 80.4373 349.043 86.0461 342.454 90.0697C335.865 94.0934 328.36 96.1053 319.941 96.1053C314.449 96.1053 309.324 94.9469 304.565 92.6303C299.929 90.3136 295.902 87.0215 292.485 82.754V140ZM317.195 75.9868C324.272 75.9868 330.13 73.4873 334.766 68.4882C339.525 63.3671 341.905 56.7219 341.905 48.5526C341.905 40.2614 339.525 33.6162 334.766 28.6171C330.13 23.618 324.272 21.1184 317.195 21.1184C310.118 21.1184 304.199 23.618 299.44 28.6171C294.804 33.6162 292.485 40.2614 292.485 48.5526C292.485 56.7219 294.804 63.3671 299.44 68.4882C304.199 73.4873 310.118 75.9868 317.195 75.9868Z" fill="#105FB0"/>
<path d="M467.144 55.8684H398.323C399.543 62.5746 402.228 67.7566 406.376 71.4145C410.647 75.0724 416.199 76.9013 423.033 76.9013C427.914 76.9013 431.818 76.0478 434.747 74.3408C437.676 72.5118 439.872 70.0123 441.336 66.8421H465.131C462.447 76.3526 457.322 83.6075 449.756 88.6066C442.191 93.6057 432.978 96.1053 422.118 96.1053C413.454 96.1053 405.644 94.0934 398.689 90.0697C391.856 86.0461 386.487 80.4373 382.582 73.2434C378.677 66.0496 376.725 57.8193 376.725 48.5526C376.725 39.164 378.677 30.9338 382.582 23.8619C386.487 16.668 391.856 11.0592 398.689 7.03554C405.644 3.01185 413.454 1 422.118 1C430.903 1 438.713 3.01185 445.546 7.03554C452.38 11.0592 457.749 16.668 461.653 23.8619C465.558 30.9338 467.511 39.164 467.511 48.5526C467.511 49.7719 467.45 50.9912 467.327 52.2105C467.327 53.4298 467.267 54.6491 467.144 55.8684ZM422.118 20.204C415.65 20.204 410.403 21.9719 406.376 25.5079C402.35 28.9219 399.726 33.8601 398.506 40.3224H445.729C444.509 33.8601 441.885 28.9219 437.859 25.5079C433.832 21.9719 428.585 20.204 422.118 20.204Z" fill="#105FB0"/>
<path d="M508.768 2.82896V74.1579H544.46V2.82896H566.424V74.1579H579.237V118.967H559.103V94.2763H486.804V2.82896H508.768Z" fill="#105FB0"/>
<path d="M681.666 94.2763H660.617V26.0566L624.741 94.2763H596.554V2.82896H617.603V71.2316L653.478 2.82896H681.666V94.2763Z" fill="#105FB0"/>
<path d="M706.138 31.5434C706.138 24.5934 707.724 19.0456 710.897 14.9C714.192 10.6325 718.463 7.58422 723.71 5.75527C729.079 3.80439 734.814 2.82896 740.915 2.82896H781V94.2763H759.036V54.5882L724.625 94.2763H699.183L730.665 59.5263C726.272 58.6728 722.184 57.0877 718.402 54.7711C714.741 52.3325 711.751 49.2233 709.433 45.4434C707.236 41.5417 706.138 36.9083 706.138 31.5434ZM744.393 44.8947H759.036V19.2895H744.393C739.268 19.2895 735.241 20.3868 732.312 22.5816C729.506 24.7763 728.103 27.8246 728.103 31.7263C728.103 36.2377 729.567 39.5908 732.495 41.7855C735.424 43.8583 739.39 44.8947 744.393 44.8947Z" fill="#105FB0"/>
<path d="M47.6742 96.1053C38.7665 96.1053 30.7739 94.0934 23.6965 90.0697C16.7411 86.0461 11.189 80.4373 7.04019 73.2434C3.0134 66.0496 1 57.8193 1 48.5526C1 39.164 3.0134 30.9338 7.04019 23.8619C11.189 16.668 16.7411 11.0592 23.6965 7.03554C30.7739 3.01185 38.7665 1 47.6742 1C56.582 1 64.5136 3.01185 71.4689 7.03554C78.5463 11.0592 84.0984 16.668 88.1252 23.8619C92.274 30.9338 94.3484 39.164 94.3484 48.5526C94.3484 57.8193 92.274 66.0496 88.1252 73.2434C84.0984 80.4373 78.5463 86.0461 71.4689 90.0697C64.5136 94.0934 56.582 96.1053 47.6742 96.1053ZM47.6742 75.9868C54.7516 75.9868 60.6088 73.4873 65.2457 68.4882C70.0046 63.3671 72.3841 56.7219 72.3841 48.5526C72.3841 40.2614 70.0046 33.6162 65.2457 28.6171C60.6088 23.618 54.7516 21.1184 47.6742 21.1184C40.5968 21.1184 34.6787 23.618 29.9197 28.6171C25.2828 33.6162 22.9643 40.2614 22.9643 48.5526C22.9643 56.7219 25.2828 63.3671 29.9197 68.4882C34.6787 73.4873 40.5968 75.9868 47.6742 75.9868Z" stroke="#105FB0" stroke-width="2" mask="url(#path-1-outside-1_267_15)"/>
<path d="M134.124 84.0342C134.124 88.9114 132.843 94.4592 130.281 100.678C127.718 107.018 124.302 113.419 120.031 119.882H107.95C110.635 115.492 112.953 111.347 114.906 107.445C116.858 103.543 118.322 99.7632 119.299 96.1053C115.516 95.9833 112.404 94.6421 109.964 92.0816C107.523 89.3991 106.303 86.168 106.303 82.3882C106.303 78.4864 107.584 75.2553 110.147 72.6947C112.709 70.0123 116.004 68.6711 120.031 68.6711C123.935 68.6711 127.23 70.0123 129.915 72.6947C132.721 75.3772 134.124 79.157 134.124 84.0342Z" stroke="#105FB0" stroke-width="2" mask="url(#path-1-outside-1_267_15)"/>
<path d="M214.552 94.2763H192.587V2.82896H254.088V22.9474H214.552V94.2763Z" stroke="#105FB0" stroke-width="2" mask="url(#path-1-outside-1_267_15)"/>
<path d="M292.485 140H270.521V2.82896H292.485V14.3513C295.902 10.0838 299.929 6.79166 304.565 4.475C309.324 2.15833 314.449 1 319.941 1C328.36 1 335.865 3.01185 342.454 7.03554C349.043 11.0592 354.229 16.668 358.012 23.8619C361.917 30.9338 363.869 39.164 363.869 48.5526C363.869 57.8193 361.917 66.0496 358.012 73.2434C354.229 80.4373 349.043 86.0461 342.454 90.0697C335.865 94.0934 328.36 96.1053 319.941 96.1053C314.449 96.1053 309.324 94.9469 304.565 92.6303C299.929 90.3136 295.902 87.0215 292.485 82.754V140ZM317.195 75.9868C324.272 75.9868 330.13 73.4873 334.766 68.4882C339.525 63.3671 341.905 56.7219 341.905 48.5526C341.905 40.2614 339.525 33.6162 334.766 28.6171C330.13 23.618 324.272 21.1184 317.195 21.1184C310.118 21.1184 304.199 23.618 299.44 28.6171C294.804 33.6162 292.485 40.2614 292.485 48.5526C292.485 56.7219 294.804 63.3671 299.44 68.4882C304.199 73.4873 310.118 75.9868 317.195 75.9868Z" stroke="#105FB0" stroke-width="2" mask="url(#path-1-outside-1_267_15)"/>
<path d="M467.144 55.8684H398.323C399.543 62.5746 402.228 67.7566 406.376 71.4145C410.647 75.0724 416.199 76.9013 423.033 76.9013C427.914 76.9013 431.818 76.0478 434.747 74.3408C437.676 72.5118 439.872 70.0123 441.336 66.8421H465.131C462.447 76.3526 457.322 83.6075 449.756 88.6066C442.191 93.6057 432.978 96.1053 422.118 96.1053C413.454 96.1053 405.644 94.0934 398.689 90.0697C391.856 86.0461 386.487 80.4373 382.582 73.2434C378.677 66.0496 376.725 57.8193 376.725 48.5526C376.725 39.164 378.677 30.9338 382.582 23.8619C386.487 16.668 391.856 11.0592 398.689 7.03554C405.644 3.01185 413.454 1 422.118 1C430.903 1 438.713 3.01185 445.546 7.03554C452.38 11.0592 457.749 16.668 461.653 23.8619C465.558 30.9338 467.511 39.164 467.511 48.5526C467.511 49.7719 467.45 50.9912 467.327 52.2105C467.327 53.4298 467.267 54.6491 467.144 55.8684ZM422.118 20.204C415.65 20.204 410.403 21.9719 406.376 25.5079C402.35 28.9219 399.726 33.8601 398.506 40.3224H445.729C444.509 33.8601 441.885 28.9219 437.859 25.5079C433.832 21.9719 428.585 20.204 422.118 20.204Z" stroke="#105FB0" stroke-width="2" mask="url(#path-1-outside-1_267_15)"/>
<path d="M508.768 2.82896V74.1579H544.46V2.82896H566.424V74.1579H579.237V118.967H559.103V94.2763H486.804V2.82896H508.768Z" stroke="#105FB0" stroke-width="2" mask="url(#path-1-outside-1_267_15)"/>
<path d="M681.666 94.2763H660.617V26.0566L624.741 94.2763H596.554V2.82896H617.603V71.2316L653.478 2.82896H681.666V94.2763Z" stroke="#105FB0" stroke-width="2" mask="url(#path-1-outside-1_267_15)"/>
<path d="M706.138 31.5434C706.138 24.5934 707.724 19.0456 710.897 14.9C714.192 10.6325 718.463 7.58422 723.71 5.75527C729.079 3.80439 734.814 2.82896 740.915 2.82896H781V94.2763H759.036V54.5882L724.625 94.2763H699.183L730.665 59.5263C726.272 58.6728 722.184 57.0877 718.402 54.7711C714.741 52.3325 711.751 49.2233 709.433 45.4434C707.236 41.5417 706.138 36.9083 706.138 31.5434ZM744.393 44.8947H759.036V19.2895H744.393C739.268 19.2895 735.241 20.3868 732.312 22.5816C729.506 24.7763 728.103 27.8246 728.103 31.7263C728.103 36.2377 729.567 39.5908 732.495 41.7855C735.424 43.8583 739.39 44.8947 744.393 44.8947Z" stroke="#105FB0" stroke-width="2" mask="url(#path-1-outside-1_267_15)"/>
<path d="M777 4H1180" stroke="#105FB0" stroke-width="2"/>
<path d="M778 94H1180" stroke="#105FB0" stroke-width="2"/>
<path d="M974.676 94.3456C974.867 94.8639 975.442 95.1293 975.96 94.9384L984.405 91.8275C984.923 91.6366 985.189 91.0617 984.998 90.5435C984.807 90.0252 984.232 89.7599 983.714 89.9508L976.207 92.716L973.442 85.2091C973.251 84.6908 972.676 84.4255 972.158 84.6164C971.64 84.8073 971.374 85.3821 971.565 85.9004L974.676 94.3456ZM977.099 46.9014L977.473 45.9739L977.099 46.9014ZM974.468 5.63977C974.269 5.12456 973.69 4.86819 973.175 5.06714L964.779 8.30924C964.264 8.50819 964.008 9.08713 964.207 9.60233C964.406 10.1175 964.984 10.3739 965.5 10.175L972.963 7.2931L975.844 14.756C976.043 15.2712 976.622 15.5276 977.138 15.3286C977.653 15.1297 977.909 14.5507 977.71 14.0355L974.468 5.63977ZM976.522 94.4191C978.342 90.4767 980.958 86.2598 983.516 81.8833C986.051 77.5457 988.519 73.0663 989.92 68.7256C991.323 64.3786 991.701 60.0391 989.888 56.0596C988.074 52.0789 984.167 48.6726 977.473 45.9739L976.725 47.8289C983.154 50.4205 986.545 53.5466 988.068 56.8888C989.591 60.2323 989.342 64.0061 988.017 68.1112C986.689 72.2225 984.326 76.534 981.789 80.8741C979.276 85.1755 976.579 89.5233 974.706 93.5809L976.522 94.4191ZM977.473 45.9739C972.75 44.0699 969.937 41.4511 968.382 38.4722C966.818 35.4771 966.466 32.0016 966.885 28.2874C967.731 20.8039 971.65 12.7274 974.45 6.40491L972.621 5.59509C969.885 11.7726 965.787 20.1961 964.898 28.0629C964.451 32.024 964.802 35.9362 966.609 39.3977C968.425 42.8755 971.649 45.7823 976.725 47.8289L977.473 45.9739Z" fill="#105FB0"/>
</svg>
