<svg width="431" height="252" viewBox="0 0 431 252" fill="none" xmlns="http://www.w3.org/2000/svg">
<path fill-rule="evenodd" clip-rule="evenodd" d="M0.0899048 162.494L212.535 88.4554L272.778 117.56L243.673 177.803L31.2281 251.842L0.0899048 162.494ZM3.91008 164.339L33.0737 248.022L241.513 175.379L268.772 118.957L212.349 91.6972L3.91008 164.339ZM219.606 115.191L253.912 124.186L232.151 151.188L219.606 115.191ZM224.292 119.521L233.206 145.098L248.668 125.912L224.292 119.521Z" fill="#105FB0"/>
<path fill-rule="evenodd" clip-rule="evenodd" d="M387.621 59.4904C364.826 69.8635 338.261 68.4936 309.129 47.7214C297.922 39.7303 288.675 38.7905 280.998 42.0877C273.186 45.4433 266.611 53.3418 261.21 63.8841C250.425 84.935 244.822 115.531 242.995 137.127L240.005 136.874C241.845 115.136 247.491 84.082 258.54 62.5162C264.056 51.7501 271.043 43.0986 279.814 39.3312C288.721 35.5054 299.078 36.8698 310.871 45.2787C339.239 65.5065 364.674 66.6367 386.379 56.7598C408.212 46.8246 426.511 25.6409 440.186 0.777344L442.814 2.2231C428.989 27.3595 410.288 49.1758 387.621 59.4904Z" fill="#105FB0"/>
<path fill-rule="evenodd" clip-rule="evenodd" d="M411.521 184.805C404.437 183.502 397.424 179.372 390.846 171.459C382.999 162.018 376.572 159.633 370.889 160.805C364.967 162.027 359.247 167.179 353.079 174.411C350.327 177.638 347.545 181.203 344.655 184.908C344.34 185.312 344.023 185.718 343.705 186.126C340.481 190.253 337.124 194.512 333.573 198.56C326.486 206.637 318.519 214.004 309.07 217.888C293.66 224.221 279.664 217.338 268.693 206.702C257.715 196.059 249.416 181.364 245.116 171.079L247.884 169.922C252.084 179.97 260.185 194.275 270.782 204.548C281.386 214.829 294.14 220.78 307.93 215.113C316.731 211.496 324.326 204.551 331.318 196.581C334.806 192.605 338.116 188.407 341.34 184.279C341.659 183.871 341.976 183.464 342.293 183.058C345.176 179.363 347.999 175.744 350.796 172.464C356.941 165.259 363.251 159.318 370.283 157.867C377.553 156.368 385.001 159.733 393.154 169.541C399.376 177.028 405.804 180.703 412.064 181.855C418.339 183.01 424.634 181.663 430.635 178.762C442.691 172.935 453.231 160.988 459.24 151.687L461.76 153.314C455.602 162.846 444.692 175.299 431.94 181.463C425.537 184.558 418.588 186.106 411.521 184.805Z" fill="#105FB0"/>
</svg>
