<svg width="884" height="213" viewBox="0 0 884 213" fill="none" xmlns="http://www.w3.org/2000/svg">
<path d="M2.75217 52.2818C2.75217 39.7416 5.13732 29.6909 9.90764 22.1299C14.678 14.3844 21.0995 8.75974 29.1724 5.25584C37.4287 1.75195 46.4189 0 56.143 0C66.2341 0 75.316 2.02857 83.3889 6.08572C91.4617 10.1429 97.8833 16.2286 102.654 24.3429C107.607 32.4571 110.084 42.7844 110.084 55.3247V69.1558H77.059V56.1545C77.059 47.3026 75.1325 40.8481 71.2796 36.7909C67.6101 32.5494 62.5646 30.4286 56.143 30.4286C50.0884 30.4286 45.1346 32.3649 41.2816 36.2377C37.6122 39.926 35.7774 45.274 35.7774 52.2818C35.7774 59.1052 37.7039 64.9143 41.5569 69.7091C45.5933 74.3195 50.4553 78.7455 56.143 82.987L80.3615 100.414C89.3518 106.869 96.9659 114.522 103.204 123.374C109.626 132.042 112.836 143.014 112.836 156.292C112.836 168.832 110.268 179.344 105.13 187.827C100.177 196.31 93.3882 202.673 84.7649 206.914C76.3251 210.971 66.8762 213 56.4182 213C46.1437 213 36.6948 210.879 28.0715 206.638C19.4483 202.396 12.568 196.126 7.43075 187.827C2.47696 179.529 6.10352e-05 169.478 6.10352e-05 157.675V141.078H33.0253V155.739C33.0253 164.038 35.1353 170.584 39.3552 175.379C43.7585 180.174 49.4462 182.571 56.4182 182.571C63.5737 182.571 69.2614 180.635 73.4813 176.762C77.7012 172.705 79.8111 167.265 79.8111 160.442C79.8111 152.696 77.7929 146.149 73.7565 140.801C69.7201 135.269 64.5828 130.29 58.3447 125.864L34.9518 108.99C25.9616 102.535 18.3474 94.8818 12.1093 86.0299C5.87122 77.1779 2.75217 65.9286 2.75217 52.2818Z" fill="white"/>
<path d="M183.112 162.931C183.112 176.025 189.992 182.571 203.753 182.571C206.138 182.571 208.615 182.387 211.183 182.018C213.935 181.465 216.504 180.819 218.889 180.082V209.681C216.504 210.418 213.293 211.156 209.257 211.893C205.22 212.631 201.184 213 197.148 213C188.157 213 180.085 211.617 172.929 208.851C165.774 205.9 160.178 201.013 156.141 194.19C152.105 187.182 150.087 177.5 150.087 165.144V100.968H128.07V71.9221H150.087V30.4286H183.112V71.9221H218.889V100.968H183.112V162.931Z" fill="white"/>
<path d="M282.091 71.9221V94.3286C292.365 77.5467 307.777 69.1558 328.326 69.1558C329.611 69.1558 330.895 69.1558 332.179 69.1558C333.463 69.1558 334.473 69.3402 335.207 69.7091V105.947C331.17 104.471 326.4 103.734 320.896 103.734C308.603 103.734 299.062 106.869 292.274 113.139C285.485 119.225 282.091 128.077 282.091 139.695V210.234H249.066V71.9221H282.091Z" fill="white"/>
<path d="M398.075 213C390.186 213 382.663 211.617 375.508 208.851C368.536 206.084 362.848 201.751 358.445 195.849C354.041 189.948 351.84 182.387 351.84 173.166C351.84 163.208 353.95 155.462 358.169 149.93C362.573 144.213 368.169 139.971 374.957 137.205C381.746 134.255 388.901 132.134 396.424 130.843C404.13 129.552 411.377 128.445 418.165 127.523C424.954 126.417 430.458 124.849 434.678 122.821C439.081 120.608 441.283 117.196 441.283 112.586C441.283 107.238 438.806 103.088 433.852 100.138C429.082 97.0026 423.119 95.4351 415.964 95.4351C408.441 95.4351 402.295 97.4636 397.525 101.521C392.754 105.394 390.369 111.203 390.369 118.948H355.968C355.968 106.961 358.812 97.3714 364.499 90.1792C370.187 82.8026 377.618 77.4545 386.791 74.1351C395.965 70.8156 405.689 69.1558 415.964 69.1558C426.055 69.1558 435.504 70.6312 444.31 73.5818C453.301 76.5325 460.548 81.3273 466.052 87.9662C471.556 94.4208 474.308 103.088 474.308 113.969V210.234H441.833V189.764C437.43 197.878 431.375 203.779 423.67 207.468C416.147 211.156 407.616 213 398.075 213ZM385.69 170.953C385.69 175.748 387.525 179.344 391.195 181.742C394.864 184.139 399.451 185.338 404.955 185.338C411.377 185.338 417.34 184.139 422.844 181.742C428.532 179.344 433.118 175.748 436.604 170.953C440.09 166.158 441.833 160.257 441.833 153.249V146.887C436.329 149.284 430.366 151.036 423.945 152.143C417.523 153.249 411.377 154.448 405.506 155.739C399.634 156.845 394.864 158.597 391.195 160.995C387.525 163.208 385.69 166.527 385.69 170.953Z" fill="white"/>
<path d="M551.313 162.931C551.313 176.025 558.194 182.571 571.954 182.571C574.339 182.571 576.816 182.387 579.385 182.018C582.137 181.465 584.706 180.819 587.091 180.082V209.681C584.706 210.418 581.495 211.156 577.458 211.893C573.422 212.631 569.386 213 565.349 213C556.359 213 548.286 211.617 541.131 208.851C533.975 205.9 528.379 201.013 524.343 194.19C520.306 187.182 518.288 177.5 518.288 165.144V100.968H496.271V71.9221H518.288V30.4286H551.313V71.9221H587.091V100.968H551.313V162.931Z" fill="white"/>
<path d="M676.47 213C663.076 213 651.059 209.957 640.417 203.871C629.959 197.786 621.611 189.303 615.373 178.422C609.318 167.542 606.291 155.094 606.291 141.078C606.291 126.878 609.318 114.43 615.373 103.734C621.611 92.8532 629.959 84.3701 640.417 78.2844C651.059 72.1987 663.076 69.1558 676.47 69.1558C689.863 69.1558 701.789 72.1987 712.247 78.2844C722.889 84.3701 731.237 92.8532 737.291 103.734C743.529 114.43 746.648 126.878 746.648 141.078C746.648 155.094 743.529 167.542 737.291 178.422C731.237 189.303 722.889 197.786 712.247 203.871C701.789 209.957 689.863 213 676.47 213ZM676.47 182.571C687.111 182.571 695.918 178.791 702.89 171.23C710.045 163.484 713.623 153.434 713.623 141.078C713.623 128.538 710.045 118.487 702.89 110.926C695.918 103.365 687.111 99.5844 676.47 99.5844C665.828 99.5844 656.93 103.365 649.774 110.926C642.802 118.487 639.316 128.538 639.316 141.078C639.316 153.434 642.802 163.484 649.774 171.23C656.93 178.791 665.828 182.571 676.47 182.571Z" fill="white"/>
<path d="M884 170.4C884 179.068 881.523 186.629 876.569 193.083C871.799 199.538 865.194 204.517 856.754 208.021C848.314 211.34 838.682 213 827.857 213C816.482 213 806.207 211.156 797.034 207.468C787.86 203.595 780.613 198.062 775.292 190.87C769.971 183.493 767.311 174.734 767.311 164.591H801.712C801.712 171.968 804.189 177.592 809.143 181.465C814.28 185.153 820.518 186.997 827.857 186.997C834.829 186.997 840.242 185.799 844.094 183.401C847.947 180.819 849.874 176.947 849.874 171.783C849.874 166.804 847.947 163.208 844.094 160.995C840.242 158.597 835.288 156.753 829.233 155.462C823.178 154.171 816.665 152.88 809.693 151.59C802.905 150.114 796.483 147.994 790.428 145.227C784.374 142.461 779.42 138.404 775.567 133.056C771.714 127.708 769.788 120.331 769.788 110.926C769.788 102.258 772.173 94.8818 776.943 88.7961C781.713 82.526 788.135 77.7312 796.208 74.4117C804.464 70.9078 813.638 69.1558 823.729 69.1558C834.737 69.1558 844.553 71.2766 853.176 75.5182C861.983 79.5753 868.863 85.1078 873.817 92.1156C878.955 99.1234 881.523 107.053 881.523 115.905H847.122C847.122 110.004 844.92 105.117 840.517 101.244C836.113 97.3714 830.517 95.4351 823.729 95.4351C817.491 95.4351 812.445 96.726 808.592 99.3078C804.923 101.705 803.088 105.117 803.088 109.543C803.088 113.969 805.015 117.288 808.868 119.501C812.72 121.714 817.674 123.466 823.729 124.757C829.967 125.864 836.572 127.155 843.544 128.63C850.516 130.105 857.029 132.318 863.084 135.269C869.322 138.035 874.368 142.184 878.221 147.717C882.074 153.249 884 160.81 884 170.4Z" fill="white"/>
</svg>
